<?xml version="1.0" encoding="utf-8"?><!DOCTYPE svg PUBLIC "-//W3C//DTD SVG 1.1//EN" "http://www.w3.org/Graphics/SVG/1.1/DTD/svg11.dtd">
<svg id="root" xmlns="http://www.w3.org/2000/svg" viewBox="0 0 300.2 265.2" fill="#B7B1A5">
<path d="M102.5,72.4c3.1-2.4,5.6-5.3,7.4-8.7c5-9.6,12.9-10.3,26.3-10.7c15.9-0.5,29.6-0.5,45.6,0.1
	c7,0.3,14.6,3.3,17.1,6.8c1.3,1.8,2.4,3.8,3.6,6c0.4,0.6,0.7,1.3,1.1,1.9c7.1,12.2,21.1,12.1,35.9,11.9c4.1-0.1,8.4-0.1,12.7,0.1
	c7.2,0.3,12.3,2.2,15.1,5.5c3.1,3.7,2.5,8.2,2.4,8.3l-0.1,0.5v102.3c0,5.2-1.4,9-4.2,11.7c-1.6,1.5-3.4,2.5-5.2,3.1l9.1,8
	c1.3-0.8,2.6-1.8,3.8-2.9c5.1-4.8,7.7-11.5,7.7-19.9V94.9c0.3-2.2,0.7-9.8-4.8-16.6c-4.9-6-12.7-9.3-23.3-9.8
	c-4.6-0.2-9.1-0.2-13.4-0.1c-14.2,0.2-22.4,0-26-6.3c-0.3-0.6-0.7-1.2-1-1.8c-1.3-2.3-2.6-4.6-4.2-6.9c-5.3-7.5-17.1-11.2-25.8-11.5
	c-16.3-0.6-30.2-0.6-46.4-0.1c-12.9,0.4-27.6,0.9-35.9,16.7c-1.5,2.8-3.6,4.8-6.1,6.2L102.5,72.4z"/>
<path d="M298.3,255.4L261,222.6c0,0,0.1,0,0.1,0l-11.5-10.1h-0.1L200,169c0,0,0-0.1,0.1-0.1l-8.5-7.5
	c0,0-0.1,0.1-0.1,0.1l-59.6-52.4c0,0,0.1-0.1,0.1-0.1l-8.5-7.5c0,0-0.1,0.1-0.1,0.1L95,76.7c0.1,0,0.1-0.1,0.2-0.1l-9.9-8.7
	c-0.1,0-0.2,0-0.3,0.1L9.3,1.4C7-0.7,3.4-0.4,1.4,1.9c-2,2.3-1.8,5.9,0.5,7.9l66.8,58.7H58.4c-2.3-0.3-11.1-0.9-17.8,4.3
	c-4,3.1-6.5,7.8-7.1,13.6l0,114.3l0.1,0.5c1.4,7.8,8.3,22.6,24.8,22.6h186.8l45.6,40.1c1.1,0.9,2.4,1.4,3.7,1.4
	c1.6,0,3.1-0.6,4.2-1.9C300.9,261,300.6,257.4,298.3,255.4z M124.5,117.6l59.5,52.3c-7,5.9-16,9.4-25.8,9.4
	c-22.1,0-40.1-18-40.1-40.1C118.2,131.3,120.5,123.9,124.5,117.6z M58.4,212.5c-10.2,0-13.1-10.4-13.7-12.9V87.3
	c0.3-2.5,1.2-4.3,2.7-5.6c3-2.4,8-2.3,9.7-2l0.4,0.1h20.1c1.2,0,2.4-0.1,3.6-0.1l34.7,30.5c-5.7,8.3-9.1,18.3-9.1,29.1
	c0,28.3,23,51.3,51.3,51.3c13.2,0,25.2-5,34.3-13.2l40,35.1H58.4z"/>
<path d="M204.2,161.9c3.4-6.8,5.3-14.5,5.3-22.6c0-28.3-23-51.3-51.3-51.3c-10.5,0-20.2,3.2-28.3,8.6l8.8,7.8
	c5.8-3.2,12.4-5.1,19.5-5.1c22.1,0,40.1,18,40.1,40.1c0,5.3-1,10.3-2.9,14.9L204.2,161.9z"/>
</svg>
