<svg id="Layer_1" xmlns="http://www.w3.org/2000/svg" viewBox="0 0 16 16"><defs><style>.cls-1{fill:currentColor;}</style></defs><path class="cls-1" d="M8,14.38a.42.42,0,0,1-.26-.1l-4.7-4H.52a.4.4,0,0,1-.4-.4V6.34A.39.39,0,0,1,.52,6H3l4.74-3.9a.38.38,0,0,1,.42,0,.41.41,0,0,1,.23.36V14a.4.4,0,0,1-.24.36A.47.47,0,0,1,8,14.38Zm-7-4.94H3.15a.35.35,0,0,1,.25.1l4.16,3.57V3.2L3.37,6.65a.43.43,0,0,1-.26.09H.92Z"/><path class="cls-1" d="M10.65,12.36a.4.4,0,0,1-.33-.17.41.41,0,0,1,.11-.56,4.2,4.2,0,0,0,1.76-3.51,4.22,4.22,0,0,0-1.81-3.54A.41.41,0,0,1,10.27,4a.4.4,0,0,1,.55-.11A5,5,0,0,1,13,8.12a5,5,0,0,1-2.11,4.17A.39.39,0,0,1,10.65,12.36Z"/><path class="cls-1" d="M12.35,14.89a.39.39,0,0,1-.32-.16.4.4,0,0,1,.07-.56,7.57,7.57,0,0,0,0-12.07.4.4,0,0,1,.48-.64,8.38,8.38,0,0,1,.05,13.35A.46.46,0,0,1,12.35,14.89Z"/></svg>