<svg xmlns="http://www.w3.org/2000/svg" width="300" height="77" viewBox="0 0 300 77">
    <path class="patron_text" d="M189.5,57.9v-4h-0.9c-0.1,0.7-0.1,1-0.7,1c-0.3,0-0.5-0.1-0.7-0.2c-0.8-0.4-1.6-0.6-2.5-0.6 c-3,0-4.2,2.1-4.2,4.2c0,3,2.2,3.8,4.3,4.4c1.3,0.4,3.6,0.7,3.6,2.3c0,1-1,2-2.7,2c-1.1,0-2.1-0.4-2.9-1.1c-1.1-1-1.3-2.1-1.5-3.1 h-0.9v4.7h0.9c0-0.2-0.1-0.8,0.5-0.8c0.2,0,0.5,0.2,1,0.5c0.8,0.5,1.8,0.7,2.8,0.7c3.4,0,4.9-2.6,4.9-4.7c0-2.9-2.4-3.5-3.9-4 l-0.9-0.2c-0.9-0.2-1.9-0.6-2.2-0.8c-0.4-0.3-0.6-0.8-0.6-1.3c0-1,0.9-1.8,2.2-1.8c0.8,0,1.6,0.3,2.3,0.7c0.9,0.7,1.1,1.4,1.3,2.2 L189.5,57.9z M170.3,57.5c0.1-1.2,0.3-2.7,2.5-2.7c2.1,0,2.1,1.5,2.2,2.6v1.8h-4.8L170.3,57.5z M179.3,60.1 c-0.2-1.4-0.4-2.8-1.7-4.1c-1.2-1.3-2.9-2-4.7-1.9c-4.1,0-7,2.9-7,6.8c0,3.8,2.7,6.9,7.2,6.9c3.8,0,5.3-2.6,6-3.9l-0.8-0.4 c-0.8,1.2-2.1,3.4-4.8,3.4c-3.2,0-3.2-3.1-3.3-4.3c0-0.8,0-1.6,0-2.5L179.3,60.1z M158.9,48.7c0,1.3,1,2.3,2.2,2.3 c1.3,0,2.3-1,2.3-2.2c0-1.3-1-2.3-2.2-2.3c0,0,0,0,0,0C159.9,46.5,158.9,47.5,158.9,48.7C158.9,48.7,158.9,48.7,158.9,48.7 M157.5,55.3h2.1v11.4h-2.1v0.8h8.1v-0.8h-2V54.2c-1.5,0.1-2.3,0.2-3.1,0.2c-0.8,0.1-1.6,0.1-3,0.1L157.5,55.3z M152.6,60.7 c0.1,3.8-0.3,6.1-2.5,6.1c-1.2,0-2.4-1-3-2.2s-0.7-2.4-0.7-3.6c0-3.5,1.2-4.6,1.9-5.2c0.5-0.4,1-0.6,1.6-0.6c1.5,0,2,1.3,2.2,2.1 C152.5,58.4,152.6,59.5,152.6,60.7 M146.8,54.2c-2,0.3-2.3,0.3-6.1,0.3v0.8h2.1v20.4h-2.1v0.9h8.6v-0.9h-2.6V65.6 c0.9,1,2,2.2,4.3,2.2c1.8,0,3.5-0.9,4.6-2.4c0.9-1.2,1.4-2.7,1.4-4.3c0-5.1-3.5-7.1-6.2-7.1c-2.2,0-3.2,1.2-4.1,2.3L146.8,54.2z M136.4,60.7c0,3,0,6.5-3.1,6.5c-1.1,0-2.1-0.6-2.6-1.6c-0.3-0.4-0.6-1.1-0.6-4.8c0-2.7,0.1-6,3.2-6c1.2-0.1,2.3,0.6,2.7,1.7 C136.2,57,136.4,57.4,136.4,60.7 M140.7,60.7c-0.3-4.9-4.5-6.6-7.4-6.6c-3.2,0-7.6,2-7.6,6.8c0,3.5,2.6,6.9,7.7,6.9 c4.6,0,6.5-3,6.9-4.2C140.6,62.6,140.7,61.6,140.7,60.7 M118.9,54.2c-2.1,0.2-4.1,0.3-6.2,0.3v0.8h2.1v11.4h-2.1v0.8h8.7v-0.8h-2.6 v-5.9c0-1.2,0.2-2.9,1.3-4.3c0,0,1-1.3,1.4-1.3c0.2,0,0.4,0.2,0.4,0.3c0,0.1-0.1,0.2-0.2,0.3c-0.3,0.3-0.4,0.7-0.4,1.1 c0,0.9,0.7,1.8,2,1.8c1.6,0,2.1-1.2,2.1-2.1c0-1.2-0.8-2.6-2.8-2.6c-1.1,0-2.2,0.5-2.9,1.4c-0.4,0.4-0.7,0.9-1,1.4L118.9,54.2z M101.6,45.3c-0.5,0.1-1.2,0.2-2.9,0.2c-1.3,0.1-2.4,0.1-3.2,0.1v0.8h2.3v20.2h-2.3v0.8h8v-0.8h-1.9V61c0-1.8,0.1-3.8,1.9-5 c0.5-0.4,1.2-0.6,1.8-0.6c1.7,0,1.9,1.4,1.9,3v8.2h-1.7v0.8h7.8v-0.8h-2.1v-8.3c0-1,0-2.1-0.9-3.1c-0.4-0.5-1.4-1.1-3.3-1.1 c-3,0-4.5,1.8-5.2,2.6L101.6,45.3z M92.2,49.2h-0.8c-1.8,3.9-3.8,4.9-5.2,5.5v0.5h2.3l-0.1,8.9c0,1.4,0,3.7,3.2,3.7 c3.3,0,4-2.2,4.5-3.7l-0.9-0.2c-0.4,1.2-0.9,2.3-1.8,2.3c-1.1,0-1.1-1.1-1.1-1.9v-9H95v-0.8h-2.8L92.2,49.2z M75.5,54.2 c-2.3,0.1-4.2,0.3-6.1,0.3v0.8h2.1v11.4h-2.1v0.8h8.1v-0.8h-2v-5.8c0-1.4,0-2,0.1-2.5c0.4-1.8,2.2-2.8,3.3-2.8 c1.9,0,1.9,1.7,1.9,3.4v7.7h-1.8v0.8h7.8v-0.8h-2.1v-8.3c0-1.4,0-3.3-2.6-4c-1.4-0.4-2.9-0.3-4.2,0.2c-1.3,0.5-1.8,1.1-2.5,1.9 L75.5,54.2z M63.2,63c0,0.8,0,1.8-0.9,2.5C62,65.8,61.5,66,61,66c-1.1,0-2.1-0.8-2.1-2.4c0-2.8,2.7-2.9,4.4-3L63.2,63z M67,58.2 c0-1.1,0-2.6-2.1-3.5c-1-0.4-2.1-0.6-3.2-0.6c-3.1,0-5.5,1.4-5.5,3.4c0,0.9,0.7,1.7,1.6,1.7c0,0,0.1,0,0.1,0c1,0,1.8-0.7,1.8-1.7 c0,0,0,0,0-0.1c0-0.2-0.1-0.4-0.2-0.6c-0.1-0.2-0.3-0.4-0.4-0.7c-0.1-0.1-0.1-0.2-0.1-0.3c0-0.3,0.5-0.9,1.9-0.9 c2.1,0,2.2,1.1,2.2,2.4v2.5c-2,0.2-4.5,0.4-6.3,1.7c-1.4,1-1.8,2.3-1.8,3.3c0,1,0.5,3.1,3.7,3.1c2.5,0,3.8-1.4,4.4-2.1 c0.4,0.8,1.1,2.1,2.9,2.1c1.5,0,2.5-1,3.1-1.6l-0.5-0.7c-0.3,0.2-0.6,0.5-0.9,0.5C67,66,67,65.1,67,64.4V58.2z M52.2,45.3 c-1.1,0.2-2.3,0.3-3.4,0.3c-1.1,0-2.2,0-2.8,0v0.9h2.2v20.1H46v0.8h8.3v-0.8h-2.1L52.2,45.3z M38.8,48.7c0,1.3,1,2.3,2.2,2.3 c1.3,0,2.3-1,2.3-2.2c0-1.3-1-2.3-2.2-2.3c0,0,0,0,0,0C39.8,46.5,38.8,47.5,38.8,48.7C38.8,48.7,38.8,48.7,38.8,48.7 M37.4,55.3h2.1 v11.4h-2.1v0.8h8.1v-0.8h-2V54.2c-1.5,0.1-2.3,0.2-3.1,0.2s-1.6,0.1-3,0.1L37.4,55.3z M25.3,45.3c-0.5,0.1-1.2,0.2-2.9,0.2 c-1.3,0.1-2.4,0.1-3.2,0.1v0.8h2.3v20.2h-2.3v0.8h8v-0.8h-1.9V61c0-1.8,0.1-3.8,1.9-5c0.5-0.4,1.2-0.6,1.8-0.6c1.7,0,1.9,1.4,1.9,3 v8.2h-1.7v0.8h7.7v-0.8h-2.1v-8.3c0-1,0-2.1-0.9-3.1c-0.4-0.5-1.4-1.1-3.3-1.1c-3,0-4.5,1.8-5.2,2.6L25.3,45.3z M7.4,46.3h2.8 c1,0,2.4,0.1,3.3,1.3c0.6,0.8,0.8,2.1,0.8,3.8c0,2.7-0.8,3.8-1.3,4.1c-0.9,0.7-2.2,0.8-2.7,0.8H7.4V46.3z M7.4,57.2h4.3 c1.7,0,3.8-0.2,5.4-1.3c1.4-1,2.2-2.7,2.2-4.4c0-1.8-0.8-3.5-2.2-4.6c-1.7-1.2-3.8-1.3-5.5-1.3H0v0.8h2.7v20.3H0v0.8h10.3v-0.8h-3 L7.4,57.2z"></path>
    <path class="patron_text" d="M139.9,42.9c0.7,0,2.2,0,2.2,1.7c0,1.9-2.2,3.6-6,3.6c-3.5,0-4.7-1.8-4.7-3.2c0-1,0.5-1.6,1.1-2.1L139.9,42.9z M134.2,31.7c0-2.2,0-4.1,2.1-4.1c0.7,0,1.4,0.4,1.8,1c0.3,0.7,0.3,1.4,0.3,3.2c0,2.2,0,4-2.1,4C134.3,35.9,134.2,34.2,134.2,31.7 M132.9,39.1c-1,0-2,0-2-1s1.2-1.6,2.2-2c1,0.5,2.1,0.7,3.2,0.7c3.2,0,5.9-1.7,5.9-5c0-0.8-0.2-1.6-0.7-2.3c0.1-0.4,0.2-0.6,0.3-0.6 c0.2,0,0.2,0,0.4,0.3c0.2,0.3,0.6,0.4,0.9,0.4c0.7,0,1.3-0.5,1.4-1.3c0,0,0-0.1,0-0.1c0-0.8-0.6-1.4-1.4-1.4c0,0-0.1,0-0.1,0 c-0.5,0-0.9,0.2-1.3,0.4c-0.6,0.4-0.8,1-0.9,1.5c-0.9-0.7-2.1-1.8-4.5-1.8c-2.9,0-6.1,1.6-6.1,5c0,2.1,1.3,3.1,2.1,3.8 c-0.8,0.2-3.2,1.1-3.2,3.9c0,0.8,0.3,1.6,0.9,2.1c0.4,0.5,1.1,0.8,1.7,0.9c-0.9,0.3-2.6,0.9-2.6,2.6c0,1.9,2.3,3.9,6.9,3.9 c4.3,0,7.5-2.1,7.5-5.9c0-0.9-0.2-1.9-0.8-2.6c-1.1-1.6-2.3-1.6-4.6-1.6L132.9,39.1z M122.9,27c-2.1,0.2-4.1,0.3-6.2,0.3v0.8h2.1 v11.4h-2.1v0.8h8.7v-0.8h-2.6v-5.9c0-1.2,0.2-2.9,1.3-4.3c0,0,1-1.3,1.4-1.3c0.2,0,0.4,0.2,0.4,0.3c0,0.1-0.1,0.2-0.2,0.3 c-0.3,0.3-0.4,0.7-0.4,1.1c0,0.9,0.7,1.8,2,1.8c1.6,0,2.1-1.2,2.1-2.1c0-1.2-0.8-2.6-2.8-2.6c-1.1,0-2.2,0.5-2.9,1.4 c-0.4,0.4-0.7,0.9-1,1.4L122.9,27z M107.5,30.4c0.1-1.2,0.3-2.7,2.5-2.7c2,0,2.1,1.5,2.2,2.6V32h-4.8L107.5,30.4z M116.5,32.9 c-0.2-1.4-0.4-2.8-1.7-4.1c-1.2-1.3-2.9-2-4.7-1.9c-4.1,0-7,3-7,6.8c0,3.8,2.7,6.9,7.2,6.9c3.8,0,5.3-2.6,6-3.9l-0.8-0.4 c-0.8,1.2-2.1,3.4-4.8,3.4c-3.2,0-3.2-3.1-3.3-4.3c0-0.8,0-1.6,0-2.5L116.5,32.9z M97.6,33.5c0,3.4-0.1,6.2-2.6,6.2 c-1.3,0-2.5-0.7-3.1-1.8c-0.8-1.2-0.9-2.9-0.9-4c0-0.8,0.1-2.5,0.8-3.8c0.7-1.2,2-2.1,3.2-2.1c2,0,2.3,1.8,2.4,2.4 C97.5,31.3,97.6,32.4,97.6,33.5 M91,18.1c-1.1,0.2-2.3,0.3-3.4,0.3h-2.7v0.9h2.2v20.1h-2.2v0.8H91v-2c0.8,1,2.1,2.3,4.6,2.3 c1.8,0,3.4-0.5,4.8-2.3c1-1.2,1.5-2.8,1.5-4.4c0-5-3.5-7-6.3-7c-2.4,0-3.6,1.2-4.5,2.3V18.1z M65.7,27c-1.8,0.2-2.4,0.3-6,0.3v0.8 h2.1v11.4h-2.1v0.8h8v-0.8h-2v-6.6c0.1-1.5,0.2-2.5,0.9-3.4c0.6-0.7,1.4-1.1,2.3-1.1c1.7,0,1.9,1.5,1.9,3.2v7.9h-1.7v0.8h7.4v-0.8 h-1.9v-6.1c0-1.6,0.1-3,1.2-4.2c0.6-0.6,1.3-0.9,2.1-0.9c1.8,0,1.8,1.5,1.8,3.1v8H78v0.8h7.6v-0.8h-2v-8.1c-0.1-1.7-0.1-4.4-4.3-4.4 c-3.1,0-4.3,1.9-4.7,2.7c-0.7-1.3-1.5-2.7-4.4-2.7c-2.5,0-3.6,1.3-4.5,2.4L65.7,27z M55.1,33.5c0,3,0,6.5-3.1,6.5 c-1.1,0-2.1-0.6-2.6-1.6c-0.3-0.4-0.6-1.1-0.6-4.8c0-2.7,0.1-6,3.2-6c1.2-0.1,2.3,0.6,2.7,1.7C54.9,29.8,55.1,30.2,55.1,33.5 M59.4,33.5c-0.3-4.9-4.5-6.6-7.4-6.6c-3.2,0-7.6,2-7.6,6.8c0,3.5,2.6,6.9,7.7,6.9c4.6,0,6.5-3,6.9-4.2 C59.4,35.4,59.5,34.5,59.4,33.5 M39,33.5c0,3,0,6.5-3.1,6.5c-1.1,0-2.1-0.6-2.6-1.6c-0.3-0.4-0.6-1.1-0.6-4.8c0-2.7,0.1-6,3.2-6 c1.2-0.1,2.3,0.6,2.7,1.7C38.8,29.8,39,30.2,39,33.5 M43.3,33.5c-0.3-4.9-4.5-6.6-7.4-6.6c-3.2,0-7.6,2-7.6,6.8 c0,3.5,2.6,6.9,7.7,6.9c4.6,0,6.5-3,6.9-4.2C43.3,35.4,43.4,34.5,43.3,33.5 M25.9,18.1c-1.1,0.2-2.3,0.3-3.4,0.3c-1.1,0-2.2,0-2.8,0 v0.9H22v20.1h-2.2v0.8H28v-0.8h-2.1V18.1z M7.4,19.2h2.5c2.6,0,3.9,0.6,3.9,4.7c0,3.6-1.3,4.5-3.8,4.5H7.4L7.4,19.2z M7.4,29.3h2.9 c0.9,0,2.2,0.1,3.2,1.2c0.8,0.9,0.9,2.4,0.9,3.9c0,1.3-0.1,2.6-0.7,3.5c-0.9,1.4-2.1,1.5-3.2,1.5H7.4L7.4,29.3z M0.1,18.3v0.8h2.7 v20.3H0.1v0.8h9.8c3.3,0,7.3,0,9-3.2c0.4-0.8,0.6-1.7,0.6-2.6c0-3.2-2.3-4.7-4.5-5.3c-0.8-0.2-1.6-0.3-2.4-0.4 c0.7-0.1,1.4-0.2,2.1-0.4c2.2-0.7,3.7-2.2,3.7-4.6c0-1.6-0.6-3.2-2.6-4.4c-1.7-1-3.8-1-5.6-1.1L0.1,18.3z"></path>
    <path class="patron_text" d="M4.5,7.1H2.2c0.1-0.5,0.1-1.7,0.1-2.4V2.6c0-0.6,0-1.9-0.1-2.4c0.4,0,1.1,0,2,0c2.5,0,3.8,1.4,3.8,3.3 C8.1,5.6,6.6,7.1,4.5,7.1z M4.3,1.2c-0.3,0-0.5,0-0.7,0c0,0.2,0,0.4,0,0.6v3.8c0,0.2,0,0.3,0,0.5c0.3,0,0.5,0.1,0.8,0 c1.8,0,2.5-1.1,2.5-2.5C6.8,2.1,5.9,1.2,4.3,1.2z"></path>
    <path class="patron_text" d="M9.8,1.6c-0.4,0-0.7-0.3-0.7-0.7c0,0,0,0,0,0c0-0.4,0.3-0.7,0.7-0.7c0,0,0,0,0,0c0.4,0,0.7,0.3,0.7,0.7 c0,0,0,0,0,0C10.5,1.2,10.2,1.6,9.8,1.6C9.8,1.6,9.8,1.6,9.8,1.6z M9.1,7.1c0.1-0.5,0.1-1.1,0.1-1.6V4.2c0-0.6,0-1.2-0.1-1.7 c0.4,0,1,0,1.3-0.1c0,0.3,0,0.7,0,1v2.7c0,0.3,0,0.6,0,1L9.1,7.1z"></path>
    <path class="patron_text" d="M13.4,5.8c-0.2,0-0.4,0-0.6-0.1c-0.2,0.1-0.3,0.3-0.3,0.4c0,0.2,0.2,0.3,1.1,0.3h0.2c1.3,0,2.1,0.3,2.1,1.2 c0,1-1.1,1.8-2.6,1.8c-1.3,0-2-0.5-2-1.2c0-0.5,0.4-0.9,1-1.1c-0.3-0.1-0.5-0.4-0.6-0.7c0-0.4,0.3-0.6,0.7-0.9 c-0.4-0.3-0.7-0.8-0.7-1.3c0-1,0.9-1.8,2-1.8c0.3,0,0.5,0,0.8,0.1c0.1-0.7,0.6-1,1.4-0.9l-0.1,0.9c-0.5-0.1-0.7,0-0.8,0.3 c0.4,0.3,0.6,0.7,0.6,1.2C15.4,5.1,14.6,5.8,13.4,5.8z M12.8,7.3c-0.5,0.2-0.7,0.5-0.7,0.7c0,0.3,0.3,0.6,1.1,0.6 c0.9,0,1.5-0.4,1.5-0.8c0-0.3-0.4-0.5-1.1-0.5h-0.2C13.2,7.3,13,7.3,12.8,7.3L12.8,7.3z M13.5,3.2c-0.5,0-0.9,0.4-0.9,0.9 c0,0,0,0,0,0C12.6,4.7,13,5,13.5,5c0.5,0,0.9-0.4,0.9-0.8c0,0,0,0,0-0.1C14.4,3.6,14,3.2,13.5,3.2z"></path>
    <path class="patron_text" d="M17.1,1.6c-0.4,0-0.7-0.3-0.7-0.7c0,0,0,0,0,0c0-0.4,0.3-0.7,0.7-0.7c0,0,0,0,0,0c0.4,0,0.7,0.3,0.7,0.7 c0,0,0,0,0,0C17.9,1.2,17.6,1.6,17.1,1.6C17.1,1.6,17.1,1.6,17.1,1.6z M16.4,7.1c0.1-0.5,0.1-1.1,0.1-1.6V4.2c0-0.6,0-1.1-0.1-1.7 c0.4,0,1,0,1.3-0.1c0,0.3,0,0.7,0,1v2.7c0,0.3,0,0.6,0,1L16.4,7.1z"></path>
    <path class="patron_text" d="M21.7,7c-0.3,0.2-0.6,0.3-1,0.3c-0.9,0-1.4-0.5-1.4-1.5V3.4h-0.8l0.2-0.9h0.6l0.1-1l1.1-0.3v1.3h1.2 c0,0.2,0,0.6,0,0.9h-1.2v2.3c0,0.5,0.2,0.6,0.5,0.6c0.3,0,0.5-0.1,0.7-0.2L21.7,7z"></path>
    <path class="patron_text" d="M22.3,5.9c0-0.9,0.8-1.6,2.4-1.6c0.1,0,0.3,0,0.4,0V4.3c0-0.6-0.2-0.9-0.9-0.9c-0.5,0-0.9,0.2-1.3,0.4l-0.2-0.9 c0.5-0.3,1.1-0.5,1.8-0.5c1.3,0,1.8,0.7,1.8,1.8l0,1.8c0,0.3,0.1,0.4,0.3,0.4c0.1,0,0.2,0,0.4-0.1l-0.1,0.7 c-0.2,0.1-0.4,0.1-0.7,0.1c-0.5,0-0.8-0.3-0.9-0.8c-0.3,0.5-0.9,0.8-1.4,0.8C22.8,7.3,22.3,6.7,22.3,5.9z M25,5.5L25,5 c-0.1,0-0.2,0-0.4,0c-1,0-1.3,0.4-1.3,0.8c0,0.3,0.2,0.6,0.6,0.6c0,0,0.1,0,0.1,0C24.6,6.5,25,6,25,5.5C25,5.5,25,5.5,25,5.5z"></path>
    <path class="patron_text" d="M27.5,7.1c0.1-0.5,0.1-1.1,0.1-1.6V1.8c0-0.5,0-1.1-0.1-1.6c0.4,0,1-0.1,1.3-0.1c0,0.3,0,0.9,0,1.2v5 c0,0.3,0,0.6,0,1L27.5,7.1z"></path>
    <path class="patron_text" d="M36.6,7.2c-0.6,0-1.4,0-2.1,0s-1.5,0-2.2,0c0-0.5,0.1-1.8,0.1-2.4V2.6c0-0.6,0-2-0.1-2.4c0.6,0,1.3,0,2.1,0 c0.8,0,1.4,0,2,0c0,0.4-0.1,0.7-0.1,1.1c-0.6,0-1.1,0-1.8,0c-0.3,0-0.6,0-0.9,0c0,0.2,0,0.4,0,0.5V3L36,3c0,0.3,0,0.6,0,1l-2.3,0 v1.6c0,0.1,0,0.4,0,0.6h0.9c0.8,0,1.4,0,2.1,0C36.6,6.4,36.6,6.8,36.6,7.2z"></path>
    <path class="patron_text" d="M40.6,7.1c0-0.4,0.1-1.1,0.1-1.7V4.3c0-0.6-0.2-1-0.7-1c-0.6,0-1.1,0.5-1.2,1.1v1.6c0,0.3,0,0.8,0,1h-1.3 c0-0.4,0.1-1.1,0.1-1.7V4.2c0-0.6,0-1.2-0.1-1.6c0.3,0,0.9-0.1,1.1-0.1l0.1,0.9c0.3-0.6,1-1,1.6-1c1,0,1.4,0.6,1.4,1.6v2.1 c0,0.3,0,0.8,0,1L40.6,7.1z"></path>
    <path class="patron_text" d="M44.9,5.8c-0.2,0-0.4,0-0.6-0.1C44,5.9,43.9,6,43.9,6.1c0,0.2,0.2,0.3,1.1,0.3h0.2c1.3,0,2.1,0.3,2.1,1.2 c0,1-1.1,1.8-2.6,1.8c-1.3,0-2-0.5-2-1.2c0-0.5,0.4-0.9,1-1.1C43.3,7,43,6.7,43,6.4c0-0.4,0.3-0.6,0.7-0.9C43.3,5.2,43,4.7,43,4.2 c0-1,0.9-1.8,2-1.8c0.3,0,0.5,0,0.8,0.1c0.1-0.7,0.6-1,1.4-0.9l0,0.9c-0.5-0.1-0.7,0-0.8,0.3c0.4,0.3,0.6,0.7,0.6,1.2 C46.9,5.1,46,5.8,44.9,5.8z M44.3,7.3c-0.5,0.2-0.7,0.5-0.7,0.7c0,0.3,0.3,0.6,1.1,0.6c0.9,0,1.5-0.4,1.5-0.8c0-0.3-0.4-0.5-1.1-0.5 h-0.2C44.7,7.3,44.5,7.3,44.3,7.3L44.3,7.3z M45,3.2c-0.5,0-0.9,0.4-0.9,0.9c0,0,0,0,0,0c0,0.6,0.4,0.9,0.9,0.9 c0.5,0,0.9-0.4,0.9-0.8c0,0,0,0,0-0.1C45.8,3.6,45.5,3.2,45,3.2z"></path>
    <path class="patron_text" d="M47.6,5.9c0-0.9,0.8-1.6,2.4-1.6c0.1,0,0.3,0,0.4,0V4.3c0-0.6-0.2-0.9-0.9-0.9c-0.5,0-0.9,0.2-1.3,0.4L48,2.9 c0.5-0.3,1.1-0.5,1.8-0.5c1.3,0,1.8,0.7,1.8,1.8l0,1.8c0,0.3,0.1,0.4,0.3,0.4c0.1,0,0.2,0,0.4-0.1L52,7.1c-0.2,0.1-0.4,0.1-0.7,0.1 c-0.5,0-0.8-0.3-0.9-0.8C50.2,7,49.6,7.3,49,7.3C48.2,7.3,47.6,6.7,47.6,5.9z M50.4,5.5l0-0.4c-0.1,0-0.2,0-0.4,0 c-1,0-1.3,0.4-1.3,0.8c0,0.3,0.2,0.6,0.6,0.6c0,0,0.1,0,0.1,0C49.9,6.5,50.4,6,50.4,5.5C50.4,5.5,50.4,5.5,50.4,5.5z"></path>
    <path class="patron_text" d="M54.7,5.8c-0.2,0-0.4,0-0.6-0.1c-0.2,0.1-0.3,0.3-0.3,0.4c0,0.2,0.2,0.3,1.1,0.3H55c1.3,0,2.1,0.3,2.1,1.2 c0,1-1.1,1.8-2.6,1.8c-1.3,0-2-0.5-2-1.2c0-0.5,0.4-0.9,1-1.1C53,7,52.8,6.7,52.8,6.4c0-0.4,0.3-0.6,0.7-0.9 c-0.4-0.3-0.7-0.8-0.7-1.3c0-1,0.9-1.8,2-1.8c0.3,0,0.5,0,0.8,0.1c0.1-0.7,0.6-1,1.4-0.9l0,0.9c-0.5-0.1-0.7,0-0.8,0.3 c0.4,0.3,0.6,0.7,0.6,1.2C56.7,5.1,55.8,5.8,54.7,5.8z M54.1,7.3c-0.5,0.2-0.7,0.5-0.7,0.7c0,0.3,0.3,0.6,1.1,0.6 c0.9,0,1.5-0.4,1.5-0.8c0-0.3-0.4-0.5-1.1-0.5h-0.2C54.5,7.3,54.3,7.3,54.1,7.3L54.1,7.3z M54.8,3.2c-0.5,0-0.9,0.4-0.9,0.9 c0,0,0,0,0,0c0,0.6,0.4,0.9,0.9,0.9c0.5,0,0.9-0.4,0.9-0.8c0,0,0,0,0-0.1C55.6,3.6,55.3,3.2,54.8,3.2z"></path>
    <path class="patron_text" d="M61.3,5l-2.7,0.1c0.1,0.8,0.5,1.2,1.3,1.2c0.6,0,1.2-0.2,1.7-0.6l0,1c-0.5,0.4-1.2,0.5-1.8,0.5 c-1.6,0-2.4-1.1-2.4-2.4c0-1.4,1-2.6,2.4-2.6c1.4,0,2,1,2,2.3L61.3,5z M60.8,4.3c-0.1-0.7-0.4-1.1-1-1.1c-0.7,0-1.1,0.5-1.2,1.1 L60.8,4.3z"></path>
    <path class="patron_text" d="M68.6,7.1c0-0.4,0.1-1.1,0.1-1.7V4.3c0-0.6-0.1-1-0.7-1c-0.6,0-1,0.4-1.1,1v1.7c0,0.3,0,0.8,0,1h-1.3 c0-0.4,0.1-1.1,0.1-1.7V4.3c0-0.6-0.1-1-0.6-1c-0.6,0-1,0.4-1.1,1v1.7c0,0.3,0,0.8,0,1h-1.3c0-0.4,0.1-1.1,0.1-1.7V4.2 c0-0.5,0-1.1-0.1-1.6c0.4,0,0.9-0.1,1.1-0.1L64,3.3c0.3-0.5,0.9-0.9,1.5-0.9c0.6-0.1,1.2,0.3,1.3,0.9c0.3-0.6,0.9-0.9,1.6-0.9 c1,0,1.4,0.6,1.4,1.6v2.1c0,0.3,0,0.8,0,1L68.6,7.1z"></path>
    <path class="patron_text" d="M74.7,5L72,5.1c0.1,0.8,0.5,1.2,1.3,1.2c0.6,0,1.2-0.2,1.7-0.6l0,1c-0.5,0.4-1.2,0.5-1.8,0.5 c-1.6,0-2.4-1.1-2.4-2.4c0-1.4,1-2.6,2.4-2.6c1.4,0,2,1,2,2.3L74.7,5z M74.1,4.3c-0.1-0.7-0.4-1.1-1-1.1c-0.7,0-1.1,0.5-1.2,1.1 L74.1,4.3z"></path>
    <path class="patron_text" d="M79.2,7.1c0-0.4,0.1-1.1,0.1-1.7V4.3c0-0.6-0.2-1-0.7-1c-0.6,0-1.1,0.5-1.2,1.1v1.6c0,0.3,0,0.8,0,1h-1.3 c0-0.4,0.1-1.1,0.1-1.7V4.2c0-0.6,0-1.2-0.1-1.6c0.3,0,0.9-0.1,1.1-0.1l0.1,0.9c0.3-0.6,1-1,1.6-1c1,0,1.4,0.6,1.4,1.6v2.1 c0,0.3,0,0.8,0,1L79.2,7.1z"></path>
    <path class="patron_text" d="M84.3,7c-0.3,0.2-0.6,0.3-1,0.3c-0.9,0-1.4-0.5-1.4-1.5V3.4h-0.8l0.2-0.9H82l0.1-1l1.1-0.3v1.3h1.2 c0,0.2,0,0.6,0,0.9h-1.2v2.3c0,0.5,0.2,0.6,0.5,0.6c0.3,0,0.5-0.1,0.7-0.2L84.3,7z"></path>
    <path class="patron_text" d="M90.5,2.7l-0.3,0.9c-0.3-0.2-0.7-0.3-1.1-0.4c-0.4,0-0.7,0.1-0.7,0.5c0,0.7,2.3,0.5,2.3,2c0,1-0.8,1.5-1.9,1.5 c-0.6,0-1.1-0.1-1.6-0.4l0-1c0.5,0.3,1,0.5,1.6,0.5c0.5,0,0.8-0.2,0.8-0.5c0-0.8-2.3-0.6-2.3-2.1c0-0.8,0.7-1.4,1.8-1.4 C89.5,2.4,90,2.5,90.5,2.7z"></path>
    <path class="patron_text" d="M94.8,7.1l-0.1-0.8c-0.3,0.5-0.9,0.9-1.5,0.9c-1,0-1.6-0.6-1.6-1.8V4.2c0-0.6,0-1.2-0.1-1.6 c0.5,0,0.9,0,1.3-0.1c0,0.4-0.1,0.7,0,1.1v1.7c0,0.7,0.2,1.1,0.8,1.1c0.4,0,1.1-0.5,1.1-1V4.2c0-0.6,0-1.2-0.1-1.6 c0.4,0,0.9,0,1.3-0.1c0,0.4-0.1,0.7-0.1,1.1v2c0,0.6,0,1.2,0.1,1.6L94.8,7.1z"></path>
    <path class="patron_text" d="M99.5,7.3c-0.4,0-0.8-0.1-1.1-0.3v1.3c0,0.3,0,0.6,0,0.9c-0.1,0-1.2,0.1-1.3,0.1c0-0.4,0.1-1.1,0.1-1.6V4.2 c0-0.6,0-1.2-0.1-1.7c0.4,0,0.8,0,1.1-0.1l0,0.6c0.4-0.4,0.9-0.7,1.4-0.7c1.2,0,2,1,2,2.3C101.7,6.3,100.6,7.3,99.5,7.3z M99.4,3.3 c-0.4,0-0.8,0.2-1,0.6V6c0.3,0.3,0.6,0.4,1,0.4c0.7,0,1.2-0.7,1.2-1.6C100.5,3.7,100,3.3,99.4,3.3L99.4,3.3z"></path>
    <path class="patron_text" d="M105,7.3c-0.4,0-0.8-0.1-1.1-0.3v1.3c0,0.3,0,0.6,0,0.9c-0.1,0-1.2,0.1-1.3,0.1c0-0.4,0.1-1.1,0.1-1.6V4.2 c0-0.6,0-1.2-0.1-1.7c0.4,0,0.8,0,1.1-0.1l0.1,0.6c0.4-0.4,0.9-0.7,1.4-0.7c1.2,0,2,1,2,2.3C107.3,6.3,106.1,7.3,105,7.3z M104.9,3.3c-0.4,0-0.8,0.2-1,0.6V6c0.3,0.3,0.6,0.4,1,0.4c0.7,0,1.2-0.7,1.2-1.6C106.1,3.7,105.6,3.3,104.9,3.3z"></path>
    <path class="patron_text" d="M110.2,7.3c-1.4,0-2.3-1.1-2.3-2.3c0-1.5,1-2.6,2.4-2.6c1.4,0,2.3,1.1,2.3,2.3C112.6,6.2,111.7,7.3,110.2,7.3z M110.3,3.3c-0.7,0-1.2,0.6-1.2,1.5c0,1.1,0.5,1.6,1.2,1.6c0.8,0,1.2-0.6,1.2-1.5C111.5,3.8,111,3.3,110.3,3.3z"></path>
    <path class="patron_text" d="M116.3,3.6c-0.7-0.1-1.5,0.2-1.5,0.9v1.6c0,0.3,0,0.8,0,1h-1.3c0-0.4,0.1-1.1,0.1-1.7V4c0-0.5,0-1-0.1-1.4 c0.4,0,0.8-0.1,1.2-0.1l0.1,1c0.3-0.6,0.9-1,1.6-1L116.3,3.6z"></path>
    <path class="patron_text" d="M119.9,7c-0.3,0.2-0.6,0.3-1,0.3c-0.9,0-1.4-0.5-1.4-1.5V3.4h-0.8l0.2-0.9h0.6l0.1-1l1.1-0.3v1.3h1.2 c0,0.2,0,0.6,0,0.9h-1.2v2.3c0,0.5,0.2,0.6,0.5,0.6c0.3,0,0.5-0.1,0.7-0.2L119.9,7z"></path>
    <path class="patron_text" d="M124.4,5l-2.7,0.1c0.1,0.8,0.5,1.2,1.3,1.2c0.6,0,1.2-0.2,1.7-0.6l0,1c-0.5,0.4-1.2,0.5-1.8,0.5 c-1.6,0-2.4-1.1-2.4-2.4c0-1.4,1-2.6,2.4-2.6c1.4,0,2,1,2,2.3L124.4,5z M123.8,4.3c-0.1-0.7-0.4-1.1-1-1.1c-0.7,0-1.1,0.5-1.2,1.1 L123.8,4.3z"></path>
    <path class="patron_text" d="M128.9,2.7V1.8c0-0.5,0-1.1,0-1.6c0.4,0,1-0.1,1.3-0.1c0,0.3,0,0.7,0,1.1v4.4c0,0.6,0,1.2,0.1,1.6h-1.1L129,6.6 c-0.3,0.4-0.8,0.7-1.4,0.7c-1.3,0-2.1-1-2.1-2.3c0-1.5,1-2.6,2.3-2.6C128.3,2.4,128.6,2.5,128.9,2.7z M126.7,4.9 c0,1,0.5,1.5,1.2,1.5c0.4,0,0.8-0.2,1-0.6V3.7c-0.2-0.2-0.6-0.4-0.9-0.4C127.2,3.3,126.7,4,126.7,4.9z"></path>
    <path class="patron_text" d="M135.6,7.3c-0.4,0-0.8-0.1-1.2-0.4l-0.8,0.3l-0.2-0.1c0-0.5,0.1-1.1,0.1-1.7V1.7c0-0.5,0-1.1-0.1-1.6 c0.4,0,1-0.1,1.3-0.1c0,0.3,0,0.9,0,1.2v1.8c0.4-0.4,0.9-0.6,1.4-0.6c1.2,0,2,1,2,2.3C138.1,6.1,137,7.3,135.6,7.3z M135.7,3.3 c-0.4,0-0.8,0.2-1,0.5v2.3c0.3,0.2,0.6,0.3,0.9,0.2c0.8,0,1.3-0.7,1.3-1.6C136.9,3.9,136.5,3.3,135.7,3.3z"></path>
    <path class="patron_text" d="M140.2,6.7c-0.1-0.4-0.3-0.7-0.4-1.1l-0.6-1.3c-0.3-0.6-0.6-1.3-0.8-1.7c0.1,0,1.2-0.1,1.3-0.1l1.1,3l0.5-1.3 c0.2-0.6,0.4-1.2,0.6-1.6c0.4,0,0.9,0,1.2,0L141,7.6c-0.1,0.4-0.5,1.1-0.6,1.6c-0.4,0-0.8,0-1.3,0L140.2,6.7z"></path>
</svg>
