<svg xmlns="http://www.w3.org/2000/svg" width="247.1" height="76.4" viewBox="0 0 247.1 76.4">
<g>
	<path d="M9.4,50.9h5.6c2.2,0,4.9-0.2,7-1.8c2.7-2,2.8-4.8,2.8-5.8c0-2.3-1-4.7-2.9-6.1c-2.2-1.6-4.9-1.7-7.1-1.8H-0.2v1.1h3.5v26.8
		h-3.5v1.1h13.4v-1.1H9.4V50.9L9.4,50.9z M9.4,36.6H13c1.3,0,3.1,0.1,4.3,1.7c0.8,1.1,1,2.7,1,5c0,3.5-1,5-1.6,5.4
		c-1.1,0.9-2.8,1.1-3.5,1.1H9.4V36.6L9.4,36.6z M32.7,35.3c-0.7,0.1-1.5,0.2-3.8,0.3c-1.7,0.1-3.1,0.1-4.2,0.1v1.1h2.9v26.6h-2.9
		v1.1h10.4v-1.1h-2.5v-7.5c0-2.3,0.1-5,2.4-6.6c0.6-0.4,1.4-0.7,2.3-0.7c2.3,0,2.5,1.8,2.4,3.9v10.8h-2.3v1.1h10v-1.1h-2.7v-11
		c0-1.4,0-2.7-1.1-4.1c-0.6-0.7-1.8-1.5-4.3-1.5c-3.9,0-5.9,2.3-6.8,3.5V35.3L32.7,35.3z M48.3,48.4h2.8v15h-2.8v1.1h10.5v-1.1h-2.6
		V46.9c-1.9,0.1-3,0.2-4,0.3c-1.1,0-2,0.1-3.9,0.1V48.4L48.3,48.4z M50.2,39.8c0,1.6,1.3,2.9,2.9,2.9c1.6,0,2.9-1.3,2.9-2.9
		c0-1.6-1.3-2.9-2.9-2.9C51.5,36.8,50.2,38.1,50.2,39.8L50.2,39.8z M67.6,35.3c-1.3,0.2-2.9,0.4-4.4,0.4c-1.5,0-2.8,0-3.6,0v1.1h2.9
		v26.5h-2.9v1.1h10.7v-1.1h-2.7V35.3L67.6,35.3z M86.8,52.2c0-1.4,0-3.4-2.7-4.6c-1.2-0.5-2.6-0.7-4.1-0.7c-4,0-7.2,1.8-7.2,4.5
		c0,1.3,0.9,2.3,2.3,2.3c1.4,0,2.3-1.1,2.3-2.3c0-0.3-0.1-0.6-0.2-0.8c-0.1-0.3-0.4-0.6-0.5-0.9c-0.1-0.2-0.1-0.3-0.1-0.5
		c0-0.4,0.6-1.2,2.5-1.2c2.7,0,2.9,1.4,2.9,3.1v3.2c-2.5,0.2-5.9,0.5-8.2,2.2c-1.8,1.3-2.4,3-2.4,4.3c0,1.3,0.6,4.1,4.8,4.1
		c3.2,0,4.9-1.9,5.7-2.8c0.5,1.1,1.4,2.8,3.8,2.8c2,0,3.3-1.3,4-2l-0.7-0.9c-0.3,0.2-0.7,0.6-1.2,0.6c-1,0-1-1.2-1-2.1V52.2
		L86.8,52.2z M81.9,58.5c0,1.1,0,2.3-1.1,3.3c-0.5,0.4-1.1,0.7-1.8,0.7c-1.4,0-2.8-1.1-2.8-3.2c0-3.6,3.6-3.9,5.7-4V58.5L81.9,58.5z
		 M97.9,46.9c-3,0.1-5.4,0.4-7.9,0.4v1.1h2.8v15H90v1.1h10.5v-1.1h-2.6v-7.6c0-1.9,0-2.6,0.2-3.3c0.6-2.3,2.9-3.7,4.3-3.7
		c2.5,0,2.5,2.2,2.5,4.5v10.2h-2.3v1.1h10.1v-1.1H110V52.4c0-1.8,0-4.3-3.3-5.3c-1.1-0.3-2-0.3-2.3-0.3c-0.8,0-1.9,0.1-3.1,0.6
		c-1.7,0.7-2.4,1.5-3.3,2.5V46.9L97.9,46.9z M119.5,40.4h-1.1c-2.4,5.2-4.9,6.4-6.8,7.3v0.7h2.9l-0.1,11.7c0,1.8,0,4.8,4.2,4.8
		c4.3,0,5.2-2.9,5.8-4.9l-1.1-0.2c-0.5,1.6-1.1,3-2.4,3c-1.4,0-1.4-1.5-1.4-2.5V48.4h3.6v-1.1h-3.6V40.4L119.5,40.4z M131.8,35.3
		c-0.7,0.1-1.5,0.2-3.8,0.3c-1.7,0.1-3.1,0.1-4.2,0.1v1.1h2.9v26.6h-2.9v1.1h10.4v-1.1h-2.5v-7.5c0-2.3,0.1-5,2.4-6.6
		c0.6-0.4,1.4-0.7,2.3-0.7c2.3,0,2.5,1.8,2.4,3.9v10.8h-2.3v1.1h10v-1.1H144v-11c0-1.4,0-2.7-1.1-4.1c-0.6-0.7-1.8-1.5-4.3-1.5
		c-3.9,0-5.9,2.3-6.8,3.5V35.3L131.8,35.3z M154.2,46.9c-2.7,0.3-5.4,0.4-8.1,0.4v1.1h2.8v15h-2.8v1.1h11.3v-1.1h-3.4v-7.8
		c0-1.6,0.3-3.9,1.6-5.7c0,0,1.3-1.7,1.9-1.7c0.3,0,0.6,0.2,0.6,0.4c0,0.1-0.1,0.2-0.2,0.4c-0.2,0.3-0.5,0.8-0.5,1.5
		c0,1.2,0.9,2.4,2.6,2.4c2.1,0,2.7-1.6,2.7-2.8c0-1.6-1.1-3.4-3.6-3.4c-1.7,0-2.9,0.7-3.8,1.8c-0.5,0.5-0.9,1.2-1.3,1.8L154.2,46.9
		L154.2,46.9z M182.5,55.5c-0.4-6.5-5.9-8.7-9.6-8.7c-4.2,0-9.8,2.6-9.8,9c0,4.6,3.4,9.1,10,9.1c5.9,0,8.4-4,9-5.6
		C182.4,58.1,182.6,56.8,182.5,55.5L182.5,55.5z M176.9,55.5c0,4,0,8.5-4,8.5c-1.8,0-2.9-1.1-3.4-2c-0.3-0.6-0.7-1.4-0.7-6.3
		c0-3.6,0.1-7.9,4.1-7.9c1.6,0,2.9,0.8,3.5,2.3C176.6,50.6,176.9,51.2,176.9,55.5L176.9,55.5z M190.4,46.9c-2.6,0.4-3,0.4-7.9,0.4
		v1.1h2.7v26.9h-2.7v1.1h11.2v-1.1h-3.3V62c1.1,1.3,2.5,2.9,5.5,2.9c3.4,0,5.2-2.1,6-3.1c1.6-2.2,1.8-4.1,1.8-5.7
		c0-6.7-4.5-9.3-8-9.3c-2.8,0-4.2,1.6-5.3,3L190.4,46.9L190.4,46.9z M198,55.5c0.1,5-0.5,8.1-3.2,8.1c-1.6,0-3.1-1.4-3.9-2.9
		c-0.7-1.5-0.9-3.2-0.9-4.8c0-4.6,1.5-6.1,2.5-6.8c0.6-0.5,1.3-0.8,2.1-0.8c1.9,0,2.6,1.7,2.9,2.8C197.8,52.6,197.9,54,198,55.5
		L198,55.5z M204.3,48.4h2.8v15h-2.8v1.1h10.5v-1.1h-2.6V46.9c-1.9,0.1-3,0.2-4,0.3c-1.1,0-2,0.1-3.9,0.1V48.4L204.3,48.4z
		 M206.2,39.8c0,1.6,1.3,2.9,2.9,2.9c1.6,0,2.9-1.3,2.9-2.9c0-1.6-1.3-2.9-2.9-2.9C207.5,36.8,206.2,38.1,206.2,39.8L206.2,39.8z
		 M232.6,54.8c-0.3-1.8-0.6-3.6-2.2-5.4c-1.6-1.7-3.8-2.5-6.1-2.5c-5.3,0-9.1,3.9-9.1,9c0,5,3.6,9.1,9.4,9.1c5,0,6.8-3.4,7.8-5.2
		l-1-0.5c-1,1.6-2.7,4.4-6.2,4.4c-4.1,0-4.2-4.1-4.3-5.7c0-1.1,0-2.2,0-3.2H232.6L232.6,54.8z M221,51.4c0.2-1.6,0.4-3.6,3.3-3.6
		c2.7,0,2.8,2,2.9,3.4v2.4h-6.2L221,51.4L221,51.4z M245.9,51.9v-5.2h-1.1c-0.1,0.9-0.1,1.3-0.9,1.3c-0.3,0-0.5-0.1-0.9-0.3
		c-0.7-0.4-1.8-0.8-3.2-0.8c-3.9,0-5.5,2.8-5.5,5.5c0,4,2.9,5,5.5,5.8c1.7,0.5,4.6,0.9,4.6,3c0,1.3-1.4,2.6-3.5,2.6
		c-1.4,0-2.8-0.5-3.8-1.5c-1.4-1.3-1.6-2.8-1.9-4.1H234v6.2h1.2c0-0.3-0.1-1.1,0.7-1.1c0.3,0,0.7,0.2,1.3,0.6c0.2,0.2,1.7,1,3.6,1
		c4.5,0,6.3-3.5,6.3-6.2c0-3.8-3.2-4.7-5.1-5.2l-1.2-0.3c-1.1-0.3-2.5-0.8-2.9-1.1c-0.5-0.4-0.8-1.1-0.8-1.7c0-1.3,1.2-2.4,2.9-2.4
		c1,0,2.2,0.4,3,1c1.2,0.9,1.4,1.8,1.7,2.9H245.9L245.9,51.9z" fill="currentColor"/>
	<path d="M-0.1-0.3v1.1h3.5v26.8h-3.5v1.1h12.8c4.3,0,9.5,0,11.7-4.2c0.7-1.2,0.8-2.5,0.8-3.5c0-4.2-3-6.2-5.9-7
		c-1-0.2-2-0.4-3.1-0.5c0.9-0.1,1.9-0.3,2.8-0.5c2.8-0.9,4.8-2.9,4.8-6.1c0-2.1-0.7-4.3-3.3-5.8c-2.3-1.3-4.9-1.4-7.2-1.4H-0.1
		L-0.1-0.3z M9.4,14.1h3.8c1.2,0,2.9,0.1,4.1,1.6c1,1.2,1.1,3.1,1.1,5.2c0,1.8-0.1,3.4-0.9,4.6c-1.1,1.8-2.7,2-4.1,2H9.4V14.1
		L9.4,14.1z M9.4,0.8h3.2c3.4,0,5.1,0.8,5.1,6.2c0,4.8-1.7,5.9-4.9,5.9H9.4V0.8L9.4,0.8z M33.5-0.6c-1.3,0.2-2.9,0.4-4.4,0.4
		c-1.5,0-2.8,0-3.6,0V1h2.9v26.5h-2.9v1.1h10.7v-1.1h-2.7V-0.6L33.5-0.6z M56,19.7c-0.4-6.5-5.9-8.7-9.6-8.7c-4.2,0-9.8,2.6-9.8,9
		c0,4.6,3.4,9.1,10,9.1c5.9,0,8.4-4,9-5.6C56,22.3,56.1,20.9,56,19.7L56,19.7z M50.5,19.7c0,4,0,8.5-4,8.5c-1.8,0-2.9-1.1-3.4-2
		c-0.3-0.6-0.7-1.4-0.7-6.3c0-3.6,0.1-7.9,4.1-7.9c1.6,0,2.9,0.8,3.5,2.3C50.2,14.8,50.4,15.4,50.5,19.7L50.5,19.7z M77,19.7
		c-0.4-6.5-5.9-8.7-9.6-8.7c-4.2,0-9.8,2.6-9.8,9c0,4.6,3.4,9.1,10,9.1c5.9,0,8.4-4,9-5.6C76.9,22.3,77,20.9,77,19.7L77,19.7z
		 M71.4,19.7c0,4,0,8.5-4,8.5c-1.8,0-2.9-1.1-3.4-2c-0.3-0.6-0.7-1.4-0.7-6.3c0-3.6,0.1-7.9,4.1-7.9c1.6,0,2.9,0.8,3.5,2.3
		C71.1,14.8,71.4,15.4,71.4,19.7L71.4,19.7z M85.2,11.1c-2.3,0.3-3.2,0.4-7.8,0.4v1.1H80v15h-2.7v1.1h10.3v-1.1h-2.5v-8.7
		c0.1-1.9,0.2-3.3,1.2-4.5c0.7-0.8,1.8-1.5,3-1.5c2.2,0,2.5,1.9,2.5,4.3v10.4h-2.2v1.1h9.6v-1.1h-2.5v-8c0-2.2,0.1-4,1.6-5.5
		c0.8-0.8,1.8-1.2,2.7-1.2c2.3,0,2.3,2,2.3,4.1v10.6h-2.3v1.1h9.9v-1.1h-2.5V16.8c-0.1-2.2-0.2-5.8-5.6-5.8c-4,0-5.5,2.5-6.1,3.5
		c-0.9-1.8-2-3.6-5.7-3.6c-3.2,0-4.7,1.8-5.9,3.2V11.1L85.2,11.1z M118-0.6c-1.7,0.3-3.6,0.4-4.4,0.5h-3.6V1h2.9v26.5h-2.9v1.1h7.9
		V26c1.1,1.3,2.8,3,6,3c2.3,0,4.4-0.7,6.2-3c1.8-2.3,2-4.6,2-5.8c0-6.6-4.5-9.3-8.2-9.3c-3.2,0-4.7,1.6-5.9,3V-0.6L118-0.6z
		 M126.5,19.6c0,4.5-0.1,8.1-3.4,8.1c-1.5,0-3.1-0.9-4.1-2.4c-1-1.6-1.2-3.9-1.2-5.2c0-1.1,0.2-3.4,1.1-5c0.9-1.6,2.6-2.8,4.2-2.8
		c2.5,0,2.9,2.3,3.1,3.2C126.4,16.6,126.5,18.4,126.5,19.6L126.5,19.6z M151,18.9c-0.3-1.8-0.6-3.6-2.2-5.4
		c-1.6-1.7-3.8-2.5-6.1-2.5c-5.3,0-9.1,3.9-9.1,9c0,5,3.6,9.1,9.4,9.1c5,0,6.8-3.4,7.8-5.2l-1-0.5c-1,1.6-2.7,4.4-6.2,4.4
		c-4.1,0-4.2-4.1-4.3-5.7c0-1.1,0-2.2,0-3.2H151L151,18.9z M139.4,15.5c0.2-1.6,0.4-3.6,3.3-3.6c2.7,0,2.8,2,2.9,3.4v2.4h-6.2
		L139.4,15.5L139.4,15.5z M159.4,11.1c-2.7,0.3-5.4,0.4-8.1,0.4v1.1h2.8v15h-2.8v1.1h11.3v-1.1h-3.4v-7.8c0-1.6,0.3-3.9,1.6-5.7
		c0,0,1.3-1.7,1.9-1.7c0.3,0,0.6,0.2,0.6,0.4c0,0.1-0.1,0.2-0.2,0.4c-0.2,0.3-0.5,0.8-0.5,1.5c0,1.2,0.9,2.4,2.6,2.4
		c2.1,0,2.7-1.6,2.7-2.8c0-1.6-1.1-3.4-3.6-3.4c-1.7,0-2.9,0.7-3.8,1.8c-0.5,0.5-0.9,1.2-1.3,1.8L159.4,11.1L159.4,11.1z M172.4,27
		c-1.4,0-2.5,0-2.5-1.4c0-1.3,1.6-2.2,2.9-2.7c0.9,0.4,2,0.9,4.2,0.9c4.1,0,7.6-2.3,7.6-6.6c0-1.4-0.4-2.2-0.9-3
		c0.1-0.6,0.2-0.8,0.5-0.8c0.2,0,0.2,0,0.6,0.4c0.2,0.3,0.7,0.5,1.2,0.5c1.2,0,1.8-0.9,1.8-1.8c0-1.2-0.9-1.9-1.9-1.9
		c-0.5,0-1.1,0.2-1.6,0.6c-0.8,0.6-1,1.4-1.2,2c-1.1-1-2.7-2.3-5.9-2.3c-3.7,0-7.9,2.1-7.9,6.6c0,2.7,1.7,4.1,2.8,5
		c-1,0.3-4.2,1.5-4.2,5.2c0,0.6,0.1,1.8,1.1,2.8c0.8,0.9,1.4,1,2.3,1.2c-1.1,0.4-3.3,1.1-3.3,3.4c0,2.5,3,5.2,8.9,5.2
		c5.6,0,9.8-2.8,9.8-7.7c0-1.3-0.2-2.3-1-3.5c-1.5-2.1-3-2.1-5.9-2.1H172.4L172.4,27z M174,17.3c0-2.9,0-5.4,2.8-5.4
		c0.4,0,1.6,0,2.3,1.4c0.4,0.9,0.4,1.8,0.4,4.2c0,2.9,0,5.3-2.7,5.3C174.2,22.8,174,20.6,174,17.3L174,17.3z M181.5,32
		c0.9,0,2.9,0,2.9,2.3c0,2.5-2.9,4.8-7.8,4.8c-4.5,0-6.1-2.3-6.1-4.2c0-1.4,0.7-2,1.4-2.8H181.5L181.5,32z" fill="currentColor"/>
</g>
</svg>
