<svg xmlns="http://www.w3.org/2000/svg" width="75.9804" height="100" viewBox="0 0 75.9804 100">
  <path d="M75.6572,69.6406c-.0047-2.427-2.0143-4.4003-4.4838-4.4003-.7174,0-1.4198.176-2.047.5058-.4138-1.9163-2.0178-3.398-3.9884-3.5366-.9482-.0665-1.8717.1689-2.654.6601-.3819-2.0487-2.1293-3.6366-4.2209-3.6879-.8116-.0204-1.5901.1764-2.2741.5639v-3.7351c1.3888.142,2.7969.3573,4.2.6451,2.2335.4579,5.0088.7301,6.6595-1.2468,1.2735-1.525,1.3987-3.7534.3526-6.2747-2.3327-5.6228-1.8083-8.4014.9522-13.8964.8002-1.5929,1.5184-3.18,1.5184-5.0797v-.335c0-1.8998-.7182-3.4869-1.5184-5.0798-2.7605-5.495-3.2849-8.2735-.9522-13.8964,1.046-2.5215.9208-4.7499-.3526-6.2747-1.6508-1.9767-4.426-1.7046-6.6595-1.2467-7.5032,1.5385-14.7578.976-19.9042-1.5429-1.4495-.7095-3.0925-1.5138-5.0706-1.5138h-.4794c-1.9779,0-3.621.8042-5.0707,1.5138-5.1464,2.519-12.4012,3.0813-19.9042,1.5429-2.2333-.4579-5.0087-.7302-6.6595,1.2467-1.2734,1.525-1.3986,3.7534-.3525,6.2747,2.3327,5.623,1.8082,8.4015-.9523,13.8964-.8002,1.5929-1.5184,3.18-1.5184,5.0798v.335c0,1.9.7183,3.487,1.5185,5.0797,2.7604,5.495,3.2848,8.2736.9521,13.8964-1.046,2.5214-.9208,4.7498.3526,6.2747,1.6508,1.9768,4.4261,1.7047,6.6595,1.2468,7.5032-1.5384,14.758-.9761,19.9042,1.5429,1.4497.7096,3.0928,1.5138,5.0706,1.5138h.4795c1.9779,0,3.621-.8042,5.0706-1.5138,1.955-.9569,4.3179-1.6551,6.8871-2.0397v15.3212c-.0018.0217-.0037.0433-.0056.0649-.0067.0758-.0133.1516-.0178.2292-.0927.1207-.535.3777-1.2481.4942-1.1268.1836-1.8972-.5058-2.7489-2.4604-.8014-1.8391-1.6637-3.702-2.5628-5.5368-.9958-2.0323-2.7917-3.3829-4.804-3.613-1.1112-.1269-1.9744-.0733-2.8866.1796l-.0365.0101c-.4897.1354-1.3094.3619-1.7042,1.1194-.4855.932-.0285,1.8879.2446,2.4589l.0252.0529c1.2971,2.7233,2.4866,5.5706,3.6369,8.3242.3978.9523.8092,1.937,1.2194,2.9033.576,1.3567,1.155,2.7406,1.7151,4.0789,1.0419,2.4899,2.1194,5.0646,3.225,7.5808.836,1.9025,1.7728,3.9112,3.2153,5.7187,1.1966,1.4996,2.7617,2.89,4.5262,4.021,2.7137,1.7392,5.9424,2.6254,9.4888,2.6253,1.3033,0,2.6496-.1197,4.0288-.3607,4.4925-.7849,6.6206-1.9962,9.4802-5.399.2666-.3044,3.5582-4.2213,3.694-12.0084.1019-5.8436.0044-12.0628.0002-12.3226ZM48.5659,39.6366c-.8859.8304-1.3941,2.003-1.3941,3.2169v4.8025H11.8114V12.3249h46.3262v35.3312h-2.1486v-4.6851c0-2.3832-1.8084-4.3671-4.1171-4.5166-1.2313-.0798-2.4075.34-3.3059,1.1822ZM39.4246,56.4415c-1.3204.6463-2.6856,1.3146-4.2105,1.3146h-.4795c-1.5247,0-2.89-.6683-4.2105-1.3146-5.5272-2.7053-13.2387-3.3257-21.1573-1.7022-2.5255.518-3.9951.3376-4.765-.5842-1.0575-1.2664-.4835-3.2196-.0473-4.2712,2.6435-6.3719,1.867-9.7951-1.011-15.5242-.7169-1.4269-1.3102-2.728-1.3102-4.2016v-.335c0-1.4735.5934-2.7747,1.3101-4.2016,2.8782-5.7289,3.6547-9.1521,1.0112-15.5242-.4362-1.0516-1.0103-3.0048.0472-4.2712.7699-.922,2.2396-1.1021,4.765-.5842,2.9028.5951,5.7764.8888,8.5261.8887,4.7513-.0001,9.1301-.8773,12.6312-2.5909,1.3204-.6463,2.6857-1.3146,4.2106-1.3146h.4794c1.525,0,2.8902.6683,4.2105,1.3146,5.5273,2.7054,13.2387,3.3258,21.1573,1.7023,2.5256-.5179,3.9952-.3377,4.765.5842,1.0575,1.2663.4835,3.2195.0473,4.2711-2.6436,6.3719-1.867,9.7951,1.0111,15.5242.7168,1.427,1.3101,2.7281,1.3101,4.2017v.335c0,1.4735-.5934,2.7746-1.3101,4.2016-2.8781,5.7291-3.6547,9.1523-1.0111,15.5242.4362,1.0516,1.0102,3.0047-.0473,4.2712-.7699.922-2.2396,1.1021-4.765.5842-1.534-.3145-3.0747-.5466-4.593-.6947v-4.4322h4.1049V10.3686H9.8551v39.2437h37.3166v4.571c-2.8772.4041-5.5407,1.1782-7.7471,2.2581ZM73.7012,81.9291c-.125,7.1633-3.1806,10.7204-3.2087,10.7524l-.02.023c-2.5679,3.0577-4.2799,4.032-8.3264,4.7391-4.641.811-8.8342.1247-12.1254-1.9846-1.5866-1.0169-2.988-2.2597-4.0527-3.5941-1.2966-1.6248-2.1369-3.4273-2.9534-5.2856-1.0988-2.5004-2.1728-5.067-3.2114-7.549-.561-1.3406-1.1411-2.7269-1.719-4.0882-.4081-.961-.8183-1.9431-1.2151-2.8929-1.1593-2.7752-2.3582-5.645-3.6758-8.4114l-.0266-.0555c-.0765-.16-.2453-.513-.2636-.6884.1162-.0602.3464-.1238.4794-.1606l.0382-.0106c.6639-.1841,1.2846-.2191,2.1416-.1212,1.3664.1563,2.5581,1.0785,3.2695,2.5303.8863,1.8088,1.7363,3.6449,2.526,5.4573.4525,1.0385,1.597,3.666,4.1863,3.6658.2137,0,.4375-.0179.6712-.0561,1.7486-.2855,2.8271-1.1433,2.8849-2.2947.0032-.0635.0089-.1253.0143-.187.0035-.0401.0071-.0802.0102-.1205l.0031-.0383v-28.7048c0-.6852.2755-1.3208.7757-1.7897.4997-.4684,1.1542-.7019,1.8417-.6573,1.2825.0831,2.2872,1.2095,2.2872,2.5645v17.8945c0,.5687.3395,1.0766.8647,1.294.524.2167,1.1214.0976,1.5225-.3038.479-.4799,1.1187-.7345,1.7952-.7183,1.318.0323,2.3902,1.1866,2.3902,2.5732v.274c0,.5782.3463,1.0883.8822,1.2996.5408.2131,1.1477.075,1.546-.3518.5064-.5425,1.2237-.8236,1.9672-.7714,1.2747.0897,2.2733,1.2149,2.2733,2.5617,0,.5517.3101,1.0374.8091,1.2678.4967.2292,1.088.1467,1.5064-.2101.4414-.3764,1.0038-.5838,1.5838-.5838,1.37,0,2.5275,1.123,2.5275,2.4523v.0162c.0011.0629.1032,6.3585.0002,12.2641Z" fill="currentColor"/>
  <path d="M41.362,17.4004c-2.4526,0-4.759,1.0322-6.3875,2.8125-1.6285-1.7803-3.9349-2.8125-6.3875-2.8125-2.3081,0-4.4764.9014-6.1055,2.5381-1.6188,1.6264-2.5258,3.7962-2.5541,6.1097-.038,3.1071,1.5812,6.3051,4.8126,9.505,2.1879,2.1666,4.7274,3.9311,6.4725,5.0298.9946.6262,1.8377,1.1046,2.3699,1.3958,1.0811.5914,1.1511.6066,1.3921.602.0155.0003.0302.0005.0446.0005.2113,0,.3356-.049,1.3475-.6025.5322-.2911,1.3754-.7696,2.3699-1.3958,1.7451-1.0987,4.2846-2.8632,6.4725-5.0298,3.2313-3.2,4.8506-6.3979,4.8126-9.505-.0283-2.3135-.9353-4.4833-2.5541-6.1097-1.6291-1.6367-3.7974-2.5381-6.1055-2.5381ZM41.6262,36.1297c-2.7859,2.2559-5.6253,3.8333-6.6517,4.3746-1.0265-.5414-3.8658-2.1187-6.6517-4.3746-5.3706-4.3488-6.4661-7.8697-6.4394-10.0577.0221-1.8017.7268-3.4899,1.9846-4.7535,1.2591-1.2652,2.9351-1.9619,4.719-1.9619,2.2414,0,4.3254,1.1142,5.5747,2.9805l.8128,1.2142.8128-1.2142c1.2493-1.8663,3.3334-2.9805,5.5747-2.9805,1.7838,0,3.4598.6967,4.719,1.9619,1.2578,1.2637,1.9626,2.9518,1.9846,4.7535.048,3.9637-3.4752,7.6574-6.4394,10.0577Z" fill="currentColor"/>
</svg>
