<?xml version="1.0" encoding="UTF-8"?>
<svg id="Layer_1" data-name="Layer 1" xmlns="http://www.w3.org/2000/svg" width="711.7488" height="1026.097" viewBox="0 0 711.7488 1026.097">
  <defs>
    <style>
      .cls-1 {
        fill: #fff;
        stroke-width: 0px;
      }
    </style>
  </defs>
  <path class="cls-1" d="M351.091,605.5284c.6556,0,1.302-.0231,1.9484-.0508l.494-.0231.494.0231c.651.0277,1.2974.0508,1.953.0508,15.9335,0,41.6921-10.8732,59.6802-19.0546,1.1219-.5125,1.9161-.8726,2.3085-1.0388,4.8202-2.013,7.0964-7.5489,5.0834-12.3691-2.0084-4.8202-7.5443-7.1057-12.3691-5.0834-.4848.2032-1.4682.6464-2.8533,1.2743-31.5484,14.3498-45.6074,17.3602-51.8497,17.3602-.3832,0-.7618-.0185-1.1404-.0369l-1.3066-.0462-1.3066.0462c-.3786.0185-.7526.0369-1.1358.0369-15.6842,0-29.6739-6.8471-43.2019-13.468-56.2959-27.5593-134.8599-33.88-215.557-17.3279-25.9849,5.3281-41.1242,3.4351-49.1302-6.1407-10.9655-13.1309-5.0557-33.2798-.5587-44.1207,26.8944-64.8329,18.99-99.6686-10.3053-157.973-7.3458-14.6223-13.4264-27.9563-13.408-43.5436l.0462-1.4313-.0646-1.556c0-15.1578,6.0807-28.4919,13.4264-43.1142,29.2953-58.3043,37.1997-93.1401,10.3053-157.973-4.497-10.8409-10.4069-30.9898.5587-44.1207,8.006-9.5804,23.1407-11.4688,49.1348-6.1407,80.6833,16.5476,159.2611,10.2268,215.5524-17.3279,13.528-6.6209,27.5177-13.468,43.2019-13.468.3647,0,.7249.0185,1.085.0369l1.3574.0508,1.3713-.0508c.3555-.0185.7156-.0369,1.0758-.0369,15.6842,0,29.6739,6.8471,43.2019,13.468,56.2959,27.5593,134.8599,33.88,215.557,17.3279,25.9802-5.3281,41.1335-3.4397,49.1302,6.1407,10.9655,13.1309,5.0603,33.2798.5633,44.1207-26.899,64.8329-18.9946,99.6686,10.3007,157.973,7.3458,14.6223,13.4264,27.9563,13.408,43.5436l-.0462,1.4313.0646,1.556c0,15.1578-6.0807,28.4919-13.4264,43.1142-29.2953,58.3043-37.1997,93.1401-10.3007,157.9683,4.497,10.8455,10.4023,30.9944-.5633,44.1253-7.9968,9.5758-23.1546,11.4688-49.1348,6.1407-19.6456-4.0307-39.6098-6.7455-59.3293-8.0799-5.2081-.4294-9.7189,3.5875-10.0698,8.7955-.3555,5.2081,3.5828,9.7189,8.7955,10.0698,18.8746,1.2789,37.9892,3.883,56.8038,7.7382,22.6375,4.6448,50.7739,7.415,67.4507-12.54,12.8585-15.4025,14.1098-37.9523,3.5182-63.4939-23.8887-57.5702-18.5237-86.0067,9.7282-142.238,8.1353-16.1921,15.4395-32.3241,15.4395-51.6003,0-.4848-.0231-.9603-.0462-1.4359v-.5448c.0231-.4756.0462-.9511.0462-1.4359,0-19.2763-7.3042-35.4083-15.4395-51.6003-28.2518-56.2313-33.6169-84.6678-9.7282-142.2426,10.5916-25.537,9.3403-48.0868-3.5182-63.4893-16.6722-19.9596-44.804-17.1801-67.4461-12.54-76.6895,15.7119-150.8304,9.959-203.4465-15.7858C392.7554,8.1814,376.0463,0,355.9805,0,355.3295,0,354.6831.0277,354.0413.0554l-.5079.0185-.494-.0185C352.393.0277,351.7467,0,351.091,0,331.0253,0,314.3161,8.1814,299.5784,15.3979c-52.6161,25.7448-126.7847,31.4976-203.4418,15.7858-22.6467-4.6494-50.7739-7.4196-67.4507,12.54-12.8585,15.4072-14.1098,37.9523-3.5136,63.4939,23.8841,57.5702,18.5191,86.0067-9.7328,142.238-8.1353,16.1921-15.4395,32.3241-15.4395,51.6003,0,.4848.0231.9603.0462,1.4359v.5448c-.0231.4756-.0462.9511-.0462,1.4359,0,19.2763,7.3042,35.4083,15.4395,51.6003,28.2518,56.2313,33.6169,84.6678,9.7328,142.238-10.5962,25.5416-9.3449,48.0868,3.5136,63.4939,16.6722,19.9596,44.804,17.1847,67.4461,12.54,76.6803-15.7211,150.8257-9.9636,203.4465,15.7858,14.7377,7.2165,31.4468,15.3979,51.5126,15.3979Z"/>
  <path class="cls-1" d="M554.7683,484.0349c-5.2219,0-9.4558,4.2339-9.4558,9.4558s4.2339,9.4558,9.4558,9.4558h55.1924V102.582H97.1154v400.3644h317.211c5.2219,0,9.4558-4.2339,9.4558-9.4558s-4.2339-9.4558-9.4558-9.4558H116.0269V121.4935h475.0223v362.5414h-36.2809Z"/>
  <path class="cls-1" d="M711.3146,743.1862c-.0462-22.9468-19.0408-41.5998-42.3847-41.5998-6.6624,0-13.191,1.6067-19.0408,4.6217-4.0261-17.9512-19.1193-31.7885-37.6337-33.0905-8.814-.6141-17.4294,1.5329-24.7567,6.0391-3.7537-19.1793-20.1858-33.9955-39.8268-34.4756-7.5304-.1939-14.7331,1.5883-21.1,5.1065v-157.1096c0-22.5221-17.097-41.2766-38.9219-42.694-11.7043-.7618-22.7668,3.2181-31.2575,11.1779-8.3754,7.8536-13.1771,18.9392-13.1771,30.4126v268.8611l-.0554.6233c-.06.6787-.1154,1.3574-.1616,2.0638-.9419,1.1127-5.0465,3.4259-11.5011,4.4832-10.453,1.6621-17.5864-4.7371-25.5278-22.9561-7.512-17.2401-15.6149-34.7388-24.078-52.0159-9.3957-19.1701-26.345-31.9132-45.335-34.0878-10.4669-1.2004-18.6022-.6926-27.5408,1.7868-4.6494,1.2835-12.4245,3.4305-16.1967,10.6608-4.6171,8.874-.2863,17.9327,2.3039,23.3439l.2309.4848c12.1706,25.5462,23.33,52.2606,34.1247,78.0977,3.8137,9.1279,7.6274,18.2559,11.4873,27.3469,5.4158,12.7662,10.7716,25.5601,16.1228,38.354,9.7836,23.3762,19.8949,47.5466,30.2787,71.1721,7.8536,17.8819,16.663,36.7611,30.2372,53.7704,11.261,14.1144,25.9849,27.1991,42.5786,37.8276,25.5324,16.3675,55.9081,24.7059,89.2756,24.7059,12.2537,0,24.9183-1.1266,37.8923-3.3935,42.3108-7.3919,62.335-18.8053,89.0817-50.6677,1.3667-1.5329,33.5799-38.3909,34.8819-113.0951.9557-54.8831.0416-113.289,0-115.7545ZM692.4031,858.6083c-1.1681,67.1691-29.8078,100.5228-30.2603,101.0445-24.0688,28.6581-40.1131,37.7953-78.0515,44.4254-43.5251,7.5951-82.8533,1.1635-113.7045-18.6068-14.8716-9.5296-28.0117-21.1831-37.9985-33.7-12.166-15.2456-20.0473-32.1533-27.707-49.5873-10.3145-23.4732-20.3982-47.565-30.1448-70.8627-5.365-12.8262-10.7301-25.6478-16.1644-38.4417-3.846-9.0633-7.6459-18.1543-11.4457-27.2499-10.8778-26.0449-22.1296-52.9808-34.4987-78.9426l-.2447-.5079c-.7156-1.5005-2.3132-4.8433-2.5579-6.1453,1.0804-.5494,3.2504-1.1496,4.7648-1.5652,6.2053-1.7268,12.0182-2.0546,20.015-1.1312,12.7431,1.4544,23.861,10.0652,30.505,23.6163,8.3384,17.0231,16.3213,34.2679,23.7225,51.2494,4.6263,10.61,16.88,38.8018,45.9167,34.0647,16.5568-2.7102,26.7698-10.864,27.3146-21.7926.0323-.5956.0831-1.1727.1339-1.7499l.1016-1.145.0277-270.0061c0-6.3623,2.5579-12.2629,7.2026-16.6122,4.6402-4.3493,10.7393-6.5609,17.097-6.1038,11.9074.7711,21.2339,11.2333,21.2339,23.8194v168.0843c0,5.4528,3.255,10.3191,8.2923,12.4014,5.028,2.0869,10.7531.9373,14.5899-2.9134,4.4416-4.4555,10.3884-6.7779,16.6676-6.667,12.2306.3001,22.185,11.0256,22.185,23.9026v2.5717c0,5.5405,3.3197,10.43,8.4585,12.4568,5.1665,2.0361,10.9932.7203,14.8162-3.3658,4.7002-5.0372,11.3672-7.6274,18.2605-7.1657,11.8335.8311,21.1046,11.2841,21.1046,23.7964,0,5.2865,2.9734,9.9405,7.7567,12.1521,4.7648,2.2023,10.4253,1.399,14.4376-2.0177,4.0953-3.4905,9.3172-5.4158,14.7007-5.4158,12.7246,0,23.4732,10.4253,23.4732,22.7668v.157c.0092.591.9696,59.7218,0,115.1866Z"/>
  <path class="cls-1" d="M354.6139,187.9562c-19.1285-21.9634-46.8494-34.7573-76.3848-34.7573-55.1832,0-100.6336,45.3996-101.3169,101.2015-.4479,36.5949,18.7638,74.3625,57.0947,112.2548,47.5789,47.0341,115.0296,83.1857,120.3577,83.1857h.0554c5.7852-.0046,73.2636-36.1747,120.8379-83.218,38.3124-37.883,57.5102-75.6368,57.0623-112.2224-.6833-55.8019-46.1337-101.2015-101.3169-101.2015-29.5308,0-57.2563,12.7939-76.3894,34.7573ZM513.4086,254.6313c1.0619,86.8009-134.0796,162.1376-158.7948,175.1438-24.7152-13.0109-159.8521-88.3753-158.7902-175.1438.554-45.5012,37.5229-82.5208,82.4054-82.5208,27.5547,0,53.1701,13.6942,68.5265,36.6364l7.8582,11.7366,7.8582-11.7366c15.361-22.9376,40.9811-36.6364,68.5311-36.6364,44.8825,0,81.8514,37.0196,82.4054,82.5208Z"/>
</svg>