<svg xmlns="http://www.w3.org/2000/svg" width="69.3" height="100" viewBox="0 0 69.3 100">
<path d="M34.1,58.9c0.1,0,0.1,0,0.2,0h0.1h0.1c0.1,0,0.1,0,0.2,0c1.5,0,4.1-1,5.8-1.9c0.1-0.1,0.2-0.1,0.2-0.1
	c0.5-0.2,0.7-0.8,0.5-1.2c-0.2-0.5-0.8-0.7-1.2-0.5c-0.1,0-0.1,0.1-0.3,0.1c-3,1.4-4.4,1.7-5.1,1.7c-0.1,0-0.1,0-0.1,0h-0.1h-0.1
	c-0.1,0-0.1,0-0.1,0c-1.5,0-2.9-0.7-4.2-1.3c-5.5-2.7-13.1-3.3-21-1.7c-2.6,0.5-4,0.3-4.8-0.6c-1-1.3-0.4-3.3,0-4.4
	c2.6-6.3,1.9-9.7-1-15.4c-0.7-1.5-1.3-2.7-1.3-4.2v-0.1v-0.1c0-1.5,0.6-2.8,1.3-4.2c2.8-5.7,3.6-9,1-15.4c-0.4-1-1-3,0.1-4.3
	C5,4.5,6.4,4.3,9,4.8c7.8,1.6,15.5,1,21-1.7c1.3-0.6,2.7-1.3,4.2-1.3c0.1,0,0.1,0,0.1,0h0.1h0.1c0,0,0.1,0,0.1,0
	c1.5,0,2.9,0.7,4.2,1.3c5.3,2.6,13,3.3,20.8,1.7c2.6-0.5,4-0.3,4.8,0.6c1,1.2,0.5,3.3,0.1,4.3c-2.6,6.3-1.9,9.7,1,15.4
	c0.7,1.5,1.3,2.7,1.3,4.2v0.1v0.1c0,1.5-0.6,2.8-1.3,4.2c-2.8,5.6-3.6,9-1,15.3c0.4,1,1,3-0.1,4.3c-0.8,0.9-2.3,1.1-4.8,0.6
	c-1.9-0.4-3.9-0.6-5.7-0.8c-0.5-0.1-1,0.3-1,0.8c0,0.5,0.3,1,0.8,1c1.9,0.1,3.7,0.3,5.5,0.8c2.2,0.5,4.9,0.7,6.6-1.2
	c1.2-1.5,1.4-3.7,0.3-6.2c-2.4-5.6-1.8-8.4,1-13.9c0.8-1.6,1.5-3.1,1.5-5c0-0.1,0-0.1,0-0.1v-0.1c0-0.1,0-0.1,0-0.1
	c0-1.9-0.7-3.5-1.5-5c-2.8-5.5-3.3-8.2-1-13.9c1-2.5,0.9-4.7-0.3-6.2c-1.7-2-4.4-1.7-6.6-1.2C52,4.6,44.7,4,39.7,1.5
	C38.2,0.8,36.6,0,34.6,0c-0.1,0-0.1,0-0.2,0h-0.1h-0.1c-0.1,0-0.1,0-0.2,0c-1.9,0-3.6,0.8-5,1.5C24,4,16.8,4.6,9.3,3
	C7.1,2.6,4.4,2.4,2.7,4.3C1.5,5.8,1.3,8,2.4,10.5c2.4,5.6,1.8,8.4-1,13.9c-0.7,1.5-1.4,3.1-1.4,5c0,0.1,0,0.1,0,0.1v0.1
	c0,0.1,0,0.1,0,0.1c0,1.9,0.7,3.5,1.5,5c2.8,5.5,3.3,8.2,1,13.9c-1.1,2.5-1,4.7,0.3,6.2c1.6,1.9,4.4,1.7,6.6,1.2
	c7.5-1.5,14.7-1,19.8,1.5C30.6,58.1,32.2,58.9,34.1,58.9L34.1,58.9z" fill="currentColor"/>
<path d="M53.9,47.1c-0.5,0-0.9,0.4-0.9,0.9c0,0.5,0.4,0.9,0.9,0.9h5.4V10H9.4v39h30.9c0.5,0,0.9-0.4,0.9-0.9c0-0.5-0.4-0.9-0.9-0.9
	h-29V11.8h46.2v35.2H53.9z" fill="currentColor"/>
<path d="M69.2,72.3c0-2.2-1.9-4-4.2-4c-0.6,0-1.3,0.1-1.9,0.4c-0.4-1.7-1.9-3.1-3.7-3.2c-0.8-0.1-1.7,0.1-2.4,0.6
	c-0.3-1.9-1.9-3.3-3.9-3.3c-0.8,0-1.5,0.1-2.1,0.5V47.9c0-2.2-1.7-4-3.8-4.2c-1.1-0.1-2.2,0.3-3,1.1c-0.8,0.8-1.3,1.9-1.3,3V74v0.1
	c0,0.1,0,0.1,0,0.2c-0.1,0.1-0.5,0.3-1.1,0.4c-1,0.1-1.7-0.5-2.5-2.2c-0.8-1.7-1.5-3.4-2.4-5.1c-0.9-1.9-2.6-3.1-4.4-3.3
	c-1-0.1-1.8-0.1-2.7,0.2c-0.5,0.1-1.2,0.3-1.6,1c-0.4,0.8,0,1.7,0.2,2.3v0.1c1.2,2.5,2.3,5.1,3.3,7.6c0.3,0.9,0.8,1.8,1.1,2.6
	c0.6,1.2,1,2.5,1.6,3.7c1,2.3,1.9,4.6,3,6.9c0.8,1.7,1.6,3.6,2.9,5.3c1.1,1.4,2.6,2.6,4.2,3.7c2.5,1.6,5.5,2.4,8.7,2.4
	c1.2,0,2.4-0.1,3.7-0.3c4.1-0.7,6.1-1.8,8.7-4.9c0.1-0.1,3.3-3.7,3.4-11C69.3,78.3,69.2,72.6,69.2,72.3L69.2,72.3z M67.4,83.5
	c-0.1,6.5-2.9,9.8-3,9.8c-2.4,2.8-3.9,3.7-7.6,4.3c-4.2,0.8-8,0.1-11.1-1.8c-1.5-0.9-2.7-2.1-3.7-3.3c-1.2-1.5-1.9-3.1-2.7-4.8
	c-1-2.3-2-4.6-2.9-6.9c-0.6-1.2-1-2.5-1.6-3.7c-0.3-0.9-0.8-1.8-1.1-2.6c-1-2.6-2.1-5.1-3.3-7.7v-0.1c-0.1-0.1-0.2-0.5-0.3-0.6
	c0.1-0.1,0.3-0.1,0.5-0.1c0.6-0.1,1.2-0.2,1.9-0.1c1.2,0.1,2.4,1,3,2.3c0.8,1.7,1.6,3.3,2.3,5c0.4,1,1.7,3.8,4.5,3.3
	c1.6-0.3,2.6-1,2.6-2.1c0-0.1,0-0.1,0-0.1V74V47.7c0-0.6,0.3-1.2,0.7-1.6c0.5-0.4,1-0.6,1.7-0.6c1.2,0.1,2.1,1.1,2.1,2.3v16.3
	c0,0.6,0.3,1,0.8,1.2c0.5,0.2,1,0.1,1.4-0.3c0.4-0.4,1-0.7,1.6-0.6c1.2,0,2.1,1,2.1,2.4v0.4c0,0.6,0.3,1,0.8,1.2
	c0.5,0.2,1,0.1,1.5-0.3c0.5-0.5,1.1-0.8,1.8-0.7c1.2,0.1,2.1,1.1,2.1,2.3c0,0.5,0.3,1,0.8,1.2c0.5,0.2,1,0.1,1.4-0.2
	c0.4-0.3,0.9-0.6,1.5-0.6c1.2,0,2.3,1,2.3,2.2l0,0C67.4,72.4,67.5,78.1,67.4,83.5L67.4,83.5z" fill="currentColor"/>
<path d="M34.5,18.3c-1.9-2.1-4.6-3.4-7.4-3.4c-5.4,0-9.8,4.4-9.8,9.8c-0.1,3.5,1.8,7.2,5.5,10.9c4.6,4.6,11.2,8.1,11.7,8.1l0,0
	c0.6,0,7.1-3.5,11.8-8.1c3.7-3.7,5.6-7.3,5.5-10.9c-0.1-5.4-4.5-9.8-9.8-9.8C39.1,14.9,36.4,16.1,34.5,18.3L34.5,18.3z M49.9,24.8
	c0.1,8.4-13,15.8-15.4,17c-2.4-1.2-15.5-8.6-15.4-17c0.1-4.4,3.7-8,8-8c2.7,0,5.2,1.3,6.6,3.5l0.8,1.1l0.8-1.1
	c1.5-2.2,4-3.5,6.6-3.5C46.3,16.8,49.9,20.4,49.9,24.8L49.9,24.8z" fill="currentColor"/>
</svg>
