<svg xmlns="http://www.w3.org/2000/svg" width="24" height="24" viewBox="0 0 24 24">
    <path d="M11.2,10c0-0.6-0.2-1.1-0.4-1.6c-0.4-0.7-0.9-1.3-1.6-1.6C8.3,6.3,7.4,6.2,6.5,6.4C4.6,7,3.4,9,3.9,10.9
    c0.1,0.2,0.1,0.4,0.2,0.6c0.6,1.2,1.7,1.9,3,2.1c-0.5,0.8-1.2,1.4-2,1.9c-0.3,0.2-0.6,0.5-0.8,0.8c-0.2,0.5,0,1.1,0.5,1.3 c0.1,0.1,0.3,0.1,0.4,0.1c0.3,0,0.6-0.1,0.9-0.3c1.7-0.8,3-2.1,4-3.7c0.5-0.9,0.8-1.8,0.9-2.8C11.1,10.6,11.2,10.3,11.2,10z" fill="currentColor"/>
    <path d="M20.2,10c0-0.6-0.1-1.1-0.4-1.6c-0.4-0.7-0.9-1.3-1.6-1.6c-1.8-0.9-4-0.2-4.9,1.6c-0.3,0.6-0.4,1.3-0.4,2
    c0,0.4,0.2,0.8,0.3,1.2c0.6,1.2,1.7,1.9,3,2.1c-0.5,0.8-1.2,1.4-2,1.9c-0.3,0.2-0.6,0.5-0.8,0.8c-0.1,0.3-0.1,0.7,0.1,1 c0.2,0.3,0.5,0.4,0.9,0.4c0.3,0,0.6-0.1,0.9-0.3c1.7-0.8,3.1-2.1,4-3.7c0.5-0.9,0.8-1.8,0.9-2.8C20.2,10.6,20.2,10.3,20.2,10z" fill="currentColor"/>
</svg>
