<svg width="34" height="22" viewBox="0 0 34 22" fill="none" xmlns="http://www.w3.org/2000/svg">
    <path fill-rule="evenodd" clip-rule="evenodd" d="M23 11C23 14.3137 20.3137 17 17 17C13.6863 17 11 14.3137 11 11C11 7.68629 13.6863 5 17 5C20.3137 5 23 7.68629 23 11ZM22 11C22 13.7614 19.7614 16 17 16C14.2386 16 12 13.7614 12 11C12 8.23858 14.2386 6 17 6C19.7614 6 22 8.23858 22 11Z" fill="white"/>
    <path fill-rule="evenodd" clip-rule="evenodd" d="M17 0C26.769 0 34 11 34 11C34 11 26.8049 22 17 22C6.1719 22 0 11 0 11C0 11 7.38277 0 17 0ZM1.9431 12.1317C1.6249 11.6929 1.37589 11.3202 1.1982 11.043C1.40791 10.7595 1.70384 10.3723 2.07828 9.91388C2.89753 8.91098 4.08623 7.5753 5.56344 6.24245C8.54736 3.55013 12.563 1 17 1C21.5147 1 25.5307 3.5525 28.4912 6.24037C29.9579 7.57206 31.1318 8.90657 31.9387 9.9085C32.2925 10.3478 32.5745 10.7216 32.7786 11.0013C32.5755 11.2807 32.2948 11.6541 31.9427 12.0928C31.1387 13.0945 29.9684 14.4287 28.5041 15.7601C25.5492 18.4469 21.5331 21 17 21C11.9414 21 7.92585 18.4312 5.12799 15.7748C3.73444 14.4517 2.66421 13.1261 1.9431 12.1317Z" fill="white"/>
</svg>
