<svg width="44" height="44" viewBox="0 0 44 44" fill="none" xmlns="http://www.w3.org/2000/svg">
    <path d="M5.5 22.0093L4.66189 21.4638L4.33638 21.9639L4.62195 22.4879L5.5 22.0093ZM38.5 22.0093L39.344 22.5456L39.6854 22.0084L39.3432 21.4718L38.5 22.0093ZM22 10C16.95 10 12.5872 12.9639 9.56844 15.7725C8.04321 17.1916 6.82178 18.6076 5.98163 19.6682C5.56094 20.1992 5.23425 20.6432 5.0113 20.9566C4.89978 21.1133 4.81411 21.2375 4.75549 21.3239C4.72618 21.367 4.70362 21.4007 4.68798 21.4243C4.68015 21.436 4.67405 21.4453 4.6697 21.4519C4.66752 21.4552 4.66578 21.4579 4.66448 21.4599C4.66383 21.4608 4.66329 21.4617 4.66285 21.4623C4.66264 21.4627 4.6624 21.463 4.66229 21.4632C4.66208 21.4635 4.66189 21.4638 5.5 22.0093C6.33811 22.5548 6.33798 22.555 6.33787 22.5552C6.33788 22.5552 6.3378 22.5553 6.3378 22.5553C6.33781 22.5553 6.33792 22.5551 6.33814 22.5548C6.33858 22.5541 6.33946 22.5528 6.34076 22.5508C6.34337 22.5468 6.34769 22.5403 6.35371 22.5312C6.36574 22.5131 6.38456 22.485 6.41001 22.4475C6.46092 22.3725 6.53831 22.2602 6.64096 22.116C6.84634 21.8273 7.15239 21.4111 7.54933 20.9101C8.34444 19.9064 9.49781 18.57 10.9308 17.2368C13.8285 14.5408 17.7156 12 22 12V10ZM5.5 22.0093C4.62195 22.4879 4.62215 22.4882 4.62237 22.4887C4.62247 22.4888 4.62271 22.4893 4.62292 22.4897C4.62333 22.4904 4.62384 22.4913 4.62444 22.4924C4.62564 22.4946 4.6272 22.4975 4.62914 22.501C4.63301 22.508 4.63836 22.5176 4.64517 22.5298C4.6588 22.5541 4.67831 22.5885 4.70365 22.6325C4.75433 22.7203 4.8284 22.8461 4.92549 23.0044C5.11961 23.3209 5.40625 23.7681 5.78267 24.3025C6.53436 25.3696 7.65037 26.7933 9.10992 28.2198C12.0167 31.0608 16.3792 34 22 34V32C17.1112 32 13.2237 29.4439 10.5079 26.7895C9.15611 25.4684 8.11767 24.1444 7.41774 23.1507C7.06836 22.6547 6.80489 22.2433 6.63036 21.9587C6.54313 21.8165 6.47823 21.7062 6.43603 21.633C6.41493 21.5965 6.39952 21.5692 6.38984 21.5519C6.385 21.5433 6.38159 21.5372 6.37962 21.5336C6.37864 21.5318 6.37802 21.5307 6.37775 21.5302C6.37762 21.53 6.37758 21.5299 6.37763 21.53C6.37765 21.53 6.37776 21.5302 6.37777 21.5302C6.3779 21.5305 6.37805 21.5307 5.5 22.0093ZM22 34C27.1381 34 31.5003 31.0444 34.5021 28.2347C36.0171 26.8166 37.2223 25.4015 38.0487 24.3415C38.4626 23.8107 38.7831 23.3669 39.0016 23.0535C39.1109 22.8968 39.1948 22.7725 39.2522 22.6861C39.2809 22.6428 39.303 22.6091 39.3184 22.5855C39.326 22.5736 39.332 22.5644 39.3363 22.5577C39.3384 22.5544 39.3402 22.5517 39.3414 22.5497C39.3421 22.5487 39.3426 22.5478 39.3431 22.5471C39.3433 22.5468 39.3435 22.5464 39.3436 22.5463C39.3438 22.5459 39.344 22.5456 38.5 22.0093C37.656 21.473 37.6561 21.4728 37.6562 21.4726C37.6562 21.4726 37.6563 21.4725 37.6563 21.4725C37.6563 21.4725 37.6562 21.4727 37.656 21.473C37.6556 21.4736 37.6547 21.4749 37.6535 21.4769C37.651 21.4808 37.6468 21.4873 37.641 21.4962C37.6293 21.5142 37.611 21.5422 37.5863 21.5794C37.5367 21.654 37.4613 21.7659 37.361 21.9096C37.1605 22.1973 36.8611 22.6121 36.4715 23.1117C35.6912 24.1125 34.5557 25.4451 33.1353 26.7746C30.2662 29.4602 26.3784 32 22 32V34ZM38.5 22.0093C39.3432 21.4718 39.343 21.4715 39.3428 21.4711C39.3427 21.471 39.3425 21.4706 39.3423 21.4703C39.3418 21.4696 39.3413 21.4687 39.3406 21.4677C39.3394 21.4657 39.3376 21.463 39.3355 21.4597C39.3312 21.453 39.3252 21.4438 39.3175 21.4319C39.3021 21.4083 39.2799 21.3745 39.2511 21.3312C39.1935 21.2447 39.1092 21.1203 38.9995 20.9633C38.7802 20.6495 38.4585 20.2051 38.0433 19.6736C37.2143 18.6121 36.006 17.1949 34.4891 15.7747C31.4842 12.9614 27.1217 10 22 10V12C26.3599 12 30.2474 14.5432 33.1222 17.2347C34.545 18.5667 35.684 19.9019 36.4671 20.9047C36.8581 21.4052 37.1588 21.8209 37.3603 22.1092C37.461 22.2533 37.5368 22.3653 37.5866 22.4401C37.6115 22.4775 37.6299 22.5055 37.6417 22.5235C37.6475 22.5326 37.6517 22.5391 37.6543 22.543C37.6555 22.5449 37.6564 22.5462 37.6568 22.5469C37.657 22.5472 37.6571 22.5474 37.6571 22.5474C37.6571 22.5474 37.657 22.5473 37.657 22.5473C37.6569 22.5471 37.6568 22.5469 38.5 22.0093Z" fill="currentColor" />
    <circle cx="22" cy="22" r="5" stroke="currentColor"/>
</svg>
