<svg xmlns="http://www.w3.org/2000/svg" width="16" height="17" fill="currentColor"><path d="M1 3a.5.5 0 0 0-.5.5.5.5 0 0 0 .5.5h14a.5.5 0 0 0 .5-.5.5.5 0 0 0-.5-.5Z" /><path fill-rule="evenodd" d="M6.5 1C5.677 1 5 1.677 5 2.5v1a.5.5 0 0 0 .5.5h5a.5.5 0 0 0 .5-.5v-1c0-.822-.677-1.5-1.5-1.5Zm0 1h3c.282 0 .5.218.5.5V3H6v-.5c0-.282.218-.5.5-.5Z" clip-rule="evenodd" /><path d="M6.5 6.5A.5.5 0 0 0 6 7v5a.5.5 0 0 0 .5.5.5.5 0 0 0 .5-.5V7a.5.5 0 0 0-.5-.5ZM9.5 6.5A.5.5 0 0 0 9 7v5a.5.5 0 0 0 .5.5.5.5 0 0 0 .5-.5V7a.5.5 0 0 0-.5-.5Z" /><path fill-rule="evenodd" d="M2.5 3a.5.5 0 0 0-.498.541l.924 11.084A1.505 1.505 0 0 0 4.42 16h7.16c.776 0 1.43-.602 1.494-1.375l.924-11.084A.5.5 0 0 0 13.5 3Zm.543 1h9.914l-.879 10.541a.494.494 0 0 1-.498.459H4.42a.494.494 0 0 1-.498-.459Z" clip-rule="evenodd" /></svg>
