<?xml version="1.0" encoding="utf-8"?>
<!-- Generator: Adobe Illustrator 27.2.0, SVG Export Plug-In . SVG Version: 6.00 Build 0)  -->
<svg version="1.1" id="Layer_1" xmlns="http://www.w3.org/2000/svg" xmlns:xlink="http://www.w3.org/1999/xlink" x="0px" y="0px"
	 viewBox="0 0 72 72" style="enable-background:new 0 0 72 72;" xml:space="preserve">
<g>
	<path d="M23.5,21.86H21.8V9.14c0-0.93-0.46-1.47-1.16-1.47c-0.69,0-1.16,0.54-1.16,1.47v16.89c0,2.46,1.16,4.16,3.63,4.7l0.38,0.09
		v31.55c0.08,2.54,0.93,3.63,3.17,3.63c2.15,0,3.16-1.24,3.16-3.78V30.73c2.63-0.31,4.09-1.85,4.09-5.01V9.06
		c0-0.93-0.39-1.39-1.08-1.39c-0.77,0-1.08,0.39-1.08,1.24v12.96h-1.92V9.06c0-0.93-0.31-1.39-1.08-1.39c-0.7,0-1.15,0.54-1.15,1.47
		v12.72h-1.78V9.14c0-0.93-0.46-1.47-1.16-1.47c-0.76,0-1.16,0.54-1.16,1.54V21.86z"/>
	<path d="M40.62,12.46v30.63h3.31v18.97c0,2.47,1.24,3.93,3.17,3.93c2.15,0,3.16-1.47,3.16-4.01V12.46c0-2.55-2.16-4.79-4.86-4.79
		C42.86,7.67,40.62,9.83,40.62,12.46z"/>
</g>
</svg>
