<svg xmlns="http://www.w3.org/2000/svg" width="200" height="200" viewBox="0 0 200 200">
<g>
	<path d="M65.1,52h-5.3V12.3c0-2.9-1.4-4.6-3.6-4.6c-2.2,0-3.6,1.7-3.6,4.6v52.8c0,7.7,3.6,13,11.3,14.7l1.2,0.3v98.6
		C65.3,186.6,68,190,75,190c6.7,0,9.9-3.9,9.9-11.8V79.8c8.2-1,12.8-5.8,12.8-15.7V12c0-2.9-1.2-4.3-3.4-4.3c-2.4,0-3.4,1.2-3.4,3.9
		v40.5h-6V12c0-2.9-1-4.3-3.4-4.3c-2.2,0-3.6,1.7-3.6,4.6V52h-5.6V12.3c0-2.9-1.4-4.6-3.6-4.6c-2.4,0-3.6,1.7-3.6,4.8
		C65.1,12.5,65.1,52,65.1,52z"/>
	<path d="M118.6,22.6v95.7h10.3v59.3c0,7.7,3.9,12.3,9.9,12.3c6.7,0,9.9-4.6,9.9-12.5V22.6c0-8-6.8-15-15.2-15
		C125.6,7.7,118.6,14.4,118.6,22.6z"/>
</g>
</svg>
