<svg xmlns="http://www.w3.org/2000/svg" width="200" height="200" viewBox="0 0 200 200">
    <path fill="none" stroke="currentColor" stroke-width="4" stroke-miterlimit="10" d="M43.6,68.9c-7.8,0.9-13.3,8-12.4,15.8c0.9,7.1,6.9,12.5,14.1,12.5h0.2c4.8,20.8,16.6,37.8,32.1,46.5
	c0,0,0.1,30.5-20.2,40.6c0,0,42.5,26.3,87.1,0c0,0-24.4-10.9-18.3-41.9c14.4-9,25.4-25.4,29.9-45.3c7.2-0.7,12.7-6.8,12.7-14.1
	c0-6.7-6.6-12.2-12.8-13.8"/>
    <path fill="none" stroke="currentColor" stroke-width="4" stroke-miterlimit="10" d="M42.3,68.8c0,0,52.7-1,72.9-25.3c0,0,14.2,28.4,40.5,26.3c0,0,9.4-65.7-53-65.7C102.7,4.2,42.3,0,42.3,68.8z"/>
    <path d="M62.5,94.2v34.6c0,0,2,20.1,38.5,20.1s36.5-20.3,36.5-20.3V94.2c0,0-20.3,6.1-36.5-6.1C89.3,94.5,75.7,96.6,62.5,94.2z"/>
    <path fill="none" stroke="currentColor" stroke-width="4" stroke-miterlimit="10" d="M66.3,99.2c0,0-18-17.2-22.1-29.4"/>
    <path fill="none" stroke="currentColor" stroke-width="4" stroke-miterlimit="10" d="M132.6,100c0,0,21.1-16,25.1-30.2"/>
    <line fill="none" stroke="#fff" stroke-width="4" stroke-miterlimit="10" x1="72.6" y1="108.3" x2="127.3" y2="108.3"/>
    <line fill="none" stroke="#fff" stroke-width="4" stroke-miterlimit="10" x1="72.6" y1="118.5" x2="127.3" y2="118.5"/>
    <line fill="none" stroke="#fff" stroke-width="4" stroke-miterlimit="10" x1="72.6" y1="128.6" x2="127.3" y2="128.6"/>
    <circle cx="77.7" cy="78.9" r="4.1"/>
    <circle cx="122.3" cy="78.9" r="4.1"/>
</svg>
