<?xml version="1.0" encoding="UTF-8"?>
<svg id="Layer_1" data-name="Layer 1" xmlns="http://www.w3.org/2000/svg" width="772.8186" height="1018.5435" viewBox="0 0 772.8186 1018.5435">
  <defs>
    <style>
      .cls-1 {
        fill: #fff;
        stroke-width: 0px;
      }
    </style>
  </defs>
  <path class="cls-1" d="M369.2915,141.804c4.8802-11.7689,4.1323-22.3558-2.1008-29.817-9.1972-11.0163-25.1353-7.7336-31.1375-6.5147-29.4569,6.0437-57.8242,3.8922-77.8207-5.896-5.9791-2.9226-13.4172-6.5655-22.4251-6.5655l-.965.0277-.9742-.0277c-9.0125,0-16.4506,3.6429-22.4297,6.5701-19.9919,9.7882-48.3545,11.9351-77.8161,5.896-6.0068-1.2328-21.9495-4.5063-31.1375,6.5054-6.2377,7.4658-6.981,18.0574-2.1008,29.8216,8.8648,21.3632,6.9533,31.4007-3.7306,52.6715-3.4767,6.9348-6.6024,13.8697-6.6024,22.499,0,.2586.0092.5171.0231.5171,0,0,.0046-.0046.0046-.0092l-.0277.8495c0,8.6293,3.1258,15.5641,6.607,22.499,10.6793,21.2708,12.5907,31.3083,3.726,52.6761-4.8802,11.7643-4.1323,22.3512,2.0961,29.8124,9.1926,11.0071,25.1307,7.7428,31.1421,6.5101,29.4569-6.0345,57.8195-3.8922,77.8161,5.9006,5.9791,2.9226,13.4172,6.5655,22.4297,6.5655l.9603-.0277.9788.0277c9.0079,0,16.446-3.6429,22.4251-6.5655,19.9873-9.7928,48.3638-11.9444,77.8161-5.896,6.0022,1.2235,21.9449,4.5016,31.1375-6.5101,6.2377-7.4612,6.9856-18.0527,2.1054-29.8216-8.8648-21.3678-6.9579-31.4053,3.7214-52.6669,2.6317-5.2311,6.607-13.1402,6.607-22.5036v-1.3574c0-9.3634-3.9753-17.2724-6.607-22.499-10.6793-21.2662-12.5861-31.3037-3.7214-52.6715ZM363.0677,216.9791l-.0231.5633.0277.7895c0,5.0372-2.1008,9.6127-4.8433,15.0747-12.0367,23.9626-15.5041,39.2451-4.22,66.435,1.1173,2.7056,3.4074,9.368.4756,12.877-1.9207,2.2993-6.8656,2.5902-15.1117.9049-32.9659-6.764-65.2022-4.123-88.4168,7.2396-5.1203,2.5071-9.9544,4.8756-15.3517,4.8756h-.0323l-.9696-.0185-.7341.0277c-5.1803,0-10.0237-2.3732-15.1532-4.8802-14.7561-7.2257-33.1505-10.924-53.0686-10.924-11.418,0-23.3347,1.2143-35.3483,3.6798-8.2507,1.6852-13.191,1.3944-15.1163-.9096-2.9226-3.5044-.6325-10.1668.4848-12.8678,11.2841-27.1945,7.8167-42.4724-4.22-66.4396-2.7472-5.4666-4.8479-10.0514-4.8479-14.9824l.0323-.6187-.0323-.8311c0-5.0234,2.1008-9.6081,4.8433-15.0747,12.0413-23.9672,15.5087-39.2451,4.2246-66.4396-1.1219-2.701-3.412-9.3634-.4802-12.8724,1.9207-2.2947,6.861-2.5856,15.1117-.9049,32.9797,6.764,65.2022,4.123,88.4168-7.2396,5.1203-2.5071,9.9544-4.8756,15.3564-4.8756h.0323l.9696.0185.7341-.0277c5.1757,0,10.019,2.3732,15.1486,4.8849,23.2146,11.358,55.4371,14.0128,88.4215,7.2396,8.2368-1.6806,13.1817-1.3944,15.1117.9096,2.9318,3.5044.6418,10.1668-.4802,12.8678-11.2841,27.1945-7.8167,42.477,4.22,66.4442,2.6502,5.2681,4.8433,10.0421,4.8433,15.0701h8.2738l-8.2784.0046Z"/>
  <path class="cls-1" d="M140.4281,290.4274h188.815v-145.5484h-188.815v145.5484ZM156.9757,161.4265h155.7198v112.4533h-155.7198v-112.4533Z"/>
  <path class="cls-1" d="M103.8055,629.8511h108.5519c4.5709,0,8.2738-3.7029,8.2738-8.2738s-3.7029-8.2738-8.2738-8.2738h-108.5519c-4.5709,0-8.2738,3.7029-8.2738,8.2738s3.7029,8.2738,8.2738,8.2738Z"/>
  <path class="cls-1" d="M741.1547,386.7256v-49.7997l-43.188,4.4474v-46.3796l-52.7823,10.9817v-50.9286l-175.5086,59.4554V72.5387C469.6758,32.5411,437.1347,0,397.137,0H72.5387C32.5411,0,0,32.5411,0,72.5387v695.8151c0,39.9977,32.5411,72.5387,72.5387,72.5387h176.0442v177.6509h524.2357V386.7256h-31.6638ZM722.2432,386.7256h-280.0736l24.1773-2.4898,255.8963-26.3484v28.8382ZM413.1536,333.6498l-158.1484,53.5744.0462.17c-3.7687,1.4252-6.4685,5.0427-6.4685,9.3043v29.5446H103.8055c-4.5709,0-8.2738,3.7029-8.2738,8.2738s3.7029,8.2738,8.2738,8.2738h144.7774v28.141H103.8055c-4.5709,0-8.2738,3.7029-8.2738,8.2738s3.7029,8.2738,8.2738,8.2738h144.7774v31.1606H103.0576c-4.5709,0-8.2738,3.7029-8.2738,8.2738s3.7029,8.2738,8.2738,8.2738h145.5253v31.1606H103.0576c-4.5709,0-8.2738,3.7029-8.2738,8.2738s3.7029,8.2738,8.2738,8.2738h145.5253v204.0328H76.6248c-11.0856,0-20.1027-9.0171-20.1027-20.1027V79.275c0-11.0856,9.0171-20.1027,20.1027-20.1027h316.4261c11.0856,0,20.1027,9.0171,20.1027,20.1027v254.3747ZM679.0552,318.2452v25.0753l-238.617,24.5715,204.7462-42.5965v-.0032l33.8708-7.0471ZM626.2729,281.4195v28.4905l-217.9487,45.3459,31.65-10.7229,29.7016-10.0589v-.0032l156.5971-53.0515ZM72.5387,821.9811c-29.5723,0-53.6272-24.0549-53.6272-53.6272V72.5387c0-29.5723,24.0549-53.6272,53.6272-53.6272h324.5983c29.5723,0,53.6272,24.0549,53.6272,53.6272v248.3699l-18.6991,6.3346V79.275c0-21.5109-17.5033-39.0142-39.0142-39.0142H76.6248c-21.5109,0-39.0142,17.5033-39.0142,39.0142v687.5506c0,21.5109,17.5033,39.0142,39.0142,39.0142h171.9581v16.1413H72.5387ZM753.9071,999.632h-486.4127v-164.6772c.8518-1.9617.943-3.0565.8726-21.3675-.0531-13.5116-.0762-18.3554-.8726-20.8637v-387.0866h486.4127v593.9949Z"/>
  <path class="cls-1" d="M607.6476,605.6161c-6.3577-4.5894-15.2225-3.1581-19.8072,3.1858l-88.523,122.4585-60.6313-66.1487c-5.2912-5.776-14.2667-6.1638-20.0427-.8726-5.776,5.2958-6.1638,14.2667-.8726,20.0427l69.1452,75.429c3.4536,3.7629,8.2599,5.8683,13.3295,5.8683.3509,0,.7064-.0092,1.0573-.0277,5.4528-.3186,10.4161-3.0334,13.6296-7.4658l95.9011-132.6622c4.5894-6.3485,3.1627-15.2179-3.1858-19.8072Z"/>
</svg>