<svg xmlns="http://www.w3.org/2000/svg" width="75.9804" height="100" viewBox="0 0 75.9804 100">
  <path d="M36.6218,19.1311c-1.0194-2.0292-1.1896-2.9233-.3543-4.9367.498-1.2005.4161-2.2884-.2309-3.0632-.9562-1.1449-2.572-.8137-3.1803-.689-2.8066.5756-5.5036.3733-7.3994-.5546-.5938-.2907-1.333-.6524-2.2441-.6524-.0315,0-.0627.001-.0937.0023-.0311-.0013-.0623-.0023-.0937-.0023-.9113,0-1.6503.3618-2.2442.6524-1.8959.928-4.5931,1.13-7.3994.5546-.6085-.1247-2.2242-.456-3.1803.6891-.6471.7748-.729,1.8627-.2308,3.0632.8352,2.0134.665,2.9075-.3544,4.9367-.2616.5207-.657,1.3076-.657,2.2533,0,.022.0006.0437.0015.0648-.001.0219-.0015.0439-.0015.0662,0,.9458.3954,1.7326.657,2.2533,1.0194,2.0292,1.1896,2.9233.3543,4.9367-.4981,1.2006-.4161,2.2884.2309,3.0631.9563,1.1452,2.572.8138,3.1803.6891,2.8068-.5755,5.5037-.3733,7.3994.5546.5938.2907,1.3329.6524,2.2441.6524.0315,0,.0627-.001.0937-.0023.0311.0013.0623.0023.0938.0023.9113,0,1.6503-.3617,2.2441-.6524,1.8957-.928,4.5928-1.1302,7.3994-.5546.6083.1247,2.2242.4561,3.1802-.6891.6471-.7748.7291-1.8626.2309-3.0632-.8352-2.0134-.665-2.9075.3544-4.9367.2616-.5207.657-1.3076.657-2.2534,0-.022-.0006-.0437-.0015-.0648.001-.0219.0015-.0439.0015-.0662,0-.9457-.3954-1.7326-.657-2.2533ZM35.3203,21.4711c.0004.0174.0011.0346.0023.0564-.0035.442-.1968.8614-.4488,1.3629-1.188,2.3646-1.5296,3.8737-.4132,6.5646.1964.4733.225.8793.0744,1.0596-.0772.0926-.3468.2192-1.2857.0266-3.222-.6606-6.3756-.4003-8.6525.714-.4762.2331-.926.4532-1.3799.4533l-.098-.0035-.0937.0034c-.4581,0-.9079-.2201-1.3841-.4532-2.2767-1.1144-5.4306-1.3745-8.6525-.714-.9386.1925-1.2088.0658-1.2859-.0267-.1504-.1802-.1219-.5862.0745-1.0596,1.1164-2.6909.7749-4.1999-.4131-6.5646-.252-.5014-.4452-.921-.4487-1.3629.001-.0187.0017-.0374.0022-.0564l.0004-.0213-.0004-.0213c-.0004-.0173-.0011-.0345-.0022-.0563.0034-.442.1967-.8614.4487-1.3629,1.188-2.3646,1.5296-3.8737.4132-6.5646-.1965-.4733-.225-.8793-.0744-1.0596.0774-.0925.347-.219,1.2857-.0266,3.2222.6607,6.3758.4003,8.6525-.714.4762-.2331.9261-.4533,1.3799-.4533l.098.0036.0937-.0035c.458,0,.9079.2202,1.3841.4533,2.2766,1.1144,5.4303,1.3745,8.6525.714.9385-.1926,1.2086-.066,1.2859.0266.1504.1802.1219.5862-.0745,1.0596-1.1164,2.6909-.7749,4.1999.4131,6.5646.252.5014.4452.9209.4488,1.3629-.0011.0187-.0018.0374-.0023.0563l-.0004.0213.0004.0213Z" fill="currentColor"/>
  <path d="M13.8237,28.6562h18.5905v-14.4126H13.8237v14.4126ZM15.78,16.1998h14.6781v10.5001h-14.6781v-10.5001Z" fill="currentColor"/>
  <path d="M10.4667,61.4314h10.4818c.5402,0,.9781-.4379.9781-.9781s-.438-.9781-.9781-.9781h-10.4818c-.5402,0-.9781.4379-.9781.9781s.438.9781.9781.9781Z" fill="currentColor"/>
  <path d="M73.7701,38.663v-5.9479l-4.2335.4433v-4.6295l-5.1746,1.0947v-5.0858l-18.3513,6.3212V7.3554c0-3.9212-3.1901-7.1113-7.1113-7.1113H7.3407C3.4195.2441.2294,3.4342.2294,7.3554v67.6497c0,3.9212,3.1901,7.1113,7.1113,7.1113h18.041v17.6395h50.3693v-61.0929h-1.9809ZM71.8138,38.663h-36.063l32.9054-3.4454c.0016-.0002.0031-.0003.0047-.0005l3.1529-.3301v3.776ZM40.3978,32.7924l-14.3584,4.9458c-.0105.0036-.0203.0083-.0306.0123-.018.0069-.0361.0136-.0535.0215-.0128.0058-.025.0123-.0374.0186-.0164.0083-.0328.0164-.0486.0255-.0134.0077-.0261.0162-.039.0244-.0138.0088-.0276.0175-.0408.0269-.0138.0098-.0268.0204-.04.0309-.0114.0091-.0229.018-.0339.0276-.0135.0117-.0261.0241-.0389.0366-.0097.0095-.0196.0188-.0289.0286-.0124.0132-.0241.0269-.0357.0407-.0086.0102-.0174.0203-.0256.0309-.0107.0139-.0207.0283-.0308.0427-.008.0115-.0161.0229-.0236.0348-.0088.014-.0169.0284-.025.0428-.0074.0131-.0149.0262-.0217.0397-.007.0139-.0132.028-.0195.0422-.0066.0147-.0132.0293-.019.0442-.0054.0139-.01.028-.0148.0421-.0053.0157-.0107.0313-.0152.0473-.0041.0144-.0073.0291-.0107.0437-.0037.016-.0075.0319-.0105.0481-.0028.0157-.0047.0316-.0068.0474-.002.0153-.0042.0305-.0054.046-.0014.0176-.0018.0354-.0023.0532-.0003.0139-.001.0278-.0008.0418.0002.0117.0009.0234.0015.0351v2.6988h-14.915c-.5402,0-.9781.4379-.9781.9781s.438.9781.9781.9781h14.915v2.3588h-14.915c-.5402,0-.9781.4379-.9781.9781s.438.9781.9781.9781h14.915v2.6504h-14.9872c-.5402,0-.9781.4379-.9781.9781s.438.9781.9781.9781h14.9872v2.6504h-14.9872c-.5402,0-.9781.4379-.9781.9781s.438.9781.9781.9781h14.9872v19.8554H7.738c-1.0454,0-1.8958-.8505-1.8958-1.8958V8.01c0-1.0453.8504-1.8957,1.8958-1.8957h30.7642c1.0453,0,1.8957.8504,1.8957,1.8957v24.7824ZM67.5803,33.3633l-22.6593,2.3726,18.6574-3.9469c.002-.0004.004-.0008.006-.0013l3.996-.8453v2.4209ZM62.4057,30.0375l-20.742,4.3879,20.742-7.1447v2.7568ZM7.3407,80.1601c-2.8425,0-5.155-2.3125-5.155-5.1551V7.3554c0-2.8425,2.3125-5.1551,5.155-5.1551h31.5587c2.8425,0,5.155,2.3125,5.155,5.1551v24.1774l-1.7003.5857V8.01c0-2.124-1.728-3.8519-3.8519-3.8519H7.738c-2.124,0-3.852,1.728-3.852,3.8519v66.8466c0,2.124,1.728,3.852,3.852,3.852h17.6437v1.4515H7.3407ZM73.7947,97.7996H27.3379v-57.1804h46.4568v57.1804Z" fill="currentColor"/>
  <path d="M59.6812,60.0876c-.438-.3166-1.0492-.2181-1.3657.2196l-9.1369,12.6394-4.5457-4.9589c-.365-.3981-.9838-.4253-1.3819-.0601-.3982.365-.4252.9838-.0601,1.382l5.0327,5.4902c.261.2847.6245.4439,1.0077.4439.0268,0,.0538-.0008.0807-.0024.4125-.024.7878-.2299,1.0296-.5645l9.5592-13.2235c.3165-.4378.2181-1.0492-.2197-1.3657Z" fill="currentColor"/>
</svg>
