<svg xmlns="http://www.w3.org/2000/svg" width="75.9" height="100" viewBox="0 0 75.9 100">
<path d="M36.3,13.9c0.5-1.1,0.4-2.2-0.2-3c-0.9-1.1-2.5-0.8-3-0.6c-2.9,0.6-5.7,0.4-7.7-0.6c-0.6-0.3-1.3-0.6-2.2-0.6h-0.1H23
	c-0.9,0-1.6,0.4-2.2,0.7c-2,1-4.8,1.1-7.7,0.6c-0.6-0.2-2.1-0.5-3,0.6c-0.6,0.8-0.7,1.7-0.2,3c0.8,2.1,0.7,3.1-0.4,5.2
	c-0.3,0.7-0.7,1.4-0.7,2.2v0.1l0,0v0.1c0,0.8,0.3,1.5,0.7,2.2c1.1,2.1,1.2,3.1,0.4,5.2c-0.5,1.1-0.4,2.2,0.2,3
	c0.9,1.1,2.5,0.8,3,0.6c2.9-0.6,5.7-0.4,7.7,0.6c0.6,0.3,1.3,0.6,2.2,0.6h0.1h0.1c0.9,0,1.6-0.4,2.2-0.6c2-1,4.8-1.1,7.7-0.6
	c0.6,0.2,2.1,0.5,3-0.6c0.6-0.8,0.7-1.7,0.2-3c-0.8-2.1-0.7-3.1,0.4-5.2c0.2-0.5,0.7-1.3,0.7-2.2v-0.2c0-0.9-0.4-1.7-0.7-2.2
	C35.6,17,35.4,16,36.3,13.9L36.3,13.9z M35.7,21.3L35.7,21.3v0.2c0,0.5-0.2,0.9-0.5,1.5c-1.2,2.4-1.5,3.9-0.4,6.5
	c0.1,0.3,0.3,0.9,0.1,1.3c-0.2,0.2-0.7,0.2-1.5,0.1c-3.3-0.7-6.4-0.4-8.6,0.7c-0.5,0.2-1,0.5-1.5,0.5l0,0h-0.1h-0.1
	c-0.5,0-1-0.2-1.5-0.5c-1.4-0.7-3.3-1.1-5.2-1.1c-1.1,0-2.3,0.2-3.5,0.4C12,31,11.5,31,11.3,30.8c-0.3-0.4-0.1-1,0.1-1.3
	c1.1-2.7,0.8-4.2-0.4-6.5c-0.3-0.5-0.5-1-0.5-1.4v-0.1v-0.1c0-0.5,0.2-0.9,0.5-1.5c1.2-2.4,1.5-3.9,0.4-6.5
	c-0.1-0.2-0.3-0.9-0.1-1.3c0.2-0.2,0.7-0.2,1.5-0.1c3.3,0.7,6.4,0.4,8.6-0.7c0.5-0.2,1-0.5,1.5-0.5l0,0h0.1h0.1c0.5,0,1,0.2,1.5,0.5
	c2.3,1.1,5.5,1.4,8.6,0.7c0.8-0.2,1.3-0.2,1.5,0.1c0.3,0.4,0.1,1-0.1,1.3c-1.1,2.7-0.8,4.2,0.4,6.5C35.4,20.3,35.7,20.8,35.7,21.3
	h0.8H35.7L35.7,21.3z" fill="currentColor"/>
<path d="M13.8,28.5h18.5V14.2H13.8V28.5z M15.4,15.9h15.3v11.1H15.4V15.9L15.4,15.9z" fill="currentColor"/>
<path d="M10.2,61.8h10.6c0.5,0,0.8-0.4,0.8-0.8s-0.4-0.8-0.8-0.8H10.2c-0.5,0-0.8,0.4-0.8,0.8S9.7,61.8,10.2,61.8z" fill="currentColor"/>
<path d="M72.8,37.9v-4.9l-4.2,0.5V29L63.4,30v-5l-17.2,5.8V7.1C46.1,3.2,42.9,0,39,0H7.1C3.2,0,0,3.2,0,7.1v68.3
	c0,3.9,3.2,7.1,7.1,7.1h17.3V100h51.4V37.9H72.8L72.8,37.9z M70.9,37.9H43.4l2.4-0.2l25.1-2.6L70.9,37.9L70.9,37.9z M40.6,32.8
	L25,38l0,0c-0.4,0.2-0.6,0.5-0.6,0.9v2.9H10.2c-0.5,0-0.8,0.4-0.8,0.8s0.4,0.8,0.8,0.8h14.2v2.7H10.2c-0.5,0-0.8,0.4-0.8,0.8
	c0,0.5,0.4,0.8,0.8,0.8h14.2v3H10.1c-0.5,0-0.8,0.4-0.8,0.8s0.4,0.8,0.8,0.8h14.3v3H10.1c-0.5,0-0.8,0.4-0.8,0.8s0.4,0.8,0.8,0.8
	h14.3v20H7.5c-1.1,0-2-0.9-2-2V7.8c0-1.1,0.9-2,2-2h31c1.1,0,2,0.9,2,2L40.6,32.8L40.6,32.8z M66.7,31.3v2.4l-23.4,2.4l20.1-4.2l0,0
	L66.7,31.3z M61.5,27.6v2.8l-21.4,4.5l3.1-1.1l2.9-1l0,0L61.5,27.6L61.5,27.6z M7.1,80.7c-2.9,0-5.2-2.4-5.2-5.2V7.2
	C1.9,4.3,4.2,2,7.1,2H39c2.9,0,5.2,2.4,5.2,5.2v24.4l-1.8,0.6V7.8c0-2.1-1.7-3.8-3.8-3.8H7.5C5.4,4,3.7,5.8,3.7,7.8v67.5
	c0,2.1,1.7,3.8,3.8,3.8h16.9v1.6H7.1L7.1,80.7z M74.1,98.1H26.3V81.9c0.1-0.2,0.1-0.3,0.1-2.1c0-1.3,0-1.8-0.1-2V39.8H74L74.1,98.1
	L74.1,98.1z" fill="currentColor"/>
<path d="M59.6,59.5c-0.6-0.5-1.5-0.3-2,0.3l-8.6,12l-5.9-6.5c-0.5-0.5-1.4-0.6-2-0.1c-0.5,0.5-0.6,1.4-0.1,2l6.8,7.4
	c0.3,0.4,0.8,0.6,1.3,0.6h0.1c0.5,0,1-0.3,1.4-0.8l9.4-13.1C60.4,60.8,60.2,59.9,59.6,59.5L59.6,59.5z" fill="currentColor"/>
</svg>
