<svg xmlns="http://www.w3.org/2000/svg" width="120" height="92" viewBox="0 0 120 92">
  <title>footer_map_120x920</title>
  <g id="bg">
    <rect x="-720" y="-1428" width="1400" height="2440" fill="none"/>
  </g>
  <g id="icons">
    <g>
      <rect width="120" height="92" fill="#8e847d"/>
      <g>
        <rect x="42" width="6" height="92" fill="#333"/>
        <polygon points="0 86.287 0 80.282 44.208 78.566 120 77.033 120 83.033 44.385 84.563 0 86.287" fill="#333"/>
        <polygon points="0 50.162 0 47.16 45.313 46.035 45.388 49.035 0 50.162" fill="#333"/>
        <polygon points="0 13.56 0 10.558 120 7.526 120 10.528 0 13.56" fill="#333"/>
        <polygon points="7.999 92 6.008 0 9.009 0 11.001 92 7.999 92" fill="#333"/>
        <rect x="74" y="11" width="1" height="81" fill="#333"/>
        <rect x="77" y="11" width="1" height="81" fill="#333"/>
        <rect x="80" y="11" width="1" height="81" fill="#333"/>
        <rect x="83" y="11" width="1" height="81" fill="#333"/>
        <rect x="74" y="41" width="9" height="1" fill="#333"/>
        <rect x="74" y="70" width="9" height="1" fill="#333"/>
        <path d="M60,34a7.0725,7.0725,0,0,0-7,7.1428C53,45.9048,60,54,60,54s7-8.0952,7-12.8572A7.0725,7.0725,0,0,0,60,34Zm0,10a3,3,0,1,1,3-3A3,3,0,0,1,60,44Z" fill="#333"/>
      </g>
    </g>
  </g>
</svg>
