<svg xmlns="http://www.w3.org/2000/svg" width="16" height="16" viewBox="0 0 16 16">
  <path d="M8,1a7,7,0,1,0,7,7A7,7,0,0,0,8,1ZM7.87,11.85c.34,0,.84-.57,1.19-1,.07,0,.19.1.21.18s0,.16-.12.33C8.62,12,7.63,13,6.75,13A.72.72,0,0,1,6,12.21a5.82,5.82,0,0,1,.54-1.89l.78-1.91a3.54,3.54,0,0,0,.3-1,.22.22,0,0,0-.22-.24c-.31,0-.75.57-1,.91C6.28,8,6.17,8,6.16,7.9s0-.16.1-.34c.57-.75,1.52-1.69,2.34-1.69a.7.7,0,0,1,.75.76,5.06,5.06,0,0,1-.46,1.58l-.94,2.28a3.63,3.63,0,0,0-.33,1.09A.25.25,0,0,0,7.87,11.85Zm1.5-7.06A.77.77,0,0,1,8.59,4,.93.93,0,0,1,9.5,3a.78.78,0,0,1,.81.82A.94.94,0,0,1,9.38,4.79Z" fill="currentColor"/>
</svg>
