<?xml version="1.0" encoding="utf-8"?>
<!-- Generator: Adobe Illustrator 17.0.0, SVG Export Plug-In . SVG Version: 6.00 Build 0)  -->
<!DOCTYPE svg PUBLIC "-//W3C//DTD SVG 1.1//EN" "http://www.w3.org/Graphics/SVG/1.1/DTD/svg11.dtd">
<svg version="1.1" id="Layer_1" xmlns="http://www.w3.org/2000/svg" xmlns:xlink="http://www.w3.org/1999/xlink" x="0px" y="0px"
	 width="16px" height="16px" viewBox="0 0 16 16" enable-background="new 0 0 16 16" xml:space="preserve">
	<path fill="currentColor" d="M8.9,8.223L7.754,10.95c-0.198,0.412-0.329,0.853-0.39,1.306c-0.013,0.164,0.11,0.308,0.274,0.32
		c0.008,0.001,0.016,0.001,0.024,0.001c0.412,0,0.997-0.676,1.432-1.146c0.092,0,0.229,0.126,0.252,0.218s0,0.195-0.137,0.39
		c-0.642,0.734-1.822,1.959-2.876,1.959c-0.48,0.033-0.896-0.329-0.929-0.808c-0.003-0.044-0.003-0.087,0.001-0.131
		c0.081-0.795,0.298-1.57,0.642-2.292l0.928-2.292c0.18-0.388,0.299-0.801,0.355-1.226c0.019-0.138-0.077-0.265-0.215-0.285
		C7.099,6.962,7.083,6.961,7.067,6.962c-0.378,0-0.894,0.676-1.215,1.089c-0.092,0-0.218-0.103-0.229-0.183
		c-0.011-0.081,0-0.195,0.126-0.412c0.676-0.894,1.822-2.017,2.796-2.017c0.46-0.033,0.861,0.314,0.894,0.774
		c0.003,0.044,0.003,0.087-0.001,0.131C9.362,6.994,9.18,7.629,8.9,8.223z"/>
	<path fill="currentColor" d="M9.484,4.132C8.979,4.145,8.557,3.747,8.543,3.241c-0.001-0.032,0-0.063,0.003-0.094C8.544,2.536,9.023,2.032,9.634,2.001
		c0.513-0.02,0.944,0.379,0.963,0.891c0.001,0.032,0.001,0.063-0.001,0.094C10.596,3.605,10.103,4.114,9.484,4.132z"/>
</svg>
