<svg xmlns="http://www.w3.org/2000/svg" width="24" height="24" viewBox="0 0 24 24">
      <path d="M12,3a9,9,0,1,1-9,9,9,9,0,0,1,9-9m0-1A10,10,0,1,0,22,12,10,10,0,0,0,12,2Z" fill="currentColor"/>
      <path d="M12.92,12l-1,2.38a3.78,3.78,0,0,0-.34,1.14.26.26,0,0,0,.26.28c.36,0,.87-.59,1.25-1,.08,0,.2.11.22.19s0,.17-.12.34c-.56.64-1.59,1.71-2.51,1.71a.76.76,0,0,1-.81-.82,6.08,6.08,0,0,1,.56-2l.81-2a3.69,3.69,0,0,0,.31-1.07.22.22,0,0,0-.23-.25c-.33,0-.78.59-1.06.95-.08,0-.19-.09-.2-.16s0-.17.11-.36c.59-.78,1.59-1.76,2.44-1.76a.73.73,0,0,1,.78.79A5.28,5.28,0,0,1,12.92,12Z" fill="currentColor"/>
      <path d="M13.43,8.43a.8.8,0,0,1-.82-.86,1,1,0,0,1,.95-1,.81.81,0,0,1,.84.86A1,1,0,0,1,13.43,8.43Z" fill="currentColor"/>
</svg>
