<svg xmlns="http://www.w3.org/2000/svg" width="32" height="32" viewBox="0 0 32 32">
      <circle cx="16" cy="16" r="13" opacity="0.5" style="isolation: isolate"/>

        <path d="M17.2246,16.0055,15.9167,19.18a5.0428,5.0428,0,0,0-.4564,1.515.3435.3435,0,0,0,.3529.3737c.4772,0,1.1621-.7887,1.66-1.3906.1035.0417.27.1455.29.2493.0833.1243.0208.2282-.166.4564-.7467.8509-2.1165,2.2826-3.3411,2.2826a1.0083,1.0083,0,0,1-1.0788-1.1,8.1049,8.1049,0,0,1,.7467-2.6354l1.0794-2.6562a4.92,4.92,0,0,0,.4147-1.432.3.3,0,0,0-.3112-.332c-.4355,0-1.0378.7884-1.4108,1.266-.1042-.0417-.2493-.1247-.27-.2077-.0827-.1243-.041-.2282.1458-.4772.7884-1.0378,2.1165-2.3451,3.2578-2.3451a.9756.9756,0,0,1,1.0378,1.0583A7.0368,7.0368,0,0,1,17.2246,16.0055Z" fill="#fff"/>
        <path d="M17.9063,11.2451a1.0677,1.0677,0,0,1-1.1-1.1413,1.29,1.29,0,0,1,1.2656-1.349,1.0848,1.0848,0,0,1,1.1211,1.1416A1.3071,1.3071,0,0,1,17.9063,11.2451Z" fill="#fff"/>
</svg>
