<?xml version="1.0" encoding="UTF-8"?>
<svg id="Layer_1" data-name="Layer 1" xmlns="http://www.w3.org/2000/svg" viewBox="0 0 21 21">
  <path d="m10.52,5.09c-3,0-5.39,2.44-5.39,5.39s2.39,5.39,5.39,5.39,5.39-2.39,5.39-5.39-2.44-5.39-5.39-5.39Zm0,8.91c-1.92,0-3.52-1.55-3.52-3.52s1.55-3.47,3.52-3.47,3.47,1.55,3.47,3.47-1.55,3.52-3.47,3.52Zm6.84-9.09c0,.7-.56,1.27-1.27,1.27s-1.27-.56-1.27-1.27.56-1.27,1.27-1.27,1.27.56,1.27,1.27Zm3.56,1.27c-.09-1.69-.47-3.19-1.69-4.41-1.22-1.22-2.72-1.59-4.41-1.69C13.1-.02,7.9-.02,6.16.07c-1.69.09-3.14.47-4.41,1.69C.54,2.98.16,4.48.07,6.16-.02,7.9-.02,13.1.07,14.84c.09,1.69.47,3.14,1.69,4.41,1.27,1.22,2.72,1.59,4.41,1.69,1.73.09,6.94.09,8.67,0,1.69-.09,3.19-.47,4.41-1.69,1.22-1.27,1.59-2.72,1.69-4.41.09-1.73.09-6.94,0-8.67Zm-2.25,10.5c-.33.94-1.08,1.64-1.97,2.02-1.41.56-4.69.42-6.19.42s-4.83.14-6.19-.42c-.94-.38-1.64-1.08-2.02-2.02-.56-1.36-.42-4.64-.42-6.19s-.14-4.78.42-6.19c.38-.89,1.08-1.59,2.02-1.97,1.36-.56,4.64-.42,6.19-.42s4.78-.14,6.19.42c.89.33,1.59,1.08,1.97,1.97.56,1.41.42,4.69.42,6.19s.14,4.83-.42,6.19Z" style="fill: #8e847d;"/>
</svg>