<svg enable-background="new 0 0 288 233" viewBox="0 0 288 233" xmlns="http://www.w3.org/2000/svg">
	<g fill="currentColor">
		<path d="m48.9 71c-.1-.3-.1-.6-.1-1.1 0-.4.1-.6.4-.7l1.8-.3c1.7-.3 1.9-.8 1.9-1.7 0-1-1.2-4.1-1.9-6l-3-7.9c-.1-.2-.3-.4-.5-.4h-16.1c-.2.1-.4.2-.5.4l-2.7 7.9c-.8 2.3-2.4 7.1 1.5 7.6l1.8.3c.3.1.4.3.4.7s-.1.8-.1 1.1c-2.9-.1-4.8-.2-7.3-.2-2.3 0-4.1.1-6.9.2-.1-.3-.1-.6-.1-1.1 0-.4.1-.6.4-.7l1.7-.4c1.9-.6 3.3-1.7 5.3-7.5l11.4-33.2c.4-1 .6-1.8.6-2.3 0-.2-.1-.5-.1-.9.4-.9 1.4-1.1 2.7-2.3 1.2-1.1 1.6-2 2.4-2 .2 0 .4.1.6.1.5 1.9 1.4 4.5 3.5 9.9l12.2 30.8c2.2 5.6 3.2 6.9 5.3 7.5l1.8.4c.4.1.5.3.5.7s-.1.8-.1 1.1c-2.8-.1-5.6-.2-8.3-.2s-5.7.1-8.5.2zm-2.5-21.9-7.4-19.8h-.1l-6.6 19.9c.1.1.2.3.4.4h13.3c.2-.2.3-.3.4-.5z"/>
		<path d="m76.4 70.8c-1.8 0-6.1.2-7.3.2-.1-.3-.1-.6-.1-1.1 0-.4.1-.6.4-.6l2.4-.4c1.7-.2 1.7-1.7 1.7-6.1v-15.9c0-1.7-.1-1.9-.9-2.4l-2.6-1.3c-.4-.2-.4-.2-.4-.6 0-.2.1-.6.1-.7 1.2-.4 2.6-.9 4.4-1.7 2.3-1.1 3.3-2.5 4.1-2.5.2 0 .4.1.5.2l.2 5.7c.1.1.3.1.6.1 2.2-2.4 4.7-5.5 9.1-5.5 1.7 0 3.3.6 3.3 2.4 0 1.5-.8 4.2-2.6 4.2-1.7 0-2.4-1.9-4.8-1.9-1.7 0-3.4 1.1-4.8 3.4-.5.8-.6 1.4-.6 2.5v14c0 4.4.2 5.6 1.9 5.8l3.8.5c.3.1.4.3.4.6 0 .5-.1.9-.1 1.2-1.3.1-7-.1-8.7-.1z"/>
		<path d="m114.8 67.8c.2.5 0 1-.6 1.4-2.5 1.8-5.8 2.8-8.3 2.8-6.1 0-7.6-3.5-7.6-9v-18.2c0-1.7-.2-1.7-.7-1.7h-2.4c-.4 0-.5-.1-.6-.3s-.2-.6-.2-.7c3.8-3.1 7.1-6.6 8.5-8.7.1-.2.3-.3.5-.3s.5.1.8.4c-.1 1.4-.1 4.3-.1 5.5.1.1.2.3.5.5h9.2c.5.2.5.4.5 1.7 0 1.2 0 1.7-.5 1.9h-9.3c-.2.1-.4.3-.4.5v19.2c0 4.3 1.7 5.7 5.5 5.7 1.7 0 3.5-.5 4.9-1.3.1.2.3.4.3.6z"/>
		<path d="m29.3 137c-2.7 0-5.7.1-8.5.2-.1-.3-.1-.6-.1-1.1 0-.4.1-.6.4-.7l2.6-.4c2-.4 2.1-1.7 2.1-7.7v-29.4c0-6.1-.1-7.3-2.1-7.7l-2.6-.4c-.3-.1-.4-.3-.4-.7s.1-.8.1-1.1c2.8.1 5.5.2 8.1.2s5.7-.1 8.5-.2c.1.3.1.6.1 1.1s-.1.6-.4.7l-2.6.4c-2 .4-2.1 1.7-2.1 7.7v29.4c0 6.1.1 7.3 2.1 7.7l2.6.4c.3.1.4.3.4.7s-.1.8-.1 1.1c-2.8 0-5.4-.2-8.1-.2z"/>
		<path d="m73 137c-1.8 0-5.8.2-7.1.2-.1-.3-.1-.6-.1-1.1 0-.4.1-.6.4-.6l2.2-.4c1.7-.3 1.7-1.7 1.7-6.1v-12.7c0-2.2-.1-4.3-1.9-6.1-1.3-1.3-3.1-1.9-5.4-1.9-3.7 0-6.1 1.4-7.9 2.8-.8.6-.8 1-.8 2.1v15.8c0 4.4 0 5.8 1.7 6.1l2.2.4c.3.1.4.3.4.6 0 .4-.1.8-.1 1.1-1.2 0-5-.2-6.8-.2s-5.8.2-7.1.2c-.1-.3-.1-.6-.1-1.1 0-.4.1-.6.4-.6l2.2-.4c1.7-.3 1.7-1.7 1.7-6.1v-16.5c0-1.7-.1-1.9-.9-2.4l-2.5-1.4c-.4-.2-.4-.2-.4-.6 0-.2.1-.6.1-.7 1.2-.3 2.7-.8 4.5-1.6 2.1-.9 3.5-2 4.2-2 .2 0 .4.1.5.2l-.1 4.8c.1.1.3.1.6.1 3.8-2.9 6.6-4.7 11.5-4.7 2.8 0 5.4.9 7.3 2.8 2.4 2.4 2.4 6.3 2.4 8.8v13c0 4.4 0 5.8 1.7 6.1l2.2.4c.3.1.4.3.4.6 0 .4-.1.8-.1 1.1-1.3.2-5.2 0-7 0z"/>
		<path d="m92.6 138.3c-2.2 0-5.9-.6-7.9-1.8 0-1.7-.2-6.1-.2-7.3.2-.1.3-.1.8-.1.4 0 .6.2.7.6.8 3.5 2.7 6.3 6.8 6.3 3.8 0 6.1-1.7 6.1-5.2 0-7.1-13.6-7.1-13.6-17.1 0-4.6 3.8-9.2 10.4-9.2 2.7 0 5.3.6 7.1 1.7 0 1.8.1 4.6.1 5.8-.2.1-.3.1-.8.1s-.7-.1-.8-.4c-.9-3.7-3-5-6.1-5-3.5 0-5.2 2.2-5.2 4.4 0 7.2 14 7.9 14 16.9.1 6.7-5 10.3-11.4 10.3z"/>
		<path d="m129.7 134.1c.2.5 0 1-.6 1.4-2.5 1.8-5.8 2.8-8.3 2.8-6.1 0-7.6-3.5-7.6-9v-18.2c0-1.7-.2-1.7-.7-1.7h-2.4c-.4 0-.5-.1-.6-.3s-.2-.6-.2-.7c3.8-3.1 7.1-6.6 8.5-8.7.1-.2.3-.3.5-.3s.5.1.8.4c-.1 1.4-.1 4.3-.1 5.5.1.1.2.3.5.5h9.2c.5.2.5.4.5 1.7 0 1.2 0 1.7-.5 1.9h-9.3c-.2.1-.4.3-.4.5v19.1c0 4.3 1.7 5.7 5.5 5.7 1.7 0 3.5-.5 4.9-1.3.1.2.3.5.3.7z"/>
		<path d="m140.3 137c-1.8 0-5.8.2-7.1.2-.1-.3-.1-.6-.1-1.1 0-.4.1-.6.4-.6l2.2-.4c1.7-.3 1.7-1.7 1.7-6.1v-16.5c0-1.7-.1-1.9-.9-2.4l-2.5-1.4c-.4-.2-.4-.2-.4-.6 0-.2.1-.6.1-.7 1.2-.3 3-.8 4.8-1.6 2.1-.9 3.5-2 4.3-2 .2 0 .4.1.5.2-.1 2.5-.1 5-.1 7.3v17.6c0 4.4 0 5.8 1.7 6.1l2.2.4c.3.1.4.3.4.6 0 .4-.1.8-.1 1.1-1.5.1-5.3-.1-7.1-.1zm.3-44.3c-2.1 0-3.6-1.5-3.6-3.6s1.4-3.7 3.5-3.7 3.6 1.6 3.6 3.7c0 2-1.4 3.6-3.5 3.6z"/>
		<path d="m173 134.1c.2.5 0 1-.6 1.4-2.5 1.8-5.8 2.8-8.3 2.8-6.1 0-7.6-3.5-7.6-9v-18.2c0-1.7-.2-1.7-.7-1.7h-2.4c-.4 0-.5-.1-.6-.3s-.2-.6-.2-.7c3.8-3.1 7.1-6.6 8.5-8.7.1-.2.3-.3.5-.3s.5.1.8.4c-.1 1.4-.1 4.3-.1 5.5.1.1.2.3.5.5h9.2c.5.2.5.4.5 1.7 0 1.2 0 1.7-.5 1.9h-9.3c-.2.1-.4.3-.4.5v19.1c0 4.3 1.7 5.7 5.5 5.7 1.7 0 3.5-.5 4.9-1.3 0 .2.2.5.3.7z"/>
		<path d="m181.4 135.5c-2.2-2.4-2.2-6.1-2.2-8.8v-15.6c0-1.7-.1-2.1-.9-2.4l-1.7-.6c-.4-.1-.4-.2-.4-.6 0-.2.1-.8.1-.9.9-.1 3-.4 4.3-.8 2-.5 3.1-1 3.9-1 .2 0 .4.1.5.2-.1 2.5-.1 4-.1 6.4v14.8c0 2.2.1 4.3 1.8 6.1 1.2 1.3 3 1.9 5.3 1.9 3.5 0 5.8-1.4 7.5-2.8.8-.6.8-1 .8-2.1v-18.1c0-1.7-.3-2.2-1.2-2.4l-3.5-.8c-.4-.1-.4-.2-.4-.6 0-.2.1-.8.1-.9 1.1-.1 3-.2 5.3-.6 2.7-.5 4.3-1.2 4.9-1.2.2 0 .4.1.5.2-.1 2.5-.1 4-.1 6.4v20.4c0 1.8.4 2.4 1.2 2.4l2.8-.2c.5-.1.7.3.7.9 0 .2 0 .4-.1.7-1.4.2-3.7.6-5.4 1.1-1.9.4-3.5 1.1-4.3 1.1-.2 0-.4-.1-.5-.2l.1-3.9c-.1-.1-.3-.1-.6-.1-3.7 2.9-6.3 4.7-11.2 4.7-2.8.1-5.3-.7-7.2-2.7z"/>
		<path d="m235.8 134.1c.2.5 0 1-.6 1.4-2.5 1.8-5.8 2.8-8.3 2.8-6.1 0-7.6-3.5-7.6-9v-18.2c0-1.7-.2-1.7-.7-1.7h-2.4c-.4 0-.5-.1-.6-.3s-.2-.6-.2-.7c3.8-3.1 7.1-6.6 8.5-8.7.1-.2.3-.3.5-.3s.5.1.8.4c-.1 1.4-.1 4.3-.1 5.5.1.1.2.3.5.5h9.2c.5.2.5.4.5 1.7 0 1.2 0 1.7-.5 1.9h-9.3c-.2.1-.4.3-.4.5v19.1c0 4.3 1.7 5.7 5.5 5.7 1.7 0 3.5-.5 4.9-1.3.1.2.2.5.3.7z"/>
		<path d="m264.5 130.5c.7.5.7.9.1 1.8-2.9 3.8-6.9 6-11.8 6-9.4 0-14.5-8.1-14.5-16.9 0-9.9 7.1-17 14.6-17 6.9 0 11.7 3.5 12.4 10.9-.1.6-.2.9-.6 1.2h-20.8c-.1.1-.4.4-.4.6-.1.4-.2 1.4-.2 2.1 0 7.3 5 14.8 12.8 14.8 2.9 0 6-1.8 7.6-3.9.2.1.5.2.8.4zm-20.1-16.6c.1.2.2.4.4.5l14-.2c.2-.2.4-.4.4-.7 0-4.8-3.2-6.9-6.4-6.9-4.1 0-7.3 2.8-8.4 7.3z"/>
		<path d="m60.9 203.3c-2.8 0-4.2 0-5.6.2-5-4.8-10.9-14-16.2-22.5-.2-.2-.3-.4-.5-.4h-6c-.2.1-.4.3-.4.5v12.5c0 6.1.1 7.3 2.1 7.7l2.6.4c.3.1.4.3.4.7s-.1.8-.1 1.1c-2.8-.1-5.5-.2-8.1-.2-2.7 0-5.7.1-8.5.2-.1-.3-.1-.6-.1-1.1 0-.4.1-.6.4-.7l2.6-.4c2-.4 2.1-1.7 2.1-7.7v-29.4c0-6.1-.1-7.3-2.1-7.7l-2.6-.4c-.3-.1-.4-.3-.4-.7s.1-.8.1-1.1c2.8.1 4.9.2 7.6.2 3.7 0 7.5-.5 10.7-.5 9.6 0 16.4 4.4 16.4 12.8 0 5.8-4.4 9.9-9.6 12-.1.2-.1.4 0 .6 2.3 3.5 6.4 9.5 10.3 14.3 4.3 5.2 6.1 7.6 8.6 7.9l1.2.1c.3.1.4.3.4.8 0 .4-.1.8-.1 1.1-1.3-.1-4-.3-5.2-.3zm-24.4-46.9c-1.2 0-2.4.1-3.5.5-.5.6-.8 2.4-.8 6.8v13.9c.1.1.2.3.4.4h5c6.4 0 10.7-3.9 10.7-10.3 0-7-5.2-11.3-11.8-11.3z"/>
		<path d="m94.9 196.8c.7.5.7.9.1 1.8-2.9 3.8-6.9 6-11.8 6-9.4 0-14.5-8.1-14.5-16.9 0-9.9 7.1-17 14.6-17 6.9 0 11.7 3.5 12.4 10.9-.1.6-.2.9-.6 1.2h-20.8c-.1.1-.4.4-.4.6-.1.4-.2 1.4-.2 2.1 0 7.3 5 14.8 12.8 14.8 2.9 0 6-1.8 7.6-3.9.1.1.5.2.8.4zm-20.2-16.6c.1.2.2.4.4.5l14-.2c.2-.2.4-.4.4-.7 0-4.8-3.2-6.9-6.4-6.9-4-.1-7.2 2.7-8.4 7.3z"/>
		<path d="m112.7 204.6c-.5-1.8-1.4-4.5-2.3-7l-6.7-17.4c-1.9-4.8-2.8-6.3-4.3-6.6l-.8-.1c-.3-.1-.4-.3-.4-.6 0-.4.1-.8.1-1.1 1.2 0 5 .2 6.7.2 1.8 0 5.8-.2 7.1-.2.1.3.1.6.1 1.1 0 .4-.1.6-.4.6l-2.2.4c-1.8.4-1.6 1.3.1 6.1l6 16.1h.1l5.3-13.3c.6-1.7 1.9-4.8 1.9-6.6 0-1.4-.7-2.2-2.2-2.6l-1-.2c-.3-.1-.4-.3-.4-.6 0-.4.1-.8.1-1.1 1.7.2 3.9.2 5.6.2 1.5 0 3.6-.1 5.3-.2.1.3.1.6.1 1.1 0 .4-.1.6-.4.6l-.7.1c-1.4.4-2.2 1.2-4.4 6.6l-7.2 17.4c-1 2.4-1.8 5.2-2.3 7-.7.5-2 .5-2.8.1z"/>
		<path d="m141 203.3c-1.8 0-5.8.2-7.1.2-.1-.3-.1-.6-.1-1.1 0-.4.1-.6.4-.6l2.2-.4c1.7-.3 1.7-1.7 1.7-6.1v-16.5c0-1.7-.1-1.9-.9-2.4l-2.5-1.4c-.4-.2-.4-.2-.4-.6 0-.2.1-.6.1-.7 1.2-.3 3-.8 4.8-1.6 2.1-.9 3.5-2 4.3-2 .2 0 .4.1.5.2-.1 2.5-.1 5-.1 7.3v17.6c0 4.4 0 5.8 1.7 6.1l2.2.4c.3.1.4.3.4.6 0 .4-.1.8-.1 1.1-1.5.1-5.4-.1-7.1-.1zm.3-44.3c-2.1 0-3.6-1.5-3.6-3.6s1.4-3.7 3.5-3.7 3.6 1.6 3.6 3.7-1.4 3.6-3.5 3.6z"/>
		<path d="m179.6 196.8c.7.5.7.9.1 1.8-2.9 3.8-6.9 6-11.8 6-9.4 0-14.5-8.1-14.5-16.9 0-9.9 7.1-17 14.6-17 6.9 0 11.7 3.5 12.4 10.9-.1.6-.2.9-.6 1.2h-20.8c-.1.1-.4.4-.4.6-.1.4-.2 1.4-.2 2.1 0 7.3 5 14.8 12.8 14.8 2.9 0 6-1.8 7.6-3.9.1.1.5.2.8.4zm-20.2-16.6c.1.2.2.4.4.5l14-.2c.2-.2.4-.4.4-.7 0-4.8-3.2-6.9-6.4-6.9-4-.1-7.2 2.7-8.4 7.3z"/>
		<path d="m216.8 204.6c-.5-1.8-1.4-4.5-2.3-7l-5.8-15.1h-.2l-6.1 15.1c-1 2.5-1.8 5.2-2.3 7-.6.4-1.9.4-2.7 0-.5-1.8-1.4-4.5-2.3-7l-6.7-17.4c-1.9-4.8-2.8-6.3-4.3-6.6l-.8-.1c-.3-.1-.4-.3-.4-.6 0-.4.1-.8.1-1.1 1.2 0 5 .2 6.7.2 1.8 0 5.8-.2 7.1-.2.1.3.1.6.1 1.1 0 .4-.1.6-.4.6l-2.2.4c-1.8.4-1.7 1.2.1 6.1l5.9 16.1h.1l5.3-13.3c1.4-3.4 1.6-4.2.8-6.2-.9-2.4-1.8-2.8-2.9-3l-1-.1c-.3-.1-.4-.3-.4-.6 0-.4.1-.8.1-1.1 1.2 0 5 .2 6.7.2 1.8 0 5.8-.2 7.1-.2.1.3.1.6.1 1.1 0 .4-.1.6-.4.6l-2.2.4c-1.8.4-1.7 1.2.1 6.1l5.9 16.1h.1l5.3-13.3c.7-1.7 1.9-4.8 1.9-6.6 0-1.4-.7-2.2-2.2-2.6l-1-.2c-.3-.1-.4-.3-.4-.6 0-.4.1-.8.1-1.1 1.7.2 3.9.2 5.6.2 1.5 0 3.6-.1 5.3-.2.1.3.1.6.1 1.1 0 .4-.1.6-.4.6l-.7.1c-1.4.4-2.2 1.2-4.4 6.6l-7.3 17.4c-1 2.4-1.8 5.2-2.3 7-.4.5-1.7.5-2.5.1z"/>
	</g>
</svg>
