<svg xmlns="http://www.w3.org/2000/svg" width="88" height="88" viewBox="0 0 88 88">
    <g>
        <path d="M0.81,88H0V0h88v88H0.81L0.81,88z M86.38,86.38V1.62H1.62v84.76H86.38L86.38,86.38z" fill="currentColor"/>
        <path d="M14.19,53.11l-0.89-2.06h-3.18l-0.02,0.07c-0.22,0.51-0.55,1.38-0.77,1.9H7.62l2.68-5.91c0.44-0.97,0.72-1.64,0.97-2.31
            l0.86-0.09l2.7,5.94c0.31,0.72,0.75,1.65,1.11,2.36L14.19,53.11L14.19,53.11z M12.84,49.91l-1.14-2.66l-1.12,2.66H12.84
            L12.84,49.91z" fill="currentColor"/>
        <path d="M23.01,53.11l-1.91-3.06h-1.06v1.3c0,0.45,0.01,1.34,0.05,1.66h-1.73c0.06-0.55,0.08-2.03,0.08-2.78v-2.55
            c0-0.74-0.02-2.23-0.08-2.78c0.42,0,1.86-0.05,2.39-0.06c2.22-0.02,3.4,1.05,3.38,2.42c-0.02,1.12-0.56,1.84-1.64,2.35l1.28,1.86
            c0.29,0.41,0.81,1.13,1.06,1.46L23.01,53.11L23.01,53.11z M20.03,48.87h1c0.95,0,1.51-0.6,1.51-1.37c0-0.86-0.5-1.36-1.65-1.36
            c-0.32,0-0.6,0.01-0.85,0.03c-0.01,0.16-0.01,0.54-0.01,0.67V48.87L20.03,48.87z" fill="currentColor"/>
        <path d="M33.48,46.19c-0.85-0.01-1.58-0.02-2.55-0.02c-0.01,0.24-0.01,0.54-0.01,0.73v4.46c0,0.45,0.01,1.34,0.05,1.66h-1.73
            c0.06-0.55,0.08-2.03,0.08-2.78v-2.2c0-0.47-0.01-1.22-0.03-1.87c-0.98,0-1.75,0.01-2.61,0.02c0.03-0.39,0.05-0.9,0.05-1.35
            c1.08,0.04,2.1,0.06,3.39,0.06c1.3,0,2.38-0.02,3.46-0.06C33.52,45.27,33.49,45.69,33.48,46.19L33.48,46.19z" fill="currentColor"/>
        <path d="M9,66.43c0.06-0.55,0.08-2.03,0.08-2.78V61.1c0-0.74-0.02-2.23-0.08-2.78c0.46,0,1.35-0.01,1.73-0.06
            c-0.04,0.33-0.05,1.26-0.05,1.71v4.8c0,0.44,0.01,1.34,0.05,1.66H9L9,66.43z" fill="currentColor"/>
        <path d="M21.9,59.97l-0.07,4.84c0,0.45,0,1.39,0.05,1.72l-0.82,0.09l-4.76-5.53v3.67c0,0.45,0.01,1.34,0.05,1.66h-1.66
            c0.07-0.55,0.12-2.03,0.13-2.78l0.04-2.72c0.01-0.74,0-2.16-0.06-2.71l0.83-0.09l4.79,5.6V61.1c0-0.74-0.02-2.23-0.09-2.78
            c0.46,0,1.28-0.01,1.67-0.06C21.93,58.6,21.9,59.52,21.9,59.97L21.9,59.97z" fill="currentColor"/>
        <path d="M27.63,66.64c-0.82,0-1.81-0.3-2.42-0.67l0.07-1.54c0.48,0.41,1.49,0.88,2.4,0.88c0.74,0,1.21-0.35,1.21-1.03
            c0-1.37-3.43-1.49-3.43-3.7c0-1.42,1.11-2.45,2.68-2.45c0.82,0,1.59,0.28,2.09,0.6l-0.39,1.3c-0.45-0.31-1.11-0.56-1.67-0.56
            c-0.72,0-1.12,0.37-1.12,0.95c0,1.26,3.4,1.37,3.4,3.7C30.44,65.6,29.35,66.64,27.63,66.64L27.63,66.64z" fill="currentColor"/>
        <path d="M39.62,59.6c-0.85-0.01-1.58-0.02-2.55-0.02c-0.01,0.24-0.01,0.54-0.01,0.73v4.46c0,0.45,0.01,1.34,0.05,1.66h-1.73
            c0.06-0.55,0.08-2.03,0.08-2.78v-2.2c0-0.47-0.01-1.22-0.04-1.87c-0.98,0-1.75,0.01-2.61,0.02c0.04-0.39,0.05-0.9,0.05-1.35
            c1.08,0.03,2.1,0.06,3.39,0.06c1.3,0,2.38-0.02,3.46-0.06C39.66,58.68,39.63,59.1,39.62,59.6L39.62,59.6z" fill="currentColor"/>
        <path d="M42.18,66.43c0.06-0.55,0.08-2.03,0.08-2.78V61.1c0-0.74-0.02-2.23-0.08-2.78c0.46,0,1.35-0.01,1.73-0.06
            c-0.04,0.33-0.05,1.26-0.05,1.71v4.8c0,0.44,0.01,1.34,0.05,1.66H42.18L42.18,66.43z" fill="currentColor"/>
        <path d="M53.38,59.6c-0.85-0.01-1.58-0.02-2.55-0.02c-0.01,0.24-0.01,0.54-0.01,0.73v4.46c0,0.45,0.01,1.34,0.05,1.66h-1.73
            c0.06-0.55,0.08-2.03,0.08-2.78v-2.2c0-0.47-0.01-1.22-0.04-1.87c-0.98,0-1.75,0.01-2.61,0.02c0.04-0.39,0.05-0.9,0.05-1.35
            c1.08,0.03,2.1,0.06,3.39,0.06c1.3,0,2.38-0.02,3.46-0.06C53.42,58.68,53.4,59.1,53.38,59.6L53.38,59.6z" fill="currentColor"/>
        <path d="M63.21,58.34l-2.53,5.91c-0.42,0.97-0.67,1.61-0.9,2.28l-0.88,0.09l-2.54-5.92c-0.3-0.71-0.7-1.65-1.05-2.35l1.74-0.11
            l2.27,5.64l1.41-3.55c0.21-0.49,0.56-1.46,0.76-1.99H63.21L63.21,58.34z" fill="currentColor"/>
        <path d="M71.72,59.6c-0.85-0.01-1.58-0.02-2.55-0.02c-0.01,0.24-0.01,0.54-0.01,0.73v4.46c0,0.45,0.01,1.34,0.05,1.66h-1.73
            c0.06-0.55,0.08-2.03,0.08-2.78v-2.2c0-0.47-0.01-1.22-0.03-1.87c-0.98,0-1.75,0.01-2.61,0.02c0.03-0.39,0.05-0.9,0.05-1.35
            c1.08,0.03,2.1,0.06,3.39,0.06c1.3,0,2.38-0.02,3.46-0.06C71.75,58.68,71.73,59.1,71.72,59.6L71.72,59.6z" fill="currentColor"/>
        <path d="M79.78,66.47c-0.72-0.05-1.6-0.06-2.46-0.06c-0.89,0-1.84,0.01-2.6,0.06c0.06-0.56,0.08-2.05,0.08-2.79v-2.63
            c0-0.75-0.02-2.25-0.08-2.8c0.75,0.03,1.58,0.06,2.49,0.06c0.86,0,1.68-0.02,2.41-0.06c-0.05,0.43-0.08,0.83-0.09,1.34
            c-0.63-0.01-1.3-0.02-2.08-0.02c-0.35,0-0.69,0-1.03,0.01c-0.02,0.19-0.02,0.46-0.02,0.62v1.41h2.68
            c-0.02,0.36-0.03,0.75-0.03,1.2h-2.64v1.71c0,0.16,0,0.45,0.02,0.63c0.34,0,0.68,0.01,1.03,0.01c0.89,0,1.66-0.01,2.4-0.04
            C79.81,65.55,79.79,65.97,79.78,66.47L79.78,66.47z" fill="currentColor"/>
        <path d="M15.06,79.25c-0.75,0.52-1.61,0.8-2.56,0.8c-2.42,0-4.11-1.85-4.11-4.05c0-2.53,1.8-4.46,4.33-4.46
            c0.88,0,1.76,0.27,2.39,0.66l-0.37,1.39c-0.53-0.41-1.25-0.68-1.99-0.68c-1.58,0-2.69,1.22-2.69,2.84c0,1.91,1.15,2.93,2.62,2.93
            c1.01,0,1.74-0.39,2.46-1.05L15.06,79.25L15.06,79.25z" fill="currentColor"/>
        <path d="M23.9,79.84c0.07-0.55,0.09-1.97,0.09-2.72v-0.84h-3.75v1.9c0,0.44,0.01,1.34,0.05,1.66h-1.73
            c0.06-0.55,0.08-2.03,0.08-2.78v-2.55c0-0.74-0.02-2.23-0.08-2.78c0.46,0,1.35-0.01,1.73-0.06c-0.04,0.34-0.05,1.26-0.05,1.71
            v1.65h3.75v-0.52c0-0.74-0.02-2.23-0.09-2.78c0.46,0,1.37-0.01,1.76-0.06c-0.04,0.34-0.06,1.26-0.06,1.71v4.8
            c0,0.44,0.01,1.34,0.06,1.66H23.9L23.9,79.84z" fill="currentColor"/>
        <path d="M29.47,79.84c0.06-0.55,0.08-2.03,0.08-2.78v-2.55c0-0.74-0.02-2.23-0.08-2.78c0.46,0,1.35-0.01,1.73-0.06
            c-0.04,0.34-0.05,1.26-0.05,1.71v4.8c0,0.44,0.01,1.34,0.05,1.66H29.47L29.47,79.84z" fill="currentColor"/>
        <path d="M41.31,79.25c-0.75,0.52-1.61,0.8-2.56,0.8c-2.42,0-4.1-1.85-4.1-4.05c0-2.53,1.8-4.46,4.32-4.46
            c0.88,0,1.76,0.27,2.39,0.66l-0.37,1.39c-0.53-0.41-1.25-0.68-1.99-0.68c-1.58,0-2.69,1.22-2.69,2.84c0,1.91,1.15,2.93,2.62,2.93
            c1.01,0,1.74-0.39,2.46-1.05L41.31,79.25L41.31,79.25z" fill="currentColor"/>
        <path d="M50.13,79.93l-0.89-2.06h-3.18l-0.02,0.07c-0.22,0.51-0.55,1.38-0.77,1.9h-1.71l2.68-5.91c0.44-0.97,0.72-1.64,0.97-2.31
            l0.86-0.09l2.7,5.94c0.31,0.72,0.75,1.65,1.11,2.36L50.13,79.93L50.13,79.93z M48.79,76.74l-1.14-2.66l-1.12,2.66H48.79
            L48.79,76.74z" fill="currentColor"/>
        <path d="M59.52,75.98c0.64,0,0.99-0.02,1.62-0.05c-0.06,0.44-0.11,1.46-0.11,2.21v1.03c-0.67,0.43-1.56,0.88-3.03,0.88
            c-2.42,0-4.2-1.87-4.2-4.06c0-2.56,1.92-4.45,4.46-4.45c1.1,0,2.07,0.36,2.67,0.76l-0.47,1.35c-0.53-0.41-1.43-0.75-2.27-0.75
            c-1.66,0-2.78,1.19-2.78,2.84c0,1.98,1.29,2.96,2.72,2.96c0.6,0,1.05-0.11,1.45-0.31v-1.12c0-0.16,0-0.46-0.02-0.66L59.52,75.98
            L59.52,75.98z" fill="currentColor"/>
        <path d="M72.09,75.58c0,2.53-1.7,4.46-4.2,4.46c-2.38,0-3.96-1.85-3.96-4.05c0-2.53,1.71-4.46,4.19-4.46
            C70.51,71.54,72.09,73.37,72.09,75.58L72.09,75.58z M70.49,75.79c0-1.87-1.04-2.96-2.48-2.96c-1.52,0-2.48,1.34-2.48,2.96
            c0,1.86,1.04,2.96,2.48,2.96C69.53,78.75,70.49,77.42,70.49,75.79L70.49,75.79z" fill="currentColor"/>
    </g>
</svg>
