<svg xmlns="http://www.w3.org/2000/svg" width="80" height="80" viewBox="0 0 80 80">
  <title> logo_outline_80</title>
  <g id="bg">
    <rect x="-840" y="-1820" width="1660" height="2000" fill="#fff"/>
  </g>
  <g id="icons">
    <g>
      <path d="M79,1V79H1V1H79m1-1H0V80H80V0Z" fill="#767676"/>
      <g>
        <path d="M12.56,49.57l-1-2.21H8.42l0,.09c-.28.64-.58,1.38-.84,2H6.38L8.91,44c.42-.9.69-1.52.93-2.14l.28-.08,2.56,5.49c.3.66.71,1.53,1.06,2.19Zm-1.39-3.08L10,43.83,8.82,46.48Z" fill="#767676"/>
        <path d="M20.56,49.56l-1.92-3H17.48v1.41c0,.41,0,1.24,0,1.53H16.34c.05-.51.07-1.88.07-2.57V44.55c0-.68,0-2.06-.07-2.57.38,0,1.47,0,2-.05,1.88,0,2.91,1,2.88,2.19a2.33,2.33,0,0,1-1.57,2.18l1.09,1.6c.29.41.87,1.23,1.12,1.52Zm-3.08-3.9h1.08a1.4,1.4,0,0,0,1.53-1.4c0-.92-.55-1.4-1.67-1.4-.34,0-.64,0-.92,0,0,.21,0,.46,0,.62Z" fill="#767676"/>
        <path d="M29.78,42.89l-2.48,0c0,.22,0,.5,0,.67v4.41c0,.41,0,1.24,0,1.53H26.14c.05-.51.07-1.88.07-2.57V44.6c0-.44,0-1.13,0-1.73l-2.52,0a9.28,9.28,0,0,0,0-1c1,0,1.88.05,3,.05s2.13,0,3.11-.05a6.81,6.81,0,0,0-.09,1" fill="#767676"/>
        <path d="M7.53,61.24c.05-.51.07-1.88.07-2.57V56.31c0-.68,0-2.06-.07-2.57a10.3,10.3,0,0,0,1.18-.05c0,.31,0,1.16,0,1.58V59.7c0,.4,0,1.24,0,1.54Z" fill="#767676"/>
        <path d="M18.84,55.26l-.07,4.5c0,.42,0,1.28,0,1.58l-.28.07L13.62,55.8v3.9c0,.42,0,1.24,0,1.54H12.49c.06-.51.12-1.88.13-2.57l0-2.57c0-.68,0-2,0-2.46l.29-.08,4.94,5.71v-3c0-.68,0-2.06-.09-2.57a10.33,10.33,0,0,0,1.17-.05c0,.31-.08,1.16-.09,1.58" fill="#767676"/>
        <path d="M24,61.43a4.21,4.21,0,0,1-2.1-.63L22,59.67a3.5,3.5,0,0,0,2.1.8c.8,0,1.36-.39,1.36-1.18,0-1.49-3.23-1.57-3.23-3.53a2.23,2.23,0,0,1,2.36-2.2,3,3,0,0,1,1.75.56l-.35.94a2.51,2.51,0,0,0-1.44-.53c-.78,0-1.25.42-1.25,1.09,0,1.33,3.22,1.4,3.22,3.53A2.28,2.28,0,0,1,24,61.43" fill="#767676"/>
        <path d="M35,54.65l-2.48,0c0,.22,0,.5,0,.67v4.4c0,.42,0,1.24,0,1.54H31.35c.05-.51.07-1.88.07-2.57V56.35c0-.44,0-1.13,0-1.73l-2.52,0a9.29,9.29,0,0,0,0-1c1,0,1.88.05,3,.05s2.13,0,3.11-.05a6.93,6.93,0,0,0-.09,1" fill="#767676"/>
        <path d="M37.87,61.24c.05-.51.08-1.88.08-2.57V56.31c0-.68,0-2.06-.08-2.57a10.29,10.29,0,0,0,1.18-.05c0,.31,0,1.16,0,1.58V59.7c0,.4,0,1.24,0,1.54Z" fill="#767676"/>
        <path d="M47.91,54.65l-2.48,0c0,.22,0,.5,0,.67v4.4c0,.42,0,1.24,0,1.54H44.27c.05-.51.07-1.88.07-2.57V56.35c0-.44,0-1.13,0-1.73l-2.52,0a9.29,9.29,0,0,0,0-1c1,0,1.88.05,3,.05s2.13,0,3.11-.05a6.81,6.81,0,0,0-.09,1" fill="#767676"/>
        <path d="M57.32,53.75l-2.39,5.46c-.39.91-.65,1.52-.86,2.14l-.28.08L51.4,55.95c-.29-.67-.68-1.54-1-2.19l1.17-.08,2.34,5.6,1.44-3.49c.26-.63.53-1.37.78-2Z" fill="#767676"/>
        <path d="M65.36,54.65l-2.48,0c0,.22,0,.5,0,.67v4.4c0,.42,0,1.24,0,1.54H61.72c.05-.51.07-1.88.07-2.57V56.35c0-.44,0-1.13,0-1.73l-2.52,0a9.29,9.29,0,0,0,0-1c1,0,1.88.05,3,.05s2.13,0,3.11-.05a6.87,6.87,0,0,0-.09,1" fill="#767676"/>
        <path d="M72.89,61.28c-.64,0-1.43-.05-2.19-.05s-1.56,0-2.19.05c.05-.51.07-1.89.07-2.57V56.24c0-.69,0-2.06-.07-2.57.63,0,1.35.05,2.11.05s1.48,0,2.12-.05a6.61,6.61,0,0,0-.09.95l-2,0h-.95c0,.19,0,.47,0,.63v1.61h2.59c0,.27,0,.55,0,.87H69.66v2c0,.16,0,.45,0,.64h.95c.86,0,1.61,0,2.34,0a8.52,8.52,0,0,0-.07,1" fill="#767676"/>
        <path d="M13.07,72.33a3.91,3.91,0,0,1-2.44.85A3.7,3.7,0,0,1,6.9,69.44a4,4,0,0,1,3.93-4.13,4,4,0,0,1,2.22.67l-.3,1a3.25,3.25,0,0,0-2-.69A2.78,2.78,0,0,0,8,69.22a2.69,2.69,0,0,0,2.7,3,3.41,3.41,0,0,0,2.45-1.08Z" fill="#767676"/>
        <path d="M21.23,73c.06-.51.09-1.88.09-2.57v-.89H17.4v1.93c0,.4,0,1.24,0,1.54H16.26c.05-.51.08-1.88.08-2.57V68.06c0-.68,0-2.06-.08-2.57a10.11,10.11,0,0,0,1.18-.05c0,.31,0,1.16,0,1.58v1.63h3.91v-.59c0-.68,0-2.06-.09-2.57a10.62,10.62,0,0,0,1.21-.05c0,.31-.05,1.16-.05,1.58v4.44c0,.4,0,1.24.05,1.54Z" fill="#767676"/>
        <path d="M26.26,73c.05-.51.08-1.88.08-2.57V68.06c0-.68,0-2.06-.08-2.57a10.11,10.11,0,0,0,1.18-.05c0,.31,0,1.16,0,1.58v4.44c0,.4,0,1.24,0,1.54Z" fill="#767676"/>
        <path d="M36.82,72.33a3.91,3.91,0,0,1-2.44.85,3.7,3.7,0,0,1-3.73-3.74,4,4,0,0,1,3.93-4.13,4,4,0,0,1,2.22.67l-.3,1a3.24,3.24,0,0,0-2-.69,2.78,2.78,0,0,0-2.77,2.94,2.69,2.69,0,0,0,2.7,3,3.41,3.41,0,0,0,2.45-1.08Z" fill="#767676"/>
        <path d="M45.2,73.08l-1-2.21H41.06L41,71c-.28.64-.58,1.38-.84,2H39l2.54-5.46c.42-.9.69-1.52.93-2.14l.28-.08,2.56,5.49c.3.66.71,1.53,1.06,2.19ZM43.82,70l-1.18-2.66L41.46,70Z" fill="#767676"/>
        <path d="M53.85,69.47l1.1,0c-.05.41,0,1.45,0,2.14v.82a4.46,4.46,0,0,1-2.66.79,3.81,3.81,0,0,1-3.86-3.74,4,4,0,0,1,4.06-4.13,4.52,4.52,0,0,1,2.37.67l-.3,1a3.69,3.69,0,0,0-2.13-.69,2.79,2.79,0,0,0-2.9,2.94,2.75,2.75,0,0,0,2.83,3,3.13,3.13,0,0,0,1.55-.34v-1.3c0-.16,0-.45,0-.64Z" fill="#767676"/>
        <path d="M65.3,69.06a3.88,3.88,0,0,1-3.85,4.13,3.62,3.62,0,0,1-3.64-3.74,3.88,3.88,0,0,1,3.85-4.13,3.62,3.62,0,0,1,3.64,3.74m-1.1.17a2.69,2.69,0,0,0-2.66-3,2.8,2.8,0,0,0-2.63,3.05,2.69,2.69,0,0,0,2.66,3,2.8,2.8,0,0,0,2.63-3.05" fill="#767676"/>
      </g>
    </g>
  </g>
</svg>
