<svg xmlns="http://www.w3.org/2000/svg" width="92" height="92" viewBox="0 0 92 92">
    <g>
        <path d="M0.85,92H0V0h92v92H0.85L0.85,92z M90.31,90.31V1.69H1.69v88.61H90.31L90.31,90.31z" fill="currentColor"/>
        <path d="M14.83,55.52l-0.93-2.16h-3.33l-0.02,0.07c-0.23,0.53-0.58,1.45-0.81,1.99H7.96l2.8-6.17c0.46-1.01,0.75-1.71,1.01-2.41
            l0.9-0.1l2.82,6.21c0.33,0.75,0.78,1.73,1.16,2.47L14.83,55.52L14.83,55.52z M13.42,52.18l-1.2-2.78l-1.17,2.78H13.42
            L13.42,52.18z" fill="currentColor"/>
        <path d="M24.06,55.52l-2-3.19h-1.11v1.36c0,0.47,0.01,1.4,0.05,1.74h-1.81c0.06-0.58,0.08-2.12,0.08-2.91v-2.67
            c0-0.77-0.02-2.33-0.08-2.91c0.44,0,1.94-0.05,2.49-0.06c2.32-0.02,3.56,1.1,3.53,2.53c-0.02,1.17-0.59,1.93-1.71,2.46l1.34,1.94
            c0.3,0.42,0.84,1.18,1.11,1.53L24.06,55.52L24.06,55.52z M20.94,51.1h1.05c0.99,0,1.58-0.63,1.58-1.44c0-0.9-0.52-1.42-1.72-1.42
            c-0.34,0-0.63,0.01-0.89,0.03c-0.01,0.17-0.01,0.57-0.01,0.7V51.1L20.94,51.1z" fill="currentColor"/>
        <path d="M35.01,48.29c-0.89-0.01-1.65-0.02-2.67-0.02c-0.01,0.25-0.01,0.57-0.01,0.76v4.67c0,0.47,0.01,1.4,0.05,1.74h-1.81
            c0.06-0.58,0.08-2.12,0.08-2.91v-2.3c0-0.49-0.01-1.28-0.03-1.96c-1.02,0-1.83,0.01-2.72,0.02c0.03-0.41,0.05-0.94,0.05-1.41
            c1.13,0.04,2.19,0.06,3.54,0.06c1.36,0,2.48-0.02,3.62-0.06C35.04,47.32,35.02,47.77,35.01,48.29L35.01,48.29z" fill="currentColor"/>
        <path d="M9.41,69.45c0.06-0.58,0.08-2.12,0.08-2.91v-2.67c0-0.77-0.02-2.33-0.08-2.91c0.48,0,1.41-0.01,1.81-0.06
            c-0.04,0.35-0.05,1.32-0.05,1.79v5.01c0,0.46,0.01,1.4,0.05,1.74H9.41L9.41,69.45z" fill="currentColor"/>
        <path d="M22.89,62.69l-0.07,5.06c0,0.47,0,1.46,0.05,1.8l-0.86,0.1l-4.98-5.78v3.83c0,0.47,0.01,1.4,0.05,1.74h-1.74
            c0.07-0.58,0.12-2.12,0.13-2.91l0.04-2.85c0.01-0.77,0-2.25-0.06-2.83l0.87-0.1l5.01,5.86v-2.75c0-0.77-0.02-2.33-0.1-2.91
            c0.49,0,1.34-0.01,1.75-0.06C22.93,61.26,22.89,62.22,22.89,62.69L22.89,62.69z" fill="currentColor"/>
        <path d="M28.88,69.66c-0.86,0-1.9-0.31-2.53-0.7l0.07-1.61c0.5,0.43,1.55,0.92,2.51,0.92c0.77,0,1.26-0.36,1.26-1.07
            c0-1.44-3.58-1.56-3.58-3.87c0-1.48,1.16-2.56,2.8-2.56c0.86,0,1.67,0.29,2.19,0.63l-0.41,1.36c-0.47-0.33-1.16-0.59-1.75-0.59
            c-0.75,0-1.17,0.39-1.17,0.99c0,1.31,3.56,1.43,3.56,3.87C31.82,68.58,30.68,69.66,28.88,69.66L28.88,69.66z" fill="currentColor"/>
        <path d="M41.42,62.31c-0.89-0.01-1.65-0.02-2.67-0.02c-0.01,0.25-0.01,0.57-0.01,0.76v4.67c0,0.47,0.01,1.4,0.05,1.74h-1.81
            c0.06-0.58,0.08-2.12,0.08-2.91v-2.3c0-0.5-0.01-1.28-0.04-1.96c-1.02,0-1.83,0.01-2.72,0.02c0.04-0.41,0.05-0.94,0.05-1.41
            c1.13,0.04,2.2,0.06,3.55,0.06c1.36,0,2.48-0.02,3.62-0.06C41.46,61.34,41.43,61.79,41.42,62.31L41.42,62.31z" fill="currentColor"/>
        <path d="M44.1,69.45c0.06-0.58,0.08-2.12,0.08-2.91v-2.67c0-0.77-0.02-2.33-0.08-2.91c0.48,0,1.41-0.01,1.81-0.06
            c-0.04,0.35-0.05,1.32-0.05,1.79v5.01c0,0.46,0.01,1.4,0.05,1.74H44.1L44.1,69.45z" fill="currentColor"/>
        <path d="M55.81,62.31c-0.89-0.01-1.65-0.02-2.66-0.02c-0.01,0.25-0.01,0.57-0.01,0.76v4.67c0,0.47,0.01,1.4,0.05,1.74h-1.81
            c0.06-0.58,0.08-2.12,0.08-2.91v-2.3c0-0.5-0.01-1.28-0.04-1.96c-1.02,0-1.83,0.01-2.72,0.02c0.04-0.41,0.05-0.94,0.05-1.41
            c1.13,0.04,2.2,0.06,3.55,0.06c1.36,0,2.48-0.02,3.62-0.06C55.85,61.34,55.82,61.79,55.81,62.31L55.81,62.31z" fill="currentColor"/>
        <path d="M66.08,60.99l-2.65,6.17c-0.44,1.01-0.7,1.69-0.94,2.39l-0.92,0.1l-2.66-6.19c-0.31-0.75-0.73-1.73-1.1-2.46l1.82-0.11
            l2.38,5.9l1.47-3.71c0.22-0.52,0.59-1.53,0.79-2.08H66.08L66.08,60.99z" fill="currentColor"/>
        <path d="M74.98,62.31c-0.89-0.01-1.65-0.02-2.67-0.02c-0.01,0.25-0.01,0.57-0.01,0.76v4.67c0,0.47,0.01,1.4,0.05,1.74h-1.81
            c0.06-0.58,0.08-2.12,0.08-2.91v-2.3c0-0.5-0.01-1.28-0.03-1.96c-1.02,0-1.83,0.01-2.72,0.02c0.03-0.41,0.05-0.94,0.05-1.41
            c1.13,0.04,2.19,0.06,3.54,0.06c1.36,0,2.48-0.02,3.62-0.06C75.01,61.34,74.99,61.79,74.98,62.31L74.98,62.31z" fill="currentColor"/>
        <path d="M83.41,69.5c-0.75-0.05-1.68-0.06-2.57-0.06c-0.93,0-1.92,0.01-2.71,0.06c0.06-0.58,0.08-2.15,0.08-2.92v-2.75
            c0-0.78-0.02-2.35-0.08-2.93c0.78,0.04,1.65,0.06,2.61,0.06c0.9,0,1.76-0.02,2.52-0.06c-0.05,0.45-0.08,0.87-0.1,1.4
            c-0.66-0.01-1.36-0.02-2.17-0.02c-0.36,0-0.72,0-1.07,0.01c-0.02,0.19-0.02,0.48-0.02,0.65v1.47h2.8
            c-0.02,0.37-0.03,0.78-0.03,1.25h-2.76v1.78c0,0.17,0,0.47,0.02,0.66c0.35,0,0.71,0.01,1.07,0.01c0.93,0,1.74-0.01,2.51-0.04
            C83.44,68.53,83.42,68.96,83.41,69.5L83.41,69.5z" fill="currentColor"/>
        <path d="M15.74,82.85c-0.78,0.54-1.68,0.83-2.68,0.83c-2.53,0-4.29-1.93-4.29-4.23c0-2.64,1.88-4.67,4.52-4.67
            c0.92,0,1.84,0.28,2.49,0.69l-0.38,1.46c-0.56-0.43-1.3-0.71-2.08-0.71c-1.65,0-2.81,1.28-2.81,2.97c0,2,1.21,3.06,2.74,3.06
            c1.06,0,1.82-0.41,2.57-1.1L15.74,82.85L15.74,82.85z" fill="currentColor"/>
        <path d="M24.99,83.47c0.07-0.58,0.1-2.06,0.1-2.85v-0.88h-3.92v1.99c0,0.46,0.01,1.4,0.05,1.74H19.4
            c0.06-0.58,0.09-2.12,0.09-2.91V77.9c0-0.77-0.02-2.33-0.09-2.91c0.49,0,1.41-0.01,1.81-0.06c-0.04,0.35-0.05,1.32-0.05,1.79
            v1.73h3.92V77.9c0-0.77-0.02-2.33-0.1-2.91c0.48,0,1.44-0.01,1.84-0.06c-0.04,0.35-0.06,1.32-0.06,1.79v5.01
            c0,0.46,0.01,1.4,0.06,1.74H24.99L24.99,83.47z" fill="currentColor"/>
        <path d="M30.81,83.47c0.06-0.58,0.08-2.12,0.08-2.91V77.9c0-0.77-0.02-2.33-0.08-2.91c0.48,0,1.41-0.01,1.81-0.06
            c-0.04,0.35-0.05,1.32-0.05,1.79v5.01c0,0.46,0.01,1.4,0.05,1.74H30.81L30.81,83.47z" fill="currentColor"/>
        <path d="M43.19,82.85c-0.78,0.54-1.68,0.83-2.68,0.83c-2.53,0-4.29-1.93-4.29-4.23c0-2.64,1.88-4.67,4.52-4.67
            c0.92,0,1.84,0.28,2.49,0.69l-0.38,1.46c-0.56-0.43-1.3-0.71-2.08-0.71c-1.65,0-2.81,1.28-2.81,2.97c0,2,1.2,3.06,2.74,3.06
            c1.06,0,1.82-0.41,2.57-1.1L43.19,82.85L43.19,82.85z" fill="currentColor"/>
        <path d="M52.41,83.56l-0.93-2.16h-3.33l-0.02,0.07c-0.23,0.53-0.58,1.45-0.81,1.99h-1.78l2.8-6.17c0.46-1.01,0.75-1.71,1.01-2.41
            l0.9-0.1L53.08,81c0.33,0.75,0.78,1.72,1.16,2.47L52.41,83.56L52.41,83.56z M51,80.23l-1.2-2.78l-1.17,2.78H51L51,80.23z" fill="currentColor"/>
        <path d="M62.23,79.43c0.67-0.01,1.03-0.02,1.7-0.05c-0.06,0.46-0.12,1.53-0.12,2.31v1.08c-0.7,0.45-1.63,0.92-3.17,0.92
            c-2.53,0-4.39-1.96-4.39-4.25c0-2.68,2-4.65,4.66-4.65c1.15,0,2.16,0.38,2.79,0.8l-0.49,1.41c-0.55-0.43-1.49-0.78-2.38-0.78
            c-1.73,0-2.91,1.24-2.91,2.97c0,2.07,1.35,3.1,2.85,3.1c0.63,0,1.1-0.11,1.52-0.33v-1.17c0-0.17,0-0.48-0.02-0.69L62.23,79.43
            L62.23,79.43z" fill="currentColor"/>
        <path d="M75.37,79.02c0,2.64-1.77,4.67-4.39,4.67c-2.48,0-4.14-1.93-4.14-4.23c0-2.64,1.78-4.67,4.38-4.67
            C73.72,74.79,75.37,76.71,75.37,79.02L75.37,79.02z M73.69,79.24c0-1.95-1.09-3.1-2.59-3.1c-1.59,0-2.59,1.4-2.59,3.1
            c0,1.94,1.08,3.1,2.59,3.1C72.69,82.33,73.69,80.94,73.69,79.24L73.69,79.24z" fill="currentColor"/>
    </g>
</svg>
