<svg xmlns="http://www.w3.org/2000/svg" width="88" height="88" viewBox="0 0 88 88">
  <g id="icons">
    <g>
      <path d="M87,1V87H1V1H87m1-1H0V88H88V0Z" fill="currentColor"/>
      <g>
        <path d="M13.82,54.52l-1.09-2.43H9.27l0,.09c-.31.71-.63,1.51-.93,2.24H7l2.79-6c.46-1,.76-1.68,1-2.36l.31-.08,2.81,6c.33.73.79,1.68,1.16,2.4Zm-1.52-3.39L11,48.21,9.7,51.13Z" fill="currentColor"/>
        <path d="M22.62,54.51l-2.11-3.32H19.23v1.55c0,.46,0,1.36,0,1.69H18c.06-.56.08-2.07.08-2.83V49c0-.75,0-2.26-.08-2.83.42,0,1.62,0,2.16-.06,2.07,0,3.2,1.1,3.17,2.4a2.56,2.56,0,0,1-1.72,2.39l1.2,1.76c.32.45,1,1.35,1.23,1.68Zm-3.39-4.29h1.18a1.54,1.54,0,0,0,1.68-1.54c0-1-.61-1.54-1.84-1.54-.38,0-.7,0-1,0,0,.24,0,.51,0,.68Z" fill="currentColor"/>
        <path d="M32.75,47.18l-2.73,0c0,.25,0,.55,0,.74v4.85c0,.46,0,1.36,0,1.69h-1.3c.06-.56.08-2.07.08-2.83V49.06c0-.48,0-1.24,0-1.9l-2.77,0a10.21,10.21,0,0,0,0-1.07c1.07,0,2.07.06,3.34.06s2.35,0,3.43-.06a7.49,7.49,0,0,0-.09,1.07" fill="currentColor"/>
        <path d="M8.28,67.36c.06-.56.08-2.07.08-2.83V61.94c0-.75,0-2.26-.08-2.83a11.33,11.33,0,0,0,1.3-.06c0,.34,0,1.28,0,1.74v4.88c0,.45,0,1.36,0,1.69Z" fill="currentColor"/>
        <path d="M20.73,60.79l-.08,5c0,.46,0,1.41,0,1.74l-.3.08L15,61.38v4.29c0,.46,0,1.36,0,1.69H13.74c.07-.56.13-2.06.14-2.83l0-2.83c0-.75,0-2.15,0-2.71l.32-.08,5.43,6.28V61.94c0-.75,0-2.26-.09-2.83a11.37,11.37,0,0,0,1.29-.06c0,.34-.08,1.28-.09,1.73" fill="currentColor"/>
        <path d="M26.43,67.57a4.63,4.63,0,0,1-2.31-.69l.07-1.24a3.85,3.85,0,0,0,2.31.88c.88,0,1.5-.43,1.5-1.3,0-1.64-3.55-1.72-3.55-3.88A2.46,2.46,0,0,1,27,58.91a3.27,3.27,0,0,1,1.92.61l-.39,1A2.76,2.76,0,0,0,27,60c-.86,0-1.37.46-1.37,1.2,0,1.47,3.54,1.54,3.54,3.88a2.51,2.51,0,0,1-2.73,2.52" fill="currentColor"/>
        <path d="M38.48,60.11l-2.73,0c0,.25,0,.55,0,.74v4.85c0,.46,0,1.36,0,1.69h-1.3c.06-.56.08-2.07.08-2.83V62c0-.48,0-1.24,0-1.9l-2.77,0a10.22,10.22,0,0,0,0-1.07c1.07,0,2.07.06,3.34.06s2.35,0,3.43-.06a7.62,7.62,0,0,0-.09,1.07" fill="currentColor"/>
        <path d="M41.66,67.36c.06-.56.08-2.07.08-2.83V61.94c0-.75,0-2.26-.08-2.83a11.32,11.32,0,0,0,1.3-.06c0,.34,0,1.28,0,1.74v4.88c0,.45,0,1.36,0,1.69Z" fill="currentColor"/>
        <path d="M52.7,60.11l-2.73,0c0,.25,0,.55,0,.74v4.85c0,.46,0,1.36,0,1.69H48.7c.06-.56.08-2.07.08-2.83V62c0-.48,0-1.24,0-1.9l-2.77,0A10.22,10.22,0,0,0,46,59c1.07,0,2.07.06,3.34.06s2.35,0,3.43-.06a7.49,7.49,0,0,0-.09,1.07" fill="currentColor"/>
        <path d="M63,59.13l-2.63,6c-.43,1-.72,1.68-.95,2.36l-.31.08-2.63-6c-.32-.74-.75-1.69-1.1-2.41L56.73,59,59.3,65.2l1.58-3.84c.28-.69.59-1.5.86-2.24Z" fill="currentColor"/>
        <path d="M71.9,60.11l-2.73,0c0,.25,0,.55,0,.74v4.85c0,.46,0,1.36,0,1.69H67.9c.06-.56.08-2.07.08-2.83V62c0-.48,0-1.24,0-1.9l-2.77,0a10.22,10.22,0,0,0,0-1.07c1.07,0,2.07.06,3.34.06s2.34,0,3.43-.06a7.55,7.55,0,0,0-.09,1.07" fill="currentColor"/>
        <path d="M80.18,67.41c-.7,0-1.57-.06-2.41-.06s-1.71,0-2.4.06c.06-.56.08-2.08.08-2.83V61.87c0-.76,0-2.26-.08-2.83.69,0,1.49.06,2.32.06s1.63,0,2.33-.06a7.27,7.27,0,0,0-.09,1l-2.24,0h-1c0,.21,0,.52,0,.69v1.77h2.85c0,.29,0,.61,0,1H76.63v2.17c0,.18,0,.49,0,.7h1c1,0,1.77,0,2.57,0a9.37,9.37,0,0,0-.08,1.06" fill="currentColor"/>
        <path d="M14.38,79.56a4.3,4.3,0,0,1-2.69.94,4.07,4.07,0,0,1-4.1-4.12,4.35,4.35,0,0,1,4.33-4.54,4.4,4.4,0,0,1,2.44.74L14,73.66a3.57,3.57,0,0,0-2.18-.76,3.06,3.06,0,0,0-3,3.24c0,2.15,1.31,3.31,3,3.31a3.75,3.75,0,0,0,2.7-1.18Z" fill="currentColor"/>
        <path d="M23.36,80.29c.07-.56.09-2.07.09-2.83v-1H19.14V78.6c0,.45,0,1.36,0,1.69h-1.3c.06-.56.08-2.07.08-2.83V74.87c0-.75,0-2.26-.08-2.83a11.12,11.12,0,0,0,1.3-.06c0,.34,0,1.28,0,1.74v1.8h4.31v-.65c0-.75,0-2.26-.09-2.83A11.68,11.68,0,0,0,24.68,72c0,.34-.06,1.28-.06,1.74V78.6c0,.45,0,1.36.06,1.69Z" fill="currentColor"/>
        <path d="M28.88,80.29c.06-.56.08-2.07.08-2.83V74.87c0-.75,0-2.26-.08-2.83a11.12,11.12,0,0,0,1.3-.06c0,.34,0,1.28,0,1.74V78.6c0,.45,0,1.36,0,1.69Z" fill="currentColor"/>
        <path d="M40.5,79.56a4.3,4.3,0,0,1-2.69.94,4.07,4.07,0,0,1-4.1-4.12A4.35,4.35,0,0,1,38,71.85a4.4,4.4,0,0,1,2.44.74l-.33,1.08A3.57,3.57,0,0,0,38,72.9a3.06,3.06,0,0,0-3,3.24c0,2.15,1.31,3.31,3,3.31a3.75,3.75,0,0,0,2.7-1.18Z" fill="currentColor"/>
        <path d="M49.72,80.38,48.63,78H45.17l0,.09c-.31.7-.63,1.51-.93,2.24H42.92l2.79-6c.46-1,.76-1.68,1-2.36l.31-.08,2.81,6c.33.73.79,1.68,1.16,2.41ZM48.2,77l-1.3-2.92L45.6,77Z" fill="currentColor"/>
        <path d="M59.24,76.42c.47,0,.7,0,1.22,0-.06.45,0,1.59,0,2.36v.9a4.91,4.91,0,0,1-2.92.87,4.19,4.19,0,0,1-4.25-4.12,4.4,4.4,0,0,1,4.47-4.54,5,5,0,0,1,2.6.74L60,73.66a4.06,4.06,0,0,0-2.35-.76,3.07,3.07,0,0,0-3.19,3.24,3,3,0,0,0,3.11,3.31,3.44,3.44,0,0,0,1.7-.38V77.64c0-.18,0-.49,0-.7Z" fill="currentColor"/>
        <path d="M71.83,76a4.27,4.27,0,0,1-4.24,4.54,4,4,0,0,1-4-4.12,4.27,4.27,0,0,1,4.24-4.54,4,4,0,0,1,4,4.12m-1.21.19c0-2.08-1.27-3.31-2.92-3.31a3.08,3.08,0,0,0-2.9,3.36c0,2.08,1.27,3.31,2.92,3.31a3.08,3.08,0,0,0,2.9-3.36" fill="currentColor"/>
      </g>
    </g>
  </g>
</svg>
