<svg xmlns="http://www.w3.org/2000/svg" width="80" height="80" viewBox="0 0 80 80">
    <g>
      <path d="M79,1V79H1V1H79m1-1H0V80H80V0Z" fill="currentColor"/>
      <g>
        <path d="M12.1413,48.792l-.9848-2.1929H8.0328l-.0312.0847c-.2757.6365-.572,1.3667-.8372,2.0226H6l2.52-5.4221c.4127-.89.6884-1.5134.9211-2.1268l.2761-.075,2.5408,5.4533c.2976.6568.71,1.5146,1.0484,2.1706ZM10.7653,45.73,9.59,43.0943,8.4252,45.73Z" fill="currentColor"/>
        <path d="M20.0856,48.781l-1.9063-2.9977H17.0255v1.3991c0,.4119.0093,1.2276.0418,1.524H15.8919c.0531-.5084.0738-1.8641.0738-2.5521V43.8134c0-.6775-.0207-2.0429-.0738-2.5513.3811,0,1.4607-.0418,1.948-.0523,1.8641-.032,2.8906.9953,2.8594,2.17a2.31,2.31,0,0,1-1.5568,2.16l1.0808,1.5888c.2854.4022.8684,1.2179,1.1117,1.5138Zm-3.06-3.8758h1.0687a1.3884,1.3884,0,0,0,1.5146-1.3877c0-.9106-.5506-1.3861-1.6622-1.3861-.3393,0-.6357.01-.9118.03-.0093.2124-.0093.4561-.0093.6142Z" fill="currentColor"/>
        <path d="M29.2363,42.1618c-.8157-.01-1.5248-.02-2.4674-.02-.0113.2226-.0113.497-.0113.6665v4.3745c0,.4119.0113,1.2276.0434,1.524H25.6257c.0527-.5084.0734-1.8641.0734-2.5521V43.8569c0-.4342-.01-1.1222-.0316-1.7153-.9426,0-1.6841.01-2.4986.02a9.2164,9.2164,0,0,0,.0422-.9629c.9633.0312,1.8641.0531,3.0179.0531s2.1171-.0219,3.0925-.0531a6.7592,6.7592,0,0,0-.0851.9629" fill="currentColor"/>
        <path d="M7.1431,60.8172c.0539-.5088.0742-1.8641.0742-2.5521v-2.34c0-.6783-.02-2.0429-.0742-2.5517A10.2251,10.2251,0,0,0,8.3188,53.32c-.0316.3073-.0422,1.1534-.0422,1.5669v4.4053c0,.4018.0105,1.2288.0422,1.5248Z" fill="currentColor"/>
        <path d="M18.38,54.8869l-.073,4.4689c0,.4131-.0109,1.271.02,1.5673l-.2749.0742-4.8606-5.581v3.8758c0,.4131.01,1.2288.0422,1.5248H12.0692c.0636-.508.1163-1.8637.1269-2.5521l.0422-2.5509c.0109-.6783.0109-1.9387-.0422-2.4467l.2858-.0746L17.385,58.858V55.9244c0-.6779-.0215-2.0429-.0847-2.5513a10.26,10.26,0,0,0,1.1648-.0523c-.0426.3069-.0746,1.1534-.0855,1.5661" fill="currentColor"/>
        <path d="M23.529,61.0076a4.1828,4.1828,0,0,1-2.0859-.6247l.0632-1.1226a3.4764,3.4764,0,0,0,2.0859.7938c.7946,0,1.3553-.3912,1.3553-1.1757,0-1.4806-3.2085-1.5556-3.2085-3.5048a2.2186,2.2186,0,0,1,2.34-2.1812,2.9511,2.9511,0,0,1,1.7368.5514l-.35.9317a2.4937,2.4937,0,0,0-1.4283-.53c-.7739,0-1.2394.4139-1.2394,1.0808,0,1.3237,3.1975,1.3869,3.1975,3.5048a2.2617,2.2617,0,0,1-2.467,2.2764" fill="currentColor"/>
        <path d="M34.4046,54.2726c-.8153-.0109-1.5244-.02-2.467-.02-.0113.2218-.0113.497-.0113.6665v4.3737c0,.4127.0113,1.2284.0434,1.5248H30.7943c.0527-.5084.0734-1.8641.0734-2.5521V55.9676c0-.4342-.01-1.123-.032-1.7153-.9422,0-1.6837.0093-2.4982.02a9.2287,9.2287,0,0,0,.0418-.9629c.9637.0312,1.8645.0523,3.0183.0523s2.1171-.0211,3.0921-.0523a6.88,6.88,0,0,0-.0851.9629" fill="currentColor"/>
        <path d="M37.2761,60.8172c.0543-.5088.0746-1.8641.0746-2.5521v-2.34c0-.6783-.02-2.0429-.0746-2.5517a10.2208,10.2208,0,0,0,1.1757-.0527c-.0316.3073-.0422,1.1534-.0422,1.5669v4.4053c0,.4018.0105,1.2288.0422,1.5248Z" fill="currentColor"/>
        <path d="M47.2427,54.2726c-.8157-.0109-1.5248-.02-2.4674-.02-.0113.2218-.0113.497-.0113.6665v4.3737c0,.4127.0113,1.2284.0434,1.5248H43.632c.0527-.5084.0734-1.8641.0734-2.5521V55.9676c0-.4342-.01-1.123-.0316-1.7153-.9426,0-1.6841.0093-2.4986.02a9.2265,9.2265,0,0,0,.0422-.9629c.9633.0312,1.8641.0523,3.0179.0523s2.1171-.0211,3.0925-.0523a6.7592,6.7592,0,0,0-.0851.9629" fill="currentColor"/>
        <path d="M56.584,53.3839,54.2123,58.806c-.392.8992-.6462,1.5134-.8575,2.1268l-.2757.0746-2.3713-5.4423c-.2866-.6673-.6779-1.5252-.9961-2.1718l1.1648-.0839,2.319,5.56,1.43-3.4627c.2546-.6256.53-1.3557.7739-2.0226Z" fill="currentColor"/>
        <path d="M64.57,54.2726c-.8157-.0109-1.5244-.02-2.4674-.02-.0109.2218-.0109.497-.0109.6665v4.3737c0,.4127.0109,1.2284.0434,1.5248H60.96c.0527-.5084.0734-1.8641.0734-2.5521V55.9676c0-.4342-.01-1.123-.032-1.7153-.9422,0-1.6837.0093-2.4982.02a9.2287,9.2287,0,0,0,.0418-.9629c.9633.0312,1.8645.0523,3.0183.0523s2.1167-.0211,3.0921-.0523a6.8192,6.8192,0,0,0-.0851.9629" fill="currentColor"/>
        <path d="M72.0488,60.8595c-.6361-.0422-1.419-.0535-2.1714-.0535s-1.5463.0114-2.1706.0535c.0527-.508.0742-1.8742.0742-2.5513V55.8611c0-.6876-.0215-2.0433-.0742-2.5513.6243.0312,1.3444.0519,2.0964.0519s1.4717-.0207,2.1078-.0519a6.56,6.56,0,0,0-.0855.9422c-.6243-.0109-1.27-.0207-2.0222-.0207-.3179,0-.6357,0-.9426.01-.0207.1914-.0207.4654-.0207.6252v1.599h2.5728c-.0215.2639-.032.551-.032.8688H68.84v1.9586c0,.1581,0,.4447.0207.6345.3069,0,.6247.0109.9426.0109.8579,0,1.5994-.0109,2.319-.0312a8.4556,8.4556,0,0,0-.0734.9527" fill="currentColor"/>
        <path d="M12.65,72.2355a3.8807,3.8807,0,0,1-2.4252.8469,3.6715,3.6715,0,0,1-3.7055-3.7173,3.9294,3.9294,0,0,1,3.907-4.0972,3.9753,3.9753,0,0,1,2.2022.6665l-.2964.9742a3.2226,3.2226,0,0,0-1.97-.688A2.7633,2.7633,0,0,0,7.61,69.1434a2.6709,2.6709,0,0,0,2.6782,2.9855A3.3894,3.3894,0,0,0,12.7245,71.06Z" fill="currentColor"/>
        <path d="M20.7523,72.8922c.0632-.5088.0851-1.8641.0851-2.5529v-.8887H16.9511v1.9168c0,.4018.01,1.2288.0418,1.5248H15.8175c.0527-.5088.0746-1.8641.0746-2.5529V68c0-.6783-.0219-2.0429-.0746-2.5517a10.036,10.036,0,0,0,1.1753-.0535c-.032.3073-.0418,1.1542-.0418,1.5678v1.62h3.8863V68c0-.6783-.0219-2.0429-.0851-2.5517a10.5465,10.5465,0,0,0,1.1968-.0535c-.043.3073-.0535,1.1542-.0535,1.5678v4.4053c0,.4018.0105,1.2288.0535,1.5248Z" fill="currentColor"/>
        <path d="M25.7419,72.8922c.0543-.5088.0746-1.8641.0746-2.5529V68c0-.6783-.02-2.0429-.0746-2.5517a10.0417,10.0417,0,0,0,1.1761-.0535c-.0316.3073-.0426,1.1542-.0426,1.5678v4.4053c0,.4018.0109,1.2288.0426,1.5248Z" fill="currentColor"/>
        <path d="M36.2269,72.2355a3.8827,3.8827,0,0,1-2.4256.8469,3.6714,3.6714,0,0,1-3.7051-3.7173,3.9294,3.9294,0,0,1,3.907-4.0972,3.9749,3.9749,0,0,1,2.2018.6665l-.2964.9742a3.2217,3.2217,0,0,0-1.97-.688,2.7632,2.7632,0,0,0-2.7524,2.9227,2.6709,2.6709,0,0,0,2.6782,2.9855A3.3891,3.3891,0,0,0,36.301,71.06Z" fill="currentColor"/>
        <path d="M44.5522,72.9769l-.9848-2.1925H40.4437l-.0312.0851c-.2757.6357-.572,1.3659-.8376,2.0226H38.4105l2.52-5.4221c.4127-.89.6884-1.5134.9211-2.1276l.2761-.075,2.5408,5.4533c.2976.6576.71,1.5146,1.0484,2.1714Zm-1.376-3.0609L42,67.2792,40.8361,69.916Z" fill="currentColor"/>
        <path d="M53.1424,69.3965c.4224-.0057.6316-.0158,1.0971-.04-.0527.4022-.0373,1.4388-.0373,2.1276v.8149a4.4291,4.4291,0,0,1-2.6381.7837,3.7817,3.7817,0,0,1-3.8324-3.7173,3.9753,3.9753,0,0,1,4.0339-4.0976,4.4913,4.4913,0,0,1,2.351.6669l-.2968.9738a3.6688,3.6688,0,0,0-2.1179-.688,2.7745,2.7745,0,0,0-2.88,2.9231,2.7332,2.7332,0,0,0,2.8059,2.9855,3.109,3.109,0,0,0,1.5353-.3385V70.4989c0-.1593,0-.4447-.0207-.6353Z" fill="currentColor"/>
        <path d="M64.5068,68.9841a3.8573,3.8573,0,0,1-3.8231,4.0984,3.5923,3.5923,0,0,1-3.6111-3.7173,3.8561,3.8561,0,0,1,3.8231-4.0976,3.5925,3.5925,0,0,1,3.6111,3.7165m-1.0906.17a2.6759,2.6759,0,0,0-2.6377-2.9871,2.7783,2.7783,0,0,0-2.615,3.0289A2.6751,2.6751,0,0,0,60.8,72.1833a2.7782,2.7782,0,0,0,2.6162-3.0289" fill="currentColor"/>
      </g>
    </g>
</svg>
