<svg xmlns="http://www.w3.org/2000/svg" width="88" height="88" viewBox="0 0 88 88">
    <g>
      <rect width="88" height="88" fill="currentColor"/>
      <path d="M13.8315,54.2l-1.0932-2.3893H9.27l-.0347.0923c-.3061.6935-.6351,1.4891-.9294,2.2038H7.0136l2.7973-5.9077c.4582-.97.7642-1.649,1.0226-2.3173L11.14,45.8l2.8207,5.9418c.33.7156.7881,1.65,1.1639,2.365Zm-1.5276-3.336-1.3052-2.8721L9.706,50.864Z" fill="#fff"/>
      <path d="M22.6509,54.188l-2.1163-3.2662H19.2537v1.5244c0,.4488.01,1.3376.0464,1.66H17.9953c.059-.5539.0819-2.0311.0819-2.7807V48.7754c0-.7381-.023-2.2259-.0819-2.78.4231,0,1.6216-.0455,2.1626-.057,2.0695-.0349,3.2091,1.0845,3.1744,2.3642a2.52,2.52,0,0,1-1.7283,2.354l1.2,1.7312c.3169.4382.9641,1.327,1.2341,1.6494Zm-3.3972-4.223H20.44a1.5291,1.5291,0,0,0,1.6815-1.5121c0-.9921-.6112-1.51-1.8453-1.51-.3767,0-.7057.011-1.0122.0331-.01.2315-.01.4969-.01.6692Z" fill="#fff"/>
      <path d="M32.81,46.9759c-.9056-.011-1.6928-.0221-2.7392-.0221-.0126.2425-.0126.5416-.0126.7262v4.7663c0,.4488.0126,1.3376.0482,1.66H28.8013c.0585-.5539.0815-2.0311.0815-2.7807V48.8228c0-.4731-.0112-1.2227-.0351-1.869-1.0464,0-1.87.011-2.7738.0221a9.8571,9.8571,0,0,0,.0468-1.0491c1.0694.034,2.0695.0579,3.35.0579s2.35-.0239,3.4332-.0579a7.2317,7.2317,0,0,0-.0945,1.0491" fill="#fff"/>
      <path d="M7.7464,67.0235c.06-.5507.0819-2.0177.0819-2.7624V61.7278c0-.7342-.0224-2.2112-.0819-2.762a11.5159,11.5159,0,0,0,1.2982-.057c-.0349.3326-.0466,1.2485-.0466,1.696v4.7683c0,.4349.0116,1.33.0466,1.65Z" fill="#fff"/>
      <path d="M20.1138,60.6046l-.0806,4.8371c0,.4472-.0121,1.3757.0224,1.6965l-.3035.08-5.367-6.0408v4.1951c0,.4472.0112,1.33.0466,1.65H13.146c.07-.55.1285-2.0173.14-2.7624L13.3326,61.5c.0121-.7341.0121-2.0984-.0466-2.6483l.3156-.0807,5.414,6.1321V61.7275c0-.7337-.0237-2.2112-.0936-2.7615a11.5558,11.5558,0,0,0,1.2861-.0566c-.047.3322-.0824,1.2485-.0945,1.6952" fill="#fff"/>
      <path d="M25.8,67.23a4.6861,4.6861,0,0,1-2.3032-.6762l.07-1.2151a3.8827,3.8827,0,0,0,2.3032.8592c.8774,0,1.4965-.4235,1.4965-1.2726,0-1.6026-3.5428-1.6838-3.5428-3.7936A2.4289,2.4289,0,0,1,26.4076,58.77a3.3029,3.3029,0,0,1,1.9178.5968l-.3868,1.0084a2.7871,2.7871,0,0,0-1.5771-.5735c-.8546,0-1.3685.448-1.3685,1.17,0,1.4328,3.5307,1.5012,3.5307,3.7936A2.4762,2.4762,0,0,1,25.8,67.23" fill="#fff"/>
      <path d="M37.8084,59.94c-.9-.0118-1.6832-.0219-2.724-.0219-.0125.24-.0125.538-.0125.7214v4.734c0,.4467.0125,1.33.0479,1.65H33.822c.0582-.55.081-2.0177.081-2.7624V61.7743c0-.47-.0112-1.2155-.0354-1.8567-1.04,0-1.8591.01-2.7585.0219a9.7934,9.7934,0,0,0,.0461-1.0422c1.0641.0338,2.0588.0566,3.3328.0566s2.3377-.0228,3.4143-.0566a7.3041,7.3041,0,0,0-.094,1.0422" fill="#fff"/>
      <path d="M40.9791,67.0235c.06-.5507.0824-2.0177.0824-2.7624V61.7278c0-.7342-.0224-2.2112-.0824-2.762a11.5111,11.5111,0,0,0,1.2982-.057c-.0349.3326-.0466,1.2485-.0466,1.696v4.7683c0,.4349.0116,1.33.0466,1.65Z" fill="#fff"/>
      <path d="M51.9841,59.94c-.9007-.0118-1.6836-.0219-2.7245-.0219-.0125.24-.0125.538-.0125.7214v4.734c0,.4467.0125,1.33.0479,1.65H47.9973c.0582-.55.081-2.0177.081-2.7624V61.7743c0-.47-.0112-1.2155-.0349-1.8567-1.0408,0-1.86.01-2.7589.0219a9.7911,9.7911,0,0,0,.0465-1.0422c1.0636.0338,2.0583.0566,3.3324.0566s2.3377-.0228,3.4147-.0566a7.1756,7.1756,0,0,0-.094,1.0422" fill="#fff"/>
      <path d="M62.2986,58.9778,59.68,64.8466c-.4329.9733-.7136,1.6381-.9468,2.3021l-.3044.0807L55.81,61.3386c-.3165-.7223-.7485-1.6509-1.1-2.3508l1.2861-.0908,2.5606,6.018,1.5784-3.748c.2811-.6771.5855-1.4674.8546-2.1893Z" fill="#fff"/>
      <path d="M71.1168,59.94c-.9007-.0118-1.6832-.0219-2.7245-.0219-.0121.24-.0121.538-.0121.7214v4.734c0,.4467.0121,1.33.0479,1.65H67.13c.0582-.55.081-2.0177.081-2.7624V61.7743c0-.47-.0112-1.2155-.0354-1.8567-1.04,0-1.8591.01-2.7585.0219a9.7934,9.7934,0,0,0,.0461-1.0422c1.0636.0338,2.0588.0566,3.3328.0566s2.3372-.0228,3.4143-.0566a7.2393,7.2393,0,0,0-.094,1.0422" fill="#fff"/>
      <path d="M79.3747,67.0692c-.7024-.0456-1.5668-.0579-2.3977-.0579s-1.7074.0123-2.3968.0579c.0582-.55.0819-2.0287.0819-2.7615V61.659c0-.7442-.0237-2.2117-.0819-2.7615.6894.0338,1.4844.0562,2.3148.0562s1.625-.0224,2.3274-.0562a6.9641,6.9641,0,0,0-.0945,1.02c-.6894-.0118-1.4025-.0224-2.2329-.0224-.351,0-.7019,0-1.0408.0105-.0228.2071-.0228.5038-.0228.6767v1.7307h2.8408c-.0237.2857-.0354.5964-.0354.94H75.8315v2.12c0,.1711,0,.4814.0228.6868.3389,0,.69.0118,1.0408.0118.9472,0,1.766-.0118,2.5606-.0338a8.9752,8.9752,0,0,0-.081,1.0312" fill="#fff"/>
      <path d="M14.157,79.27a4.3762,4.3762,0,0,1-2.6779.9049,3.9884,3.9884,0,0,1-4.0916-3.9717,4.2632,4.2632,0,0,1,4.3141-4.3776,4.494,4.494,0,0,1,2.4317.7121l-.3272,1.0409a3.6339,3.6339,0,0,0-2.1747-.7351,2.9969,2.9969,0,0,0-3.04,3.1227,2.8944,2.8944,0,0,0,2.9572,3.19,3.8014,3.8014,0,0,0,2.69-1.1423Z" fill="#fff"/>
      <path d="M23.1036,79.9715c.07-.5436.094-1.9917.094-2.7277v-.95H18.9063v2.048c0,.4293.0107,1.3129.0461,1.6291H17.6547c.0582-.5436.0824-1.9917.0824-2.7277v-2.5c0-.7247-.0242-2.1827-.0824-2.7264a11.4494,11.4494,0,0,0,1.2978-.0572c-.0354.3283-.0461,1.2332-.0461,1.6751V75.367h4.2912v-.6229c0-.7247-.0242-2.1827-.094-2.7264a12.0319,12.0319,0,0,0,1.3215-.0572c-.0475.3283-.0591,1.2332-.0591,1.6751v4.7068c0,.4293.0116,1.3129.0591,1.6291Z" fill="#fff"/>
      <path d="M28.6131,79.9715c.06-.5436.0824-1.9917.0824-2.7277v-2.5c0-.7247-.0224-2.1827-.0824-2.7264a11.4558,11.4558,0,0,0,1.2986-.0572c-.0349.3283-.047,1.2332-.047,1.6751v4.7068c0,.4293.0121,1.3129.047,1.6291Z" fill="#fff"/>
      <path d="M40.19,79.27a4.3785,4.3785,0,0,1-2.6783.9049,3.9883,3.9883,0,0,1-4.0911-3.9717,4.2632,4.2632,0,0,1,4.3141-4.3776,4.4936,4.4936,0,0,1,2.4312.7121l-.3272,1.0409a3.6329,3.6329,0,0,0-2.1747-.7351,2.9968,2.9968,0,0,0-3.0391,3.1227,2.8944,2.8944,0,0,0,2.9572,3.19,3.8011,3.8011,0,0,0,2.69-1.1423Z" fill="#fff"/>
      <path d="M49.3832,80.0621,48.2958,77.72H44.8466l-.0345.091c-.3044.6792-.6317,1.4593-.9249,2.1611H42.6016l2.7826-5.7932c.4557-.9508.76-1.617,1.0171-2.2733l.3049-.08,2.8055,5.8265c.3286.7026.7838,1.6183,1.1576,2.32Zm-1.5193-3.27-1.2982-2.8173L45.28,76.7917Z" fill="#fff"/>
      <path d="M58.8684,76.2366c.4665-.0061.6974-.0169,1.2114-.0429-.0582.43-.0412,1.5373-.0412,2.2733v.8707a5.0043,5.0043,0,0,1-2.9129.8373,4.1132,4.1132,0,0,1-4.2317-3.9717,4.3182,4.3182,0,0,1,4.4542-4.378,5.0821,5.0821,0,0,1,2.596.7126l-.3277,1.04a4.1429,4.1429,0,0,0-2.3386-.7351,3.0137,3.0137,0,0,0-3.18,3.1231,2.9669,2.9669,0,0,0,3.0982,3.19,3.528,3.528,0,0,0,1.6953-.3617v-1.38c0-.17,0-.4752-.0228-.6788Z" fill="#fff"/>
      <path d="M71.4167,75.796a4.1817,4.1817,0,0,1-4.2214,4.3789,3.8988,3.8988,0,0,1-3.9873-3.9717,4.18,4.18,0,0,1,4.2214-4.378,3.8991,3.8991,0,0,1,3.9873,3.9708m-1.2042.1819A2.8979,2.8979,0,0,0,67.3,72.7864a3.0041,3.0041,0,0,0-2.8874,3.2362,2.8969,2.8969,0,0,0,2.9111,3.1916,3.0041,3.0041,0,0,0,2.8887-3.2362" fill="#fff"/>
    </g>
</svg>
