<svg xmlns="http://www.w3.org/2000/svg" width="80" height="80" viewBox="0 0 80 80">
    <g>
        <path d="M0.74,80H0V0h80v80H0.74L0.74,80z M78.53,78.53V1.47H1.47v77.05H78.53L78.53,78.53z" fill="currentColor"/>
        <path d="M12.9,48.28l-0.81-1.88H9.2l-0.02,0.06c-0.2,0.46-0.5,1.26-0.7,1.73H6.92l2.43-5.37c0.4-0.88,0.65-1.49,0.88-2.1
            l0.78-0.09l2.45,5.4c0.29,0.65,0.68,1.5,1.01,2.15L12.9,48.28L12.9,48.28z M11.67,45.37l-1.04-2.42l-1.01,2.42H11.67L11.67,45.37
            z" fill="currentColor"/>
        <path d="M20.92,48.28l-1.74-2.78h-0.97v1.18c0,0.41,0.01,1.22,0.04,1.51h-1.57c0.05-0.5,0.07-1.84,0.07-2.53v-2.32
            c0-0.67-0.02-2.02-0.07-2.53c0.38,0,1.69-0.04,2.17-0.05c2.02-0.02,3.09,0.95,3.07,2.2c-0.02,1.02-0.51,1.68-1.49,2.14l1.16,1.69
            c0.26,0.37,0.73,1.03,0.97,1.33L20.92,48.28L20.92,48.28z M18.21,44.43h0.91c0.86,0,1.38-0.55,1.38-1.25
            c0-0.79-0.45-1.24-1.5-1.24c-0.29,0-0.55,0.01-0.78,0.03c-0.01,0.15-0.01,0.49-0.01,0.61V44.43L18.21,44.43z" fill="currentColor"/>
        <path d="M30.44,41.99c-0.78-0.01-1.44-0.02-2.32-0.02c-0.01,0.22-0.01,0.49-0.01,0.66v4.06c0,0.41,0.01,1.22,0.04,1.51h-1.57
            c0.05-0.5,0.07-1.84,0.07-2.53v-2c0-0.43-0.01-1.11-0.03-1.7c-0.89,0-1.59,0.01-2.37,0.02c0.03-0.36,0.04-0.82,0.04-1.23
            c0.98,0.03,1.91,0.05,3.08,0.05c1.18,0,2.16-0.02,3.14-0.05C30.47,41.15,30.45,41.54,30.44,41.99L30.44,41.99z" fill="currentColor"/>
        <path d="M8.18,60.39c0.05-0.5,0.07-1.84,0.07-2.53v-2.32c0-0.67-0.02-2.02-0.07-2.53c0.42,0,1.22-0.01,1.57-0.05
            c-0.03,0.3-0.04,1.14-0.04,1.55v4.36c0,0.4,0.01,1.22,0.04,1.51H8.18L8.18,60.39z" fill="currentColor"/>
        <path d="M19.91,54.52l-0.06,4.4c0,0.41,0,1.27,0.04,1.56l-0.75,0.08l-4.33-5.02v3.33c0,0.41,0.01,1.22,0.04,1.51h-1.51
            c0.06-0.5,0.11-1.84,0.11-2.53l0.03-2.48c0.01-0.67,0-1.96-0.06-2.46l0.75-0.08l4.35,5.1v-2.39c0-0.67-0.02-2.02-0.09-2.53
            c0.42,0,1.16-0.01,1.52-0.05C19.94,53.27,19.91,54.11,19.91,54.52L19.91,54.52z" fill="currentColor"/>
        <path d="M25.11,60.58c-0.75,0-1.65-0.27-2.2-0.61l0.06-1.4c0.44,0.38,1.35,0.8,2.18,0.8c0.67,0,1.1-0.31,1.1-0.93
            c0-1.25-3.11-1.35-3.11-3.37c0-1.29,1.01-2.22,2.43-2.22c0.75,0,1.45,0.25,1.9,0.54l-0.36,1.18c-0.41-0.28-1-0.51-1.52-0.51
            c-0.65,0-1.02,0.34-1.02,0.86c0,1.14,3.09,1.25,3.09,3.37C27.67,59.63,26.68,60.58,25.11,60.58L25.11,60.58z" fill="currentColor"/>
        <path d="M36.02,54.18c-0.78-0.01-1.44-0.02-2.32-0.02c-0.01,0.22-0.01,0.49-0.01,0.66v4.06c0,0.41,0.01,1.22,0.04,1.51h-1.57
            c0.05-0.5,0.07-1.84,0.07-2.53v-2c0-0.43-0.01-1.11-0.03-1.7c-0.89,0-1.59,0.01-2.37,0.02c0.03-0.36,0.04-0.82,0.04-1.23
            c0.98,0.03,1.91,0.05,3.08,0.05c1.18,0,2.16-0.02,3.14-0.05C36.05,53.34,36.03,53.73,36.02,54.18L36.02,54.18z" fill="currentColor"/>
        <path d="M38.35,60.39c0.05-0.5,0.07-1.84,0.07-2.53v-2.32c0-0.67-0.02-2.02-0.07-2.53c0.42,0,1.22-0.01,1.57-0.05
            c-0.03,0.3-0.04,1.14-0.04,1.55v4.36c0,0.4,0.01,1.22,0.04,1.51H38.35L38.35,60.39z" fill="currentColor"/>
        <path d="M48.53,54.18c-0.78-0.01-1.44-0.02-2.32-0.02c-0.01,0.22-0.01,0.49-0.01,0.66v4.06c0,0.41,0.01,1.22,0.04,1.51h-1.57
            c0.05-0.5,0.07-1.84,0.07-2.53v-2c0-0.43-0.01-1.11-0.03-1.7c-0.89,0-1.59,0.01-2.37,0.02c0.03-0.36,0.04-0.82,0.04-1.23
            c0.98,0.03,1.91,0.05,3.09,0.05c1.18,0,2.16-0.02,3.14-0.05C48.56,53.34,48.54,53.73,48.53,54.18L48.53,54.18z" fill="currentColor"/>
        <path d="M57.46,53.04l-2.3,5.37c-0.38,0.88-0.61,1.47-0.82,2.07l-0.8,0.08l-2.31-5.38c-0.27-0.65-0.64-1.5-0.95-2.14l1.59-0.1
            l2.07,5.13l1.28-3.23c0.19-0.45,0.51-1.33,0.69-1.81H57.46L57.46,53.04z" fill="currentColor"/>
        <path d="M65.2,54.18c-0.78-0.01-1.44-0.02-2.32-0.02c-0.01,0.22-0.01,0.49-0.01,0.66v4.06c0,0.41,0.01,1.22,0.04,1.51h-1.57
            c0.05-0.5,0.07-1.84,0.07-2.53v-2c0-0.43-0.01-1.11-0.03-1.7c-0.89,0-1.59,0.01-2.37,0.02c0.03-0.36,0.04-0.82,0.04-1.23
            c0.98,0.03,1.91,0.05,3.08,0.05c1.18,0,2.16-0.02,3.14-0.05C65.23,53.34,65.21,53.73,65.2,54.18L65.2,54.18z" fill="currentColor"/>
        <path d="M72.53,60.43c-0.65-0.04-1.46-0.05-2.23-0.05c-0.81,0-1.67,0.01-2.36,0.05c0.05-0.51,0.07-1.87,0.07-2.54V55.5
            c0-0.68-0.02-2.04-0.07-2.55c0.68,0.03,1.44,0.05,2.27,0.05c0.78,0,1.53-0.02,2.19-0.05c-0.04,0.39-0.07,0.76-0.09,1.22
            c-0.58-0.01-1.18-0.02-1.89-0.02c-0.32,0-0.63,0-0.93,0.01c-0.02,0.17-0.02,0.42-0.02,0.57v1.28h2.43
            c-0.02,0.32-0.03,0.68-0.03,1.09h-2.4v1.55c0,0.15,0,0.41,0.02,0.58c0.31,0,0.62,0.01,0.93,0.01c0.81,0,1.51-0.01,2.18-0.03
            C72.56,59.59,72.54,59.97,72.53,60.43L72.53,60.43z" fill="currentColor"/>
        <path d="M13.69,72.05c-0.68,0.47-1.46,0.72-2.33,0.72c-2.2,0-3.73-1.68-3.73-3.68c0-2.3,1.64-4.06,3.93-4.06
            c0.8,0,1.6,0.24,2.17,0.6l-0.33,1.27c-0.49-0.38-1.13-0.62-1.81-0.62c-1.44,0-2.44,1.11-2.44,2.58c0,1.74,1.05,2.66,2.38,2.66
            c0.92,0,1.58-0.36,2.23-0.95L13.69,72.05L13.69,72.05z" fill="currentColor"/>
        <path d="M21.73,72.58c0.06-0.5,0.08-1.79,0.08-2.48v-0.76H18.4v1.73c0,0.4,0.01,1.22,0.04,1.51h-1.58
            c0.06-0.5,0.08-1.85,0.08-2.53v-2.32c0-0.67-0.02-2.02-0.08-2.53c0.42,0,1.23-0.01,1.58-0.05c-0.03,0.31-0.04,1.14-0.04,1.55v1.5
            h3.41v-0.47c0-0.67-0.02-2.02-0.08-2.53c0.42,0,1.25-0.01,1.6-0.05c-0.04,0.31-0.05,1.14-0.05,1.55v4.36
            c0,0.4,0.01,1.22,0.05,1.51H21.73L21.73,72.58z" fill="currentColor"/>
        <path d="M26.79,72.58c0.05-0.5,0.07-1.85,0.07-2.53v-2.32c0-0.67-0.02-2.02-0.07-2.53c0.42,0,1.22-0.01,1.57-0.05
            c-0.03,0.31-0.04,1.14-0.04,1.55v4.36c0,0.4,0.01,1.22,0.04,1.51H26.79L26.79,72.58z" fill="currentColor"/>
        <path d="M37.56,72.05c-0.68,0.47-1.46,0.72-2.33,0.72c-2.2,0-3.73-1.68-3.73-3.68c0-2.3,1.64-4.06,3.93-4.06
            c0.8,0,1.6,0.24,2.17,0.6l-0.33,1.27c-0.49-0.38-1.13-0.62-1.81-0.62c-1.44,0-2.44,1.11-2.44,2.58c0,1.74,1.05,2.66,2.38,2.66
            c0.92,0,1.58-0.36,2.23-0.95L37.56,72.05L37.56,72.05z" fill="currentColor"/>
        <path d="M45.58,72.66l-0.81-1.88h-2.89l-0.02,0.06c-0.2,0.46-0.5,1.26-0.7,1.73H39.6l2.43-5.37c0.4-0.88,0.65-1.49,0.88-2.1
            l0.78-0.09l2.45,5.4c0.28,0.65,0.68,1.5,1.01,2.15L45.58,72.66L45.58,72.66z M44.35,69.76l-1.04-2.42l-1.01,2.42H44.35
            L44.35,69.76z" fill="currentColor"/>
        <path d="M54.11,69.07c0.58,0,0.9-0.01,1.47-0.04c-0.05,0.4-0.1,1.33-0.1,2.01v0.94c-0.61,0.39-1.41,0.8-2.76,0.8
            c-2.2,0-3.82-1.7-3.82-3.69c0-2.33,1.74-4.05,4.06-4.05c1,0,1.88,0.33,2.42,0.69l-0.43,1.23c-0.48-0.38-1.3-0.68-2.07-0.68
            c-1.51,0-2.53,1.08-2.53,2.58c0,1.8,1.18,2.7,2.47,2.7c0.55,0,0.95-0.1,1.32-0.28v-1.02c0-0.14,0-0.42-0.02-0.6L54.11,69.07
            L54.11,69.07z" fill="currentColor"/>
        <path d="M65.54,68.71c0,2.3-1.54,4.06-3.82,4.06c-2.16,0-3.6-1.68-3.6-3.68c0-2.3,1.55-4.06,3.81-4.06
            C64.1,65.03,65.54,66.7,65.54,68.71L65.54,68.71z M64.08,68.9c0-1.7-0.95-2.69-2.25-2.69c-1.38,0-2.25,1.22-2.25,2.69
            c0,1.69,0.94,2.7,2.25,2.7C63.21,71.6,64.08,70.38,64.08,68.9L64.08,68.9z" fill="currentColor"/>
    </g>
</svg>
