<svg viewBox="0 0 163.2 22" enable-background="new 0 0 163.2 22" xmlns="http://www.w3.org/2000/svg">
    <g fill="currentColor">
        <path d="M1.7,14.5l1-6.9c0.3-2,0.6-5,0.8-6.5L4,0.9c0.6,1.5,1.3,2.9,1.8,4.3l5.5,12.5L17,5.2C17.5,4,18.4,2,18.8,0.9
            h0.6C19.5,2,20,6.1,20.2,7.3l1,7.1c0.3,1.8,0.8,5.3,1.1,6.7L20,21.2c-0.1-0.9-0.3-2.8-0.5-4.3L18.2,6.7
            c-1.2,2.8-6.2,13.9-6.5,14.7l-0.6,0.1L4.6,6.7L3.2,17.1c-0.1,1.2-0.4,3.1-0.4,4H0.7C1,19.4,1.4,16.5,1.7,14.5z"/>
        <path d="M33.2,6.9c1.2-2.7,1.9-4.3,2.5-5.8l0.6-0.2L43,15.8c0.9,2,1.9,4.2,2.5,5.3l-2.2,0.2l-2.9-6.5h-8.7l-0.4,1
            c-0.8,1.9-1.7,4.1-2.1,5.3h-2.3L33.2,6.9z M32.4,13.1h7.2L36,4.9L32.4,13.1z"/>
        <path d="M60.2,21.6C54.3,21.6,50,17,50,11.5c0-5.9,4.4-10.6,10.5-10.6c2.2,0,4.5,0.7,6,1.7L66,4.6
            c-1.4-1.1-3.6-1.8-5.7-1.8c-4.9,0-8.2,3.7-8.2,8.5c0,5.1,3.6,8.4,8.3,8.4c1.9,0,3.2-0.4,4.5-1.1v-4.2c0-0.4,0-1.3-0.1-1.8
            c-1.1,0-0.8,0-2,0c-1.4,0-2.2,0-3.8,0.1c0.1-0.7,0.1-1.4,0-1.9c1.6,0.1,2.6,0.1,3.8,0.1c1.8,0,2.7,0,4.2-0.1
            c-0.1,1.1-0.1,4.7-0.1,6.4v2.5C65.4,20.6,63.4,21.6,60.2,21.6z"/>
        <path d="M78.4,6.9c1.2-2.7,1.9-4.3,2.5-5.8l0.6-0.2l6.7,14.8c0.9,2,1.9,4.2,2.5,5.3l-2.2,0.2l-2.9-6.5h-8.7l-0.4,1
            c-0.8,1.9-1.7,4.1-2.1,5.3H72L78.4,6.9z M77.6,13.1h7.2l-3.6-8.2L77.6,13.1z"/>
        <path d="M110.2,1.6L97.7,19.3c1.3,0,3.2,0,4.5,0c2.8,0,5.5,0,7.5-0.1c-0.1,0.6-0.2,1.2-0.2,1.9
            c-1.7-0.1-4.6-0.1-7.2-0.1c-2.8,0-5.5,0-7.4,0.1l-0.4-0.4l12.5-17.7c-1.4,0-2.6,0-4.3,0c-2.6,0-5.2,0-7.1,0.1
            c0.1-0.6,0.1-1.2,0.1-1.9c2.3,0.1,4.1,0.1,7,0.1s5.3,0,7.1-0.1L110.2,1.6z"/>
        <path d="M116.5,21.1c0.1-1.3,0.2-4.9,0.2-6.7V8.1c0-1.8-0.1-5.4-0.2-6.7c0.8,0,1.6,0,2.3-0.1c-0.1,0.8-0.1,3-0.1,4.1
            V17c0,1.1,0,3.2,0.1,4H116.5z"/>
        <path d="M127.4,14.3l0.1-6.6c0-1.8,0-5.4-0.1-6.7l0.6-0.1l13.5,16.4V8.1c0-1.8-0.1-5.4-0.2-6.7c0.8,0,1.6,0,2.3-0.1
            c-0.1,0.8-0.1,3-0.1,4.1l-0.1,11.8c0,1.1,0,3.5,0.1,4.3l-0.6,0.1L129.4,5.4V17c0,1.1,0,3.2,0.1,4h-2.3
            C127.3,19.7,127.4,16.2,127.4,14.3z"/>
        <path d="M163,21.2c-1.7-0.1-3.7-0.1-5.6-0.1c-1.9,0-3.9,0-5.5,0.1c0.1-1.3,0.1-5,0.1-6.9V8.1c0-1.8,0-5.5-0.1-6.9
            c1.6,0.1,3.4,0.1,5.3,0.1c1.9,0,3.8-0.1,5.5-0.1c-0.1,0.6-0.2,1.2-0.2,1.8c-1.6,0-3.3,0-5.3,0c-0.8,0-2.3,0-3.1,0
            c0,0.7,0,1.7,0,2.3v4.5l7.3-0.1c-0.1,0.5-0.1,1.2-0.1,1.8l-7.2,0V17c0,0.6,0,1.6,0,2.3c0.9,0,2.1,0,3.1,0c2.2,0,4.1,0,6-0.1
            C163.1,19.9,163,20.5,163,21.2z"/>
    </g>
</svg>
