<svg xmlns="http://www.w3.org/2000/svg" width="707.0297" height="933.8784" viewBox="0 0 707.0297 933.8784">
  <path d="M707.0297,590.9945c0-19.6448-7.3647-35.9332-15.5741-52.2698-27.7294-55.1981-33.0021-83.0948-9.6041-139.4948,10.8571-26.1788,9.4964-49.3897-3.8382-65.3606-17.3089-20.7248-46.0475-17.9552-69.1677-13.2127-75.7216,15.523-148.8806,9.8762-200.7393-15.5089-14.8654-7.2739-31.7207-15.5202-52.1592-15.5202-.6803,0-1.355.0255-2.0297.0567l-.4025.0142-.4025-.0142c-.669-.0312-1.3437-.0567-2.024-.0567-20.4498,0-37.2995,8.2463-52.1592,15.5202-51.8701,25.3823-125.0291,31.0347-200.745,15.506-23.1031-4.7397-51.8474-7.5206-69.162,13.2156-13.3403,15.9681-14.701,39.1818-3.8439,65.3606,23.4036,56.3972,18.131,84.2967-9.5984,139.4948-8.2094,16.3423-15.5797,32.6364-15.5797,52.2698,0,.5074.0227,1.0092.0454,1.8879-.0227.4989-.0454,1.0007-.0454,1.5081,0,19.6334,7.3703,35.9275,15.5797,52.2698,27.7294,55.1981,33.0021,83.0976,9.5984,139.4948-10.8571,26.1788-9.4964,49.3925,3.8439,65.3578,17.3146,20.7333,46.0532,17.9581,69.162,13.2184,57.3468-11.7557,112.6866-11.5005,160.0778.7569l.0071-.0262c2.805,4.4821,5.8452,8.8993,9.2611,13.1776,9.9216,12.4403,22.8976,23.9702,37.5291,33.3486,22.3009,14.2931,52.1791,21.8902,83.9367,21.8902,11.5672,0,23.388-1.0085,35.1848-3.0693,37.3576-6.5273,55.0379-16.6109,78.5875-44.661.6619-.7314,9.3674-10.6437,17.4294-29.8899,28.6805-.5549,58.4722,2.2809,88.648,8.473,8.9351,1.8312,18.7093,3.3705,28.3474,3.3677,15.2793,0,30.2013-3.8723,40.8203-16.5861,13.3346-15.9681,14.6953-39.179,3.8382-65.3578-23.4036-56.4057-18.1253-84.3024,9.6041-139.4948,8.2094-16.3366,15.5741-32.625,15.5741-52.2698,0-.5216-.0227-1.0347-.0454-1.8511.0227-.5103.0454-1.0233.0454-1.5449ZM487.6675,872.9687c-20.6369,24.5722-34.401,32.4043-66.9382,38.0897-30.3828,5.3109-73.8776,3.9059-104.8528-15.9525-12.8059-8.2062-24.1024-18.2238-32.6732-28.9703-10.4602-13.1015-17.2749-27.7223-23.9025-42.806-8.9918-20.4605-17.7823-41.4744-26.2851-61.7956-4.6646-11.1455-9.3291-22.2913-14.049-33.4124-3.3478-7.888-6.656-15.8033-9.9655-23.7208-9.4865-22.7148-19.3003-46.2003-30.0936-68.8562l-.2197-.4702c-.411-.8589-1.1112-2.3248-1.5563-3.5268.7625-.242,1.6342-.4844,2.3486-.6828,5.1748-1.434,10.035-1.6909,16.7604-.9323,10.4843,1.2016,19.6575,8.3384,25.1697,19.5916,7.2286,14.7559,14.1751,29.7538,20.6369,44.5756,4.1756,9.5938,15.2126,35.0987,41.9287,30.725,15.3161-2.5063,24.7728-10.2352,25.293-20.649.0298-.4968.0723-.9815.1176-1.4663l.1162-236.3862c0-5.0444,2.0268-9.7214,5.7078-13.1748,3.6767-3.441,8.4192-5.1518,13.56-4.8361,9.4369.6119,16.827,8.9454,16.827,18.9726v146.4356h.0043c.0071,5.5295,4.4902,10.0116,10.0222,10.0116s10.0151-4.4821,10.0222-10.0116h.0014v-200.0739c0-10.0247,7.3916-18.3581,16.8284-18.9701,5.1295-.3058,9.8833,1.3926,13.56,4.8361,3.6795,3.4534,5.7063,8.1304,5.7063,13.1748v25.1395c-.0071.3122-.0439.6169-.0439.9305v146.4381h.0439v28.5125h.0028v.0011c0,5.5355,4.4888,10.0229,10.0236,10.0229s10.0236-4.4874,10.0236-10.0229v-175.4325c.2367-9.8047,7.5021-17.8876,16.7845-18.4892,5.1337-.3012,9.8819,1.3926,13.5586,4.8361,3.6809,3.4534,5.7078,8.1304,5.7078,13.1745v199.6164h.0043c0,5.5359,4.4874,10.0233,10.0222,10.0233s10.0222-4.4874,10.0222-10.0233v-120.2968c0-10.0272,7.3916-18.3585,16.8299-18.9704,5.0997-.2888,9.8777,1.3904,13.5529,4.8364,3.6866,3.4506,5.712,8.1279,5.712,13.172l-.0043,269.8971c-1.0078,57.7252-25.85,86.3873-26.3149,86.916ZM160.8063,644.1594c10.5821,22.2205,20.2996,45.4785,29.6967,67.9704,3.3237,7.9543,6.6475,15.9061,10.0109,23.826,4.7043,11.0895,9.3532,22.2031,14.0036,33.3171.1843.4383.3756.8919.5599,1.3309h-95.355v-355.8223h225.875v18.1317c-4.6759-2.5917-9.9244-4.2425-15.5358-4.6061-10.66-.7023-20.7928,2.9393-28.5614,10.2157-7.6552,7.1758-12.0462,17.3082-12.0462,27.8007v234.1517l-.0397.4408c-.034.3742-.0638.7487-.0921,1.1282-1.1707.8639-4.2294,2.2834-8.5808,2.9931-6.741,1.1162-12.8003-1.7008-20.3194-18.9481-6.578-15.0936-13.6464-30.3654-21.0083-45.3853-8.4489-17.2547-23.7353-28.7283-40.8968-30.691-9.2328-1.0453-16.7604-.5825-24.6991,1.6176-4.0395,1.1187-11.5572,3.199-15.1857,10.1693-4.4392,8.517-.2736,17.2324,2.1742,22.3597ZM521.9906,488.3549c-7.7686-7.2786-17.9297-10.8861-28.5614-10.2132-5.6128.3621-10.8599,2.0127-15.5372,4.6036v-44.9473c0-8.3441-2.8135-16.4337-7.8012-23.0167h117.2222v355.8223h-53.2804l.0043-254.4481c0-10.4921-4.391-20.6245-12.0462-27.8007ZM670.7053,636.2341c-29.4303,58.5771-37.3676,93.589-10.3071,158.822,4.2805,10.3071,9.9386,29.4189-.2098,41.5743-7.359,8.8075-21.7538,10.4574-46.6768,5.352-29.0065-5.9522-57.7323-8.9525-85.5865-9.0223,2.8673-11.2277,5.0062-24.2633,5.7715-39.1343h76.8385v-402.2667h-195.281c-1.5988-2.3961-3.3804-4.6777-5.5079-6.6723-7.7629-7.2764-17.9354-10.9279-28.5614-10.2157-12.025.7785-22.4483,7.326-28.8591,16.888H96.5002v402.2667h128.3358c5.2882,12.5381,10.6402,25.1179,16.1098,37.5706,1.0474,2.3826,2.1246,4.7889,3.2217,7.2034-46.0263-8.5978-97.6497-7.4858-150.6438,3.3797-24.923,5.1167-39.3122,3.4527-46.6768-5.352-10.154-12.1525-4.4959-31.2644-.2154-41.5715,27.0604-65.2246,19.1288-100.2393-10.3014-158.822-7.1719-14.2729-13.1078-27.2759-13.0908-42.1242l.0454-1.5336-.0624-1.5818c0-14.5677,5.9359-27.5707,13.1078-41.8436,29.4303-58.5828,37.3619-93.5975,10.3014-158.822-4.2805-10.3071-9.9386-29.4189.2154-41.5715,7.359-8.8132,21.7425-10.4687,46.6768-5.352,80.6427,16.5407,159.2387,10.1994,215.6104-17.3996,13.2156-6.4689,26.879-13.156,41.9542-13.156l2.4265.085,2.4322-.085c15.0638,0,28.7329,6.6872,41.9542,13.156,56.366,27.5934,134.9677,33.9347,215.6047,17.3996,24.9287-5.1054,39.3179-3.4612,46.6825,5.3492,10.1484,12.1554,4.4902,31.2672.2098,41.5771-27.0548,65.2246-19.1232,100.2364,10.3071,158.8192,7.1662,14.2673,13.1022,27.2645,13.0852,42.2093l-.0454,1.5619.0624,1.4684c0,14.5791-5.9359,27.5764-13.1022,41.8436Z"/>
  <path d="M359.8203,210c-9.9497,0-16.9022-7.5421-16.9022-17.5041,0-9.9497,6.6577-17.197,16.6074-17.197s16.9022,6.9402,16.9022,16.9022c0,9.9497-6.6577,17.7989-16.6074,17.7989ZM364.66,147.8451c-3.0218.909-6.0435.909-8.4511,0-5.1345-42.8451-12.6766-99.8655-12.6766-131.8519,0-10.5639,6.6331-15.9932,16.9022-15.9932,10.2445,0,16.8776,5.4293,16.8776,15.9932,0,31.9864-7.5421,88.6997-12.6521,131.8519Z"/>
</svg>
