<svg id="root" xmlns="http://www.w3.org/2000/svg" viewBox="0 0 51.1 56.9" fill="#0C909A">
<path d="M42.5,38.1L26,19.5v3.1l14.3,16.1L26.2,51.3L3.5,25.8l14.2-12.6l3.8,4.3v-3.1l-1.7-2c-1.9-2.1-5.2-2.3-7.3-0.4
	l-9.5,8.4c-2.1,1.9-2.3,5.2-0.4,7.3l22.8,25.7c1.9,2.1,5.2,2.3,7.3,0.4l9.5-8.4C44.3,43.5,44.4,40.2,42.5,38.1z M36.4,48.6
	c-0.7,0.6-1.8,0.6-2.4-0.1s-0.6-1.8,0.1-2.4c0.7-0.6,1.8-0.6,2.4,0.1S37.1,47.9,36.4,48.6z"/>
<path d="M36.6,5.4c-3.3-2.2-8.3-2.4-12-1.1c-0.2-0.9,0.6-1.8,0.3-2.6C24.6,1.2,24,0.9,23.4,1s-1,0.6-0.9,1.2
	c0,0.3,0.2,0.6,0.4,0.9c0.2,0.5,0.2,1.1,0.2,1.7c-0.1,10.3-0.1,20.5-0.2,30.8c0.3,0,0.1,0,0.9,0c0.1-5.7,0.2-11.2,0.3-16.9
	c0-0.3,0-0.6,0.2-0.9c0.2-0.2,0.4-0.4,0.7-0.6c2.3-1.3,5.2-1.9,7.9-1.6c2.8,0.3,5.4,1.4,8.2,1.2c2-0.2,3.8-1,5.3-2.2
	s2.7-2.6,3.7-4.1c-0.3,0.4-3.1,0-3.6,0c-1.3-0.2-2.6-0.5-3.8-1C40.4,8.6,38.5,7,36.6,5.4 M26.7,11.6c0.1,2.6-2,4.6-2.5,5.6l0.3-12.1
	C25,6.2,26.7,9.2,26.7,11.6"/>
<circle cx="23.5" cy="35.6" r="1.3"/>
</svg>
