<svg xmlns="http://www.w3.org/2000/svg" width="200" height="200" viewBox="0 0 200 200">
    <path d="M122.3,131.26l0,28.77-71.29.12L50.83,31.83l71.3-.13,0,24.73,7.73-7.73,0-14.16A19.61,19.61,0,0,0,110.28,15l-47.66.08A19.62,19.62,0,0,0,43.1,34.69l.22,129.14a19.63,19.63,0,0,0,19.59,19.53l47.67-.09a19.61,19.61,0,0,0,19.52-19.59L130,123.82Zm-14.25-109V25L66.38,25V22.36ZM86.73,177.76a6.41,6.41,0,1,1,6.4-6.42A6.41,6.41,0,0,1,86.73,177.76Zm42-122.2,16.43-16.14,10.66,10.85A7.75,7.75,0,0,0,166.34,61L177,71.81,160.58,88h0L128.75,55.56Zm30.35,33.85-56.28,55.32L92.15,133.89a7.75,7.75,0,0,0-10.52-10.71L71,112.34,127.26,57h0l31.83,32.39Z"/>
</svg>
