<svg xmlns="http://www.w3.org/2000/svg" width="200" height="200" viewBox="0 0 200 200">
	<g>
		<path d="M138.6,157.5c-0.2-2-0.5-4.1-0.7-6.1l-4.7-6.5c0.7,5.4,1.3,10.8,2,16.2c-10.6,2.3-21.4,3.4-32.3,3.5v-62.1l-4-5.6l0,67.6
		c-10.6-0.1-21.2-1.2-31.6-3.5c0.3-2.6,0.6-5.1,0.9-7.6c1.2-9.7,2.4-19.4,3.5-29.1c1-8,2-15.9,2.9-23.9c0.6-5.6,1-11.3,1.5-17
		c0.2-1.8,0.3-3.7,0.5-5.5c0.1-1.6-0.5-2.6-1.7-2.6c-1.2-0.1-2,0.8-2.1,2.4c-0.6,7.2-1.2,14.3-1.8,21.5c-0.1,0.9-0.4,1.7-0.7,2.6
		c-3.2,9.6-6.4,19.2-9.6,28.8c-0.1,0.4-0.3,0.8-0.5,1.3l-13.4-4.5c0.1-0.5,0.2-0.9,0.4-1.4c7.7-23.1,15.4-46.1,23.1-69.2l-2.7-3.8
		c-8.3,24.7-16.5,49.5-24.8,74.3c-0.7,2-0.3,2.7,1.7,3.3l15.4,5.1c2.2,0.7,2.9,0.4,3.6-1.8l4.3-13c0.1-0.3,0.2-0.6,0.4-0.9
		c0.1,0.5,0.2,1,0.1,1.5c-0.5,3.9-1,7.8-1.4,11.7c-1.2,9.5-2.3,19.1-3.5,28.6c-0.2,1.8,0.3,2.6,2.1,2.9c10,2.1,20.1,3.3,30.2,3.6
		c14,0.4,27.9-0.9,41.6-3.7c1.1-0.1,1.9-1,1.9-2.1c0-0.1,0-0.2-0.1-0.3C139,160.5,138.8,159,138.6,157.5z"/>
		<path d="M72.2,50.6c0.5-1.5,1-3,1.5-4.6c0.3-1,1-1.8,2-2.1c2.4-0.8,4.7-1.8,7-2.7c0.2,1.9,0.6,3.8,1,5.7c1.3,4.4,4.4,8,8.6,10
		c0.9,0.5,2.1,0.4,2.8-0.4c1.2-1,2.4-2.1,3.7-3.2l0,34.6l4,5.6V52.7c1.5,1.3,2.8,2.5,4.1,3.6s1.9,1.2,3.5,0.4
		c5.3-2.6,8.7-7.9,9-13.7c0-0.5,0.1-1.1,0.1-1.8c2.8,1.1,5.4,2,7.9,3.1c0.6,0.4,1,1.1,1.2,1.8c4.7,13.9,9.3,27.9,14,41.8l12.7,38
		c0.1,0.4,0.2,0.7,0.4,1.2l-13.5,4.5c-0.2-0.4-0.3-0.8-0.5-1.2c-3.3-9.9-6.7-19.9-9.9-29.9c-0.5-1.9-0.7-3.8-0.8-5.7
		c-0.5-5.6-0.9-11.2-1.4-16.8c0-0.4-0.1-0.9-0.2-1.3c-0.1-1-1-1.7-1.9-1.5c0,0,0,0-0.1,0c-0.9,0-1.7,0.7-1.7,1.6c0,0.1,0,0.2,0,0.2
		c0.1,1.7,0.2,3.4,0.4,5.1c1.4,13.4,2.8,26.9,4.3,40.3c0.4,3.8,0.9,7.6,1.3,11.4l4.6,6.5c-0.4-3.2-0.8-6.4-1.2-9.7
		c-0.5-3.8-0.9-7.6-1.4-11.4h0.1c0.2,0.5,0.4,1,0.6,1.5l4.2,12.7c0.8,2.3,1.4,2.6,3.7,1.9l15.4-5.1c2-0.8,2.3-1.5,1.7-3.4
		c-2.8-8.3-5.5-16.7-8.3-25c-6.3-19-12.7-38.1-19-57.2c-0.6-2.2-2.2-3.9-4.4-4.6c-1.9-0.6-3.7-1.5-5.6-2.1c-2.6-0.8-5-2.3-6.8-4.3
		c-0.9-1.1-2.1-2-3-3.1c-0.6-0.7-1.6-1.1-2.5-1h-5.3l5,2.6l-0.2,0.5l-3.9-2l-2.7-1.6v-1.1c0-4.6-3.6-2.8-3.6-5.7
		c0-1.3,1-2.4,2.3-2.5c3,0,1.7,3.6,3.6,3.6c0.8,0,1.4-0.6,1.4-1.4c0,0,0,0,0-0.1c-0.1-2.7-2.3-4.9-5.1-5c-2.8,0-5.1,2.3-5.1,5
		c0,0,0,0,0,0c0,2.5,1.4,3.9,3.5,5.1c0.1,0.5,0.1,1,0.1,1.5l-4.3,2.6l-3,1.8l-0.3-0.5l5.4-3c-1.8,0-3.6,0-5.4,0
		c-1.1-0.1-2.1,0.3-2.8,1.2c-3.3,4.2-8,7.3-13.2,8.6c-0.8,0.2-1.6,0.6-2.4,0.9c-1.9,0.6-3.4,2.2-4,4.2c-0.2,0.7-0.5,1.4-0.7,2.2
		L72.2,50.6z M110.2,43.7c0.9-2.4,1.5-4.9,2.2-7.4c3,1.9,3.8,4.2,2.9,8.3c-0.7,3.6-3,6.7-6.3,8.5l-3.9-3.4
		C107.6,48.4,109.3,46.2,110.2,43.7z M98.2,33.7h6.6l3.6,2.1c-0.4,3.4-1.2,6.7-3.6,9.4c-1.8,2-4.9,2.2-6.9,0.5
		c-0.2-0.2-0.5-0.4-0.6-0.7c-1.8-2.1-2.5-4.8-3.1-7.5c-0.1-0.4-0.2-0.9-0.2-1.3L98.2,33.7z M86.8,40.3c0.1-0.7,0.3-1.3,0.8-1.8
		c0.7-0.8,1.5-1.6,2.5-2.6c1.1,5.5,2.1,10.6,7.1,13.8l-3.8,3.4c-3.3-1.7-5.6-4.8-6.2-8.4C86.9,43.3,86.8,41.8,86.8,40.3z"/>
	</g>
	<path d="M44.4,22.9c-41.7,30-51.2,88-21.2,129.7s88,51.2,129.7,21.2s51.2-88,21.2-129.7C156.6,19.8,128.5,5.4,98.6,5.4
	c-18.8,0-37.2,5.7-52.7,16.4 M10.8,98.3c0-27.7,13-53.7,35.2-70.3L146.4,172c-40.6,26.4-95,14.9-121.4-25.7
	C15.7,132,10.8,115.3,10.8,98.3z M150.6,169L50.2,25.1C90.8-1.5,145.2,9.8,171.8,50.3C197.3,89.2,188,141.3,150.6,169z"/>
</svg>
