<svg xmlns="http://www.w3.org/2000/svg" width="200" height="200" viewBox="0 0 200 200">
	<g>
		<polygon points="110.7,111.9 110.7,113.3 111.7,113.3 	"/>
		<path d="M118,113.3l0.2,0v0.2l13.7,19.2V45.6c0,0,0,0,0,0c0-5.9-4.8-10.6-10.6-10.6c-5.9,0-10.6,4.8-10.6,10.6v57.5L118,113.3z"/>
		<path d="M118.2,122.4v34.7c0,3.8,3.1,6.8,6.8,6.8c3.8,0,6.9-3.1,6.9-6.8v-15.5L118.2,122.4z"/>
	</g>
	<g>
		<path d="M94.8,80.8c0.4-1,0.6-2.1,0.6-3.2V37.9c0-1.4-1.1-2.5-2.5-2.5s-2.5,1.1-2.5,2.5v29.2h-4.1V37.9c0-1.4-1.1-2.5-2.5-2.5
		s-2.5,1.1-2.5,2.5v24.1L94.8,80.8z"/>
		<path d="M77.2,56.3V37.9c-0.1-1.2-1.1-2.2-2.3-2.3c-1.4-0.1-2.5,1-2.6,2.3v11.4L77.2,56.3z"/>
		<path d="M68.2,43.6v-5.7c0-1.4-1.1-2.5-2.5-2.5c-1,0-1.9,0.6-2.3,1.5L68.2,43.6z"/>
		<path d="M78.6,67.1h-1.4v-1.9l-5-6.9v8.9h-4.1V52.5l-5-7v32.2c0,5.1,4.2,9.2,9.3,9.2v70.3c0,0,0,0,0,0c0,3.8,3.1,6.8,6.9,6.8
		s6.8-3.1,6.8-6.9c0-4.4,0-70.4,0-70.4c2,0,3.8-0.6,5.3-1.7L78.6,67.1z"/>
	</g>
	<path d="M45.4,22.9c-41.7,30-51.2,88-21.2,129.7s88,51.2,129.7,21.2s51.2-88,21.2-129.7C157.6,19.8,129.5,5.4,99.6,5.4
	c-18.8,0-37.2,5.7-52.7,16.4 M11.8,98.3c0-27.7,13-53.7,35.2-70.3L147.4,172c-40.6,26.4-95,14.9-121.4-25.7
	C16.7,132,11.8,115.3,11.8,98.3z M151.6,169L51.2,25.1C91.8-1.5,146.2,9.8,172.8,50.3C198.3,89.2,189,141.3,151.6,169z"/>
</svg>
