<svg xmlns="http://www.w3.org/2000/svg" width="96" height="100" viewBox="0 0 96 100">
<path d="M43.6,49.4H12.4c-0.6,0-1,0.5-1,1c0,0.6,0.5,1,1,1h31.3c0.6,0,1-0.5,1-1C44.6,49.8,44.1,49.4,43.6,49.4z" fill="currentColor"/>
<path d="M43.6,54.7H12.4c-0.6,0-1,0.5-1,1s0.5,1,1,1h31.3c0.6,0,1-0.5,1-1S44.1,54.7,43.6,54.7z" fill="currentColor"/>
<path d="M44.5,61.3c0-0.6-0.5-1-1-1H12.3c-0.6,0-1,0.5-1,1s0.5,1,1,1h31.3C44,62.4,44.5,61.9,44.5,61.3L44.5,61.3z" fill="currentColor"/>
<path d="M41.1,67.1c0-0.6-0.5-1-1-1H12.3c-0.6,0-1,0.5-1,1c0,0.5,0.5,1,1,1h27.8C40.6,68,41.1,67.6,41.1,67.1z" fill="currentColor"/>
<path d="M28.3,71.6H12.4c-0.6,0-1,0.5-1,1c0,0.6,0.5,1,1,1h15.9c0.6,0,1-0.5,1-1C29.3,72.1,28.9,71.6,28.3,71.6z" fill="currentColor"/>
<path d="M54.7,75.4c-0.6,0-1.2,0.5-1.2,1.2v14.8c0,3.6-2.9,6.3-6.3,6.3H8.6c-3.6,0-6.3-2.9-6.3-6.3V8.6c0-3.6,2.9-6.3,6.3-6.3h38.6
	c3.6,0,6.3,2.9,6.3,6.3V52c0,0.6,0.5,1.2,1.2,1.2c0.6,0,1.2-0.5,1.2-1.2V8.6C55.9,3.8,52,0,47.2,0H8.6C3.8,0,0,3.8,0,8.6v82.7
	c0,4.8,3.8,8.6,8.6,8.6h38.6c4.8,0,8.6-3.8,8.6-8.6V76.6C55.9,76,55.4,75.4,54.7,75.4L54.7,75.4z" fill="currentColor"/>
<path d="M95.1,35.5l-2.6-3.3l0,0c-1.3-1.7-3.8-1.9-5.6-0.6l-1.2,1l0,0L49.2,61.9l0,0C49.1,62,49,62,49,62.1L33.9,80.6
	c-0.3,0.4-0.3,1,0,1.3c0.2,0.3,0.5,0.4,0.9,0.4c0.2,0,0.4,0,0.5-0.1l21.3-10.8c0.1,0,0.2-0.1,0.3-0.2l0,0l0.1-0.1l0,0l34.8-27.9l0,0
	l2.7-2.2c0.9-0.7,1.3-1.6,1.4-2.7C96.1,37.4,95.8,36.4,95.1,35.5L95.1,35.5z M52.1,62.2L52.1,62.2l33.3-26.8l1.9,2.4L54,64.5
	L52.1,62.2L52.1,62.2z M44,71.5l2.4,3l-8.3,4.2L44,71.5L44,71.5z M48.1,73.5L45.2,70l5.3-6.4l5,6.2L48.1,73.5z M57.2,68.4L57.2,68.4
	L55.3,66l33.3-26.7l1.9,2.4L57.2,68.4z M94,38.2c-0.1,0.5-0.3,1-0.8,1.3l-1.2,1l-5.1-6.3l1.2-1c0.9-0.7,2.1-0.6,2.8,0.3l2.6,3.3
	C93.9,37.1,94,37.7,94,38.2L94,38.2z" fill="currentColor"/>
<path d="M45.1,26.8c0-1.2-0.5-2-0.8-2.7c-1.2-2.5-1.5-3.7-0.5-6.2c0.6-1.4,0.5-2.7-0.3-3.6c-1.1-1.3-3-1-3.7-0.8
	c-3.6,0.7-6.9,0.5-9.2-0.7c-0.7-0.4-1.6-0.8-2.7-0.8h-0.1h-0.1c-1.1,0-1.9,0.5-2.7,0.8c-2.4,1.2-5.8,1.4-9.2,0.7
	c-0.7-0.2-2.6-0.6-3.7,0.8c-0.8,0.9-0.9,2.1-0.3,3.6c1.1,2.5,0.9,3.7-0.5,6.2c-0.3,0.6-0.8,1.5-0.8,2.7V27c0,1.1,0.4,1.8,0.8,2.7
	c1.2,2.5,1.5,3.7,0.5,6.2c-0.6,1.4-0.5,2.7,0.3,3.6c1.1,1.3,3,1,3.7,0.8c3.6-0.7,6.9-0.5,9.2,0.7c0.7,0.4,1.6,0.8,2.7,0.8h0.1h0.1
	c1.1,0,1.9-0.5,2.7-0.8c2.4-1.2,5.8-1.4,9.2-0.7c0.7,0.2,2.6,0.6,3.7-0.8c0.8-0.9,0.9-2.1,0.3-3.6c-1.1-2.5-0.9-3.7,0.5-6.2
	c0.4-0.9,0.8-1.6,0.8-2.7V26.8L45.1,26.8z M42.5,28.7c-1.4,2.9-1.8,4.7-0.5,7.9c0.1,0.3,0.4,1.2,0.1,1.5c-0.3,0.3-0.9,0.4-1.8,0.2
	c-3.9-0.8-7.8-0.5-10.6,0.9c-0.6,0.3-1.2,0.6-1.8,0.6l0,0h-0.1h-0.1c-0.6,0-1.2-0.3-1.8-0.6c-1.7-0.9-3.9-1.3-6.3-1.3
	c-1.3,0-2.8,0.2-4.2,0.5c-1,0.2-1.5,0.2-1.8-0.1c-0.4-0.4-0.1-1.2,0.1-1.5c1.3-3.3,1-5.1-0.5-7.9c-0.3-0.7-0.6-1.2-0.6-1.8v-0.1
	v-0.1c0-0.6,0.3-1.2,0.6-1.8c1.4-2.9,1.8-4.7,0.5-7.9c-0.1-0.3-0.4-1.2-0.1-1.5c0.2-0.3,0.9-0.3,1.8-0.1c3.9,0.8,7.8,0.5,10.6-0.9
	c0.6-0.3,1.2-0.6,1.8-0.6l0,0h0.1h0.1c0.6,0,1.2,0.3,1.8,0.6c2.8,1.3,6.6,1.6,10.6,0.9c1-0.2,1.5-0.2,1.8,0.1
	c0.4,0.4,0.1,1.2-0.1,1.5c-1.3,3.3-1,5.1,0.5,7.9c0.3,0.7,0.6,1.2,0.6,1.8v0.1V27C43.1,27.5,42.9,28,42.5,28.7L42.5,28.7z" fill="currentColor"/>
<path d="M16.6,35.5h22.5V18.2H16.6V35.5L16.6,35.5z M18.6,20.2h18.5v13.3H18.6V20.2L18.6,20.2z" fill="currentColor"/>
<path d="M50.3,57.1c0.6,0,1.2-0.5,1.2-1.2V9.4c0-2.6-2.1-4.6-4.6-4.6H9.1c-2.6,0-4.6,2.1-4.6,4.6v81.8c0,2.6,2.1,4.6,4.6,4.6h37.6
	c2.6,0,4.6-2.1,4.6-4.6V79.6c0-0.6-0.5-1.2-1.2-1.2c-0.7,0-1.2,0.5-1.2,1.2v11.6c0,1.3-1.1,2.4-2.4,2.4H9.1c-1.3,0-2.4-1.1-2.4-2.4
	V9.4C6.7,8.1,7.8,7,9.1,7h37.6c1.3,0,2.4,1.1,2.4,2.4V56C49.1,56.6,49.6,57.1,50.3,57.1z" fill="currentColor"/>
<path d="M18.8,89.1c0,0.6,0.5,1.2,1.2,1.2h16c0.6,0,1.2-0.5,1.2-1.2c0-0.6-0.5-1.2-1.2-1.2H19.9C19.3,87.9,18.8,88.5,18.8,89.1z" fill="currentColor"/>
</svg>
