<?xml version="1.0" encoding="UTF-8"?>
<svg id="Layer_1" data-name="Layer 1" xmlns="http://www.w3.org/2000/svg" width="806.9787" height="840.888" viewBox="0 0 806.9787 840.888">
  <defs>
    <style>
      .cls-1 {
        fill: #fff;
        stroke-width: 0px;
      }
    </style>
  </defs>
  <path class="cls-1" d="M366.6136,415.3052H103.8101c-4.5709,0-8.2738,3.7029-8.2738,8.2738s3.7029,8.2738,8.2738,8.2738h262.8035c4.5709,0,8.2738-3.7029,8.2738-8.2738s-3.7029-8.2738-8.2738-8.2738Z"/>
  <path class="cls-1" d="M366.6136,459.9938H103.8101c-4.5709,0-8.2738,3.7029-8.2738,8.2738s3.7029,8.2738,8.2738,8.2738h262.8035c4.5709,0,8.2738-3.7029,8.2738-8.2738s-3.7029-8.2738-8.2738-8.2738Z"/>
  <path class="cls-1" d="M374.1394,515.9757c0-4.5709-3.7029-8.2738-8.2738-8.2738H103.0622c-4.5709,0-8.2738,3.7029-8.2738,8.2738s3.7029,8.2738,8.2738,8.2738h262.8035c4.5709,0,8.2738-3.7029,8.2738-8.2738Z"/>
  <path class="cls-1" d="M345.3659,563.6793c0-4.5709-3.7029-8.2738-8.2738-8.2738H103.0622c-4.5709,0-8.2738,3.7029-8.2738,8.2738s3.7029,8.2738,8.2738,8.2738h234.0299c4.5709,0,8.2738-3.7029,8.2738-8.2738Z"/>
  <path class="cls-1" d="M238.1437,602.3657H103.8101c-4.5709,0-8.2738,3.7029-8.2738,8.2738s3.7029,8.2738,8.2738,8.2738h134.3336c4.5709,0,8.2738-3.7029,8.2738-8.2738s-3.7029-8.2738-8.2738-8.2738Z"/>
  <path class="cls-1" d="M460.22,634.6159c-5.2219,0-9.4558,4.2339-9.4558,9.4558v124.2776c0,29.5723-24.0549,53.6272-53.6272,53.6272H72.5387c-29.5723,0-53.6272-24.0549-53.6272-53.6272V72.5387c0-29.5723,24.0549-53.6272,53.6272-53.6272h324.5983c29.5723,0,53.6272,24.0549,53.6272,53.6272v364.3697c0,5.2219,4.2339,9.4558,9.4558,9.4558s9.4558-4.2339,9.4558-9.4558V72.5387c0-39.9977-32.5411-72.5387-72.5387-72.5387H72.5387C32.5411,0,0,32.5411,0,72.5387v695.8105c0,39.9977,32.5411,72.5387,72.5387,72.5387h324.5983c39.9977,0,72.5387-32.5411,72.5387-72.5387v-124.2776c0-5.2219-4.2339-9.4558-9.4558-9.4558Z"/>
  <path class="cls-1" d="M799.6807,298.7843l-22.0049-27.4161h-.0046c-11.4411-14.2437-32.3333-16.5291-46.5862-5.0972l-9.8413,7.8998-.0069-.0092-307.0673,246.4729.0808.101c-.6221.5621-1.2616,1.1035-1.803,1.7643l-127.4541,155.609c-2.7518,3.3843-2.761,8.1214-.0231,11.5196,1.796,2.23,4.4093,3.4259,7.0964,3.4259,1.4082,0,2.8349-.3278,4.1784-1.0065l179.2299-91.0855c.748-.38,1.4001-.883,2.0719-1.3609l.0658.082.8599-.69c.0658-.054.1339-.1047.1985-.1599l292.9575-235.1438.0496.0615,22.896-18.3805c6.9071-5.5405,11.2379-13.4357,12.2029-22.2358s-1.556-17.4479-7.0964-24.3504ZM438.4044,522.6289c-.0381-.0473-.0877-.0796-.127-.1264l280.2594-224.9588,16.1874,20.1676-280.2433,224.9461-16.0766-20.0285ZM369.3665,601.3825l19.9192,24.8164-69.1106,35.122,49.1914-59.9385ZM404.3558,618.5407l-24.2638-30.2274,44.6909-54.4548,42.3558,52.7754-62.7829,31.9068ZM481.013,575.7391c-.0335-.0421-.0519-.0921-.0854-.1339l-16.0893-20.0447,280.2433-224.9458,16.1897,20.1699-280.2583,224.9545ZM790.3265,321.334c-.4802,4.4047-2.6502,8.3569-6.1084,11.1317l-9.8401,7.9033-42.7748-53.2922,9.8378-7.9012c7.1472-5.7205,17.6003-4.5801,23.33,2.5532l22.0049,27.4161c2.7702,3.4536,4.0353,7.7844,3.5505,12.1891Z"/>
  <path class="cls-1" d="M379.1305,225.0728c0-9.3634-3.9753-17.2724-6.607-22.499-10.6793-21.2708-12.5907-31.3083-3.726-52.6761,4.8802-11.7597,4.1323-22.3512-2.1008-29.8216-9.1926-11.0025-25.1353-7.7336-31.1375-6.5008-29.4569,6.0299-57.8242,3.8876-77.8161-5.9006-5.9791-2.9226-13.4172-6.5655-22.4251-6.5655l-.965.0277-.9788-.0277c-9.0079,0-16.446,3.6429-22.4251,6.5655-19.9919,9.7928-48.3638,11.9397-77.8161,5.9006-6.0068-1.2328-21.9495-4.5016-31.1375,6.5008-6.2423,7.4704-6.9856,18.062-2.1008,29.8216,8.8602,21.3724,6.9533,31.4099-3.726,52.6715-2.6317,5.2311-6.607,13.1402-6.607,22.5036v1.3574c0,8.6385,3.1258,15.5734,6.607,22.499,10.6793,21.2616,12.5861,31.3037,3.7214,52.6715-4.8802,11.7689-4.1323,22.3558,2.1008,29.817,9.188,11.0071,25.1307,7.7428,31.1421,6.5101,29.4569-6.0345,57.8242-3.8876,77.8161,5.9006,5.9791,2.9226,13.4172,6.5655,22.4251,6.5655l.965-.0277.9742.0277c9.0125,0,16.4506-3.6429,22.4297-6.5655,19.9919-9.7928,48.3638-11.9351,77.8161-5.9006,6.0022,1.2328,21.9449,4.5063,31.1375-6.5054,6.2377-7.4658,6.981-18.0574,2.1008-29.8216-8.8648-21.3632-6.9579-31.4053,3.726-52.6669,3.4813-6.9302,6.607-13.8651,6.607-22.5036v-1.3574ZM357.7396,241.5049c-12.0413,23.9626-15.5087,39.2451-4.2246,66.4396,1.1219,2.701,3.412,9.3634.4802,12.8724-1.9207,2.2947-6.861,2.5856-15.1117.9049-32.9659-6.764-65.1976-4.123-88.4168,7.2396-5.1203,2.5071-9.9544,4.8756-15.3564,4.8756h-.0323l-.9696-.0185-.7341.0277c-5.1757,0-10.019-2.3732-15.1486-4.8849-14.7608-7.2211-33.1552-10.9194-53.0732-10.9194-11.4134,0-23.33,1.2143-35.3436,3.6798-8.2461,1.6806-13.191,1.3944-15.1163-.9096-2.9318-3.5044-.6418-10.1668.4802-12.8678,11.2841-27.1991,7.8213-42.4816-4.22-66.4442-2.7425-5.462-4.8433-10.0375-4.8387-15.0747l.0231-.5633-.0277-.7895c0-5.0372,2.1008-9.6127,4.8433-15.0747,12.0367-23.9626,15.5041-39.2405,4.2246-66.4396-1.1219-2.701-3.412-9.3634-.4848-12.8724,1.9161-2.2993,6.8656-2.5902,15.1163-.9049,32.9612,6.7686,65.2022,4.123,88.4168-7.2396,5.1203-2.5071,9.9544-4.8756,15.3517-4.8756h.0323l.9696.0185.7387-.0277c5.1757,0,10.019,2.3732,15.1486,4.8849,23.2192,11.358,55.4371,14.0082,88.4168,7.2396,8.2415-1.6806,13.191-1.3944,15.1117.9003,2.9318,3.509.6372,10.176-.4802,12.877-11.2841,27.1945-7.8167,42.4724,4.2246,66.4442,2.7368,5.4458,4.8318,10.0138,4.8398,15.0387l-.0289.5624.0323.8265c0,5.0326-2.1008,9.6081-4.8433,15.0747Z"/>
  <path class="cls-1" d="M139.9387,298.5257h188.815v-145.5484h-188.815v145.5484ZM156.4863,169.5249h155.7198v112.4533h-155.7198v-112.4533Z"/>
  <path class="cls-1" d="M422.6094,480.2766c5.2219,0,9.4558-4.2339,9.4558-9.4558V79.2704c0-21.5109-17.5033-39.0142-39.0142-39.0142H76.6248c-21.5109,0-39.0142,17.5033-39.0142,39.0142v687.5506c0,21.5155,17.5033,39.0188,39.0142,39.0188h316.4261c21.5109,0,39.0142-17.5033,39.0142-39.0188v-97.5956c0-5.2219-4.2339-9.4558-9.4558-9.4558s-9.4558,4.2339-9.4558,9.4558v97.5956c0,11.0856-9.0171,20.1073-20.1027,20.1073H76.6248c-11.0856,0-20.1027-9.0217-20.1027-20.1073V79.2704c0-11.0856,9.0171-20.1027,20.1027-20.1027h316.4261c11.0856,0,20.1027,9.0171,20.1027,20.1027v391.5504c0,5.2219,4.2339,9.4558,9.4558,9.4558Z"/>
  <path class="cls-1" d="M157.9868,748.8606c0,5.2219,4.2339,9.4558,9.4558,9.4558h135.0492c5.2219,0,9.4558-4.2339,9.4558-9.4558s-4.2339-9.4558-9.4558-9.4558h-135.0492c-5.2219,0-9.4558,4.2339-9.4558,9.4558Z"/>
</svg>