<svg xmlns="http://www.w3.org/2000/svg" width="75.9804" height="100" viewBox="0 0 75.9804 100">
  <path d="M74.254,21.0898l-3.8033-2.1958c-.4644-.2681-.9712-.3955-1.4715-.3955-1.019,0-2.0102.5289-2.5563,1.4748l-10.6984,18.5301V8.695c0-4.6691-3.7985-8.4676-8.4676-8.4676H8.7193C4.0502.2274.2516,4.026.2516,8.695v82.6099c0,4.6691,3.7985,8.4676,8.4676,8.4676h38.5376c4.6691,0,8.4676-3.7986,8.4676-8.4676v-32.2239l19.6088-33.9634c.8142-1.4103.331-3.2136-1.0793-4.0278ZM47.652,69.1504l-1.914-1.105,23.2045-40.1915,1.914,1.105-23.2045,40.1915ZM49.303,49.6257l-9.3992,16.2798-5.4164,19.1013c-.0592.2086.1077.375.2855.375.0721,0,.146-.0274.2073-.0905l13.6523-14.0543c.0559-.0464.108-.0983.1534-.1579l.0284-.0292.4888-.8466v20.9203c0,1.3958-1.1354,2.5313-2.5312,2.5313H9.2044c-1.3958,0-2.5314-1.1355-2.5314-2.5313V9.4944c0-1.3957,1.1355-2.5312,2.5314-2.5312h37.5674c1.3957,0,2.5312,1.1355,2.5312,2.5312v40.1313ZM46.4257,70.7012l-6.9096,7.1131-.8213-.4742,2.7053-9.5404,5.0256,2.9015ZM44.0439,67.0673l-1.914-1.105,23.2045-40.1915,1.914,1.105-23.2045,40.1915ZM53.7682,91.305c0,3.5904-2.921,6.5114-6.5114,6.5114H8.7193c-3.5904,0-6.5114-2.921-6.5114-6.5114V8.695c0-3.5904,2.921-6.5114,6.5114-6.5114h38.5376c3.5904,0,6.5114,2.921,6.5114,6.5114v33.1966l-2.509,4.3458V9.4944c0-2.4744-2.0131-4.4875-4.4874-4.4875H9.2044c-2.4744,0-4.4876,2.0131-4.4876,4.4875v81.6293c0,2.4744,2.0132,4.4876,4.4876,4.4876h37.5674c2.4743,0,4.4874-2.0131,4.4874-4.4876v-24.3086l2.509-4.3457v28.8356ZM73.6391,24.1395l-1.8044,3.1253-5.522-3.1882,1.8044-3.1253c.1795-.3109.5019-.4966.8622-.4966.174,0,.34.0449.4933.1335l3.8033,2.1958c.4739.2736.6368.8817.3632,1.3556Z" fill="currentColor"/>
  <path d="M43.6332,49.3942H12.4316c-.5402,0-.9781.4379-.9781.9781s.438.9781.9781.9781h31.2015c.5402,0,.9781-.4379.9781-.9781s-.438-.9781-.9781-.9781Z" fill="currentColor"/>
  <path d="M43.6332,54.6997H12.4316c-.5402,0-.9781.4379-.9781.9781s.438.9781.9781.9781h31.2015c.5402,0,.9781-.4379.9781-.9781s-.438-.9781-.9781-.9781Z" fill="currentColor"/>
  <path d="M40.4937,60.3637H12.3428c-.5402,0-.9781.4379-.9781.9781s.438.9781.9781.9781h28.1509c.5402,0,.9781-.4379.9781-.9781s-.438-.9781-.9781-.9781Z" fill="currentColor"/>
  <path d="M37.7555,66.0277H12.3428c-.5402,0-.9781.4379-.9781.9781s.438.9781.9781.9781h25.4127c.5402,0,.9781-.4379.9781-.9781s-.438-.9781-.9781-.9781Z" fill="currentColor"/>
  <path d="M29.3588,72.5809c0-.5402-.438-.9781-.9781-.9781h-15.949c-.5402,0-.9781.4379-.9781.9781s.438.9781.9781.9781h15.949c.5402,0,.9781-.4379.9781-.9781Z" fill="currentColor"/>
  <path d="M44.331,24.135c-1.2689-2.5257-1.4955-3.7183-.4424-6.2566.5789-1.3952.4905-2.6511-.2487-3.5362-1.0896-1.3051-2.9809-.9173-3.6929-.7713-3.4985.7174-6.8668.4621-9.2416-.7003-.7094-.3472-1.5922-.7793-2.6605-.7793-.0384,0-.0763.0013-.1142.003h-.0019c-.0379-.0017-.0759-.003-.1143-.003-1.0686,0-1.9513.4321-2.6605.7793-2.3746,1.1624-5.743,1.4176-9.2417.7003-.7118-.146-2.6029-.5339-3.6929.7712-.7392.8852-.8275,2.1411-.2486,3.5362,1.053,2.5382.8263,3.7308-.4424,6.2566-.4131.8223-.7839,1.6453-.7839,2.6696,0,.0271.0009.0538.0021.0805-.0012.0267-.0021.0534-.0021.0805,0,1.0244.3708,1.8473.7839,2.6696,1.2688,2.5259,1.4955,3.7184.4423,6.2567-.5787,1.3952-.4903,2.651.2488,3.5362,1.09,1.3051,2.9809.9172,3.6929.7713,3.4985-.7174,6.8669-.4621,9.2417.7002.7092.3472,1.5919.7793,2.6605.7793.0388,0,.077-.0014.1152-.0031.0383.0017.0765.0031.1152.0031,1.0684,0,1.9512-.4321,2.6606-.7793,2.3747-1.1622,5.7431-1.4176,9.2416-.7003.7119.1459,2.6033.5338,3.6928-.7712.7393-.8852.8277-2.1411.2488-3.5363-1.053-2.5383-.8264-3.7309.4424-6.2566.4131-.8222.7838-1.6451.7838-2.6696,0-.0262-.0008-.0521-.0022-.0795.0013-.027.0022-.0541.0022-.0815,0-1.0245-.3707-1.8474-.7838-2.6697ZM43.1558,26.9025c.0004.0218.0012.0434.0028.0731-.0028.5942-.2513,1.1359-.5756,1.7816-1.4288,2.8439-1.8402,4.6572-.5013,7.8844.1333.3215.4059,1.1144.0565,1.5328-.229.2744-.8176.31-1.7984.1087-3.914-.8024-7.739-.4892-10.4947.8596-.6095.2984-1.1852.5801-1.7997.5801l-.1161-.0042-.1152.0042c-.6154,0-1.191-.2818-1.8005-.5801-2.7557-1.3487-6.5807-1.662-10.4948-.8595-.9808.2012-1.5692.1656-1.7984-.1088-.3492-.4182-.0768-1.2112.0565-1.5327,1.3389-3.2271.9275-5.0404-.5012-7.8844-.3244-.6457-.5729-1.1875-.5757-1.7814l.0003-.0043c.0011-.0218.0021-.0436.0026-.0655l.0004-.0208-.0004-.0208c-.0005-.022-.0015-.0437-.0026-.0655l-.0003-.0043c.0028-.5939.2513-1.1357.5757-1.7814,1.4287-2.844,1.8402-4.6573.5013-7.8844-.1333-.3215-.4059-1.1145-.0566-1.5327.2292-.2744.8178-.3099,1.7984-.1087,3.9139.8025,7.7392.4892,10.4948-.8596.6094-.2983,1.185-.5801,1.7996-.5801l.1161.0041.1153-.0041c.6152,0,1.1909.2818,1.8005.5801,2.7557,1.3488,6.5809,1.6619,10.4947.8596.981-.2011,1.5693-.1656,1.7984.1088.3492.4182.0767,1.2111-.0566,1.5327-1.3389,3.2272-.9275,5.0405.5013,7.8844.3261.6492.5756,1.1934.5756,1.7915l-.0002-.0056c-.0012.0229-.0022.0458-.0026.0689l-.0004.0173.0004.0173Z" fill="currentColor"/>
  <path d="M16.7253,35.521h22.4085v-17.2716h-22.4085v17.2716ZM18.6815,20.2056h18.496v13.3591h-18.496v-13.3591Z" fill="currentColor"/>
  <path d="M19.0081,88.9911c0,.5402.438.9781.9781.9781h16.0341c.5402,0,.9781-.4379.9781-.9781s-.438-.9781-.9781-.9781h-16.0341c-.5402,0-.9781.4379-.9781.9781Z" fill="currentColor"/>
</svg>
