<svg version="1.1" id="Layer_1" xmlns="http://www.w3.org/2000/svg" xmlns:xlink="http://www.w3.org/1999/xlink" x="0px" y="0px"
	 viewBox="0 0 1087.2 696.9" style="enable-background:new 0 0 1087.2 696.9;" xml:space="preserve">
    <style type="text/css">
        .st0{fill:#231F20;}
    </style>
    <path class="st0" d="M841.6,155.8H148.8c-11.4,0-20.6,9.2-20.6,20.6c0,11.4,9.2,20.6,20.6,20.6h692.8c11.4,0,20.6-9.2,20.6-20.6
        C862.2,165.1,852.9,155.8,841.6,155.8z"/>
    <path class="st0" d="M841.6,327.9H148.8c-11.4,0.3-20.4,9.7-20.2,21.1c0.2,11,9.1,19.9,20.2,20.2h692.8c11.4,0.3,20.8-8.8,21.1-20.2
        c0.3-11.4-8.8-20.8-20.2-21.1C842.2,327.9,841.9,327.9,841.6,327.9z"/>
    <path class="st0" d="M587.3,499.9H148.8c-11.4,0.3-20.4,9.7-20.2,21.1c0.2,11,9.1,19.9,20.2,20.2h438.5c11.4,0.3,20.8-8.8,21.1-20.2
        c0.3-11.4-8.8-20.8-20.2-21.1C587.9,499.9,587.6,499.9,587.3,499.9z"/>
    <path class="st0" d="M949.1,504.4v151.2H41.3V41.3h907.8V354l41.2-41.3V20.6c0-11.4-9.2-20.6-20.6-20.6l0,0H20.6C9.2,0,0,9.2,0,20.6
        l0,0v655.7c0,11.4,9.3,20.6,20.6,20.6h949.1c11.4,0,20.6-9.2,20.6-20.6l0,0V463.2L949.1,504.4z"/>
    <path class="st0" d="M821.6,593.8L686.5,460l34.4-34.4l100.6,99.3l231.2-231.3l34.4,34.4L821.6,593.8z"/>
</svg>
