<svg xmlns="http://www.w3.org/2000/svg" width="68" height="40" viewBox="0 0 68 40">
    <path d="M57.5,3.5A18.67,18.67,0,0,0,54.3,2a13.41,13.41,0,0,0-4.4-1h-.8A14.09,14.09,0,1,0,61.3,8.2a18.25,18.25,0,0,1,4.6,12A18,18,0,0,1,48,38.2a17.22,17.22,0,0,1-8.9-2.4l-.6,1.1A19,19,0,0,0,67.1,20.3,19.5,19.5,0,0,0,57.5,3.5Z" fill="currentColor"/>
    <path d="M23.5,3.5A18.67,18.67,0,0,0,20.3,2a13.41,13.41,0,0,0-4.4-1h-.8A14.09,14.09,0,1,0,27.2,8.2a18.25,18.25,0,0,1,4.6,12,18,18,0,0,1-17.9,18A17.22,17.22,0,0,1,5,35.8l-.6,1.1a19.32,19.32,0,0,0,9.5,2.6,19.35,19.35,0,0,0,9.6-36Z" fill="currentColor"/>
</svg>
