<svg xmlns="http://www.w3.org/2000/svg" width="48" height="29" viewBox="0 0 48 29">
    <path d="M17.4,2.7127c-.1-.1007-.3-.1007-.4-.2015A9.66,9.66,0,0,0,12.2,1h-.5a9.8732,9.8732,0,1,0,9.9,9.873,11.2156,11.2156,0,0,0-.7-3.7275A13.3367,13.3367,0,0,1,23.2,14.5,12.54,12.54,0,0,1,10.9,27.1936a11.6053,11.6053,0,0,1-6.1-1.7127l-.4.806A12.7762,12.7762,0,0,0,10.9,28,13.3324,13.3324,0,0,0,24,14.5,13.642,13.642,0,0,0,17.4,2.7127Z" fill="currentColor"/>
    <path d="M40.4,2.7127c-.1-.1007-.3-.1007-.4-.2015A9.66,9.66,0,0,0,35.2,1h-.5a9.8732,9.8732,0,1,0,9.9,9.873,11.2156,11.2156,0,0,0-.7-3.7275A13.3367,13.3367,0,0,1,46.2,14.5,12.54,12.54,0,0,1,33.9,27.1936a11.6053,11.6053,0,0,1-6.1-1.7127l-.4.806A12.7762,12.7762,0,0,0,33.9,28,13.3324,13.3324,0,0,0,47,14.5,13.642,13.642,0,0,0,40.4,2.7127Z" fill="currentColor"/>
</svg>
