<svg xmlns="http://www.w3.org/2000/svg" width="76" height="44" viewBox="0 0 76 44">
    <path d="M25.8672,3.0137a22.9138,22.9138,0,0,0-4.52-2.0091A16.2336,16.2336,0,0,0,15.9222,0,15.9222,15.9222,0,1,0,31.7941,15.9724a15.49,15.49,0,0,0-2.5114-8.5387A20.1714,20.1714,0,0,1,35.41,22,20.5833,20.5833,0,0,1,14.9176,42.4926,20.3121,20.3121,0,0,1,4.6712,39.78L3.968,40.9857a21.2363,21.2363,0,0,0,10.95,2.9132,21.9093,21.9093,0,0,0,10.95-40.8853Z" fill="currentColor"/>
    <path d="M64.8672,3.0137a22.9138,22.9138,0,0,0-4.52-2.0091A16.2336,16.2336,0,0,0,54.9222,0,15.9222,15.9222,0,1,0,70.7941,15.9724a15.49,15.49,0,0,0-2.5114-8.5387A20.1714,20.1714,0,0,1,74.41,22,20.5833,20.5833,0,0,1,53.9176,42.4926,20.3121,20.3121,0,0,1,43.6712,39.78l-.7032,1.2055a21.2363,21.2363,0,0,0,10.95,2.9132,21.9093,21.9093,0,0,0,10.95-40.8853Z" fill="currentColor"/>
</svg>
