<svg xmlns="http://www.w3.org/2000/svg" width="76" height="44" viewBox="0 0 76 44">
      <path d="M22,.2A21.8,21.8,0,0,0,11.1,40.88,21.56,21.56,0,0,0,20,43.7l-1.44-1.6a19.76,19.76,0,0,1-6.73-2.45A20.39,20.39,0,0,1,22,1.6,20.17,20.17,0,0,1,32.2,4.34l.7-1.22A21.66,21.66,0,0,0,22,.2Z" fill="currentColor"/>
      <circle cx="21" cy="28" r="15.8" fill="currentColor"/>
      <path d="M61,.2A21.8,21.8,0,0,0,50.1,40.88,21.56,21.56,0,0,0,59,43.7l-1.44-1.6a19.76,19.76,0,0,1-6.73-2.45A20.39,20.39,0,0,1,61,1.6,20.17,20.17,0,0,1,71.2,4.34l.7-1.22A21.66,21.66,0,0,0,61,.2Z" fill="currentColor"/>
      <circle cx="60" cy="28" r="15.8" fill="currentColor"/>
</svg>
