<svg xmlns="http://www.w3.org/2000/svg" width="200" height="200" viewBox="0 0 200 200">
	<style type="text/css">
	.st0{fill:none;stroke:#000000;stroke-width:4;stroke-miterlimit:10;}
	</style>
	<path fill="none" stroke="currentColor" stroke-width="4" stroke-miterlimit="10" d="M46.5,75.1c-6.4,0.8-11,6.7-10.2,13.1C37,94.1,42,98.5,47.9,98.5h0.2c1.9,8.2,5.1,15.6,9.3,22"/>
	<path fill="none" stroke="currentColor" stroke-width="4" stroke-miterlimit="10" d="M71.7,135.1c1,0.7,2,1.3,3,1.9c0,0,0.1,25.2-16.7,33.6c0,0,35.2,21.8,72.1,0c0,0-20.2-9-15.2-34.7
	c11.9-7.4,21-21,24.8-37.5c6-0.6,10.5-5.7,10.5-11.7c0-5.5-5.5-10.1-10.6-11.4"/>
	<path fill="none" stroke="currentColor" stroke-width="4" stroke-miterlimit="10" d="M45.3,75.1c0,0,43.6-0.8,60.4-21c0,0,11.7,23.5,33.5,21.8c0,0,7.8-54.3-43.9-54.3C95.4,21.5,45.3,18,45.3,75.1z
	"/>
	<path d="M167.8,43c0,5,0,10.1,0,15.2c0,0.5,0.2,1,0.5,1.3c2.9,3.2,3.5,7.9,1.6,11.7c-1.5,3.5-4.8,5.9-8.6,6.3
	c-4.8,0.6-9.5-2-11.4-6.5c-1.7-3.8-1.1-8.2,1.7-11.3c0.4-0.5,0.6-1.1,0.6-1.8c0-4.9,0-9.7,0-14.6c0-5.1,0-10.2,0-15.3
	c0-3.4,2.1-6.4,5.3-7.5c2.2-0.7,4.7-0.4,6.6,0.9c2.1,1.3,3.5,3.6,3.7,6.1c0.1,0.5,0.1,1.1,0.1,1.6L167.8,43z M155.2,43.6L155.2,43.6
	c0,5,0,10,0,15c0.1,1-0.3,2-1.1,2.7c-1.7,1.7-2.4,4-2,6.3c0.5,4.3,4.5,7.3,8.8,6.8c0.1,0,0.2,0,0.2,0c4.3-0.7,7.3-4.7,6.6-9.1v-0.1
	c-0.3-1.7-1.2-3.3-2.5-4.5c-0.3-0.2-0.5-0.6-0.5-1c0-2.3,0-4.5,0-6.8c0-6.9,0-13.7,0-20.6c0-1.6,0-3.2-0.1-4.7c0-2.2-1.6-4-3.8-4.4
	c-1.2-0.3-2.5-0.1-3.5,0.7c-1.3,1-2.1,2.6-2.1,4.2C155.2,33.2,155.2,38.4,155.2,43.6L155.2,43.6z"/>
	<path d="M162.1,53.2c0,2.6,0,5.2,0,7.8c0,0.4,0.2,0.8,0.5,0.9c2.6,1.5,3.5,4.7,2,7.3c-1.5,2.6-4.7,3.5-7.3,2s-3.5-4.7-2-7.3
	c0.2-0.3,0.4-0.7,0.7-1c0.5-0.5,1-0.8,1.5-1.2c0.2-0.1,0.4-0.4,0.4-0.6c0-3.5,0-7,0-10.5v-13c0-1.2,0.9-2.1,2.1-2.1
	c1.2,0,2.1,0.9,2.1,2.1c0,1.6,0,10.9,0,12.5V53.2z"/>
	<path fill="none" stroke="currentColor" stroke-width="4" stroke-miterlimit="10" d="M74.9,137.3c0,0,19.9,9.9,40.6-1.6"/>
	<path d="M109.7,123.2c-0.2-9.1-7.8-16.4-17-16.1c-8.8,0.2-15.9,7.3-16.1,16.1H109.7z"/>
	<path fill="none" stroke="currentColor" stroke-width="4" stroke-miterlimit="10" d="M84,82.7c0,4.6-3.7,8.3-8.3,8.3c-4.6,0-8.3-3.7-8.3-8.3"/>
	<path fill="none" stroke="currentColor" stroke-width="4" stroke-miterlimit="10" d="M118,82.7c0.2,4.6-3.4,8.4-8,8.6s-8.4-3.4-8.6-8c0-0.2,0-0.4,0-0.6"/>
	<circle cx="65.8" cy="134" r="3.4"/>
	<circle cx="65.8" cy="145.6" r="3.4"/>
	<circle cx="70" cy="124" r="3.4"/>
	<circle cx="59.2" cy="125.7" r="3.4"/>
	<circle cx="49.3" cy="124.9" r="3.4"/>
	<circle cx="56.7" cy="137.7" r="3.4"/>
</svg>
