<?xml version="1.0" encoding="utf-8"?>
<!-- Generator: Adobe Illustrator 22.0.1, SVG Export Plug-In . SVG Version: 6.00 Build 0)  -->
<svg version="1.1" id="Layer_1" xmlns="http://www.w3.org/2000/svg" xmlns:xlink="http://www.w3.org/1999/xlink" x="0px" y="0px"
	 viewBox="0 0 24 24" style="enable-background:new 0 0 24 24;" xml:space="preserve">
<style type="text/css">
	.st0{fill:#ffffff;}
</style>
<g>
	<path class="st0" d="M16.6,18.6c1.4,0,2.1-0.8,2.1-2V4.9v0V2.6c0-1.1-0.9-2-2-2H2.8c-1.1,0-2,0.9-2,2v13.9c0,1.1,0.9,2,2,2H6
		L16.6,18.6z M3.1,17.5c-0.6,0-1.1-0.4-1.1-0.8V2.6c0-0.4,0.4-0.8,0.8-0.8h13.9c0.4,0,0.8,0.4,0.8,0.8v2.2v0v11.8
		c0,0.4-0.2,0.9-1,0.9H6L3.1,17.5z"/>
	<path class="st0" d="M20.8,5h-0.9v1.2h0.9c0.4,0,0.8,0.4,0.8,0.8v13.9c0,0.4-0.4,0.8-0.8,0.8H6.7c-0.4,0-0.8-0.4-0.8-0.8v-1.2H4.8
		v1.2c0,1.1,0.9,2,2,2h13.9c1.1,0,2-0.9,2-2V7C22.8,5.8,21.9,5,20.8,5z"/>
</g>
</svg>
