<?xml version="1.0" encoding="UTF-8"?>
<svg id="Layer_1" data-name="Layer 1" xmlns="http://www.w3.org/2000/svg" viewBox="0 0 165.18 192">
  <path d="m128.54,88.99c-.83-.4-1.67-.78-2.52-1.14-1.48-27.31-16.4-42.94-41.46-43.1-.11,0-.23,0-.34,0-14.99,0-27.45,6.4-35.12,18.04l13.78,9.45c5.73-8.69,14.72-10.55,21.35-10.55.08,0,.15,0,.23,0,8.25.05,14.47,2.45,18.5,7.13,2.93,3.41,4.89,8.11,5.86,14.05-7.31-1.24-15.22-1.63-23.68-1.14-23.82,1.37-39.13,15.26-38.11,34.57.52,9.79,5.4,18.22,13.74,23.72,7.05,4.65,16.12,6.93,25.56,6.41,12.46-.68,22.23-5.44,29.05-14.13,5.18-6.6,8.45-15.15,9.9-25.93,5.94,3.58,10.34,8.3,12.77,13.97,4.13,9.63,4.37,25.47-8.55,38.38-11.32,11.31-24.93,16.2-45.49,16.35-22.81-.17-40.06-7.48-51.28-21.74-10.5-13.35-15.93-32.64-16.13-57.32.2-24.68,5.63-43.97,16.13-57.32,11.22-14.26,28.47-21.57,51.28-21.74,22.97.17,40.53,7.52,52.17,21.85,5.71,7.03,10.01,15.86,12.85,26.16l16.15-4.31c-3.44-12.68-8.85-23.61-16.22-32.67C134.04,9.61,112.2.2,84.07,0h-.11C55.88.19,34.29,9.64,19.79,28.08,6.88,44.49.22,67.32,0,95.93v.07s0,.07,0,.07c.22,28.62,6.88,51.45,19.79,67.85,14.5,18.44,36.09,27.88,64.17,28.08h.11c24.96-.17,42.55-6.71,57.05-21.19,18.96-18.95,18.39-42.69,12.14-57.27-4.48-10.45-13.03-18.94-24.72-24.55Zm-43.1,40.52c-10.44.59-21.29-4.1-21.82-14.14-.4-7.44,5.3-15.75,22.46-16.74,1.97-.11,3.89-.17,5.79-.17,6.24,0,12.07.61,17.37,1.76-1.98,24.7-13.58,28.71-23.8,29.27Z" style="fill: #8e847d;"/>
</svg>