<?xml version="1.0" encoding="UTF-8"?>
<svg id="icons" xmlns="http://www.w3.org/2000/svg" viewBox="0 0 650.06 750.04">
  <path d="m569.11,160.41c-5.06-2.62-9.99-5.48-14.77-8.59-13.89-9.18-26.62-20-37.92-32.22-28.28-32.36-38.84-65.19-42.73-88.17h.16c-3.25-19.08-1.91-31.42-1.7-31.42h-128.81v498.09c0,6.69,0,13.3-.28,19.83,0,.81-.08,1.56-.12,2.44,0,.36,0,.73-.08,1.11v.28c-2.76,36.29-23.39,68.83-55.03,86.81-16.24,9.24-34.61,14.09-53.3,14.06-60.02,0-108.66-48.94-108.66-109.38s48.64-109.38,108.66-109.38c11.36-.01,22.65,1.78,33.45,5.3l.16-131.16c-66.29-8.56-133.15,10.99-184.38,53.94-22.2,19.29-40.87,42.31-55.16,68.02-5.44,9.38-25.95,47.05-28.44,108.19-1.56,34.7,8.86,70.66,13.83,85.52v.31c3.12,8.75,15.23,38.61,34.97,63.78,15.91,20.19,34.71,37.93,55.8,52.64v-.31l.31.31c62.36,42.37,131.5,39.59,131.5,39.59,11.97-.48,52.06,0,97.59-21.58,50.5-23.92,79.25-59.56,79.25-59.56,18.37-21.3,32.97-45.56,43.19-71.77,11.66-30.64,15.55-67.39,15.55-82.08V250.77c1.56.94,22.38,14.7,22.38,14.7,0,0,29.98,19.22,76.77,31.73,33.56,8.91,78.78,10.78,78.78,10.78v-127.87c-15.84,1.72-48.02-3.28-80.95-19.7Z" style="fill: #8e847d;"/>
</svg>