<?xml version="1.0" encoding="utf-8"?>
<svg xmlns="http://www.w3.org/2000/svg" width="24" height="24" viewBox="0 0 24 24">
  <g>
    <path d="M12,5.08789l6,2.57129v6.76074l-6,3.42822L6,14.41992V7.65918l6-2.57129M12,4,5,7v8l7,4,7-4V7L12,4Z" fill="#fff"/>
    <polyline points="12 18.25 12 11 5.5 7.75" fill="none" stroke="#fff" stroke-linejoin="bevel"/>
    <line x1="18.5" y1="7.75" x2="12" y2="11" fill="none" stroke="#fff" stroke-miterlimit="10"/>
    <g>
      <polygon points="1 1 5 1 5 0 0 0 0 5 1 5 1 1" fill="#fff"/>
      <polygon points="1 23 1 19 0 19 0 24 5 24 5 23 1 23" fill="#fff"/>
      <polygon points="23 23 19 23 19 24 24 24 24 19 23 19 23 23" fill="#fff"/>
      <polygon points="19 0 19 1 23 1 23 5 24 5 24 0 19 0" fill="#fff"/>
    </g>
  </g>
</svg>