<?xml version="1.0" encoding="utf-8"?>
<svg version="1.1" xmlns="http://www.w3.org/2000/svg" xmlns:xlink="http://www.w3.org/1999/xlink" x="0px" y="0px"
	 viewBox="0 0 24 24" style="enable-background:new 0 0 24 24;" xml:space="preserve">
<style type="text/css">
	.st0{fill:#FFFFFF;}
</style>
<g>
	<g>
		<path class="st0" d="M24,13h-1v-0.5c0-6.1-4.7-11-10.7-11.5l0.8,1.7l-0.9,0.4L10.7,0h0.8C18.4,0,24,5.6,24,12.5V13z"/>
	</g>
	<g>
		<path class="st0" d="M13.3,24h-0.8C5.6,24,0,18.4,0,11.5h1c0,6.1,4.7,11,10.7,11.5l-0.6-1.2l0.9-0.4L13.3,24z"/>
	</g>
	<g>
		<path class="st0" d="M6.4,14.3c0.5,0.2,1.1,0.3,1.7,0.3c0.9,0,1.5-0.4,1.5-0.9s-0.7-1.1-2.2-1.2l-0.1-0.8c1.5-0.3,2.2-0.9,2.2-1.4
			c0-0.4-0.4-0.8-1.1-0.8c-0.5,0-1.1,0.2-1.5,0.5L6.6,9c0.6-0.4,1.3-0.6,2-0.6c1.3,0,2.2,0.7,2.2,1.6S10,11.6,9,11.9
			c1.2,0.3,1.8,0.9,1.8,1.7c0,1.2-1.1,2-2.6,2c-0.6,0-1.1-0.1-1.7-0.3L6.4,14.3z"/>
	</g>
	<g>
		<path class="st0" d="M14.5,15.5h-2.3c0-0.5,0.1-1.8,0.1-2.4v-2.2c0-0.6,0-1.9-0.1-2.4c0.4,0,1.1,0,2.1,0c2.5,0,3.9,1.5,3.9,3.4
			c0.1,1.9-1.4,3.6-3.3,3.7C14.7,15.5,14.6,15.5,14.5,15.5z M14.3,9.5c-0.3,0-0.5,0-0.8,0v0.6v3.8v0.5c0.3,0,0.5,0,0.8,0
			c1.3,0.1,2.4-0.8,2.5-2.1c0-0.2,0-0.3,0-0.5c0.1-1.3-0.9-2.3-2.2-2.4C14.6,9.5,14.4,9.5,14.3,9.5L14.3,9.5z"/>
	</g>
</g>
</svg>
