<svg xmlns="http://www.w3.org/2000/svg" width="64" height="64" viewBox="0 0 64 64">
	<circle opacity="0.5" cx="24" cy="24" r="24" fill="#1A1A1A" />
	<mask id="a" height="24" maskUnits="userSpaceOnUse" width="24" x="12.35" y="10.68">
		<path d="m35.85 23.18a12 12 0 0 0 -12-12l1 2" fill="none" stroke="#fff" stroke-linecap="square" stroke-miterlimit="10"/>
		<path d="m12.85 22.18a12 12 0 0 0 12 12l-1-2" fill="none" stroke="#fff" stroke-miterlimit="10"/>
		<path d="m18.72 25a5.2 5.2 0 0 0 1.69.31c.91 0 1.47-.36 1.47-.9s-.73-1.13-2.22-1.17l-.12-.78c1.51-.3 2.24-.86 2.24-1.43 0-.39-.37-.75-1.1-.75a2.66 2.66 0 0 0 -1.51.51l-.32-1a3.85 3.85 0 0 1 2-.61c1.3 0 2.17.71 2.17 1.62s-.67 1.46-1.65 1.81c1.23.26 1.78.88 1.78 1.7 0 1.22-1.06 2-2.59 2a4.74 4.74 0 0 1 -1.68-.28z" fill="#fff"/>
		<path d="m26.82 26.19h-2.27c.05-.48.07-1.76.07-2.41v-2.21c0-.64 0-1.93-.07-2.41.36 0 1.08-.05 2.07-.05 2.54 0 3.89 1.46 3.89 3.37a3.51 3.51 0 0 1 -3.69 3.71zm-.15-6c-.28 0-.52 0-.76 0v.58 3.82.52a6.06 6.06 0 0 0 .79 0 2.32 2.32 0 0 0 2.53-2.56 2.3 2.3 0 0 0 -2.56-2.4z" fill="#fff"/>
	</mask>
	<g mask="url(#a)"><path d="m12.35 10.68h24v24h-24z" fill="#fff"/></g>
</svg>