<?xml version="1.0" encoding="UTF-8"?>
<svg id="Layer_1" data-name="Layer 1" xmlns="http://www.w3.org/2000/svg" viewBox="0 0 23.95 19.45">
  <path d="m21.52,4.83v.66c0,6.52-4.92,13.97-13.97,13.97-2.81,0-5.39-.8-7.55-2.2.38.05.75.09,1.17.09,2.3,0,4.41-.8,6.09-2.11-2.16-.05-3.98-1.45-4.59-3.42.33.05.61.09.94.09.42,0,.89-.09,1.27-.19-2.25-.47-3.94-2.44-3.94-4.83v-.05c.66.38,1.45.56,2.25.61C1.83,6.56.98,5.06.98,3.38c0-.94.23-1.78.66-2.48,2.44,2.95,6.09,4.92,10.17,5.16-.09-.38-.14-.75-.14-1.12,0-2.72,2.2-4.92,4.92-4.92,1.41,0,2.67.56,3.61,1.55,1.08-.23,2.16-.66,3.09-1.22-.38,1.17-1.12,2.11-2.16,2.72.98-.09,1.97-.38,2.81-.75-.66.98-1.5,1.83-2.44,2.53Z" style="fill: #8e847d;"/>
</svg>