<?xml version="1.0" encoding="utf-8"?>
<svg xmlns="http://www.w3.org/2000/svg" width="24" height="24" viewBox="0 0 24 24">
  <style type="text/css">
    .st0{fill:#ffffff;}
  </style>
  <g>
    <g>
      <path class="st0" d="M6,6.9C6.4,7,6.8,7.1,7.2,7.1c0.6,0,1-0.2,1-0.6c0-0.5-0.5-0.8-1.5-0.8L6.6,5.1c1-0.2,1.5-0.6,1.5-1
        c0-0.3-0.2-0.5-0.8-0.5C7,3.6,6.6,3.8,6.3,4L6.1,3.3C6.5,3.1,7,2.9,7.5,2.9c0.9,0,1.5,0.5,1.5,1.1c0,0.6-0.5,1-1.1,1.2
        C8.7,5.4,9,5.9,9,6.4c0,0.8-0.7,1.4-1.8,1.4c-0.4,0-0.8-0.1-1.2-0.2L6,6.9z"/>
    </g>
    <path class="st0" d="M11.6,4.7c-0.4,0-0.8,0.2-1.1,0.5c0.2-0.8,0.9-1.4,2.1-1.6l-0.2-0.7c-1.9,0.3-2.8,1.5-2.8,3.1
      c0,1.2,0.6,1.9,1.7,1.9c1,0,1.7-0.7,1.7-1.7C13,5.3,12.4,4.7,11.6,4.7z M11.4,7.2c-0.5,0-0.8-0.4-0.8-0.9c0-0.5,0.4-0.9,0.8-0.9
      c0.5,0,0.8,0.3,0.8,0.9C12.2,6.8,11.9,7.2,11.4,7.2z"/>
    <path class="st0" d="M15.5,2.9c-1.1,0-1.8,1.1-1.8,2.6c0,1.3,0.6,2.4,1.8,2.4c1.2,0,1.9-1.1,1.9-2.6C17.3,4,16.6,2.9,15.5,2.9z
      M15.4,7.2c-0.6,0-1-0.6-1-1.8c0-1,0.4-1.8,1-1.8c0.6,0,1,0.6,1,1.8C16.4,6.4,16,7.2,15.4,7.2z"/>
    <path class="st0" d="M18.9,2.8c-0.7,0-1.1,0.5-1.1,1.1c0,0.6,0.4,1,1,1c0.7,0,1.1-0.5,1.1-1.2C20,3.2,19.6,2.8,18.9,2.8z M18.9,4.4
      c-0.3,0-0.5-0.2-0.5-0.6c0-0.3,0.2-0.6,0.5-0.6s0.5,0.2,0.5,0.6C19.4,4.2,19.2,4.4,18.9,4.4z"/>
  </g>
  <path class="st0" d="M23.4,14.7c0-3-4.7-5-11.4-5s-11.4,2.1-11.4,5c0,2.4,3.2,4.3,8.1,4.9c0.2,0,0.4-0.1,0.4-0.3
    c0-0.2-0.1-0.4-0.3-0.4c-4.4-0.5-7.4-2.2-7.4-4.1c0-2.1,3.7-4.3,10.6-4.3s10.6,2.2,10.6,4.3c0,1.9-2.7,3.5-6.9,4.1l1.3-1.6l-0.5-0.5
    l-2.1,2.5l2.5,2.2l0.5-0.5l-1.6-1.4C20.4,18.8,23.4,17,23.4,14.7z"/>
</svg>