<svg xmlns="http://www.w3.org/2000/svg" width="200" height="200" viewBox="0 0 200 200">
    <path d="M122.3,131.26l0,28.77-71.29.12L50.83,31.83l71.3-.13,0,24.73,7.73-7.73,0-14.16A19.61,19.61,0,0,0,110.28,15l-47.66.08A19.62,19.62,0,0,0,43.1,34.69l.22,129.14a19.63,19.63,0,0,0,19.59,19.53l47.67-.09a19.61,19.61,0,0,0,19.52-19.59L130,123.82Zm-14.25-109V25L66.38,25V22.36ZM86.73,177.76a6.41,6.41,0,1,1,6.4-6.42A6.41,6.41,0,0,1,86.73,177.76Z"/>
    <path d="M166.34,61a7.75,7.75,0,0,1-10.51-10.7L145.17,39.42,128.74,55.56h0L160.58,88h0L177,71.81Z"/>
    <polygon points="119.05 87 116.78 87 115.64 100.63 127 99.5 127 97.22 119.98 96.35 119.05 87"/>
    <path d="M127.26,57h0L71,112.34l10.66,10.84a7.75,7.75,0,0,1,10.52,10.71l10.66,10.84,56.28-55.32h0Zm-9.35,57.24a15.9,15.9,0,1,1,15.91-15.9A15.9,15.9,0,0,1,117.91,114.26Z"/>
</svg>
