<?xml version="1.0" encoding="utf-8"?>
<!-- Generator: Adobe Illustrator 26.0.1, SVG Export Plug-In . SVG Version: 6.00 Build 0)  -->
<svg version="1.1" id="Layer_1" xmlns="http://www.w3.org/2000/svg" xmlns:xlink="http://www.w3.org/1999/xlink" x="0px" y="0px"
	 viewBox="0 0 385 260" style="enable-background:new 0 0 385 260;" xml:space="preserve">
<style type="text/css">
	.st0{fill:#B3B3B3;}
	.st1{fill:#E6E6E6;}
	.st2{fill:#515151;}
	.st3{fill:none;stroke:#E6E6E6;stroke-miterlimit:10;}
	.st4{fill:url(#SVGID_1_);}
</style>
<g>
	<g>
		<path d="M13.05,24.15c0,0.46,0.01,1.42,0.04,1.76h-1.32c0.06-0.59,0.08-2.15,0.08-2.94v-2.7c0-0.78-0.02-2.36-0.08-2.94
			c0.44,0,1.54-0.06,2.39-0.06c2.07,0,3.12,1.18,3.12,2.53c0,1.6-1.04,2.92-3.56,2.92c-0.21,0-0.45-0.01-0.67-0.02V24.15z
			 M13.96,18.31c-0.34,0-0.56,0.01-0.92,0.04v3.36c0.22,0.02,0.46,0.04,0.68,0.04c1.45,0,2.32-0.65,2.32-1.76
			C16.05,18.92,15.4,18.31,13.96,18.31z"/>
		<path d="M19.56,21.85c0-2.64,1.79-4.72,4.41-4.72c2.49,0,4.17,1.98,4.17,4.28c0,2.64-1.79,4.72-4.41,4.72
			C21.25,26.13,19.56,24.15,19.56,21.85z M26.91,21.63c0-2.16-1.31-3.49-3.04-3.49c-1.83,0-3.08,1.61-3.08,3.49
			c0,2.16,1.31,3.49,3.04,3.49C25.67,25.12,26.91,23.51,26.91,21.63z"/>
		<path d="M32.5,24.15c0,0.46,0.01,1.42,0.04,1.76h-1.32c0.06-0.59,0.08-2.15,0.08-2.94v-2.7c0-0.78-0.02-2.36-0.08-2.94
			c0.44,0,1.54-0.06,2.39-0.06c2.07,0,3.12,1.18,3.12,2.53c0,1.6-1.04,2.92-3.56,2.92c-0.21,0-0.45-0.01-0.67-0.02V24.15z
			 M33.42,18.31c-0.34,0-0.56,0.01-0.92,0.04v3.36c0.22,0.02,0.46,0.04,0.68,0.04c1.45,0,2.32-0.65,2.32-1.76
			C35.5,18.92,34.86,18.31,33.42,18.31z"/>
		<path d="M46.3,19.08v3.27c0,1.43-0.31,2.17-0.94,2.8c-0.65,0.65-1.5,0.99-2.7,0.99c-1.92,0-3.27-1.21-3.27-3.15v-2.71
			c0-0.78-0.02-2.36-0.09-2.94c0.49,0,0.93-0.01,1.33-0.06c-0.04,0.35-0.05,1.33-0.05,1.81v3.52c0,1.82,0.9,2.48,2.31,2.48
			c1.39,0,2.21-0.85,2.21-2.22v-2.58c0-0.78-0.02-2.36-0.1-2.94c0.49,0,0.94-0.01,1.36-0.06C46.32,17.62,46.3,18.6,46.3,19.08z"/>
		<path d="M54.88,25.96c-0.73-0.05-1.64-0.06-2.5-0.06c-0.87,0-1.77,0.01-2.49,0.06c0.06-0.59,0.08-2.2,0.08-2.99v-2.7
			c0-0.78-0.02-2.36-0.08-2.94c0.48,0,0.93-0.01,1.32-0.06c-0.03,0.35-0.04,1.33-0.04,1.81v5.05c0,0.2,0,0.51,0.02,0.76
			c0.34,0,0.73,0.01,1.1,0.01c0.99,0,1.84-0.01,2.67-0.04C54.92,25.2,54.89,25.57,54.88,25.96z"/>
		<path d="M59.36,19.66c0.48-1.03,0.79-1.75,1.06-2.45l0.32-0.09l2.93,6.3c0.35,0.77,0.82,1.76,1.2,2.49l-1.32,0.1l-1.15-2.55h-3.61
			l-0.05,0.12c-0.32,0.74-0.66,1.6-0.95,2.33h-1.32L59.36,19.66z M59.23,22.48h2.73l-1.37-3.08L59.23,22.48z"/>
		<path d="M72.21,26L70,22.53h-1.35v1.62c0,0.46,0.01,1.42,0.04,1.76h-1.32c0.06-0.59,0.09-2.15,0.09-2.94v-2.7
			c0-0.78-0.02-2.36-0.09-2.94c0.44,0,1.69-0.05,2.25-0.06c2.14-0.04,3.32,1.15,3.28,2.49c-0.04,1.18-0.65,1.98-1.81,2.49l1.26,1.84
			c0.33,0.46,1,1.4,1.28,1.75L72.21,26z M69.93,21.53c1.1,0,1.73-0.74,1.73-1.61c0-1.05-0.65-1.61-1.93-1.61
			c-0.4,0-0.76,0.01-1.09,0.04v3.19H69.93z"/>
		<path d="M85.87,25.91c0.06-0.59,0.08-2.15,0.08-2.94v-1.03h-4.5v2.21c0,0.46,0.01,1.42,0.04,1.76h-1.32
			c0.06-0.59,0.09-2.15,0.09-2.94v-2.7c0-0.78-0.03-2.36-0.09-2.94c0.48,0,0.93-0.01,1.32-0.06c-0.02,0.35-0.04,1.33-0.04,1.81v1.87
			h4.5v-0.67c0-0.78-0.02-2.36-0.08-2.94c0.48,0,0.93-0.01,1.32-0.06c-0.03,0.35-0.04,1.33-0.04,1.81v5.08
			c0,0.46,0.01,1.42,0.04,1.76H85.87z"/>
		<path d="M90.32,21.85c0-2.64,1.79-4.72,4.41-4.72c2.49,0,4.17,1.98,4.17,4.28c0,2.64-1.79,4.72-4.41,4.72
			C92.01,26.13,90.32,24.15,90.32,21.85z M97.67,21.63c0-2.16-1.31-3.49-3.04-3.49c-1.83,0-3.08,1.61-3.08,3.49
			c0,2.16,1.31,3.49,3.04,3.49C96.42,25.12,97.67,23.51,97.67,21.63z"/>
		<path d="M108.85,19.08v3.27c0,1.43-0.31,2.17-0.94,2.8c-0.65,0.65-1.5,0.99-2.7,0.99c-1.92,0-3.27-1.21-3.27-3.15v-2.71
			c0-0.78-0.02-2.36-0.08-2.94c0.49,0,0.93-0.01,1.33-0.06c-0.04,0.35-0.05,1.33-0.05,1.81v3.52c0,1.82,0.9,2.48,2.31,2.48
			c1.39,0,2.21-0.85,2.21-2.22v-2.58c0-0.78-0.02-2.36-0.1-2.94c0.49,0,0.94-0.01,1.36-0.06C108.86,17.62,108.85,18.6,108.85,19.08z
			"/>
		<path d="M117.27,26l-2.21-3.47h-1.35v1.62c0,0.46,0.01,1.42,0.04,1.76h-1.32c0.06-0.59,0.08-2.15,0.08-2.94v-2.7
			c0-0.78-0.02-2.36-0.08-2.94c0.44,0,1.68-0.05,2.25-0.06c2.14-0.04,3.32,1.15,3.28,2.49c-0.04,1.18-0.65,1.98-1.81,2.49l1.26,1.84
			c0.33,0.46,1,1.4,1.28,1.75L117.27,26z M114.99,21.53c1.1,0,1.73-0.74,1.73-1.61c0-1.05-0.65-1.61-1.93-1.61
			c-0.4,0-0.76,0.01-1.09,0.04v3.19H114.99z"/>
		<path d="M123.16,26.13c-0.79,0-1.77-0.31-2.41-0.72l0.07-1.27c0.49,0.44,1.49,0.92,2.4,0.92c0.93,0,1.57-0.48,1.57-1.39
			c0-1.68-3.71-1.82-3.71-4.06c0-1.38,1.11-2.48,2.7-2.48c0.81,0,1.51,0.28,1.99,0.63l-0.39,1.05c-0.41-0.34-1.1-0.61-1.65-0.61
			c-0.87,0-1.45,0.5-1.45,1.26c0,1.56,3.71,1.61,3.71,4.05C126.01,24.97,124.93,26.13,123.16,26.13z"/>
	</g>
</g>
<g>
	<g>
		<path d="M11.4,248.77c0.03-0.38,0.04-1.4,0.04-1.92v-1.76c0-0.51-0.01-1.54-0.04-1.92c0.25,0,1.03-0.03,1.39-0.03
			c1.39,0,1.93,0.7,1.93,1.39c0,0.61-0.38,1.07-0.98,1.25c0.84,0.21,1.24,0.73,1.24,1.39c0,0.91-0.74,1.6-2.04,1.6H11.4z
			 M12.71,245.61c0.94,0,1.41-0.42,1.41-1.01c0-0.59-0.43-0.95-1.38-0.95c-0.32,0-0.55,0.02-0.72,0.02
			c-0.01,0.09-0.01,0.45-0.01,0.53v0.88c0,0.11,0,0.44,0.01,0.51C12.15,245.6,12.57,245.61,12.71,245.61z M12.91,248.26
			c0.9,0,1.47-0.36,1.47-1.09c0-0.63-0.51-1.08-1.66-1.08c-0.27,0-0.5,0-0.71,0.02v1.52c0,0.19,0,0.41,0.01,0.6
			C12.32,248.25,12.64,248.26,12.91,248.26z"/>
		<path d="M15.71,247.83c0-0.68,0.57-1.2,1.86-1.2c0.15,0,0.29,0.01,0.43,0.02l0.01-0.15c0.02-0.65-0.25-0.97-0.84-0.97
			c-0.37,0-0.76,0.16-1.04,0.35L16,245.4c0.38-0.22,0.79-0.35,1.24-0.35c0.86,0,1.33,0.52,1.31,1.4l-0.05,1.58
			c-0.01,0.29,0.07,0.39,0.25,0.39c0.1,0,0.21-0.03,0.32-0.08l-0.06,0.4c-0.11,0.06-0.25,0.11-0.42,0.11
			c-0.29,0-0.55-0.18-0.56-0.71c-0.2,0.42-0.66,0.72-1.2,0.72C16.12,248.87,15.71,248.44,15.71,247.83z M17.98,247.39l0.01-0.35
			c-0.14-0.02-0.29-0.02-0.44-0.02c-1,0-1.31,0.38-1.31,0.79c0,0.34,0.21,0.62,0.7,0.62C17.51,248.42,17.96,247.99,17.98,247.39z"/>
		<path d="M21.98,245.34l-0.19,0.49c-0.24-0.17-0.54-0.28-0.88-0.28c-0.38,0-0.71,0.17-0.71,0.53c0,0.7,1.91,0.55,1.91,1.67
			c0,0.72-0.65,1.15-1.37,1.15c-0.41,0-0.92-0.12-1.2-0.3l0.03-0.58c0.3,0.22,0.75,0.39,1.18,0.39c0.45,0,0.81-0.2,0.81-0.57
			c0-0.8-1.91-0.58-1.91-1.73c0-0.59,0.53-1.05,1.26-1.05C21.36,245.05,21.74,245.2,21.98,245.34z"/>
		<path d="M25.74,247.03l-2.39,0.06c0.02,0.86,0.49,1.32,1.27,1.32c0.56,0,0.97-0.24,1.32-0.53l-0.02,0.57
			c-0.38,0.26-0.8,0.45-1.36,0.45c-1.15,0-1.76-0.82-1.76-1.82c0-1.13,0.72-2.02,1.81-2.02c1.03,0,1.5,0.77,1.5,1.75L25.74,247.03z
			 M25.59,246.62c-0.07-0.7-0.39-1.09-1.02-1.09c-0.66,0-1.1,0.51-1.2,1.15L25.59,246.62z"/>
		<path d="M29.58,245.36v-0.9c0-0.54-0.01-0.97-0.04-1.34c0.21-0.02,0.44-0.04,0.61-0.08c-0.02,0.14-0.02,0.6-0.02,0.92v3.66
			c0,0.44,0.02,0.84,0.05,1.16h-0.51l-0.05-0.45c-0.22,0.28-0.68,0.58-1.19,0.58c-1.02,0-1.66-0.79-1.66-1.8
			c0-1.16,0.78-2.05,1.87-2.05C29.02,245.05,29.36,245.18,29.58,245.36z M27.32,247.02c0,0.89,0.52,1.39,1.2,1.39
			c0.45,0,0.84-0.26,1.05-0.61v-1.9c-0.21-0.22-0.53-0.37-0.92-0.37C27.83,245.54,27.32,246.21,27.32,247.02z"/>
		<path d="M34.51,248.9c-1.06,0-1.74-0.82-1.74-1.83c0-1.13,0.72-2.02,1.85-2.02c1.07,0,1.76,0.83,1.76,1.83
			C36.37,248.02,35.64,248.9,34.51,248.9z M34.58,245.54c-0.76,0-1.27,0.64-1.27,1.44c0,0.92,0.5,1.43,1.24,1.43
			c0.79,0,1.28-0.65,1.28-1.45C35.82,246.05,35.28,245.54,34.58,245.54z"/>
		<path d="M39.85,248.77c0.03-0.34,0.05-0.89,0.05-1.35v-0.96c0-0.59-0.25-0.92-0.76-0.92c-0.6,0-1.23,0.64-1.23,1.08v1.33
			c0,0.28,0.01,0.59,0.02,0.82h-0.61c0.02-0.34,0.04-0.89,0.04-1.35v-0.91c0-0.46-0.02-1.01-0.04-1.35c0.21,0,0.36-0.02,0.54-0.03
			l0.04,0.79c0.27-0.44,0.83-0.86,1.39-0.86c0.72,0,1.16,0.43,1.16,1.27v1.62c0,0.28,0.02,0.61,0.02,0.82H39.85z"/>
		<path d="M44.86,248.9c-0.4,0-0.76-0.13-0.98-0.33v1.09c0,0.27,0.01,0.57,0.03,0.76c-0.02,0-0.6,0.06-0.62,0.06
			c0.02-0.23,0.04-0.88,0.04-1.24v-2.73c0-0.46-0.02-1.02-0.06-1.36c0.21,0,0.37-0.01,0.54-0.02l0.04,0.53
			c0.25-0.29,0.7-0.61,1.25-0.61c0.97,0,1.58,0.79,1.58,1.79C46.68,248.1,45.78,248.9,44.86,248.9z M44.97,245.54
			c-0.45,0-0.83,0.27-1.09,0.6v1.89c0.21,0.23,0.52,0.39,0.97,0.39c0.77,0,1.28-0.7,1.28-1.51
			C46.13,245.99,45.63,245.54,44.97,245.54z"/>
		<path d="M47.35,247.83c0-0.68,0.57-1.2,1.86-1.2c0.15,0,0.29,0.01,0.43,0.02l0.01-0.15c0.02-0.65-0.25-0.97-0.84-0.97
			c-0.38,0-0.77,0.16-1.04,0.35l-0.13-0.49c0.38-0.22,0.79-0.35,1.24-0.35c0.86,0,1.33,0.52,1.31,1.4l-0.05,1.58
			c-0.01,0.29,0.07,0.39,0.25,0.39c0.1,0,0.21-0.03,0.32-0.08l-0.05,0.4c-0.11,0.06-0.26,0.11-0.42,0.11
			c-0.29,0-0.55-0.18-0.56-0.71c-0.2,0.42-0.66,0.72-1.2,0.72C47.77,248.87,47.35,248.44,47.35,247.83z M49.63,247.39l0.01-0.35
			c-0.14-0.02-0.29-0.02-0.44-0.02c-1,0-1.31,0.38-1.31,0.79c0,0.34,0.21,0.62,0.7,0.62C49.16,248.42,49.61,247.99,49.63,247.39z"/>
		<path d="M53.63,245.34l-0.19,0.49c-0.24-0.17-0.54-0.28-0.88-0.28c-0.38,0-0.71,0.17-0.71,0.53c0,0.7,1.91,0.55,1.91,1.67
			c0,0.72-0.65,1.15-1.37,1.15c-0.41,0-0.92-0.12-1.19-0.3l0.03-0.58c0.3,0.22,0.75,0.39,1.18,0.39c0.45,0,0.81-0.2,0.81-0.57
			c0-0.8-1.91-0.58-1.91-1.73c0-0.59,0.53-1.05,1.26-1.05C53.01,245.05,53.39,245.2,53.63,245.34z"/>
		<path d="M56.49,248.69c-0.15,0.12-0.42,0.2-0.68,0.2c-0.62,0-0.9-0.36-0.9-0.98v-2.29h-0.64l0.15-0.48h0.49l0.06-0.8l0.49-0.13
			v0.92h1c-0.02,0.13-0.02,0.26-0.02,0.48h-0.98v2.24c0,0.4,0.17,0.53,0.47,0.53c0.22,0,0.43-0.09,0.58-0.18L56.49,248.69z"/>
		<path d="M58.75,247.83c0-0.68,0.57-1.2,1.86-1.2c0.15,0,0.29,0.01,0.43,0.02l0.01-0.15c0.02-0.65-0.25-0.97-0.84-0.97
			c-0.38,0-0.77,0.16-1.04,0.35l-0.13-0.49c0.38-0.22,0.79-0.35,1.24-0.35c0.86,0,1.33,0.52,1.31,1.4l-0.05,1.58
			c-0.01,0.29,0.07,0.39,0.25,0.39c0.1,0,0.21-0.03,0.32-0.08l-0.05,0.4c-0.11,0.06-0.26,0.11-0.42,0.11
			c-0.29,0-0.55-0.18-0.56-0.71c-0.2,0.42-0.66,0.72-1.2,0.72C59.16,248.87,58.75,248.44,58.75,247.83z M61.03,247.39l0.01-0.35
			c-0.14-0.02-0.29-0.02-0.44-0.02c-1,0-1.31,0.38-1.31,0.79c0,0.34,0.21,0.62,0.7,0.62C60.56,248.42,61,247.99,61.03,247.39z"/>
		<path d="M64.63,248.69c-0.15,0.12-0.42,0.2-0.68,0.2c-0.62,0-0.9-0.36-0.9-0.98v-2.29h-0.64l0.15-0.48h0.49l0.06-0.8l0.49-0.13
			v0.92h1c-0.02,0.13-0.02,0.26-0.02,0.48h-0.98v2.24c0,0.4,0.17,0.53,0.47,0.53c0.22,0,0.43-0.09,0.58-0.18L64.63,248.69z"/>
		<path d="M67.31,248.69c-0.15,0.12-0.42,0.2-0.68,0.2c-0.62,0-0.9-0.36-0.9-0.98v-2.29H65.1l0.15-0.48h0.49l0.06-0.8l0.49-0.13
			v0.92h1c-0.02,0.13-0.02,0.26-0.02,0.48h-0.98v2.24c0,0.4,0.17,0.53,0.47,0.53c0.22,0,0.43-0.09,0.58-0.18L67.31,248.69z"/>
		<path d="M70.89,247.03l-2.39,0.06c0.02,0.86,0.49,1.32,1.27,1.32c0.56,0,0.97-0.24,1.32-0.53l-0.02,0.57
			c-0.38,0.26-0.8,0.45-1.36,0.45c-1.15,0-1.76-0.82-1.76-1.82c0-1.13,0.72-2.02,1.81-2.02c1.03,0,1.5,0.77,1.5,1.75L70.89,247.03z
			 M70.73,246.62c-0.07-0.7-0.39-1.09-1.02-1.09c-0.66,0-1.1,0.51-1.2,1.15L70.73,246.62z"/>
		<path d="M74.69,248.77c0.03-0.34,0.05-0.89,0.05-1.35v-0.96c0-0.59-0.25-0.92-0.76-0.92c-0.6,0-1.23,0.64-1.23,1.08v1.33
			c0,0.28,0.01,0.59,0.02,0.82h-0.61c0.02-0.34,0.04-0.89,0.04-1.35v-0.91c0-0.46-0.02-1.01-0.04-1.35c0.21,0,0.36-0.02,0.54-0.03
			l0.04,0.79c0.27-0.44,0.83-0.86,1.39-0.86c0.72,0,1.16,0.43,1.16,1.27v1.62c0,0.28,0.02,0.61,0.02,0.82H74.69z"/>
		<path d="M79.05,245.36v-0.9c0-0.54-0.01-0.97-0.04-1.34c0.21-0.02,0.44-0.04,0.61-0.08c-0.02,0.14-0.02,0.6-0.02,0.92v3.66
			c0,0.44,0.02,0.84,0.05,1.16h-0.51l-0.05-0.45c-0.22,0.28-0.68,0.58-1.19,0.58c-1.02,0-1.66-0.79-1.66-1.8
			c0-1.16,0.78-2.05,1.87-2.05C78.49,245.05,78.83,245.18,79.05,245.36z M76.79,247.02c0,0.89,0.52,1.39,1.2,1.39
			c0.45,0,0.84-0.26,1.05-0.61v-1.9c-0.21-0.22-0.53-0.37-0.92-0.37C77.3,245.54,76.79,246.21,76.79,247.02z"/>
		<path d="M80.55,247.83c0-0.68,0.57-1.2,1.86-1.2c0.15,0,0.29,0.01,0.43,0.02l0.01-0.15c0.02-0.65-0.25-0.97-0.84-0.97
			c-0.38,0-0.77,0.16-1.04,0.35l-0.13-0.49c0.38-0.22,0.79-0.35,1.24-0.35c0.86,0,1.33,0.52,1.31,1.4l-0.05,1.58
			c-0.01,0.29,0.07,0.39,0.25,0.39c0.1,0,0.21-0.03,0.32-0.08l-0.05,0.4c-0.11,0.06-0.26,0.11-0.42,0.11
			c-0.29,0-0.55-0.18-0.56-0.71c-0.2,0.42-0.66,0.72-1.2,0.72C80.96,248.87,80.55,248.44,80.55,247.83z M82.82,247.39l0.01-0.35
			c-0.14-0.02-0.29-0.02-0.44-0.02c-1,0-1.31,0.38-1.31,0.79c0,0.34,0.21,0.62,0.7,0.62C82.35,248.42,82.8,247.99,82.82,247.39z"/>
		<path d="M87.17,248.77c0.03-0.34,0.05-0.89,0.05-1.35v-0.96c0-0.59-0.25-0.92-0.76-0.92c-0.6,0-1.23,0.64-1.23,1.08v1.33
			c0,0.28,0.01,0.59,0.02,0.82h-0.61c0.02-0.34,0.04-0.89,0.04-1.35v-0.91c0-0.46-0.02-1.01-0.04-1.35c0.21,0,0.36-0.02,0.54-0.03
			l0.04,0.79c0.27-0.44,0.83-0.86,1.39-0.86c0.72,0,1.15,0.43,1.15,1.27v1.62c0,0.28,0.02,0.61,0.02,0.82H87.17z"/>
		<path d="M91.66,245.91c-0.27-0.21-0.64-0.36-1.04-0.36c-0.81,0-1.35,0.64-1.35,1.43c0,0.92,0.62,1.44,1.37,1.44
			c0.48,0,0.82-0.15,1.19-0.47l-0.03,0.58c-0.38,0.25-0.71,0.37-1.22,0.37c-1.08,0-1.85-0.8-1.85-1.84c0-1.11,0.77-2.01,1.92-2.01
			c0.46,0,0.88,0.15,1.17,0.36L91.66,245.91z"/>
		<path d="M95.45,247.03l-2.39,0.06c0.02,0.86,0.49,1.32,1.28,1.32c0.56,0,0.97-0.24,1.32-0.53l-0.02,0.57
			c-0.37,0.26-0.8,0.45-1.36,0.45c-1.15,0-1.76-0.82-1.76-1.82c0-1.13,0.72-2.02,1.81-2.02c1.03,0,1.5,0.77,1.5,1.75L95.45,247.03z
			 M95.29,246.62c-0.07-0.7-0.39-1.09-1.02-1.09c-0.66,0-1.1,0.51-1.2,1.15L95.29,246.62z"/>
		<path d="M100.93,245.36v-0.9c0-0.54-0.01-0.97-0.04-1.34c0.21-0.02,0.44-0.04,0.61-0.08c-0.02,0.14-0.02,0.6-0.02,0.92v3.66
			c0,0.44,0.02,0.84,0.05,1.16h-0.51l-0.05-0.45c-0.22,0.28-0.68,0.58-1.19,0.58c-1.02,0-1.66-0.79-1.66-1.8
			c0-1.16,0.78-2.05,1.87-2.05C100.38,245.05,100.72,245.18,100.93,245.36z M98.68,247.02c0,0.89,0.52,1.39,1.2,1.39
			c0.45,0,0.84-0.26,1.05-0.61v-1.9c-0.21-0.22-0.53-0.37-0.92-0.37C99.18,245.54,98.68,246.21,98.68,247.02z"/>
		<path d="M102.43,247.83c0-0.68,0.57-1.2,1.86-1.2c0.15,0,0.29,0.01,0.43,0.02l0.01-0.15c0.02-0.65-0.26-0.97-0.84-0.97
			c-0.37,0-0.76,0.16-1.04,0.35l-0.13-0.49c0.38-0.22,0.79-0.35,1.24-0.35c0.86,0,1.33,0.52,1.31,1.4l-0.05,1.58
			c-0.01,0.29,0.07,0.39,0.25,0.39c0.1,0,0.21-0.03,0.32-0.08l-0.06,0.4c-0.11,0.06-0.25,0.11-0.42,0.11
			c-0.29,0-0.55-0.18-0.56-0.71c-0.2,0.42-0.66,0.72-1.2,0.72C102.84,248.87,102.43,248.44,102.43,247.83z M104.71,247.39l0.01-0.35
			c-0.14-0.02-0.29-0.02-0.44-0.02c-1,0-1.31,0.38-1.31,0.79c0,0.34,0.21,0.62,0.7,0.62C104.24,248.42,104.68,247.99,104.71,247.39z
			"/>
		<path d="M108.32,248.69c-0.15,0.12-0.42,0.2-0.68,0.2c-0.62,0-0.9-0.36-0.9-0.98v-2.29h-0.64l0.15-0.48h0.49l0.06-0.8l0.49-0.13
			v0.92h1c-0.02,0.13-0.02,0.26-0.02,0.48h-0.98v2.24c0,0.4,0.17,0.53,0.47,0.53c0.22,0,0.43-0.09,0.58-0.18L108.32,248.69z"/>
		<path d="M108.91,247.83c0-0.68,0.57-1.2,1.86-1.2c0.15,0,0.29,0.01,0.43,0.02l0.01-0.15c0.02-0.65-0.25-0.97-0.84-0.97
			c-0.38,0-0.77,0.16-1.04,0.35l-0.13-0.49c0.38-0.22,0.79-0.35,1.24-0.35c0.86,0,1.33,0.52,1.31,1.4l-0.05,1.58
			c-0.01,0.29,0.07,0.39,0.25,0.39c0.1,0,0.21-0.03,0.32-0.08l-0.05,0.4c-0.11,0.06-0.26,0.11-0.42,0.11
			c-0.29,0-0.55-0.18-0.56-0.71c-0.2,0.42-0.66,0.72-1.2,0.72C109.33,248.87,108.91,248.44,108.91,247.83z M111.19,247.39l0.01-0.35
			c-0.14-0.02-0.29-0.02-0.44-0.02c-1,0-1.31,0.38-1.31,0.79c0,0.34,0.21,0.62,0.7,0.62C110.72,248.42,111.17,247.99,111.19,247.39z
			"/>
		<path d="M113.22,248.9c-0.23,0-0.38-0.19-0.38-0.39c0-0.24,0.16-0.43,0.4-0.43c0.23,0,0.39,0.19,0.39,0.4
			C113.63,248.71,113.46,248.9,113.22,248.9z"/>
		<path d="M119.56,243.66c-0.46,0-0.95-0.01-1.5-0.01c-0.23,0-0.66,0-0.88,0.01c-0.01,0.19-0.01,0.49-0.01,0.64v1.35l2.02-0.01
			c-0.02,0.15-0.02,0.33-0.02,0.51l-1.99-0.01v1.47c0,0.31,0,0.92,0.02,1.15h-0.65c0.03-0.38,0.04-1.4,0.04-1.92v-1.76
			c0-0.51-0.01-1.58-0.04-1.96c0.45,0.02,0.98,0.03,1.52,0.03c0.55,0,1.09-0.02,1.55-0.03
			C119.58,243.31,119.57,243.46,119.56,243.66z"/>
		<path d="M121.64,248.9c-1.06,0-1.74-0.82-1.74-1.83c0-1.13,0.72-2.02,1.85-2.02c1.07,0,1.76,0.83,1.76,1.83
			C123.5,248.02,122.77,248.9,121.64,248.9z M121.71,245.54c-0.77,0-1.28,0.64-1.28,1.44c0,0.92,0.5,1.43,1.24,1.43
			c0.79,0,1.27-0.65,1.27-1.45C122.95,246.05,122.41,245.54,121.71,245.54z"/>
		<path d="M126.25,245.69c-0.61-0.06-1.21,0.4-1.21,0.97v1.29c0,0.28,0.01,0.59,0.02,0.82h-0.61c0.03-0.34,0.04-0.89,0.04-1.35
			v-1.02c0-0.46-0.02-0.88-0.07-1.21c0.18-0.01,0.38-0.04,0.55-0.08l0.06,0.82c0.25-0.47,0.64-0.81,1.29-0.88L126.25,245.69z"/>
		<path d="M129.04,244.25c-0.23,0-0.38-0.18-0.38-0.37c0-0.22,0.16-0.41,0.4-0.41c0.23,0,0.38,0.18,0.38,0.38
			C129.44,244.07,129.28,244.25,129.04,244.25z M128.72,248.77c0.03-0.34,0.04-0.85,0.04-1.32v-0.93c0-0.46-0.02-1.03-0.05-1.37
			c0.21,0,0.44-0.01,0.62-0.03c-0.02,0.14-0.02,0.72-0.02,0.91v1.96c0,0.28,0.01,0.58,0.02,0.79H128.72z"/>
		<path d="M133.05,248.77c0.03-0.34,0.05-0.89,0.05-1.35v-0.96c0-0.59-0.25-0.92-0.76-0.92c-0.6,0-1.23,0.64-1.23,1.08v1.33
			c0,0.28,0.01,0.59,0.02,0.82h-0.61c0.02-0.34,0.04-0.89,0.04-1.35v-0.91c0-0.46-0.02-1.01-0.04-1.35c0.21,0,0.36-0.02,0.54-0.03
			l0.04,0.79c0.27-0.44,0.83-0.86,1.39-0.86c0.72,0,1.15,0.43,1.15,1.27v1.62c0,0.28,0.02,0.61,0.02,0.82H133.05z"/>
		<path d="M136.76,243.6c-0.1-0.04-0.22-0.07-0.35-0.07c-0.49,0-0.73,0.38-0.73,1.09v0.51h1.04c-0.02,0.13-0.03,0.27-0.03,0.48h-1
			v2.37c0,0.28,0.01,0.59,0.02,0.79h-0.61c0.03-0.34,0.04-0.85,0.04-1.31v-1.85h-0.68l0.16-0.48h0.52v-0.45
			c0-1.01,0.42-1.67,1.21-1.67c0.18,0,0.28,0.03,0.38,0.06L136.76,243.6z"/>
		<path d="M138.82,248.9c-1.06,0-1.74-0.82-1.74-1.83c0-1.13,0.72-2.02,1.85-2.02c1.07,0,1.76,0.83,1.76,1.83
			C140.69,248.02,139.96,248.9,138.82,248.9z M138.9,245.54c-0.77,0-1.28,0.64-1.28,1.44c0,0.92,0.5,1.43,1.24,1.43
			c0.79,0,1.27-0.65,1.27-1.45C140.14,246.05,139.6,245.54,138.9,245.54z"/>
		<path d="M143.44,245.69c-0.61-0.06-1.21,0.4-1.21,0.97v1.29c0,0.28,0.01,0.59,0.02,0.82h-0.61c0.03-0.34,0.04-0.89,0.04-1.35
			v-1.02c0-0.46-0.02-0.88-0.07-1.21c0.18-0.01,0.38-0.04,0.55-0.08l0.06,0.82c0.25-0.47,0.64-0.81,1.29-0.88L143.44,245.69z"/>
		<path d="M149.03,248.77c0.03-0.34,0.05-0.89,0.05-1.35v-0.96c0-0.59-0.22-0.92-0.71-0.92c-0.59,0-1.14,0.57-1.14,1.01v1.4
			c0,0.28,0.01,0.61,0.02,0.82h-0.61c0.02-0.34,0.04-0.89,0.04-1.35v-0.96c0-0.59-0.21-0.92-0.69-0.92c-0.59,0-1.14,0.57-1.14,1.01
			v1.4c0,0.28,0.01,0.59,0.02,0.82h-0.61c0.02-0.34,0.04-0.89,0.04-1.35v-0.91c0-0.46-0.02-1.01-0.05-1.35
			c0.21,0,0.36-0.02,0.54-0.03l0.04,0.72c0.29-0.4,0.76-0.79,1.3-0.79c0.56,0,0.95,0.29,1.05,0.81c0.22-0.38,0.71-0.81,1.33-0.81
			c0.7,0,1.12,0.43,1.12,1.27v1.62c0,0.28,0.01,0.61,0.02,0.82H149.03z"/>
		<path d="M150.55,247.83c0-0.68,0.57-1.2,1.86-1.2c0.15,0,0.29,0.01,0.43,0.02l0.01-0.15c0.02-0.65-0.25-0.97-0.84-0.97
			c-0.37,0-0.76,0.16-1.04,0.35l-0.13-0.49c0.38-0.22,0.79-0.35,1.24-0.35c0.86,0,1.33,0.52,1.31,1.4l-0.05,1.58
			c-0.01,0.29,0.07,0.39,0.25,0.39c0.1,0,0.21-0.03,0.32-0.08l-0.06,0.4c-0.11,0.06-0.25,0.11-0.42,0.11
			c-0.29,0-0.55-0.18-0.56-0.71c-0.2,0.42-0.66,0.72-1.2,0.72C150.96,248.87,150.55,248.44,150.55,247.83z M152.82,247.39l0.01-0.35
			c-0.14-0.02-0.29-0.02-0.44-0.02c-1,0-1.31,0.38-1.31,0.79c0,0.34,0.21,0.62,0.7,0.62C152.35,248.42,152.8,247.99,152.82,247.39z"
			/>
		<path d="M156.43,248.69c-0.15,0.12-0.42,0.2-0.68,0.2c-0.62,0-0.9-0.36-0.9-0.98v-2.29h-0.64l0.15-0.48h0.49l0.06-0.8l0.49-0.13
			v0.92h1c-0.02,0.13-0.02,0.26-0.02,0.48h-0.98v2.24c0,0.4,0.17,0.53,0.47,0.53c0.22,0,0.43-0.09,0.58-0.18L156.43,248.69z"/>
		<path d="M157.64,244.25c-0.23,0-0.38-0.18-0.38-0.37c0-0.22,0.16-0.41,0.4-0.41c0.23,0,0.38,0.18,0.38,0.38
			C158.04,244.07,157.88,244.25,157.64,244.25z M157.32,248.77c0.03-0.34,0.04-0.85,0.04-1.32v-0.93c0-0.46-0.02-1.03-0.05-1.37
			c0.21,0,0.44-0.01,0.62-0.03c-0.02,0.14-0.02,0.72-0.02,0.91v1.96c0,0.28,0.01,0.58,0.02,0.79H157.32z"/>
		<path d="M160.63,248.9c-1.06,0-1.74-0.82-1.74-1.83c0-1.13,0.72-2.02,1.85-2.02c1.07,0,1.76,0.83,1.76,1.83
			C162.49,248.02,161.76,248.9,160.63,248.9z M160.7,245.54c-0.77,0-1.28,0.64-1.28,1.44c0,0.92,0.5,1.43,1.24,1.43
			c0.79,0,1.27-0.65,1.27-1.45C161.94,246.05,161.4,245.54,160.7,245.54z"/>
		<path d="M165.97,248.77c0.03-0.34,0.05-0.89,0.05-1.35v-0.96c0-0.59-0.25-0.92-0.76-0.92c-0.6,0-1.23,0.64-1.23,1.08v1.33
			c0,0.28,0.01,0.59,0.02,0.82h-0.61c0.02-0.34,0.04-0.89,0.04-1.35v-0.91c0-0.46-0.02-1.01-0.04-1.35c0.21,0,0.36-0.02,0.54-0.03
			l0.04,0.79c0.27-0.44,0.83-0.86,1.39-0.86c0.72,0,1.15,0.43,1.15,1.27v1.62c0,0.28,0.02,0.61,0.02,0.82H165.97z"/>
		<path d="M167.49,247.83c0-0.68,0.57-1.2,1.86-1.2c0.15,0,0.29,0.01,0.43,0.02l0.01-0.15c0.02-0.65-0.25-0.97-0.84-0.97
			c-0.38,0-0.76,0.16-1.04,0.35l-0.13-0.49c0.38-0.22,0.79-0.35,1.24-0.35c0.86,0,1.33,0.52,1.31,1.4l-0.05,1.58
			c-0.01,0.29,0.07,0.39,0.25,0.39c0.1,0,0.21-0.03,0.32-0.08l-0.06,0.4c-0.11,0.06-0.25,0.11-0.42,0.11
			c-0.29,0-0.55-0.18-0.56-0.71c-0.2,0.42-0.66,0.72-1.2,0.72C167.91,248.87,167.49,248.44,167.49,247.83z M169.77,247.39l0.01-0.35
			c-0.14-0.02-0.29-0.02-0.44-0.02c-1,0-1.31,0.38-1.31,0.79c0,0.34,0.21,0.62,0.7,0.62C169.3,248.42,169.75,247.99,169.77,247.39z"
			/>
		<path d="M171.59,248.77c0.03-0.34,0.04-0.85,0.04-1.32v-3c0-0.54-0.01-0.97-0.04-1.34c0.21-0.02,0.43-0.04,0.61-0.08
			c-0.02,0.14-0.02,0.6-0.02,0.92v4.03c0,0.28,0.01,0.58,0.02,0.79H171.59z"/>
		<path d="M176.6,248.9c-0.4,0-0.76-0.13-0.98-0.33v1.09c0,0.27,0.01,0.57,0.03,0.76c-0.02,0-0.6,0.06-0.62,0.06
			c0.02-0.23,0.04-0.88,0.04-1.24v-2.73c0-0.46-0.02-1.02-0.06-1.36c0.21,0,0.37-0.01,0.54-0.02l0.04,0.53
			c0.25-0.29,0.7-0.61,1.25-0.61c0.97,0,1.58,0.79,1.58,1.79C178.43,248.1,177.52,248.9,176.6,248.9z M176.72,245.54
			c-0.45,0-0.83,0.27-1.09,0.6v1.89c0.21,0.23,0.52,0.39,0.97,0.39c0.77,0,1.28-0.7,1.28-1.51
			C177.88,245.99,177.38,245.54,176.72,245.54z"/>
		<path d="M182.02,248.77l-0.07-0.68c-0.27,0.45-0.84,0.82-1.34,0.82c-0.75,0-1.22-0.41-1.22-1.37v-1.07c0-0.44-0.02-0.96-0.04-1.32
			c0.21,0,0.43-0.01,0.61-0.03c-0.02,0.21-0.02,0.59-0.02,0.88v1.42c0,0.69,0.26,1,0.81,1c0.51,0,1.18-0.57,1.18-1v-0.95
			c0-0.44-0.02-0.96-0.05-1.32c0.22,0,0.45-0.01,0.62-0.03c-0.02,0.21-0.02,0.59-0.02,0.88v1.43c0,0.46,0.02,0.99,0.05,1.35H182.02z
			"/>
		<path d="M185.5,245.69c-0.61-0.06-1.21,0.4-1.21,0.97v1.29c0,0.28,0.01,0.59,0.02,0.82h-0.61c0.03-0.34,0.04-0.89,0.04-1.35v-1.02
			c0-0.46-0.02-0.88-0.07-1.21c0.18-0.01,0.37-0.04,0.55-0.08l0.06,0.82c0.25-0.47,0.64-0.81,1.29-0.88L185.5,245.69z"/>
		<path d="M187.89,248.9c-0.4,0-0.76-0.13-0.98-0.33v1.09c0,0.27,0.01,0.57,0.03,0.76c-0.02,0-0.6,0.06-0.62,0.06
			c0.02-0.23,0.04-0.88,0.04-1.24v-2.73c0-0.46-0.02-1.02-0.06-1.36c0.21,0,0.37-0.01,0.54-0.02l0.04,0.53
			c0.25-0.29,0.7-0.61,1.25-0.61c0.97,0,1.58,0.79,1.58,1.79C189.71,248.1,188.8,248.9,187.89,248.9z M188,245.54
			c-0.45,0-0.83,0.27-1.09,0.6v1.89c0.22,0.23,0.52,0.39,0.97,0.39c0.76,0,1.28-0.7,1.28-1.51
			C189.16,245.99,188.66,245.54,188,245.54z"/>
		<path d="M192.17,248.9c-1.06,0-1.74-0.82-1.74-1.83c0-1.13,0.72-2.02,1.85-2.02c1.07,0,1.76,0.83,1.76,1.83
			C194.03,248.02,193.3,248.9,192.17,248.9z M192.24,245.54c-0.76,0-1.27,0.64-1.27,1.44c0,0.92,0.5,1.43,1.24,1.43
			c0.79,0,1.27-0.65,1.27-1.45C193.48,246.05,192.94,245.54,192.24,245.54z"/>
		<path d="M197.16,245.34l-0.19,0.49c-0.24-0.17-0.54-0.28-0.88-0.28c-0.38,0-0.71,0.17-0.71,0.53c0,0.7,1.91,0.55,1.91,1.67
			c0,0.72-0.65,1.15-1.37,1.15c-0.41,0-0.92-0.12-1.19-0.3l0.03-0.58c0.3,0.22,0.75,0.39,1.18,0.39c0.45,0,0.81-0.2,0.81-0.57
			c0-0.8-1.91-0.58-1.91-1.73c0-0.59,0.53-1.05,1.26-1.05C196.54,245.05,196.92,245.2,197.16,245.34z"/>
		<path d="M200.92,247.03l-2.39,0.06c0.02,0.86,0.49,1.32,1.27,1.32c0.56,0,0.97-0.24,1.32-0.53l-0.02,0.57
			c-0.37,0.26-0.8,0.45-1.36,0.45c-1.15,0-1.76-0.82-1.76-1.82c0-1.13,0.72-2.02,1.81-2.02c1.03,0,1.5,0.77,1.5,1.75L200.92,247.03z
			 M200.77,246.62c-0.07-0.7-0.39-1.09-1.02-1.09c-0.66,0-1.1,0.51-1.2,1.15L200.77,246.62z"/>
		<path d="M204.37,245.34l-0.19,0.49c-0.24-0.17-0.54-0.28-0.88-0.28c-0.38,0-0.71,0.17-0.71,0.53c0,0.7,1.91,0.55,1.91,1.67
			c0,0.72-0.65,1.15-1.37,1.15c-0.41,0-0.92-0.12-1.19-0.3l0.03-0.58c0.3,0.22,0.75,0.39,1.18,0.39c0.45,0,0.81-0.2,0.81-0.57
			c0-0.8-1.91-0.58-1.91-1.73c0-0.59,0.53-1.05,1.26-1.05C203.75,245.05,204.13,245.2,204.37,245.34z"/>
		<path d="M208.59,248.9c-1.06,0-1.74-0.82-1.74-1.83c0-1.13,0.72-2.02,1.85-2.02c1.07,0,1.76,0.83,1.76,1.83
			C210.45,248.02,209.72,248.9,208.59,248.9z M208.66,245.54c-0.76,0-1.27,0.64-1.27,1.44c0,0.92,0.5,1.43,1.24,1.43
			c0.79,0,1.27-0.65,1.27-1.45C209.9,246.05,209.36,245.54,208.66,245.54z"/>
		<path d="M213.93,248.77c0.03-0.34,0.05-0.89,0.05-1.35v-0.96c0-0.59-0.25-0.92-0.76-0.92c-0.6,0-1.23,0.64-1.23,1.08v1.33
			c0,0.28,0.01,0.59,0.02,0.82h-0.61c0.02-0.34,0.04-0.89,0.04-1.35v-0.91c0-0.46-0.02-1.01-0.04-1.35c0.21,0,0.36-0.02,0.54-0.03
			l0.04,0.79c0.27-0.44,0.83-0.86,1.39-0.86c0.72,0,1.16,0.43,1.16,1.27v1.62c0,0.28,0.02,0.61,0.02,0.82H213.93z"/>
		<path d="M215.72,248.77c0.03-0.34,0.04-0.85,0.04-1.32v-3c0-0.54-0.01-0.97-0.04-1.34c0.21-0.02,0.43-0.04,0.61-0.08
			c-0.02,0.14-0.02,0.6-0.02,0.92v4.03c0,0.28,0.01,0.58,0.02,0.79H215.72z"/>
		<path d="M218.52,248.46c-0.09-0.22-0.17-0.45-0.33-0.81c-0.05-0.11-0.43-0.96-0.54-1.22c-0.2-0.47-0.4-0.91-0.58-1.25l0.62-0.09
			l1.12,2.72l0.47-1.13c0.18-0.47,0.43-1.08,0.59-1.54c0.22,0,0.44,0,0.61-0.02l-1.78,4.25c-0.08,0.19-0.34,0.82-0.43,1.08
			c-0.19,0-0.45,0.01-0.61,0.02L218.52,248.46z"/>
		<path d="M220.92,248.9c-0.23,0-0.38-0.19-0.38-0.39c0-0.24,0.16-0.43,0.4-0.43c0.23,0,0.39,0.19,0.39,0.4
			C221.33,248.71,221.16,248.9,220.92,248.9z"/>
	</g>
</g>
<g>
	<g>
		<path d="M15.04,179.25v-0.25h-0.85c-0.99,0-2.31,0.01-3.17,0.05l-0.21-0.57l3.58-4.5l0.94-1.2l0.59,0.06
			c-0.01,0.24-0.03,1.26-0.03,1.57v3.87c0.52,0,0.99-0.01,1.34-0.02c-0.05,0.31-0.07,0.46-0.09,0.79l-1.25-0.04V180
			c0,0.38,0.01,1.16,0.03,1.45h-0.93C15.04,180.96,15.04,179.91,15.04,179.25z M15.01,178.3h0.03v-3.94l-3.13,3.92
			C12.17,178.3,14.75,178.3,15.01,178.3z"/>
		<path d="M20.86,181.64c-0.62,0-1.19-0.21-1.52-0.51v1.7c0,0.42,0.01,0.88,0.05,1.19c-0.02,0-0.93,0.09-0.96,0.09
			c0.04-0.36,0.06-1.36,0.06-1.92v-4.24c0-0.72-0.02-1.58-0.09-2.12c0.33,0,0.58-0.01,0.84-0.04l0.06,0.82
			c0.4-0.46,1.09-0.94,1.94-0.94c1.51,0,2.45,1.23,2.45,2.78C23.69,180.39,22.28,181.64,20.86,181.64z M21.03,176.42
			c-0.69,0-1.29,0.42-1.7,0.94v2.93c0.33,0.36,0.8,0.61,1.51,0.61c1.19,0,1.99-1.09,1.99-2.35
			C22.84,177.13,22.06,176.42,21.03,176.42z"/>
		<path d="M32.56,181.45c0.05-0.53,0.07-1.39,0.07-2.1v-1.5c0-0.92-0.35-1.42-1.1-1.42c-0.92,0-1.77,0.89-1.77,1.57v2.18
			c0,0.43,0.01,0.95,0.04,1.27h-0.95c0.04-0.53,0.06-1.39,0.06-2.1v-1.5c0-0.92-0.32-1.42-1.08-1.42c-0.92,0-1.77,0.89-1.77,1.57
			v2.18c0,0.43,0.01,0.92,0.04,1.27h-0.95c0.04-0.53,0.06-1.39,0.06-2.1v-1.41c0-0.72-0.02-1.57-0.07-2.1
			c0.33,0,0.56-0.03,0.84-0.05l0.06,1.11c0.45-0.62,1.19-1.23,2.02-1.23c0.87,0,1.47,0.46,1.63,1.26c0.35-0.59,1.1-1.26,2.07-1.26
			c1.09,0,1.73,0.67,1.73,1.98v2.53c0,0.43,0.01,0.95,0.04,1.27H32.56z"/>
	</g>
</g>
<g>
	<g>
		<path d="M16.59,141.62c-0.04,0.28-0.06,0.56-0.07,0.87c-0.82-0.04-1.62-0.05-2.61-0.05c-1,0-1.87,0.01-2.7,0.05l-0.14-0.61
			c3.03-2.98,4.37-4.29,4.37-5.71c0-0.93-0.63-1.57-1.67-1.57c-0.64,0-1.35,0.27-2.05,0.87l-0.33-0.75
			c0.72-0.56,1.61-0.93,2.45-0.93c1.5,0,2.5,0.89,2.5,2.28c0,1.23-0.74,2.2-1.88,3.49c-0.54,0.61-1.32,1.42-2.04,2.1
			C13.76,141.65,15.35,141.65,16.59,141.62z"/>
		<path d="M20.67,142.64c-0.62,0-1.19-0.21-1.52-0.51v1.7c0,0.42,0.01,0.88,0.05,1.19c-0.02,0-0.93,0.09-0.96,0.09
			c0.04-0.36,0.06-1.36,0.06-1.92v-4.24c0-0.72-0.02-1.58-0.09-2.12c0.33,0,0.58-0.01,0.84-0.04l0.06,0.82
			c0.4-0.46,1.09-0.94,1.94-0.94c1.51,0,2.45,1.23,2.45,2.78C23.51,141.39,22.1,142.64,20.67,142.64z M20.85,137.42
			c-0.69,0-1.29,0.42-1.7,0.94v2.93c0.33,0.36,0.8,0.61,1.51,0.61c1.19,0,1.99-1.09,1.99-2.35
			C22.66,138.13,21.88,137.42,20.85,137.42z"/>
		<path d="M32.38,142.45c0.05-0.53,0.07-1.39,0.07-2.1v-1.5c0-0.92-0.35-1.42-1.1-1.42c-0.92,0-1.77,0.89-1.77,1.57v2.18
			c0,0.43,0.01,0.95,0.04,1.27h-0.95c0.04-0.53,0.06-1.39,0.06-2.1v-1.5c0-0.92-0.32-1.42-1.08-1.42c-0.92,0-1.77,0.89-1.77,1.57
			v2.18c0,0.43,0.01,0.92,0.04,1.27h-0.95c0.04-0.53,0.06-1.39,0.06-2.1v-1.41c0-0.72-0.02-1.57-0.07-2.1
			c0.33,0,0.56-0.02,0.84-0.05l0.06,1.11c0.45-0.62,1.19-1.23,2.02-1.23c0.87,0,1.47,0.46,1.63,1.26c0.35-0.59,1.1-1.26,2.07-1.26
			c1.09,0,1.73,0.67,1.73,1.98v2.52c0,0.43,0.01,0.95,0.04,1.27H32.38z"/>
	</g>
</g>
<g>
	<g>
		<path d="M13.67,93.84c-0.02,0.22-0.02,1.13-0.02,1.42v5.77c0,0.37,0,1.13,0.02,1.41h-0.94c0.04-0.47,0.05-1.72,0.05-2.35v-5.25
			l-1.75,0.54l-0.2-0.75c0.68-0.21,1.47-0.47,1.93-0.62l0.78-0.25L13.67,93.84z"/>
		<path d="M21.16,101.62c-0.04,0.28-0.06,0.56-0.07,0.87c-0.82-0.04-1.62-0.05-2.61-0.05c-1,0-1.87,0.01-2.7,0.05l-0.14-0.61
			c3.03-2.98,4.37-4.29,4.37-5.71c0-0.93-0.63-1.57-1.67-1.57c-0.64,0-1.35,0.27-2.05,0.87l-0.33-0.75
			c0.72-0.56,1.61-0.93,2.45-0.93c1.5,0,2.5,0.89,2.5,2.28c0,1.23-0.74,2.2-1.88,3.49c-0.54,0.61-1.32,1.42-2.04,2.1
			C18.33,101.65,19.91,101.65,21.16,101.62z"/>
		<path d="M25.24,102.64c-0.62,0-1.19-0.21-1.52-0.51v1.7c0,0.42,0.01,0.88,0.05,1.19c-0.02,0-0.93,0.09-0.97,0.09
			c0.04-0.36,0.06-1.36,0.06-1.92v-4.24c0-0.72-0.03-1.58-0.09-2.12c0.33,0,0.58-0.01,0.84-0.04l0.06,0.82
			c0.4-0.46,1.09-0.94,1.94-0.94c1.51,0,2.45,1.23,2.45,2.78C28.07,101.39,26.66,102.64,25.24,102.64z M25.41,97.42
			c-0.69,0-1.29,0.42-1.7,0.94v2.93c0.33,0.36,0.8,0.61,1.51,0.61c1.19,0,1.99-1.09,1.99-2.35C27.22,98.13,26.44,97.42,25.41,97.42z
			"/>
		<path d="M36.94,102.45c0.05-0.53,0.07-1.39,0.07-2.1v-1.5c0-0.92-0.35-1.42-1.1-1.42c-0.92,0-1.77,0.89-1.77,1.57v2.18
			c0,0.43,0.01,0.95,0.04,1.27h-0.95c0.04-0.53,0.06-1.39,0.06-2.1v-1.5c0-0.92-0.32-1.42-1.08-1.42c-0.92,0-1.77,0.89-1.77,1.57
			v2.18c0,0.43,0.01,0.92,0.04,1.27h-0.95c0.04-0.53,0.06-1.39,0.06-2.1v-1.41c0-0.72-0.03-1.57-0.07-2.1
			c0.33,0,0.56-0.02,0.84-0.05l0.06,1.11c0.45-0.62,1.19-1.23,2.02-1.23c0.87,0,1.47,0.46,1.63,1.26c0.35-0.59,1.1-1.26,2.07-1.26
			c1.09,0,1.73,0.67,1.73,1.98v2.52c0,0.43,0.01,0.95,0.04,1.27H36.94z"/>
	</g>
</g>
<g>
	<g>
		<path d="M13.67,54.04c-0.02,0.22-0.02,1.13-0.02,1.42v5.77c0,0.37,0,1.13,0.02,1.41h-0.94c0.04-0.47,0.05-1.72,0.05-2.35v-5.25
			l-1.75,0.54l-0.2-0.75c0.68-0.21,1.47-0.47,1.93-0.62l0.78-0.25L13.67,54.04z"/>
		<path d="M22,58.27c0,2.66-1.2,4.59-3.14,4.59c-1.93,0-3.01-1.92-3.01-4.33c0-2.67,1.2-4.59,3.13-4.59
			C20.92,53.94,22,55.86,22,58.27z M21.11,58.42c0-2.25-0.83-3.7-2.18-3.7c-1.36,0-2.19,1.67-2.19,3.66c0,2.25,0.84,3.7,2.18,3.7
			C20.29,62.08,21.11,60.4,21.11,58.42z"/>
		<path d="M23.21,61.18c0-1.05,0.89-1.86,2.9-1.86c0.24,0,0.46,0.01,0.67,0.04l0.01-0.24c0.04-1.01-0.4-1.51-1.31-1.51
			c-0.58,0-1.19,0.25-1.61,0.54l-0.2-0.75c0.59-0.35,1.23-0.54,1.93-0.54c1.34,0,2.07,0.8,2.03,2.18l-0.07,2.45
			c-0.01,0.46,0.11,0.61,0.38,0.61c0.16,0,0.32-0.05,0.5-0.12l-0.09,0.62c-0.17,0.09-0.4,0.17-0.66,0.17c-0.45,0-0.85-0.29-0.87-1.1
			c-0.31,0.66-1.03,1.13-1.87,1.13C23.85,62.79,23.21,62.12,23.21,61.18z M26.75,60.49l0.01-0.54c-0.22-0.03-0.46-0.04-0.68-0.04
			c-1.55,0-2.04,0.58-2.04,1.22c0,0.53,0.32,0.96,1.09,0.96C26.02,62.1,26.71,61.42,26.75,60.49z"/>
		<path d="M36.98,62.64c0.05-0.53,0.07-1.39,0.07-2.1v-1.5c0-0.92-0.35-1.42-1.1-1.42c-0.92,0-1.77,0.89-1.77,1.57v2.18
			c0,0.43,0.01,0.95,0.04,1.27h-0.95c0.04-0.53,0.06-1.39,0.06-2.1v-1.5c0-0.92-0.32-1.42-1.08-1.42c-0.92,0-1.77,0.89-1.77,1.57
			v2.18c0,0.43,0.01,0.92,0.04,1.27h-0.95c0.04-0.53,0.06-1.39,0.06-2.1v-1.41c0-0.72-0.02-1.57-0.07-2.1
			c0.33,0,0.56-0.02,0.84-0.05l0.06,1.11c0.45-0.62,1.19-1.23,2.02-1.23c0.87,0,1.47,0.46,1.63,1.26c0.35-0.59,1.1-1.26,2.07-1.26
			c1.09,0,1.73,0.67,1.73,1.98v2.52c0,0.43,0.01,0.95,0.04,1.27H36.98z"/>
	</g>
</g>
<g>
	<g>
		<path d="M77.16,50.78l0.42-3.06c0.12-0.88,0.29-2.21,0.35-2.88l0.26-0.06c0.26,0.66,0.56,1.29,0.82,1.88l2.45,5.54l2.45-5.52
			c0.25-0.56,0.64-1.44,0.82-1.91h0.25c0.05,0.47,0.28,2.29,0.36,2.82l0.42,3.12c0.11,0.8,0.36,2.33,0.48,2.97l-0.96,0.07
			c-0.04-0.4-0.12-1.24-0.22-1.91l-0.61-4.54c-0.54,1.22-2.75,6.15-2.87,6.48l-0.25,0.06l-2.87-6.53l-0.61,4.59
			c-0.06,0.52-0.17,1.36-0.2,1.77H76.7C76.85,52.94,77.05,51.64,77.16,50.78z"/>
		<path d="M90.24,53.88c-1.65,0-2.71-1.27-2.71-2.85c0-1.76,1.13-3.13,2.87-3.13c1.66,0,2.73,1.29,2.73,2.85
			C93.13,52.51,91.99,53.88,90.24,53.88z M90.35,48.66c-1.19,0-1.98,1-1.98,2.24c0,1.44,0.78,2.23,1.93,2.23
			c1.23,0,1.98-1,1.98-2.25C92.28,49.45,91.44,48.66,90.35,48.66z"/>
		<path d="M98.54,53.69c0.05-0.53,0.07-1.39,0.07-2.1v-1.5c0-0.92-0.38-1.42-1.18-1.42c-0.93,0-1.92,1-1.92,1.68v2.07
			c0,0.43,0.01,0.92,0.04,1.27H94.6c0.04-0.53,0.06-1.39,0.06-2.1v-1.41c0-0.72-0.02-1.57-0.06-2.1c0.32,0,0.56-0.02,0.84-0.05
			l0.06,1.23c0.42-0.68,1.29-1.34,2.17-1.34c1.11,0,1.79,0.67,1.79,1.98v2.52c0,0.43,0.02,0.95,0.04,1.27H98.54z"/>
	</g>
</g>
<path class="st0" d="M106.5,68.4H69.85c-1.63,0-2.94,1.32-2.94,2.94v18.4c0,1.63,1.32,2.94,2.94,2.94h36.66
	c1.63,0,2.94-1.32,2.94-2.94v-18.4C109.45,69.72,108.13,68.4,106.5,68.4z"/>
<path class="st1" d="M106.5,108.47H69.85c-1.63,0-2.94,1.32-2.94,2.94v18.4c0,1.63,1.32,2.94,2.94,2.94h36.66
	c1.63,0,2.94-1.32,2.94-2.94v-18.4C109.45,109.79,108.13,108.47,106.5,108.47z"/>
<path class="st1" d="M106.5,148.02H69.85c-1.63,0-2.94,1.32-2.94,2.94v18.4c0,1.63,1.32,2.94,2.94,2.94h36.66
	c1.63,0,2.94-1.32,2.94-2.94v-18.4C109.45,149.34,108.13,148.02,106.5,148.02z"/>
<path class="st1" d="M106.5,187.02H69.85c-1.63,0-2.94,1.32-2.94,2.94v18.4c0,1.63,1.32,2.94,2.94,2.94h36.66
	c1.63,0,2.94-1.32,2.94-2.94v-18.4C109.45,188.34,108.13,187.02,106.5,187.02z"/>
<g>
	<g>
		<path d="M266.76,53.91c-0.83,0-1.78-0.31-2.41-0.71l0.06-0.98c0.52,0.43,1.5,0.87,2.4,0.87c1.15,0,1.86-0.67,1.86-1.62
			c0-1.89-3.97-1.93-3.97-4.26c0-1.35,1.06-2.44,2.67-2.44c0.78,0,1.47,0.26,1.98,0.61l-0.3,0.8c-0.47-0.35-1.11-0.59-1.72-0.59
			c-1.06,0-1.73,0.64-1.73,1.51c0,1.79,3.97,1.78,3.97,4.24C269.57,52.73,268.53,53.91,266.76,53.91z"/>
		<path d="M270.7,52.23c0-1.05,0.89-1.86,2.9-1.86c0.24,0,0.46,0.01,0.67,0.04l0.01-0.24c0.04-1.01-0.4-1.51-1.31-1.51
			c-0.58,0-1.19,0.25-1.61,0.54l-0.2-0.75c0.59-0.35,1.22-0.54,1.93-0.54c1.34,0,2.07,0.8,2.03,2.18l-0.07,2.45
			c-0.01,0.46,0.11,0.61,0.38,0.61c0.16,0,0.32-0.05,0.49-0.12l-0.09,0.62c-0.17,0.09-0.4,0.17-0.66,0.17
			c-0.45,0-0.85-0.29-0.87-1.1c-0.31,0.66-1.03,1.13-1.87,1.13C271.35,53.83,270.7,53.17,270.7,52.23z M274.24,51.53l0.01-0.54
			c-0.22-0.03-0.46-0.04-0.68-0.04c-1.55,0-2.04,0.58-2.04,1.22c0,0.53,0.32,0.96,1.09,0.96C273.51,53.14,274.21,52.46,274.24,51.53
			z"/>
		<path d="M279.84,53.55c-0.24,0.19-0.66,0.31-1.05,0.31c-0.96,0-1.4-0.56-1.4-1.52v-3.56h-0.99l0.24-0.74h0.77l0.09-1.24l0.75-0.2
			v1.44h1.56c-0.02,0.21-0.04,0.41-0.04,0.74h-1.52v3.48c0,0.62,0.26,0.83,0.73,0.83c0.35,0,0.67-0.14,0.9-0.28L279.84,53.55z"/>
	</g>
</g>
<path class="st2" d="M290.36,68.4H253.7c-1.63,0-2.94,1.32-2.94,2.94v18.4c0,1.63,1.32,2.94,2.94,2.94h36.66
	c1.63,0,2.94-1.32,2.94-2.94v-18.4C293.3,69.72,291.99,68.4,290.36,68.4z"/>
<path class="st2" d="M290.36,108.47H253.7c-1.63,0-2.94,1.32-2.94,2.94v18.4c0,1.63,1.32,2.94,2.94,2.94h36.66
	c1.63,0,2.94-1.32,2.94-2.94v-18.4C293.3,109.79,291.99,108.47,290.36,108.47z"/>
<path class="st2" d="M290.36,148.02H253.7c-1.63,0-2.94,1.32-2.94,2.94v18.4c0,1.63,1.32,2.94,2.94,2.94h36.66
	c1.63,0,2.94-1.32,2.94-2.94v-18.4C293.3,149.34,291.99,148.02,290.36,148.02z"/>
<path class="st2" d="M290.36,187.02H253.7c-1.63,0-2.94,1.32-2.94,2.94v18.4c0,1.63,1.32,2.94,2.94,2.94h36.66
	c1.63,0,2.94-1.32,2.94-2.94v-18.4C293.3,188.34,291.99,187.02,290.36,187.02z"/>
<g>
	<g>
		<path d="M326.4,53.91c-0.83,0-1.78-0.31-2.41-0.71l0.06-0.98c0.52,0.43,1.5,0.87,2.4,0.87c1.15,0,1.86-0.67,1.86-1.62
			c0-1.89-3.97-1.93-3.97-4.26c0-1.35,1.06-2.44,2.67-2.44c0.78,0,1.47,0.26,1.98,0.61l-0.3,0.8c-0.47-0.35-1.11-0.59-1.72-0.59
			c-1.06,0-1.73,0.64-1.73,1.51c0,1.79,3.97,1.78,3.97,4.24C329.21,52.73,328.17,53.91,326.4,53.91z"/>
		<path d="M334.82,53.69l-0.11-1.06c-0.42,0.69-1.31,1.27-2.08,1.27c-1.16,0-1.89-0.64-1.89-2.13v-1.66c0-0.68-0.03-1.49-0.06-2.05
			c0.33,0,0.67-0.01,0.95-0.05c-0.02,0.33-0.04,0.92-0.04,1.36v2.2c0,1.08,0.41,1.56,1.26,1.56c0.79,0,1.83-0.88,1.83-1.55v-1.47
			c0-0.68-0.02-1.49-0.07-2.05c0.35,0,0.69-0.01,0.96-0.05c-0.02,0.33-0.04,0.92-0.04,1.36v2.23c0,0.72,0.03,1.54,0.07,2.09H334.82z
			"/>
		<path d="M341.37,53.69c0.05-0.53,0.07-1.39,0.07-2.1v-1.5c0-0.92-0.38-1.42-1.17-1.42c-0.93,0-1.92,1-1.92,1.68v2.07
			c0,0.43,0.01,0.92,0.04,1.27h-0.95c0.04-0.53,0.06-1.39,0.06-2.1v-1.41c0-0.72-0.02-1.57-0.06-2.1c0.32,0,0.56-0.02,0.84-0.05
			l0.06,1.23c0.42-0.68,1.29-1.34,2.17-1.34c1.11,0,1.79,0.67,1.79,1.98v2.52c0,0.43,0.02,0.95,0.04,1.27H341.37z"/>
	</g>
</g>
<path class="st0" d="M351.65,68.4h-36.66c-1.63,0-2.94,1.32-2.94,2.94v18.4c0,1.63,1.32,2.94,2.94,2.94h36.66
	c1.63,0,2.94-1.32,2.94-2.94v-18.4C354.59,69.72,353.27,68.4,351.65,68.4z"/>
<path class="st0" d="M351.65,108.47h-36.66c-1.63,0-2.94,1.32-2.94,2.94v18.4c0,1.63,1.32,2.94,2.94,2.94h36.66
	c1.63,0,2.94-1.32,2.94-2.94v-18.4C354.59,109.79,353.27,108.47,351.65,108.47z"/>
<path class="st0" d="M351.65,148.02h-36.66c-1.63,0-2.94,1.32-2.94,2.94v18.4c0,1.63,1.32,2.94,2.94,2.94h36.66
	c1.63,0,2.94-1.32,2.94-2.94v-18.4C354.59,149.34,353.27,148.02,351.65,148.02z"/>
<path class="st1" d="M351.65,187.02h-36.66c-1.63,0-2.94,1.32-2.94,2.94v18.4c0,1.63,1.32,2.94,2.94,2.94h36.66
	c1.63,0,2.94-1.32,2.94-2.94v-18.4C354.59,188.34,353.27,187.02,351.65,187.02z"/>
<path class="st0" d="M167.79,68.4h-36.66c-1.63,0-2.94,1.32-2.94,2.94v18.4c0,1.63,1.32,2.94,2.94,2.94h36.66
	c1.63,0,2.94-1.32,2.94-2.94v-18.4C170.73,69.72,169.42,68.4,167.79,68.4z"/>
<path class="st0" d="M167.79,108.47h-36.66c-1.63,0-2.94,1.32-2.94,2.94v18.4c0,1.63,1.32,2.94,2.94,2.94h36.66
	c1.63,0,2.94-1.32,2.94-2.94v-18.4C170.73,109.79,169.42,108.47,167.79,108.47z"/>
<path class="st1" d="M167.79,148.02h-36.66c-1.63,0-2.94,1.32-2.94,2.94v18.4c0,1.63,1.32,2.94,2.94,2.94h36.66
	c1.63,0,2.94-1.32,2.94-2.94v-18.4C170.73,149.34,169.42,148.02,167.79,148.02z"/>
<path class="st1" d="M167.79,187.02h-36.66c-1.63,0-2.94,1.32-2.94,2.94v18.4c0,1.63,1.32,2.94,2.94,2.94h36.66
	c1.63,0,2.94-1.32,2.94-2.94v-18.4C170.73,188.34,169.42,187.02,167.79,187.02z"/>
<g>
	<g>
		<path d="M141.66,45.77c-0.94-0.02-1.88-0.02-3.01-0.02c-0.01,0.3,0,0.74,0,1.04v5.12c0,0.47,0,1.44,0.02,1.78h-1
			c0.05-0.59,0.06-2.18,0.06-2.98v-2.7c0-0.62,0.01-1.61-0.01-2.26c-1.13,0-2.17,0.01-3.06,0.02c0.04-0.25,0.05-0.54,0.05-0.84
			c1.06,0.03,2.23,0.05,3.48,0.05s2.46-0.02,3.55-0.05C141.69,45.2,141.67,45.46,141.66,45.77z"/>
		<path d="M146.92,53.69c0.05-0.53,0.07-1.39,0.07-2.1v-1.5c0-0.92-0.38-1.42-1.18-1.42c-0.93,0-1.92,1-1.92,1.68v2.12
			c0,0.43,0.01,0.87,0.04,1.23h-0.95c0.04-0.53,0.06-1.32,0.06-2.05v-4.65c0-0.84-0.01-1.51-0.06-2.08
			c0.32-0.02,0.67-0.06,0.95-0.12c-0.03,0.22-0.04,0.93-0.04,1.42v3.03c0.42-0.68,1.27-1.32,2.15-1.32c1.11,0,1.79,0.67,1.79,1.98
			v2.52c0,0.43,0.02,0.95,0.04,1.27H146.92z"/>
		<path d="M153.82,53.69l-0.11-1.06c-0.42,0.69-1.31,1.27-2.08,1.27c-1.16,0-1.89-0.64-1.89-2.13v-1.66c0-0.68-0.02-1.49-0.06-2.05
			c0.33,0,0.67-0.01,0.95-0.05c-0.02,0.33-0.04,0.92-0.04,1.36v2.2c0,1.08,0.41,1.56,1.26,1.56c0.79,0,1.83-0.88,1.83-1.55v-1.47
			c0-0.68-0.03-1.49-0.07-2.05c0.35,0,0.69-0.01,0.96-0.05c-0.02,0.33-0.04,0.92-0.04,1.36v2.23c0,0.72,0.03,1.54,0.07,2.09H153.82z
			"/>
		<path d="M159.22,48.9c-0.94-0.1-1.88,0.62-1.88,1.51v2c0,0.43,0.01,0.92,0.04,1.27h-0.95c0.05-0.53,0.06-1.39,0.06-2.1V50
			c0-0.72-0.04-1.36-0.11-1.88c0.28-0.01,0.58-0.06,0.85-0.12l0.1,1.27c0.38-0.73,1-1.26,2-1.36L159.22,48.9z"/>
		<path d="M163.86,48.35l-0.3,0.75c-0.37-0.26-0.84-0.43-1.37-0.43c-0.59,0-1.1,0.26-1.1,0.83c0,1.09,2.97,0.85,2.97,2.59
			c0,1.13-1,1.79-2.13,1.79c-0.64,0-1.42-0.19-1.86-0.47l0.05-0.9c0.47,0.35,1.16,0.61,1.83,0.61c0.69,0,1.26-0.31,1.26-0.89
			c0-1.24-2.97-0.9-2.97-2.69c0-0.92,0.82-1.63,1.96-1.63C162.9,47.91,163.49,48.13,163.86,48.35z"/>
	</g>
</g>
<path class="st0" d="M229.08,68.4h-36.66c-1.63,0-2.94,1.32-2.94,2.94v18.4c0,1.63,1.32,2.94,2.94,2.94h36.66
	c1.63,0,2.94-1.32,2.94-2.94v-18.4C232.02,69.72,230.7,68.4,229.08,68.4z"/>
<path class="st0" d="M229.08,108.47h-36.66c-1.63,0-2.94,1.32-2.94,2.94v18.4c0,1.63,1.32,2.94,2.94,2.94h36.66
	c1.63,0,2.94-1.32,2.94-2.94v-18.4C232.02,109.79,230.7,108.47,229.08,108.47z"/>
<path class="st0" d="M229.08,148.02h-36.66c-1.63,0-2.94,1.32-2.94,2.94v18.4c0,1.63,1.32,2.94,2.94,2.94h36.66
	c1.63,0,2.94-1.32,2.94-2.94v-18.4C232.02,149.34,230.7,148.02,229.08,148.02z"/>
<path class="st1" d="M229.08,187.02h-36.66c-1.63,0-2.94,1.32-2.94,2.94v18.4c0,1.63,1.32,2.94,2.94,2.94h36.66
	c1.63,0,2.94-1.32,2.94-2.94v-18.4C232.02,188.34,230.7,187.02,229.08,187.02z"/>
<g>
	<g>
		<path d="M210.32,45.74c-0.72,0-1.47-0.01-2.34-0.01c-0.36,0-1.03,0-1.37,0.01c-0.01,0.3-0.01,0.75-0.01,1v2.1l3.13-0.01
			c-0.03,0.23-0.04,0.52-0.04,0.79l-3.09-0.01v2.29c0,0.48,0,1.44,0.02,1.78h-1c0.05-0.59,0.06-2.18,0.06-2.98v-2.73
			c0-0.79-0.01-2.45-0.06-3.04c0.69,0.03,1.52,0.05,2.36,0.05c0.85,0,1.7-0.02,2.41-0.05C210.35,45.2,210.34,45.43,210.32,45.74z"/>
		<path d="M214.02,48.9c-0.94-0.1-1.88,0.62-1.88,1.51v2c0,0.43,0.01,0.92,0.04,1.27h-0.95c0.05-0.53,0.06-1.39,0.06-2.1V50
			c0-0.72-0.04-1.36-0.11-1.88c0.28-0.01,0.58-0.06,0.85-0.12l0.1,1.27c0.38-0.73,1-1.26,2-1.36L214.02,48.9z"/>
		<path d="M215.8,46.66c-0.36,0-0.59-0.28-0.59-0.58c0-0.35,0.25-0.64,0.62-0.64c0.36,0,0.59,0.28,0.59,0.59
			C216.42,46.37,216.17,46.66,215.8,46.66z M215.29,53.69c0.05-0.53,0.06-1.32,0.06-2.05v-1.45c0-0.72-0.02-1.6-0.07-2.13
			c0.33,0,0.68-0.01,0.96-0.05c-0.02,0.22-0.04,1.11-0.04,1.41v3.04c0,0.43,0.01,0.9,0.04,1.23H215.29z"/>
	</g>
</g>
<g>
	<line class="st3" x1="47.59" y1="100.5" x2="354.59" y2="100.5"/>
	<line class="st3" x1="47.59" y1="140.5" x2="354.59" y2="140.5"/>
	<line class="st3" x1="47.59" y1="60.7" x2="354.59" y2="60.7"/>
	<line class="st3" x1="47.59" y1="179.5" x2="354.59" y2="179.5"/>
	<line class="st3" x1="47.59" y1="218.5" x2="354.59" y2="218.5"/>
</g>
<g>
	<g>
		<g>
			<path d="M255.25,241.26l-2.66-0.82c-1.33-0.04-2.23-1.11-2.23-2.36c0-1.46,0.99-2.61,2.43-2.61c1.38,0,2.31,1.09,2.31,2.37
				c0,1.07-0.53,1.98-1.39,2.38l0.84,0.24c0.36,0.1,0.9,0.22,1.13,0.26L255.25,241.26z M254.42,237.96c0-1.19-0.72-1.93-1.68-1.93
				c-1.01,0-1.7,0.89-1.7,1.93c0,1.19,0.72,1.93,1.68,1.93C253.73,239.89,254.42,239,254.42,237.96z"/>
			<path d="M260.63,236.55v1.81c0,0.79-0.17,1.2-0.52,1.54c-0.36,0.36-0.83,0.55-1.49,0.55c-1.06,0-1.81-0.67-1.81-1.74v-1.5
				c0-0.43-0.01-1.3-0.05-1.63c0.27,0,0.51-0.01,0.74-0.03c-0.02,0.2-0.03,0.74-0.03,1v1.94c0,1,0.5,1.37,1.27,1.37
				c0.77,0,1.22-0.47,1.22-1.23v-1.42c0-0.43-0.01-1.3-0.05-1.63c0.27,0,0.52-0.01,0.75-0.03
				C260.63,235.75,260.63,236.29,260.63,236.55z"/>
			<path d="M262.64,240.33c0.03-0.32,0.05-1.19,0.05-1.62v-1.49c0-0.43-0.01-1.3-0.05-1.63c0.26,0,0.51-0.01,0.73-0.03
				c-0.01,0.2-0.02,0.74-0.02,1v2.81c0,0.26,0.01,0.78,0.02,0.97H262.64z"/>
			<path d="M268.19,240.36c-0.4-0.03-0.9-0.03-1.38-0.03c-0.48,0-0.99,0.01-1.38,0.03c0.03-0.32,0.05-1.21,0.05-1.65v-1.49
				c0-0.43-0.01-1.34-0.05-1.67c0.39,0.02,0.85,0.03,1.33,0.03c0.48,0,0.94-0.01,1.34-0.03c-0.03,0.2-0.05,0.37-0.05,0.59
				c-0.4-0.01-0.81-0.01-1.29-0.01c-0.2,0-0.42,0-0.61,0.01c-0.01,0.13-0.01,0.31-0.01,0.41v1.02l1.65-0.01
				c-0.01,0.16-0.02,0.38-0.02,0.58l-1.62-0.01v1.25c0,0.1,0,0.29,0.01,0.42c0.2,0,0.41,0.01,0.61,0.01c0.55,0,1.02-0.01,1.48-0.02
				C268.21,239.95,268.2,240.14,268.19,240.36z"/>
			<path d="M273.18,236.15c-0.52-0.01-0.97-0.01-1.58-0.01c-0.01,0.15-0.01,0.32-0.01,0.44v2.79c0,0.26,0.01,0.78,0.02,0.97h-0.73
				c0.03-0.32,0.05-1.19,0.05-1.62v-1.46c0-0.28,0-0.73-0.01-1.11c-0.61,0-1.09,0.01-1.6,0.01c0.02-0.17,0.03-0.39,0.03-0.6
				c0.61,0.02,1.19,0.03,1.92,0.03c0.74,0,1.35-0.01,1.97-0.03C273.2,235.74,273.19,235.93,273.18,236.15z"/>
			<path d="M277.55,240.36c-0.4-0.03-0.9-0.03-1.38-0.03c-0.48,0-0.99,0.01-1.38,0.03c0.03-0.32,0.05-1.21,0.05-1.65v-1.49
				c0-0.43-0.01-1.34-0.05-1.67c0.39,0.02,0.85,0.03,1.33,0.03c0.48,0,0.94-0.01,1.34-0.03c-0.03,0.2-0.05,0.37-0.05,0.59
				c-0.4-0.01-0.81-0.01-1.29-0.01c-0.2,0-0.42,0-0.61,0.01c-0.01,0.13-0.01,0.31-0.01,0.41v1.02l1.65-0.01
				c-0.01,0.16-0.02,0.38-0.02,0.58l-1.62-0.01v1.25c0,0.1,0,0.29,0.01,0.42c0.2,0,0.41,0.01,0.61,0.01c0.55,0,1.02-0.01,1.48-0.02
				C277.57,239.95,277.56,240.14,277.55,240.36z"/>
			<path d="M281.82,240.38l-1.22-1.92h-0.75v0.9c0,0.26,0.01,0.78,0.02,0.97h-0.73c0.03-0.32,0.05-1.19,0.05-1.62v-1.49
				c0-0.43-0.01-1.3-0.05-1.63c0.24,0,0.93-0.03,1.24-0.03c1.18-0.02,1.83,0.63,1.81,1.38c-0.02,0.65-0.36,1.09-1,1.38l0.7,1.02
				c0.18,0.26,0.55,0.78,0.71,0.96L281.82,240.38z M280.55,237.91c0.61,0,0.96-0.41,0.96-0.89c0-0.58-0.36-0.89-1.07-0.89
				c-0.22,0-0.42,0.01-0.6,0.02v1.76H280.55z"/>
		</g>
	</g>
	<g>
		<g>
			<path d="M327.66,240.33c0.03-0.32,0.05-1.19,0.05-1.62v-1.49c0-0.43-0.01-1.3-0.05-1.63c0.24,0,1-0.03,1.3-0.03
				c1.21,0,1.67,0.67,1.67,1.22c0,0.49-0.32,0.84-0.73,1.01c0.63,0.2,0.95,0.63,0.95,1.17c0,0.74-0.61,1.38-1.76,1.38H327.66z
				 M328.86,237.59c0.71,0,1.1-0.28,1.1-0.75c0-0.46-0.37-0.71-1.05-0.71c-0.26,0-0.42,0.01-0.55,0.02c-0.01,0.12-0.01,0.3-0.01,0.4
				v0.65c0,0.14,0,0.28,0.01,0.38C328.51,237.58,328.69,237.59,328.86,237.59z M329.04,239.76c0.69,0,1.13-0.26,1.13-0.83
				c0-0.47-0.38-0.8-1.25-0.8c-0.21,0-0.39,0-0.56,0.02v1.21c0,0.11,0,0.23,0.01,0.36C328.56,239.74,328.83,239.76,329.04,239.76z"
				/>
			<path d="M336.32,236.55v1.81c0,0.79-0.17,1.2-0.52,1.54c-0.36,0.36-0.83,0.55-1.49,0.55c-1.06,0-1.81-0.67-1.81-1.74v-1.5
				c0-0.43-0.01-1.3-0.05-1.63c0.27,0,0.51-0.01,0.74-0.03c-0.02,0.2-0.03,0.74-0.03,1v1.94c0,1,0.5,1.37,1.27,1.37
				c0.77,0,1.22-0.47,1.22-1.23v-1.42c0-0.43-0.01-1.3-0.05-1.63c0.27,0,0.52-0.01,0.75-0.03
				C336.33,235.75,336.32,236.29,336.32,236.55z"/>
			<path d="M339.29,240.45c-0.44,0-0.98-0.17-1.33-0.4l0.04-0.7c0.27,0.24,0.82,0.51,1.33,0.51c0.51,0,0.87-0.26,0.87-0.77
				c0-0.93-2.05-1-2.05-2.25c0-0.76,0.61-1.37,1.49-1.37c0.45,0,0.84,0.15,1.1,0.35l-0.22,0.58c-0.23-0.19-0.61-0.34-0.91-0.34
				c-0.48,0-0.8,0.28-0.8,0.69c0,0.86,2.05,0.89,2.05,2.24C340.87,239.81,340.27,240.45,339.29,240.45z"/>
			<path d="M342.57,240.33c0.03-0.32,0.05-1.19,0.05-1.62v-1.49c0-0.43-0.01-1.3-0.05-1.63c0.26,0,0.51-0.01,0.73-0.03
				c-0.01,0.2-0.02,0.74-0.02,1v2.81c0,0.26,0.01,0.78,0.02,0.97H342.57z"/>
			<path d="M348.13,240.36c-0.4-0.03-0.9-0.03-1.38-0.03c-0.48,0-0.99,0.01-1.38,0.03c0.03-0.32,0.05-1.21,0.05-1.65v-1.49
				c0-0.43-0.01-1.34-0.05-1.67c0.39,0.02,0.85,0.03,1.33,0.03c0.48,0,0.94-0.01,1.34-0.03c-0.03,0.2-0.05,0.37-0.05,0.59
				c-0.4-0.01-0.81-0.01-1.29-0.01c-0.2,0-0.42,0-0.61,0.01c-0.01,0.13-0.01,0.31-0.01,0.41v1.02l1.65-0.01
				c-0.01,0.16-0.02,0.38-0.02,0.58l-1.62-0.01v1.25c0,0.1,0,0.29,0.01,0.42c0.2,0,0.41,0.01,0.61,0.01c0.55,0,1.02-0.01,1.48-0.02
				C348.15,239.95,348.13,240.14,348.13,240.36z"/>
			<path d="M352.39,240.38l-1.22-1.92h-0.75v0.9c0,0.26,0.01,0.78,0.02,0.97h-0.73c0.03-0.32,0.05-1.19,0.05-1.62v-1.49
				c0-0.43-0.01-1.3-0.05-1.63c0.24,0,0.93-0.03,1.24-0.03c1.18-0.02,1.83,0.63,1.81,1.38c-0.02,0.65-0.36,1.09-1,1.38l0.7,1.02
				c0.18,0.26,0.55,0.78,0.71,0.96L352.39,240.38z M351.13,237.91c0.61,0,0.96-0.41,0.96-0.89c0-0.58-0.36-0.89-1.07-0.89
				c-0.22,0-0.42,0.01-0.6,0.02v1.76H351.13z"/>
		</g>
	</g>
	<linearGradient id="SVGID_1_" gradientUnits="userSpaceOnUse" x1="250.4248" y1="246.5" x2="353.4248" y2="246.5">
		<stop  offset="0" style="stop-color:#E6E6E6"/>
		<stop  offset="1" style="stop-color:#4D4D4D"/>
	</linearGradient>
	<rect x="250.42" y="244" class="st4" width="103" height="5"/>
</g>
</svg>
