<?xml version="1.0" encoding="utf-8"?>
<!-- Generator: Adobe Illustrator 22.0.1, SVG Export Plug-In . SVG Version: 6.00 Build 0)  -->
<svg version="1.1" id="Layer_1" xmlns="http://www.w3.org/2000/svg" xmlns:xlink="http://www.w3.org/1999/xlink" x="0px" y="0px"
	 viewBox="0 0 385 260" style="enable-background:new 0 0 385 260;" xml:space="preserve">
<style type="text/css">
	.st0{enable-background:new    ;}
	.st1{fill:#B3B3B3;}
	.st2{fill:#E6E6E6;}
	.st3{fill:#515151;}
	.st4{fill:none;stroke:#E6E6E6;stroke-miterlimit:10;}
	.st5{fill:url(#SVGID_1_);}
</style>
<g class="st0">
	<path d="M18.4,22.5c-0.2,0-0.4,0-0.7,0v1.7c0,0.5,0,1.4,0,1.8h-0.9c0-0.6,0.1-2.1,0.1-2.9v-2.7c0-0.8,0-2.4-0.1-3c0.4,0,1.3,0,2,0
		c2,0,3.1,1.1,3.1,2.5C21.9,21.3,20.9,22.5,18.4,22.5z M18.7,18c-0.3,0-0.6,0-1,0v3.7c0.2,0,0.5,0,0.7,0c1.8,0,2.6-0.8,2.6-1.9
		C21.1,18.6,20.3,18,18.7,18z"/>
</g>
<g class="st0">
	<path d="M33.1,21.4c0,2.6-1.8,4.7-4.4,4.7c-2.5,0-4.2-2-4.2-4.3c0-2.6,1.8-4.7,4.4-4.7C31.5,17.1,33.1,19.1,33.1,21.4z M32.2,21.6
		c0-2.1-1.4-3.7-3.3-3.7c-2.1,0-3.5,1.7-3.5,3.8c0,2.2,1.4,3.7,3.3,3.7C30.9,25.4,32.2,23.7,32.2,21.6z"/>
	<path d="M37.8,22.5c-0.2,0-0.4,0-0.7,0v1.7c0,0.5,0,1.4,0,1.8h-0.9c0-0.6,0.1-2.1,0.1-2.9v-2.7c0-0.8,0-2.4-0.1-3c0.4,0,1.3,0,2,0
		c2,0,3.1,1.1,3.1,2.5C41.4,21.3,40.3,22.5,37.8,22.5z M38.1,18c-0.3,0-0.6,0-1,0v3.7c0.2,0,0.5,0,0.7,0c1.8,0,2.6-0.8,2.6-1.9
		C40.5,18.6,39.7,18,38.1,18z"/>
	<path d="M50.7,19.1v3.4c0,1.3-0.3,2.1-0.9,2.7c-0.6,0.6-1.4,0.9-2.5,0.9c-1.9,0-3.2-1.2-3.2-3.1v-2.7c0-0.8,0-2.4-0.1-2.9
		c0.3,0,0.7,0,0.9,0c0,0.4,0,1.3,0,1.8v3.6c0,1.9,1,2.7,2.6,2.7c1.5,0,2.5-0.9,2.5-2.5v-2.6c0-0.8,0-2.4-0.1-2.9c0.3,0,0.7,0,1,0
		C50.8,17.6,50.7,18.6,50.7,19.1z"/>
	<path d="M59.2,25.9c-0.7,0-1.6,0-2.4,0s-1.7,0-2.4,0c0-0.6,0.1-2.2,0.1-3v-2.7c0-0.8,0-2.4-0.1-2.9c0.3,0,0.7,0,0.9,0
		c0,0.4,0,1.3,0,1.8v5.1c0,0.3,0,0.8,0,1c0.3,0,1.1,0,1.4,0c0.9,0,1.8,0,2.6,0C59.3,25.4,59.2,25.7,59.2,25.9z"/>
	<path d="M63.6,19.8c0.5-1.2,0.9-1.9,1.1-2.6l0.2-0.1l2.9,6.5c0.4,0.9,0.8,1.8,1.1,2.3L68,26l-1.3-2.9H63l-0.2,0.5
		c-0.4,0.8-0.8,1.8-0.9,2.3h-1L63.6,19.8z M63.3,22.4h3.2l-1.6-3.6L63.3,22.4z"/>
	<path d="M76.5,26l-2.4-3.7c-0.1,0-0.2,0-0.3,0h-1.3v1.9c0,0.5,0,1.4,0,1.8h-0.9c0-0.6,0.1-2.1,0.1-2.9v-2.7c0-0.8,0-2.4-0.1-3
		c0.5,0,1.6,0,2.1,0c2,0,3.1,1.1,3,2.4c0,1.2-0.7,2-1.8,2.4l1.3,2c0.3,0.5,1,1.4,1.3,1.8L76.5,26z M73.9,21.6c1.2,0,2-0.9,2-1.8
		c0-1.1-0.7-1.7-2.1-1.7c-0.4,0-0.9,0-1.3,0v3.5H73.9z"/>
	<path d="M89.9,25.9c0-0.6,0.1-2.1,0.1-2.9v-1.2h-5v2.4c0,0.5,0,1.4,0,1.8h-0.9c0-0.6,0.1-2.1,0.1-2.9v-2.7c0-0.8,0-2.4-0.1-2.9
		c0.3,0,0.7,0,0.9,0c0,0.4,0,1.3,0,1.8v2h5v-0.8c0-0.8,0-2.4-0.1-2.9c0.3,0,0.7,0,1,0c0,0.4,0,1.3,0,1.8v5.1c0,0.5,0,1.4,0,1.8H89.9
		z"/>
	<path d="M102.6,21.4c0,2.6-1.8,4.7-4.4,4.7c-2.5,0-4.2-2-4.2-4.3c0-2.6,1.8-4.7,4.4-4.7C100.9,17.1,102.6,19.1,102.6,21.4z
		 M101.7,21.6c0-2.1-1.4-3.7-3.3-3.7c-2.1,0-3.5,1.7-3.5,3.8c0,2.2,1.4,3.7,3.3,3.7C100.3,25.4,101.7,23.7,101.7,21.6z"/>
	<path d="M112.3,19.1v3.4c0,1.3-0.3,2.1-0.9,2.7c-0.6,0.6-1.4,0.9-2.5,0.9c-1.9,0-3.2-1.2-3.2-3.1v-2.7c0-0.8,0-2.4-0.1-2.9
		c0.3,0,0.7,0,0.9,0c0,0.4,0,1.3,0,1.8v3.6c0,1.9,1,2.7,2.6,2.7c1.5,0,2.5-0.9,2.5-2.5v-2.6c0-0.8,0-2.4-0.1-2.9c0.3,0,0.7,0,1,0
		C112.3,17.6,112.3,18.6,112.3,19.1z"/>
	<path d="M120.8,26l-2.4-3.7c-0.1,0-0.2,0-0.3,0h-1.3v1.9c0,0.5,0,1.4,0,1.8h-0.9c0-0.6,0.1-2.1,0.1-2.9v-2.7c0-0.8,0-2.4-0.1-3
		c0.5,0,1.6,0,2.1,0c2,0,3.1,1.1,3,2.4c0,1.2-0.7,2-1.8,2.4l1.3,2c0.3,0.5,1,1.4,1.3,1.8L120.8,26z M118.3,21.6c1.2,0,2-0.9,2-1.8
		c0-1.1-0.7-1.7-2.1-1.7c-0.4,0-0.9,0-1.3,0v3.5H118.3z"/>
	<path d="M126.3,26.1c-0.8,0-1.8-0.3-2.4-0.7l0.1-0.9c0.5,0.4,1.5,0.8,2.4,0.8c1.2,0,1.9-0.7,1.9-1.6c0-1.9-4-1.9-4-4.2
		c0-1.3,1-2.4,2.6-2.4c0.8,0,1.5,0.2,2,0.6l-0.3,0.7c-0.5-0.3-1.1-0.6-1.7-0.6c-1.1,0-1.7,0.6-1.7,1.5c0,1.8,4,1.8,4,4.2
		C129,25,128,26.1,126.3,26.1z"/>
</g>
<g class="st0">
	<path d="M253.7,27.8c0,1.2-0.6,2.1-1.6,2.5l0.8,0.2c0.3,0.1,1,0.3,1.3,0.3l-0.3,0.4l-2.6-0.8c-1.3,0-2.3-1.1-2.3-2.4
		c0-1.5,1-2.6,2.4-2.6C252.7,25.5,253.7,26.6,253.7,27.8z M253.2,27.9c0-1.2-0.8-2-1.8-2c-1.1,0-1.9,1-1.9,2.1c0,1.2,0.8,2,1.8,2
		C252.4,30,253.2,29.1,253.2,27.9z"/>
	<path d="M259.1,26.6v1.9c0,0.7-0.2,1.2-0.5,1.5c-0.3,0.3-0.8,0.5-1.4,0.5c-1,0-1.8-0.6-1.8-1.7v-1.5c0-0.4,0-1.3,0-1.6
		c0.2,0,0.4,0,0.5,0c0,0.2,0,0.7,0,1v2c0,1,0.5,1.5,1.4,1.5c0.8,0,1.4-0.5,1.4-1.4v-1.4c0-0.4,0-1.3,0-1.6c0.2,0,0.4,0,0.5,0
		C259.1,25.8,259.1,26.3,259.1,26.6z"/>
	<path d="M261.1,30.3c0-0.3,0-1.2,0-1.6v-1.5c0-0.4,0-1.3,0-1.6c0.2,0,0.4,0,0.5,0c0,0.2,0,0.7,0,1v2.8c0,0.3,0,0.8,0,1H261.1z"/>
	<path d="M266.4,30.4c-0.4,0-0.9,0-1.4,0c-0.5,0-0.9,0-1.3,0c0-0.3,0-1.2,0-1.6v-1.5c0-0.4,0-1.3,0-1.6c0.4,0,0.8,0,1.3,0
		c0.5,0,0.9,0,1.3,0c0,0.1,0,0.3,0,0.4c-0.4,0-0.8,0-1.3,0c-0.2,0-0.6,0-0.8,0c0,0.2,0,0.4,0,0.6v1.1h1.8c0,0.1,0,0.2,0,0.4h-1.8
		v1.3c0,0.1,0,0.4,0,0.6c0.2,0,0.5,0,0.8,0c0.5,0,1,0,1.4,0C266.4,30.1,266.4,30.2,266.4,30.4z"/>
	<path d="M271.3,26c-0.5,0-1,0-1.6,0c0,0.2,0,0.4,0,0.6v2.8c0,0.3,0,0.8,0,1h-0.5c0-0.3,0-1.2,0-1.6v-1.5c0-0.3,0-0.9,0-1.2
		c-0.6,0-1.2,0-1.7,0c0-0.1,0-0.3,0-0.4c0.6,0,1.2,0,1.9,0c0.7,0,1.3,0,1.9,0C271.3,25.7,271.3,25.8,271.3,26z"/>
	<path d="M275.5,30.4c-0.4,0-0.9,0-1.4,0c-0.5,0-0.9,0-1.3,0c0-0.3,0-1.2,0-1.6v-1.5c0-0.4,0-1.3,0-1.6c0.4,0,0.8,0,1.3,0
		c0.5,0,0.9,0,1.3,0c0,0.1,0,0.3,0,0.4c-0.4,0-0.8,0-1.3,0c-0.2,0-0.6,0-0.8,0c0,0.2,0,0.4,0,0.6v1.1h1.8c0,0.1,0,0.2,0,0.4h-1.8
		v1.3c0,0.1,0,0.4,0,0.6c0.2,0,0.5,0,0.8,0c0.5,0,1,0,1.4,0C275.5,30.1,275.5,30.2,275.5,30.4z"/>
	<path d="M279.9,30.4l-1.3-2c0,0-0.1,0-0.2,0h-0.7v1c0,0.3,0,0.8,0,1h-0.5c0-0.3,0-1.2,0-1.6v-1.5c0-0.4,0-1.3,0-1.6
		c0.3,0,0.9,0,1.2,0c1.1,0,1.7,0.6,1.7,1.3c0,0.7-0.4,1.1-1,1.3l0.7,1.1c0.2,0.3,0.5,0.8,0.7,1L279.9,30.4z M278.5,27.9
		c0.7,0,1.1-0.5,1.1-1c0-0.6-0.4-1-1.2-1c-0.2,0-0.5,0-0.7,0v1.9H278.5z"/>
</g>
<g class="st0">
	<path d="M326.3,30.3c0-0.3,0-1.2,0-1.6v-1.5c0-0.4,0-1.3,0-1.6c0.2,0,0.8,0,1.2,0c1.2,0,1.6,0.6,1.6,1.2c0,0.5-0.3,0.9-0.8,1.1
		c0.7,0.2,1.1,0.6,1.1,1.2c0,0.8-0.6,1.3-1.7,1.3H326.3z M327.4,27.7c0.8,0,1.2-0.4,1.2-0.9c0-0.5-0.4-0.8-1.2-0.8
		c-0.3,0-0.5,0-0.6,0v1.7C326.9,27.7,327.2,27.7,327.4,27.7z M327.5,29.9c0.8,0,1.3-0.3,1.3-0.9c0-0.6-0.4-0.9-1.4-0.9
		c-0.2,0-0.4,0-0.6,0v1.3c0,0.2,0,0.4,0,0.5C327,29.9,327.3,29.9,327.5,29.9z"/>
	<path d="M334.6,26.6v1.9c0,0.7-0.2,1.2-0.5,1.5c-0.3,0.3-0.8,0.5-1.4,0.5c-1,0-1.8-0.6-1.8-1.7v-1.5c0-0.4,0-1.3,0-1.6
		c0.2,0,0.4,0,0.5,0c0,0.2,0,0.7,0,1v2c0,1,0.5,1.5,1.4,1.5c0.8,0,1.4-0.5,1.4-1.4v-1.4c0-0.4,0-1.3,0-1.6c0.2,0,0.4,0,0.5,0
		C334.6,25.8,334.6,26.3,334.6,26.6z"/>
	<path d="M337.5,30.5c-0.5,0-1-0.2-1.3-0.4l0-0.5c0.3,0.2,0.8,0.5,1.3,0.5c0.6,0,1-0.4,1-0.9c0-1-2.2-1.1-2.2-2.3
		c0-0.7,0.6-1.3,1.4-1.3c0.4,0,0.8,0.1,1.1,0.3l-0.2,0.4c-0.3-0.2-0.6-0.3-0.9-0.3c-0.6,0-1,0.4-1,0.8c0,1,2.2,1,2.2,2.3
		C339.1,29.8,338.5,30.5,337.5,30.5z"/>
	<path d="M340.8,30.3c0-0.3,0-1.2,0-1.6v-1.5c0-0.4,0-1.3,0-1.6c0.2,0,0.4,0,0.5,0c0,0.2,0,0.7,0,1v2.8c0,0.3,0,0.8,0,1H340.8z"/>
	<path d="M346.1,30.4c-0.4,0-0.9,0-1.4,0c-0.5,0-0.9,0-1.3,0c0-0.3,0-1.2,0-1.6v-1.5c0-0.4,0-1.3,0-1.6c0.4,0,0.8,0,1.3,0
		c0.5,0,0.9,0,1.3,0c0,0.1,0,0.3,0,0.4c-0.4,0-0.8,0-1.3,0c-0.2,0-0.6,0-0.8,0c0,0.2,0,0.4,0,0.6v1.1h1.8c0,0.1,0,0.2,0,0.4h-1.8
		v1.3c0,0.1,0,0.4,0,0.6c0.2,0,0.5,0,0.8,0c0.5,0,1,0,1.4,0C346.1,30.1,346.1,30.2,346.1,30.4z"/>
	<path d="M350.4,30.4l-1.3-2c0,0-0.1,0-0.2,0h-0.7v1c0,0.3,0,0.8,0,1h-0.5c0-0.3,0-1.2,0-1.6v-1.5c0-0.4,0-1.3,0-1.6
		c0.3,0,0.9,0,1.2,0c1.1,0,1.7,0.6,1.7,1.3c0,0.7-0.4,1.1-1,1.3l0.7,1.1c0.2,0.3,0.5,0.8,0.7,1L350.4,30.4z M349,27.9
		c0.7,0,1.1-0.5,1.1-1c0-0.6-0.4-1-1.2-1c-0.2,0-0.5,0-0.7,0v1.9H349z"/>
</g>
<g class="st0">
	<path d="M16.1,248.8c0-0.4,0-1.4,0-1.9v-1.8c0-0.5,0-1.5,0-1.9c0.2,0,0.8,0,1.2,0c1.3,0,1.9,0.6,1.9,1.4c0,0.6-0.4,1.1-1.1,1.3
		c0.9,0.2,1.4,0.7,1.4,1.4c0,0.9-0.8,1.6-2,1.6H16.1z M17.3,245.7c1.1,0,1.5-0.5,1.5-1.1c0-0.7-0.4-1.1-1.5-1.1c-0.3,0-0.6,0-0.8,0
		v2.2H17.3z M17.5,248.5c1,0,1.6-0.4,1.6-1.2c0-0.7-0.6-1.2-1.9-1.2c-0.3,0-0.5,0-0.8,0v1.6c0,0.3,0,0.6,0,0.8
		C16.9,248.4,17.2,248.5,17.5,248.5z"/>
	<path d="M20.2,247.9c0-0.6,0.5-1.1,1.8-1.1c0.2,0,0.4,0,0.6,0l0-0.2c0-0.8-0.3-1.1-0.9-1.1c-0.4,0-0.8,0.2-1.1,0.4l-0.1-0.3
		c0.4-0.2,0.7-0.4,1.2-0.4c0.7,0,1.3,0.4,1.2,1.4l0,1.6c0,0.4,0.1,0.5,0.3,0.5c0.1,0,0.2,0,0.2-0.1l0.1,0.2
		c-0.1,0.1-0.2,0.2-0.4,0.2c-0.3,0-0.5-0.1-0.5-0.8c-0.2,0.5-0.7,0.8-1.3,0.8C20.6,248.9,20.2,248.4,20.2,247.9z M22.6,247.4l0-0.4
		c-0.2,0-0.4,0-0.6,0c-1.1,0-1.4,0.4-1.4,0.9c0,0.4,0.2,0.7,0.8,0.7C22,248.6,22.6,248.1,22.6,247.4z"/>
	<path d="M26.2,245.4l-0.1,0.3c-0.2-0.2-0.5-0.3-0.9-0.3c-0.5,0-0.8,0.2-0.8,0.7c0,0.8,2,0.6,2,1.7c0,0.7-0.6,1.1-1.3,1.1
		c-0.4,0-0.9-0.1-1.1-0.3l0-0.4c0.3,0.2,0.7,0.3,1.1,0.3c0.5,0,0.9-0.3,0.9-0.7c0-0.9-2-0.7-2-1.7c0-0.6,0.5-1,1.2-1
		C25.7,245.1,26,245.3,26.2,245.4z"/>
	<path d="M30.1,246.9l-2.6,0.1c0,1,0.6,1.6,1.4,1.6c0.6,0,1-0.2,1.3-0.5l0,0.4c-0.3,0.3-0.7,0.5-1.4,0.5c-1,0-1.7-0.8-1.7-1.8
		c0-1.1,0.7-2,1.8-2c1,0,1.4,0.7,1.4,1.7L30.1,246.9z M30,246.7c0-0.8-0.5-1.3-1.2-1.3c-0.7,0-1.3,0.6-1.4,1.3L30,246.7z"/>
	<path d="M34,245.5v-1c0-0.6,0-1,0-1.4c0.1,0,0.3,0,0.4,0c0,0.1,0,0.6,0,1v3.8c0,0.4,0,0.7,0,1h-0.3l0-0.5c-0.2,0.2-0.7,0.6-1.3,0.6
		c-1,0-1.6-0.8-1.6-1.8c0-1.1,0.7-2,1.8-2C33.4,245.1,33.8,245.3,34,245.5z M31.5,247c0,0.9,0.5,1.5,1.3,1.5c0.5,0,0.9-0.3,1.2-0.7
		v-2.1c-0.2-0.2-0.6-0.4-1-0.4C32.1,245.4,31.5,246.1,31.5,247z"/>
	<path d="M38.7,248.9c-1,0-1.7-0.8-1.7-1.8c0-1.1,0.7-2,1.8-2c1,0,1.7,0.8,1.7,1.8C40.5,248,39.8,248.9,38.7,248.9z M38.8,245.4
		c-0.9,0-1.5,0.7-1.5,1.6c0,1,0.6,1.6,1.4,1.6c0.9,0,1.5-0.7,1.5-1.6C40.2,246,39.6,245.4,38.8,245.4z"/>
	<path d="M44.2,248.8c0-0.3,0-0.9,0-1.4v-1c0-0.7-0.4-1-0.9-1c-0.7,0-1.4,0.8-1.4,1.2v1.4c0,0.3,0,0.6,0,0.8h-0.4c0-0.3,0-0.9,0-1.4
		v-0.9c0-0.5,0-1,0-1.4c0.1,0,0.2,0,0.3,0l0,0.9c0.2-0.4,0.8-1,1.5-1c0.6,0,1.1,0.4,1.1,1.2v1.6c0,0.3,0,0.6,0,0.8H44.2z"/>
	<path d="M48.8,248.9c-0.4,0-0.8-0.2-1-0.3v1.1c0,0.3,0,0.6,0,0.8c0,0-0.3,0-0.4,0c0-0.1,0-0.9,0-1.1v-2.8c0-0.5,0-1,0-1.4
		c0.1,0,0.2,0,0.3,0l0,0.6c0.2-0.3,0.7-0.7,1.3-0.7c0.9,0,1.5,0.8,1.5,1.8C50.7,248.1,49.8,248.9,48.8,248.9z M49.1,245.4
		c-0.5,0-1,0.3-1.3,0.7v2.1c0.2,0.3,0.6,0.4,1,0.4c0.9,0,1.5-0.7,1.5-1.6C50.3,246,49.8,245.4,49.1,245.4z"/>
	<path d="M51.4,247.9c0-0.6,0.5-1.1,1.8-1.1c0.2,0,0.4,0,0.6,0l0-0.2c0-0.8-0.3-1.1-0.9-1.1c-0.4,0-0.8,0.2-1.1,0.4l-0.1-0.3
		c0.4-0.2,0.7-0.4,1.2-0.4c0.7,0,1.3,0.4,1.2,1.4l0,1.6c0,0.4,0.1,0.5,0.3,0.5c0.1,0,0.2,0,0.2-0.1l0.1,0.2
		c-0.1,0.1-0.2,0.2-0.4,0.2c-0.3,0-0.5-0.1-0.5-0.8c-0.2,0.5-0.7,0.8-1.3,0.8C51.8,248.9,51.4,248.4,51.4,247.9z M53.7,247.4l0-0.4
		c-0.2,0-0.4,0-0.6,0c-1.1,0-1.4,0.4-1.4,0.9c0,0.4,0.2,0.7,0.8,0.7C53.2,248.6,53.7,248.1,53.7,247.4z"/>
	<path d="M57.4,245.4l-0.1,0.3c-0.2-0.2-0.5-0.3-0.9-0.3c-0.5,0-0.8,0.2-0.8,0.7c0,0.8,2,0.6,2,1.7c0,0.7-0.6,1.1-1.3,1.1
		c-0.4,0-0.9-0.1-1.1-0.3l0-0.4c0.3,0.2,0.7,0.3,1.1,0.3c0.5,0,0.9-0.3,0.9-0.7c0-0.9-2-0.7-2-1.7c0-0.6,0.5-1,1.2-1
		C56.9,245.1,57.2,245.3,57.4,245.4z"/>
	<path d="M60.2,248.7c-0.1,0.1-0.4,0.2-0.6,0.2c-0.5,0-0.8-0.3-0.8-0.9v-2.5h-0.6l0.1-0.3h0.5l0-0.8l0.3-0.1v0.9h1
		c0,0.1,0,0.2,0,0.3h-1v2.5c0,0.4,0.2,0.6,0.5,0.6c0.2,0,0.4-0.1,0.6-0.2L60.2,248.7z"/>
</g>
<g class="st0">
	<path d="M63.5,247.9c0-0.6,0.5-1.1,1.8-1.1c0.2,0,0.4,0,0.6,0l0-0.2c0-0.8-0.3-1.1-0.9-1.1c-0.4,0-0.8,0.2-1.1,0.4l-0.1-0.3
		c0.4-0.2,0.7-0.4,1.2-0.4c0.7,0,1.3,0.4,1.2,1.4l0,1.6c0,0.4,0.1,0.5,0.3,0.5c0.1,0,0.2,0,0.2-0.1l0.1,0.2
		c-0.1,0.1-0.2,0.2-0.4,0.2c-0.3,0-0.5-0.1-0.5-0.8c-0.2,0.5-0.7,0.8-1.3,0.8C63.8,248.9,63.5,248.4,63.5,247.9z M65.8,247.4l0-0.4
		c-0.2,0-0.4,0-0.6,0c-1.1,0-1.4,0.4-1.4,0.9c0,0.4,0.2,0.7,0.8,0.7C65.2,248.6,65.8,248.1,65.8,247.4z"/>
	<path d="M69.1,248.7c-0.1,0.1-0.4,0.2-0.6,0.2c-0.5,0-0.8-0.3-0.8-0.9v-2.5h-0.6l0.1-0.3h0.5l0-0.8l0.3-0.1v0.9h1
		c0,0.1,0,0.2,0,0.3h-1v2.5c0,0.4,0.2,0.6,0.5,0.6c0.2,0,0.4-0.1,0.6-0.2L69.1,248.7z"/>
	<path d="M71.6,248.7c-0.1,0.1-0.4,0.2-0.6,0.2c-0.5,0-0.8-0.3-0.8-0.9v-2.5h-0.6l0.1-0.3h0.5l0-0.8l0.3-0.1v0.9h1
		c0,0.1,0,0.2,0,0.3h-1v2.5c0,0.4,0.2,0.6,0.5,0.6c0.2,0,0.4-0.1,0.6-0.2L71.6,248.7z"/>
</g>
<g class="st0">
	<path d="M75.6,246.9L73,247c0,1,0.6,1.6,1.4,1.6c0.6,0,1-0.2,1.3-0.5l0,0.4c-0.3,0.3-0.7,0.5-1.4,0.5c-1,0-1.7-0.8-1.7-1.8
		c0-1.1,0.7-2,1.8-2c1,0,1.4,0.7,1.4,1.7L75.6,246.9z M75.6,246.7c0-0.8-0.5-1.3-1.2-1.3c-0.7,0-1.3,0.6-1.4,1.3L75.6,246.7z"/>
	<path d="M79.5,248.8c0-0.3,0-0.9,0-1.4v-1c0-0.7-0.4-1-0.9-1c-0.7,0-1.4,0.8-1.4,1.2v1.4c0,0.3,0,0.6,0,0.8h-0.4c0-0.3,0-0.9,0-1.4
		v-0.9c0-0.5,0-1,0-1.4c0.1,0,0.2,0,0.3,0l0,0.9c0.2-0.4,0.8-1,1.5-1c0.6,0,1.1,0.4,1.1,1.2v1.6c0,0.3,0,0.6,0,0.8H79.5z"/>
	<path d="M83.8,245.5v-1c0-0.6,0-1,0-1.4c0.1,0,0.3,0,0.4,0c0,0.1,0,0.6,0,1v3.8c0,0.4,0,0.7,0,1h-0.3l0-0.5
		c-0.2,0.2-0.7,0.6-1.3,0.6c-1,0-1.6-0.8-1.6-1.8c0-1.1,0.7-2,1.8-2C83.2,245.1,83.6,245.3,83.8,245.5z M81.3,247
		c0,0.9,0.5,1.5,1.3,1.5c0.5,0,0.9-0.3,1.2-0.7v-2.1c-0.2-0.2-0.6-0.4-1-0.4C81.9,245.4,81.3,246.1,81.3,247z"/>
	<path d="M85.2,247.9c0-0.6,0.5-1.1,1.8-1.1c0.2,0,0.4,0,0.6,0l0-0.2c0-0.8-0.3-1.1-0.9-1.1c-0.4,0-0.8,0.2-1.1,0.4l-0.1-0.3
		c0.4-0.2,0.7-0.4,1.2-0.4c0.7,0,1.3,0.4,1.2,1.4l0,1.6c0,0.4,0.1,0.5,0.3,0.5c0.1,0,0.2,0,0.2-0.1l0.1,0.2
		c-0.1,0.1-0.2,0.2-0.4,0.2c-0.3,0-0.5-0.1-0.5-0.8c-0.2,0.5-0.7,0.8-1.3,0.8C85.5,248.9,85.2,248.4,85.2,247.9z M87.5,247.4l0-0.4
		c-0.2,0-0.4,0-0.6,0c-1.1,0-1.4,0.4-1.4,0.9c0,0.4,0.2,0.7,0.8,0.7C86.9,248.6,87.5,248.1,87.5,247.4z"/>
	<path d="M91.8,248.8c0-0.3,0-0.9,0-1.4v-1c0-0.7-0.4-1-0.9-1c-0.7,0-1.4,0.8-1.4,1.2v1.4c0,0.3,0,0.6,0,0.8h-0.4c0-0.3,0-0.9,0-1.4
		v-0.9c0-0.5,0-1,0-1.4c0.1,0,0.2,0,0.3,0l0,0.9c0.2-0.4,0.8-1,1.5-1c0.6,0,1.1,0.4,1.1,1.2v1.6c0,0.3,0,0.6,0,0.8H91.8z"/>
</g>
<g class="st0">
	<path d="M96.4,245.8c-0.2-0.2-0.6-0.4-1.1-0.4c-0.9,0-1.5,0.7-1.5,1.6c0,1,0.6,1.6,1.5,1.6c0.5,0,0.9-0.2,1.2-0.5l0,0.4
		c-0.4,0.3-0.7,0.4-1.2,0.4c-1.1,0-1.8-0.8-1.8-1.8c0-1.1,0.7-2,1.9-2c0.5,0,0.9,0.2,1.1,0.4L96.4,245.8z"/>
</g>
<g class="st0">
	<path d="M100.2,246.9l-2.6,0.1c0,1,0.6,1.6,1.4,1.6c0.6,0,1-0.2,1.3-0.5l0,0.4c-0.3,0.3-0.7,0.5-1.4,0.5c-1,0-1.7-0.8-1.7-1.8
		c0-1.1,0.7-2,1.8-2c1,0,1.4,0.7,1.4,1.7L100.2,246.9z M100.1,246.7c0-0.8-0.5-1.3-1.2-1.3c-0.7,0-1.3,0.6-1.4,1.3L100.1,246.7z"/>
	<path d="M105.7,245.5v-1c0-0.6,0-1,0-1.4c0.1,0,0.3,0,0.4,0c0,0.1,0,0.6,0,1v3.8c0,0.4,0,0.7,0,1h-0.3l0-0.5
		c-0.2,0.2-0.7,0.6-1.3,0.6c-1,0-1.6-0.8-1.6-1.8c0-1.1,0.7-2,1.8-2C105.1,245.1,105.4,245.3,105.7,245.5z M103.1,247
		c0,0.9,0.5,1.5,1.3,1.5c0.5,0,0.9-0.3,1.2-0.7v-2.1c-0.2-0.2-0.6-0.4-1-0.4C103.7,245.4,103.1,246.1,103.1,247z"/>
</g>
<g class="st0">
	<path d="M107.1,247.9c0-0.6,0.5-1.1,1.8-1.1c0.2,0,0.4,0,0.6,0l0-0.2c0-0.8-0.3-1.1-0.9-1.1c-0.4,0-0.8,0.2-1.1,0.4l-0.1-0.3
		c0.4-0.2,0.7-0.4,1.2-0.4c0.7,0,1.3,0.4,1.2,1.4l0,1.6c0,0.4,0.1,0.5,0.3,0.5c0.1,0,0.2,0,0.2-0.1l0.1,0.2
		c-0.1,0.1-0.2,0.2-0.4,0.2c-0.3,0-0.5-0.1-0.5-0.8c-0.2,0.5-0.7,0.8-1.3,0.8C107.5,248.9,107.1,248.4,107.1,247.9z M109.5,247.4
		l0-0.4c-0.2,0-0.4,0-0.6,0c-1.1,0-1.4,0.4-1.4,0.9c0,0.4,0.2,0.7,0.8,0.7C108.9,248.6,109.5,248.1,109.5,247.4z"/>
	<path d="M112.8,248.7c-0.1,0.1-0.4,0.2-0.6,0.2c-0.5,0-0.8-0.3-0.8-0.9v-2.5h-0.6l0.1-0.3h0.5l0-0.8l0.3-0.1v0.9h1
		c0,0.1,0,0.2,0,0.3h-1v2.5c0,0.4,0.2,0.6,0.5,0.6c0.2,0,0.4-0.1,0.6-0.2L112.8,248.7z"/>
</g>
<g class="st0">
	<path d="M113.6,247.9c0-0.6,0.5-1.1,1.8-1.1c0.2,0,0.4,0,0.6,0l0-0.2c0-0.8-0.3-1.1-0.9-1.1c-0.4,0-0.8,0.2-1.1,0.4l-0.1-0.3
		c0.4-0.2,0.7-0.4,1.2-0.4c0.7,0,1.3,0.4,1.2,1.4l0,1.6c0,0.4,0.1,0.5,0.3,0.5c0.1,0,0.2,0,0.2-0.1l0.1,0.2
		c-0.1,0.1-0.2,0.2-0.4,0.2c-0.3,0-0.5-0.1-0.5-0.8c-0.2,0.5-0.7,0.8-1.3,0.8C114,248.9,113.6,248.4,113.6,247.9z M116,247.4l0-0.4
		c-0.2,0-0.4,0-0.6,0c-1.1,0-1.4,0.4-1.4,0.9c0,0.4,0.2,0.7,0.8,0.7C115.4,248.6,115.9,248.1,116,247.4z"/>
	<path d="M117.7,248.9c-0.2,0-0.3-0.1-0.3-0.3c0-0.2,0.1-0.3,0.3-0.3c0.2,0,0.3,0.1,0.3,0.3C118,248.8,117.9,248.9,117.7,248.9z"/>
</g>
<g class="st0">
	<path d="M124.2,243.5c-0.5,0-0.9,0-1.5,0c-0.2,0-0.9,0-1.1,0c0,0.3,0,0.6,0,0.8v1.5h2.2c0,0.1,0,0.2,0,0.3h-2.1v1.6
		c0,0.3,0,0.9,0,1.1h-0.4c0-0.4,0-1.4,0-1.9v-1.8c0-0.5,0-1.6,0-1.9c0.4,0,1,0,1.5,0c0.5,0,1.1,0,1.5,0
		C124.2,243.3,124.2,243.3,124.2,243.5z"/>
</g>
<g class="st0">
	<path d="M126.3,248.9c-1,0-1.7-0.8-1.7-1.8c0-1.1,0.7-2,1.8-2c1,0,1.7,0.8,1.7,1.8C128.2,248,127.5,248.9,126.3,248.9z
		 M126.4,245.4c-0.9,0-1.5,0.7-1.5,1.6c0,1,0.6,1.6,1.4,1.6c0.9,0,1.5-0.7,1.5-1.6C127.9,246,127.2,245.4,126.4,245.4z"/>
	<path d="M130.8,245.5c-0.7,0-1.2,0.7-1.2,1.3v1.2c0,0.3,0,0.6,0,0.8h-0.4c0-0.3,0-0.9,0-1.4v-0.9c0-0.5,0-0.9-0.1-1.3
		c0.1,0,0.2,0,0.3-0.1l0,0.9c0.2-0.4,0.6-0.9,1.3-1L130.8,245.5z"/>
	<path d="M133.5,244.2c-0.2,0-0.3-0.1-0.3-0.3c0-0.2,0.1-0.3,0.3-0.3c0.2,0,0.3,0.1,0.3,0.3C133.8,244.1,133.7,244.2,133.5,244.2z
		 M133.3,248.8c0-0.3,0-0.9,0-1.3v-0.9c0-0.5,0-1,0-1.4c0.1,0,0.3,0,0.4,0c0,0.1,0,0.9,0,1v1.8c0,0.3,0,0.6,0,0.8H133.3z"/>
	<path d="M137.6,248.8c0-0.3,0-0.9,0-1.4v-1c0-0.7-0.4-1-0.9-1c-0.7,0-1.4,0.8-1.4,1.2v1.4c0,0.3,0,0.6,0,0.8H135c0-0.3,0-0.9,0-1.4
		v-0.9c0-0.5,0-1,0-1.4c0.1,0,0.2,0,0.3,0l0,0.9c0.2-0.4,0.8-1,1.5-1c0.6,0,1.1,0.4,1.1,1.2v1.6c0,0.3,0,0.6,0,0.8H137.6z"/>
</g>
<g class="st0">
	<path d="M141.2,243.4c-0.1,0-0.3-0.1-0.4-0.1c-0.2,0-0.4,0.1-0.5,0.2c-0.2,0.2-0.2,0.5-0.2,1v0.6h1c0,0.1,0,0.2,0,0.3h-0.9v2.5
		c0,0.3,0,0.6,0,0.8h-0.4c0-0.3,0-0.9,0-1.3v-1.9h-0.6l0.1-0.3h0.5v-0.5c0-0.7,0.1-1.1,0.4-1.4c0.2-0.2,0.4-0.3,0.7-0.3
		c0.1,0,0.3,0,0.4,0.1L141.2,243.4z"/>
</g>
<g class="st0">
	<path d="M143.5,248.9c-1,0-1.7-0.8-1.7-1.8c0-1.1,0.7-2,1.8-2c1,0,1.7,0.8,1.7,1.8C145.4,248,144.6,248.9,143.5,248.9z
		 M143.6,245.4c-0.9,0-1.5,0.7-1.5,1.6c0,1,0.6,1.6,1.4,1.6c0.9,0,1.5-0.7,1.5-1.6C145,246,144.4,245.4,143.6,245.4z"/>
	<path d="M148,245.5c-0.7,0-1.2,0.7-1.2,1.3v1.2c0,0.3,0,0.6,0,0.8h-0.4c0-0.3,0-0.9,0-1.4v-0.9c0-0.5,0-0.9-0.1-1.3
		c0.1,0,0.2,0,0.3-0.1l0,0.9c0.2-0.4,0.6-0.9,1.3-1L148,245.5z"/>
	<path d="M153.9,248.8c0-0.3,0-0.9,0-1.4v-1c0-0.7-0.3-1-0.8-1c-0.7,0-1.3,0.8-1.3,1.1v1.4c0,0.3,0,0.6,0,0.8h-0.4
		c0-0.3,0-0.9,0-1.4v-1c0-0.7-0.3-1-0.8-1c-0.7,0-1.3,0.8-1.3,1.1v1.4c0,0.3,0,0.6,0,0.8h-0.4c0-0.3,0-0.9,0-1.4v-0.9
		c0-0.5,0-1,0-1.4c0.1,0,0.2,0,0.3,0l0,0.9c0.2-0.4,0.7-0.9,1.4-0.9c0.5,0,1,0.3,1,0.9c0.2-0.4,0.7-0.9,1.4-0.9
		c0.6,0,1.1,0.4,1.1,1.2v1.6c0,0.3,0,0.6,0,0.8H153.9z"/>
</g>
<g class="st0">
	<path d="M155.3,247.9c0-0.6,0.5-1.1,1.8-1.1c0.2,0,0.4,0,0.6,0l0-0.2c0-0.8-0.3-1.1-0.9-1.1c-0.4,0-0.8,0.2-1.1,0.4l-0.1-0.3
		c0.4-0.2,0.7-0.4,1.2-0.4c0.7,0,1.3,0.4,1.2,1.4l0,1.6c0,0.4,0.1,0.5,0.3,0.5c0.1,0,0.2,0,0.2-0.1l0.1,0.2
		c-0.1,0.1-0.2,0.2-0.4,0.2c-0.3,0-0.5-0.1-0.5-0.8c-0.2,0.5-0.7,0.8-1.3,0.8C155.6,248.9,155.3,248.4,155.3,247.9z M157.6,247.4
		l0-0.4c-0.2,0-0.4,0-0.6,0c-1.1,0-1.4,0.4-1.4,0.9c0,0.4,0.2,0.7,0.8,0.7C157,248.6,157.6,248.1,157.6,247.4z"/>
</g>
<g class="st0">
	<path d="M161,248.7c-0.1,0.1-0.4,0.2-0.6,0.2c-0.5,0-0.8-0.3-0.8-0.9v-2.5H159l0.1-0.3h0.5l0-0.8l0.3-0.1v0.9h1c0,0.1,0,0.2,0,0.3
		h-1v2.5c0,0.4,0.2,0.6,0.5,0.6c0.2,0,0.4-0.1,0.6-0.2L161,248.7z"/>
	<path d="M162.1,244.2c-0.2,0-0.3-0.1-0.3-0.3c0-0.2,0.1-0.3,0.3-0.3c0.2,0,0.3,0.1,0.3,0.3C162.4,244.1,162.3,244.2,162.1,244.2z
		 M161.9,248.8c0-0.3,0-0.9,0-1.3v-0.9c0-0.5,0-1,0-1.4c0.1,0,0.3,0,0.4,0c0,0.1,0,0.9,0,1v1.8c0,0.3,0,0.6,0,0.8H161.9z"/>
	<path d="M165,248.9c-1,0-1.7-0.8-1.7-1.8c0-1.1,0.7-2,1.8-2c1,0,1.7,0.8,1.7,1.8C166.9,248,166.2,248.9,165,248.9z M165.1,245.4
		c-0.9,0-1.5,0.7-1.5,1.6c0,1,0.6,1.6,1.4,1.6c0.9,0,1.5-0.7,1.5-1.6C166.6,246,165.9,245.4,165.1,245.4z"/>
	<path d="M170.6,248.8c0-0.3,0-0.9,0-1.4v-1c0-0.7-0.4-1-0.9-1c-0.7,0-1.4,0.8-1.4,1.2v1.4c0,0.3,0,0.6,0,0.8h-0.4
		c0-0.3,0-0.9,0-1.4v-0.9c0-0.5,0-1,0-1.4c0.1,0,0.2,0,0.3,0l0,0.9c0.2-0.4,0.8-1,1.5-1c0.6,0,1.1,0.4,1.1,1.2v1.6
		c0,0.3,0,0.6,0,0.8H170.6z"/>
	<path d="M171.9,247.9c0-0.6,0.5-1.1,1.8-1.1c0.2,0,0.4,0,0.6,0l0-0.2c0-0.8-0.3-1.1-0.9-1.1c-0.4,0-0.8,0.2-1.1,0.4l-0.1-0.3
		c0.4-0.2,0.7-0.4,1.2-0.4c0.7,0,1.3,0.4,1.2,1.4l0,1.6c0,0.4,0.1,0.5,0.3,0.5c0.1,0,0.2,0,0.2-0.1l0.1,0.2
		c-0.1,0.1-0.2,0.2-0.4,0.2c-0.3,0-0.5-0.1-0.5-0.8c-0.2,0.5-0.7,0.8-1.3,0.8C172.3,248.9,171.9,248.4,171.9,247.9z M174.3,247.4
		l0-0.4c-0.2,0-0.4,0-0.6,0c-1.1,0-1.4,0.4-1.4,0.9c0,0.4,0.2,0.7,0.8,0.7C173.7,248.6,174.2,248.1,174.3,247.4z"/>
	<path d="M176,248.8c0-0.3,0-0.9,0-1.3v-2.9c0-0.6,0-1,0-1.4c0.1,0,0.3,0,0.4,0c0,0.1,0,0.6,0,1v3.9c0,0.3,0,0.6,0,0.8H176z"/>
	<path d="M180.6,248.9c-0.4,0-0.8-0.2-1-0.3v1.1c0,0.3,0,0.6,0,0.8c0,0-0.3,0-0.4,0c0-0.1,0-0.9,0-1.1v-2.8c0-0.5,0-1,0-1.4
		c0.1,0,0.2,0,0.3,0l0,0.6c0.2-0.3,0.7-0.7,1.3-0.7c0.9,0,1.5,0.8,1.5,1.8C182.4,248.1,181.6,248.9,180.6,248.9z M180.8,245.4
		c-0.5,0-1,0.3-1.3,0.7v2.1c0.2,0.3,0.6,0.4,1,0.4c0.9,0,1.5-0.7,1.5-1.6C182.1,246,181.6,245.4,180.8,245.4z"/>
	<path d="M186.2,248.8l0-0.8c-0.2,0.4-0.8,0.9-1.5,0.9c-0.6,0-1.1-0.4-1.1-1.3v-1.1c0-0.4,0-0.9,0-1.3c0.1,0,0.3,0,0.4,0
		c0,0.2,0,0.6,0,0.9v1.4c0,0.8,0.4,1.1,0.9,1.1c0.7,0,1.4-0.8,1.4-1.1v-1c0-0.4,0-0.9,0-1.3c0.1,0,0.3,0,0.4,0c0,0.2,0,0.6,0,0.9
		v1.3c0,0.5,0,1,0,1.4H186.2z"/>
	<path d="M189.3,245.5c-0.7,0-1.2,0.7-1.2,1.3v1.2c0,0.3,0,0.6,0,0.8h-0.4c0-0.3,0-0.9,0-1.4v-0.9c0-0.5,0-0.9-0.1-1.3
		c0.1,0,0.2,0,0.3-0.1l0,0.9c0.2-0.4,0.6-0.9,1.3-1L189.3,245.5z"/>
	<path d="M191.6,248.9c-0.4,0-0.8-0.2-1-0.3v1.1c0,0.3,0,0.6,0,0.8c0,0-0.3,0-0.4,0c0-0.1,0-0.9,0-1.1v-2.8c0-0.5,0-1,0-1.4
		c0.1,0,0.2,0,0.3,0l0,0.6c0.2-0.3,0.7-0.7,1.3-0.7c0.9,0,1.5,0.8,1.5,1.8C193.5,248.1,192.6,248.9,191.6,248.9z M191.9,245.4
		c-0.5,0-1,0.3-1.3,0.7v2.1c0.2,0.3,0.6,0.4,1,0.4c0.9,0,1.5-0.7,1.5-1.6C193.1,246,192.6,245.4,191.9,245.4z"/>
	<path d="M196,248.9c-1,0-1.7-0.8-1.7-1.8c0-1.1,0.7-2,1.8-2c1,0,1.7,0.8,1.7,1.8C197.8,248,197.1,248.9,196,248.9z M196.1,245.4
		c-0.9,0-1.5,0.7-1.5,1.6c0,1,0.6,1.6,1.4,1.6c0.9,0,1.5-0.7,1.5-1.6C197.5,246,196.9,245.4,196.1,245.4z"/>
	<path d="M200.8,245.4l-0.1,0.3c-0.2-0.2-0.5-0.3-0.9-0.3c-0.5,0-0.8,0.2-0.8,0.7c0,0.8,2,0.6,2,1.7c0,0.7-0.6,1.1-1.3,1.1
		c-0.4,0-0.9-0.1-1.1-0.3l0-0.4c0.3,0.2,0.7,0.3,1.1,0.3c0.5,0,0.9-0.3,0.9-0.7c0-0.9-2-0.7-2-1.7c0-0.6,0.5-1,1.2-1
		C200.3,245.1,200.6,245.3,200.8,245.4z"/>
	<path d="M204.7,246.9l-2.6,0.1c0,1,0.6,1.6,1.4,1.6c0.6,0,1-0.2,1.3-0.5l0,0.4c-0.3,0.3-0.7,0.5-1.4,0.5c-1,0-1.7-0.8-1.7-1.8
		c0-1.1,0.7-2,1.8-2c1,0,1.4,0.7,1.4,1.7L204.7,246.9z M204.6,246.7c0-0.8-0.5-1.3-1.2-1.3c-0.7,0-1.3,0.6-1.4,1.3L204.6,246.7z"/>
	<path d="M207.9,245.4l-0.1,0.3c-0.2-0.2-0.5-0.3-0.9-0.3c-0.5,0-0.8,0.2-0.8,0.7c0,0.8,2,0.6,2,1.7c0,0.7-0.6,1.1-1.3,1.1
		c-0.4,0-0.9-0.1-1.1-0.3l0-0.4c0.3,0.2,0.7,0.3,1.1,0.3c0.5,0,0.9-0.3,0.9-0.7c0-0.9-2-0.7-2-1.7c0-0.6,0.5-1,1.2-1
		C207.4,245.1,207.7,245.3,207.9,245.4z"/>
	<path d="M212.2,248.9c-1,0-1.7-0.8-1.7-1.8c0-1.1,0.7-2,1.8-2c1,0,1.7,0.8,1.7,1.8C214,248,213.3,248.9,212.2,248.9z M212.2,245.4
		c-0.9,0-1.5,0.7-1.5,1.6c0,1,0.6,1.6,1.4,1.6c0.9,0,1.5-0.7,1.5-1.6C213.7,246,213,245.4,212.2,245.4z"/>
	<path d="M217.7,248.8c0-0.3,0-0.9,0-1.4v-1c0-0.7-0.4-1-0.9-1c-0.7,0-1.4,0.8-1.4,1.2v1.4c0,0.3,0,0.6,0,0.8H215c0-0.3,0-0.9,0-1.4
		v-0.9c0-0.5,0-1,0-1.4c0.1,0,0.2,0,0.3,0l0,0.9c0.2-0.4,0.8-1,1.5-1c0.6,0,1.1,0.4,1.1,1.2v1.6c0,0.3,0,0.6,0,0.8H217.7z"/>
	<path d="M219.3,248.8c0-0.3,0-0.9,0-1.3v-2.9c0-0.6,0-1,0-1.4c0.1,0,0.3,0,0.4,0c0,0.1,0,0.6,0,1v3.9c0,0.3,0,0.6,0,0.8H219.3z"/>
</g>
<g class="st0">
	<path d="M223.2,248.6c-0.1-0.2-0.1-0.3-0.3-0.8l-0.6-1.5c-0.2-0.5-0.3-0.8-0.5-1.1l0.4-0.1l1.3,3l0.5-1.2c0.2-0.4,0.5-1.2,0.7-1.7
		c0.2,0,0.3,0,0.4,0l-1.8,4.3c0,0.1-0.4,0.9-0.4,1c-0.1,0-0.3,0-0.4,0L223.2,248.6z"/>
</g>
<g class="st0">
	<path d="M225.5,248.9c-0.2,0-0.3-0.1-0.3-0.3c0-0.2,0.1-0.3,0.3-0.3c0.2,0,0.3,0.1,0.3,0.3C225.7,248.8,225.6,248.9,225.5,248.9z"
		/>
</g>
<g class="st0">
	<path d="M18,52c-0.9-0.4-1.6-1-1.6-2c0-1.1,0.9-2.1,2.3-2.1c1.3,0,2.2,0.9,2.2,2c0,1-0.7,1.6-1.7,2c1.1,0.4,1.9,1.2,1.9,2.1
		c0,1.3-1.1,2.3-2.5,2.3c-1.4,0-2.4-0.9-2.4-2.1C16.1,53.2,16.8,52.4,18,52z M18.5,52.2c-1.2,0.4-1.9,1-1.9,2c0,1,0.8,1.7,1.9,1.7
		c1.2,0,2-0.8,2-1.8C20.5,53.3,19.8,52.6,18.5,52.2z M18.6,51.8c1.1-0.3,1.7-0.9,1.7-1.8c0-0.9-0.7-1.6-1.7-1.6
		c-1,0-1.7,0.7-1.7,1.6C16.9,51,17.6,51.4,18.6,51.8z"/>
	<path d="M24.7,56.4c-0.7,0-1.2-0.2-1.6-0.5v1.7c0,0.4,0,0.9,0,1.2c-0.1,0-0.5,0-0.6,0c0-0.1,0-1.3,0-1.7v-4.4c0-0.7,0-1.6-0.1-2.1
		c0.2,0,0.4,0,0.5,0l0.1,0.9c0.4-0.4,1.1-1,2.1-1c1.4,0,2.4,1.2,2.4,2.7C27.5,55.1,26.2,56.4,24.7,56.4z M25.1,51
		c-0.8,0-1.5,0.5-2,1.1v3.2c0.4,0.4,0.9,0.7,1.6,0.7c1.4,0,2.3-1.2,2.3-2.6C27,51.9,26.2,51,25.1,51z"/>
	<path d="M36.8,56.2c0-0.5,0-1.4,0-2.1v-1.5c0-1.2-0.5-1.6-1.3-1.6c-1,0-2.1,1.2-2.1,1.8v2.2c0,0.4,0,1,0,1.3H33c0-0.5,0-1.4,0-2.1
		v-1.5c0-1.2-0.5-1.6-1.3-1.6c-1,0-2.1,1.2-2.1,1.8v2.2c0,0.4,0,0.9,0,1.3h-0.6c0-0.5,0-1.4,0-2.1v-1.3c0-0.7,0-1.6-0.1-2.1
		c0.2,0,0.3,0,0.5,0l0,1.3c0.3-0.5,1.2-1.4,2.2-1.4c0.8,0,1.5,0.4,1.6,1.5c0.3-0.5,1.1-1.5,2.2-1.5c0.9,0,1.7,0.6,1.7,1.9v2.5
		c0,0.4,0,1,0,1.3H36.8z"/>
</g>
<g class="st0">
	<path d="M17.5,96.9c-0.5,0-0.9-0.1-1.3-0.1l0-0.5c0.4,0.1,0.9,0.2,1.3,0.2c1.5,0,2.5-0.7,2.5-1.9c0-1.2-1-1.8-2.5-1.8
		c-0.3,0-0.5,0-0.9,0l-0.1,0c0-0.3,0.1-0.7,0.1-1.2l0-1.1c0-0.4,0-0.9,0-1.3l0.1-0.1c0.6,0,1.1,0,1.9,0c0.7,0,1.2,0,1.7,0
		c0,0.2-0.1,0.3-0.1,0.5c-0.5,0-1,0-1.7,0h-1.4L17,92.3c0.1,0,0.4,0,0.5,0c1.8,0,2.9,0.8,2.9,2.2C20.4,96,19.2,96.9,17.5,96.9z"/>
	<path d="M24.2,95.1c-0.7,0-1.2-0.2-1.6-0.5v1.7c0,0.4,0,0.9,0,1.2c-0.1,0-0.5,0-0.6,0c0-0.1,0-1.3,0-1.7v-4.4c0-0.7,0-1.6-0.1-2.1
		c0.2,0,0.4,0,0.5,0l0.1,0.9c0.4-0.4,1.1-1,2.1-1c1.4,0,2.4,1.2,2.4,2.7C27,93.8,25.7,95.1,24.2,95.1z M24.6,89.7
		c-0.8,0-1.5,0.5-2,1.1V94c0.4,0.4,0.9,0.7,1.6,0.7c1.4,0,2.3-1.2,2.3-2.6C26.5,90.6,25.7,89.7,24.6,89.7z"/>
	<path d="M36.3,94.9c0-0.5,0-1.4,0-2.1v-1.5c0-1.2-0.5-1.6-1.3-1.6c-1,0-2.1,1.2-2.1,1.8v2.2c0,0.4,0,1,0,1.3h-0.6
		c0-0.5,0-1.4,0-2.1v-1.5c0-1.2-0.5-1.6-1.3-1.6c-1,0-2.1,1.2-2.1,1.8v2.2c0,0.4,0,0.9,0,1.3h-0.6c0-0.5,0-1.4,0-2.1v-1.3
		c0-0.7,0-1.6-0.1-2.1c0.2,0,0.3,0,0.5,0l0,1.3c0.3-0.5,1.2-1.4,2.2-1.4c0.8,0,1.5,0.4,1.6,1.5c0.3-0.5,1.1-1.5,2.2-1.5
		c0.9,0,1.7,0.6,1.7,1.9v2.5c0,0.4,0,1,0,1.3H36.3z"/>
</g>
<g class="st0">
	<path d="M17.4,135.6c-0.4,0-0.9-0.1-1.4-0.2l0-0.5c0.5,0.1,1,0.2,1.4,0.2c1.5,0,2.5-0.7,2.5-1.8c0-1-1-1.7-2.8-1.7l-0.1-0.4
		c1.7-0.3,2.7-1,2.7-1.9c0-0.7-0.6-1.3-1.6-1.3c-0.6,0-1.2,0.2-1.7,0.7l-0.2-0.4c0.6-0.4,1.3-0.7,2-0.7c1.3,0,2,0.8,2,1.7
		c0,1.1-0.9,1.8-2,2.1c1.5,0.2,2.2,1,2.2,1.9C20.3,134.7,19.1,135.6,17.4,135.6z"/>
	<path d="M24.2,133.8c-0.7,0-1.2-0.2-1.6-0.5v1.7c0,0.4,0,0.9,0,1.2c-0.1,0-0.5,0-0.6,0c0-0.1,0-1.3,0-1.7v-4.4c0-0.7,0-1.6-0.1-2.1
		c0.2,0,0.4,0,0.5,0l0.1,0.9c0.4-0.4,1.1-1,2.1-1c1.4,0,2.4,1.2,2.4,2.7C27,132.6,25.7,133.8,24.2,133.8z M24.5,128.5
		c-0.8,0-1.5,0.5-2,1.1v3.2c0.4,0.4,0.9,0.7,1.6,0.7c1.4,0,2.3-1.2,2.3-2.6C26.5,129.3,25.7,128.5,24.5,128.5z"/>
	<path d="M36.3,133.7c0-0.5,0-1.4,0-2.1V130c0-1.2-0.5-1.6-1.3-1.6c-1,0-2.1,1.2-2.1,1.8v2.2c0,0.4,0,1,0,1.3h-0.6
		c0-0.5,0-1.4,0-2.1V130c0-1.2-0.5-1.6-1.3-1.6c-1,0-2.1,1.2-2.1,1.8v2.2c0,0.4,0,0.9,0,1.3h-0.6c0-0.5,0-1.4,0-2.1v-1.3
		c0-0.7,0-1.6-0.1-2.1c0.2,0,0.3,0,0.5,0l0,1.3c0.3-0.5,1.2-1.4,2.2-1.4c0.8,0,1.5,0.4,1.6,1.5c0.3-0.5,1.1-1.5,2.2-1.5
		c0.9,0,1.7,0.6,1.7,1.9v2.5c0,0.4,0,1,0,1.3H36.3z"/>
</g>
<g class="st0">
	<path d="M17.3,172.4c0-0.5,0-1.4,0-2.1V167l-1.3,0.3l-0.1-0.5c0.4-0.1,1-0.3,1.3-0.3l0.5-0.1l0.1,0c0,0.1,0,1.4,0,1.6v3.1
		c0,0.4,0,1,0,1.3H17.3z"/>
	<path d="M22.3,172.6c-0.7,0-1.2-0.2-1.6-0.5v1.7c0,0.4,0,0.9,0,1.2c-0.1,0-0.5,0-0.6,0c0-0.1,0-1.3,0-1.7V169c0-0.7,0-1.6-0.1-2.1
		c0.2,0,0.4,0,0.5,0l0.1,0.9c0.4-0.4,1.1-1,2.1-1c1.4,0,2.4,1.2,2.4,2.7C25.2,171.3,23.9,172.6,22.3,172.6z M22.7,167.2
		c-0.8,0-1.5,0.5-2,1.1v3.2c0.4,0.4,0.9,0.7,1.6,0.7c1.4,0,2.3-1.2,2.3-2.6C24.7,168.1,23.8,167.2,22.7,167.2z"/>
	<path d="M34.5,172.4c0-0.5,0-1.4,0-2.1v-1.5c0-1.2-0.5-1.6-1.3-1.6c-1,0-2.1,1.2-2.1,1.8v2.2c0,0.4,0,1,0,1.3h-0.6
		c0-0.5,0-1.4,0-2.1v-1.5c0-1.2-0.5-1.6-1.3-1.6c-1,0-2.1,1.2-2.1,1.8v2.2c0,0.4,0,0.9,0,1.3h-0.6c0-0.5,0-1.4,0-2.1V169
		c0-0.7,0-1.6-0.1-2.1c0.2,0,0.3,0,0.5,0l0,1.3c0.3-0.5,1.2-1.4,2.2-1.4c0.8,0,1.5,0.4,1.6,1.5c0.3-0.5,1.1-1.5,2.2-1.5
		c0.9,0,1.7,0.6,1.7,1.9v2.5c0,0.4,0,1,0,1.3H34.5z"/>
</g>
<g class="st0">
	<path d="M17.3,211.1c0-0.5,0-1.4,0-2.1v-3.2l-1.3,0.3l-0.1-0.5c0.4-0.1,1-0.3,1.3-0.3l0.5-0.1l0.1,0c0,0.1,0,1.4,0,1.6v3.1
		c0,0.4,0,1,0,1.3H17.3z"/>
	<path d="M20.9,211.1c0-0.5,0-1.4,0-2.1v-3.2l-1.3,0.3l-0.1-0.5c0.4-0.1,1-0.3,1.3-0.3l0.5-0.1l0.1,0c0,0.1,0,1.4,0,1.6v3.1
		c0,0.4,0,1,0,1.3H20.9z"/>
	<path d="M23.3,209.7c0-0.9,0.7-1.8,2.8-1.8c0.3,0,0.6,0,0.9,0l0-0.3c0-1.2-0.5-1.8-1.4-1.8c-0.6,0-1.2,0.2-1.6,0.5l-0.1-0.5
		c0.6-0.3,1.2-0.5,1.8-0.5c1.2,0,1.9,0.7,1.9,2.1l-0.1,2.5c0,0.6,0.1,0.8,0.4,0.8c0.1,0,0.3-0.1,0.4-0.1l0.1,0.3
		c-0.2,0.2-0.4,0.3-0.6,0.3c-0.4,0-0.8-0.2-0.7-1.2c-0.3,0.7-1.1,1.3-2,1.3C23.9,211.3,23.3,210.6,23.3,209.7z M26.9,209l0-0.6
		c-0.3,0-0.6,0-0.9,0c-1.7,0-2.2,0.7-2.2,1.4c0,0.6,0.4,1.1,1.3,1.1C26.1,210.8,26.9,210,26.9,209z"/>
	<path d="M37.3,211.1c0-0.5,0-1.4,0-2.1v-1.5c0-1.2-0.5-1.6-1.3-1.6c-1,0-2.1,1.2-2.1,1.8v2.2c0,0.4,0,1,0,1.3h-0.6
		c0-0.5,0-1.4,0-2.1v-1.5c0-1.2-0.5-1.6-1.3-1.6c-1,0-2.1,1.2-2.1,1.8v2.2c0,0.4,0,0.9,0,1.3h-0.6c0-0.5,0-1.4,0-2.1v-1.3
		c0-0.7,0-1.6-0.1-2.1c0.2,0,0.3,0,0.5,0l0,1.3c0.3-0.5,1.2-1.4,2.2-1.4c0.8,0,1.5,0.4,1.6,1.5c0.3-0.5,1.1-1.5,2.2-1.5
		c0.9,0,1.7,0.6,1.7,1.9v2.5c0,0.4,0,1,0,1.3H37.3z"/>
</g>
<g class="st0">
	<path d="M78.3,222.9l0.5-3.4c0.1-1,0.3-2,0.3-2.6l0.2,0c0.3,0.8,0.5,1.2,0.8,1.9l2.6,6.1l2.5-6.1c0.3-0.6,0.6-1.4,0.8-2h0.2
		c0,0.2,0.3,2.2,0.3,2.4l0.5,3.5c0.1,0.8,0.3,2.3,0.4,3l-0.6,0c0-0.4-0.1-1.1-0.2-1.9l-0.7-5.4c-0.6,1.5-3.1,7.3-3.1,7.4l-0.2,0
		l-3.1-7.5l-0.7,5.6c-0.1,0.6-0.2,1.3-0.2,1.8h-0.6C78,224.8,78.2,223.8,78.3,222.9z"/>
	<path d="M91.5,225.9c-1.6,0-2.7-1.2-2.7-2.8c0-1.7,1.1-3.1,2.8-3.1c1.6,0,2.7,1.2,2.7,2.8C94.4,224.5,93.2,225.9,91.5,225.9z
		 M91.6,220.5c-1.4,0-2.3,1.1-2.3,2.5c0,1.5,0.9,2.4,2.2,2.4c1.4,0,2.3-1.1,2.3-2.5C93.8,221.3,92.9,220.5,91.6,220.5z"/>
	<path d="M100.1,225.7c0-0.5,0-1.4,0-2.1v-1.5c0-1.2-0.6-1.6-1.4-1.6c-1.1,0-2.2,1.2-2.2,1.8v2.1c0,0.4,0,0.9,0,1.3H96
		c0-0.5,0-1.4,0-2.1v-1.3c0-0.7,0-1.6-0.1-2.1c0.2,0,0.3,0,0.5,0l0,1.4c0.3-0.6,1.2-1.5,2.4-1.5c1,0,1.7,0.6,1.7,1.9v2.5
		c0,0.4,0,1,0,1.3H100.1z"/>
</g>
<path class="st1" d="M69.6,176h36.7c1.6,0,2.9,1.3,2.9,2.9v18.4c0,1.6-1.3,2.9-2.9,2.9H69.6c-1.6,0-2.9-1.3-2.9-2.9V179
	C66.6,177.3,67.9,176,69.6,176z"/>
<path class="st2" d="M69.6,138.1h36.7c1.6,0,2.9,1.3,2.9,2.9v18.4c0,1.6-1.3,2.9-2.9,2.9H69.6c-1.6,0-2.9-1.3-2.9-2.9v-18.4
	C66.6,139.5,67.9,138.1,69.6,138.1z"/>
<path class="st2" d="M69.6,99.4h36.7c1.6,0,2.9,1.3,2.9,2.9v18.4c0,1.6-1.3,2.9-2.9,2.9H69.6c-1.6,0-2.9-1.3-2.9-2.9v-18.4
	C66.6,100.7,67.9,99.4,69.6,99.4z"/>
<g class="st0">
	<path d="M268.4,225.9c-0.9,0-1.8-0.3-2.4-0.7l0-0.6c0.6,0.4,1.5,0.8,2.4,0.8c1.4,0,2.2-0.9,2.2-1.9c0-2.1-4.2-2-4.2-4.4
		c0-1.3,1-2.3,2.6-2.3c0.8,0,1.4,0.2,2,0.6l-0.2,0.5c-0.5-0.3-1.1-0.6-1.8-0.6c-1.3,0-2,0.8-2,1.8c0,2.1,4.2,2,4.2,4.4
		C271.1,224.7,270.1,225.9,268.4,225.9z"/>
</g>
<g class="st0">
	<path d="M272.4,224.3c0-0.9,0.7-1.8,2.8-1.8c0.3,0,0.6,0,0.9,0l0-0.3c0-1.2-0.5-1.8-1.4-1.8c-0.6,0-1.2,0.2-1.6,0.5l-0.1-0.5
		c0.6-0.3,1.2-0.5,1.8-0.5c1.2,0,1.9,0.7,1.9,2.1l-0.1,2.5c0,0.6,0.1,0.8,0.4,0.8c0.1,0,0.3-0.1,0.4-0.1l0.1,0.3
		c-0.2,0.2-0.4,0.3-0.6,0.3c-0.4,0-0.8-0.2-0.7-1.2c-0.3,0.7-1.1,1.3-2,1.3C273,225.8,272.4,225.2,272.4,224.3z M276.1,223.5l0-0.6
		c-0.3,0-0.6,0-0.9,0c-1.7,0-2.2,0.7-2.2,1.4c0,0.6,0.4,1.1,1.3,1.1C275.2,225.4,276,224.6,276.1,223.5z"/>
</g>
<g class="st0">
	<path d="M281.3,225.6c-0.2,0.2-0.5,0.3-1,0.3c-0.8,0-1.3-0.5-1.3-1.3v-3.9h-0.9l0.1-0.5h0.8l0.1-1.2l0.4-0.1v1.4h1.6
		c0,0.1,0,0.2,0,0.5h-1.6v3.9c0,0.7,0.3,0.9,0.9,0.9c0.4,0,0.7-0.1,0.9-0.3L281.3,225.6z"/>
</g>
<path class="st3" d="M253.2,176h36.7c1.6,0,2.9,1.3,2.9,2.9v18.4c0,1.6-1.3,2.9-2.9,2.9h-36.7c-1.6,0-2.9-1.3-2.9-2.9V179
	C250.2,177.3,251.6,176,253.2,176z"/>
<path class="st1" d="M253.2,138.1h36.7c1.6,0,2.9,1.3,2.9,2.9v18.4c0,1.6-1.3,2.9-2.9,2.9h-36.7c-1.6,0-2.9-1.3-2.9-2.9v-18.4
	C250.2,139.5,251.6,138.1,253.2,138.1z"/>
<path class="st2" d="M253.2,99.4h36.7c1.6,0,2.9,1.3,2.9,2.9v18.4c0,1.6-1.3,2.9-2.9,2.9h-36.7c-1.6,0-2.9-1.3-2.9-2.9v-18.4
	C250.2,100.7,251.6,99.4,253.2,99.4z"/>
<g class="st0">
	<path d="M328.7,225.9c-0.9,0-1.8-0.3-2.4-0.7l0-0.6c0.6,0.4,1.5,0.8,2.4,0.8c1.4,0,2.2-0.9,2.2-1.9c0-2.1-4.2-2-4.2-4.4
		c0-1.3,1-2.3,2.6-2.3c0.8,0,1.4,0.2,2,0.6l-0.2,0.5c-0.5-0.3-1.1-0.6-1.8-0.6c-1.3,0-2,0.8-2,1.8c0,2.1,4.2,2,4.2,4.4
		C331.4,224.7,330.4,225.9,328.7,225.9z"/>
</g>
<g class="st0">
	<path d="M337.3,225.7l-0.1-1.3c-0.4,0.6-1.3,1.5-2.4,1.5c-1,0-1.8-0.6-1.8-2v-1.7c0-0.6,0-1.4,0-2c0.2,0,0.4,0,0.6,0
		c0,0.3,0,0.9,0,1.4v2.2c0,1.3,0.5,1.7,1.4,1.7c1,0,2.2-1.2,2.2-1.8v-1.5c0-0.6,0-1.4,0-2c0.2,0,0.4,0,0.6,0c0,0.3,0,0.9,0,1.4v2
		c0,0.7,0,1.6,0.1,2.1H337.3z"/>
	<path d="M343.9,225.7c0-0.5,0-1.4,0-2.1v-1.5c0-1.2-0.6-1.6-1.4-1.6c-1.1,0-2.2,1.2-2.2,1.8v2.1c0,0.4,0,0.9,0,1.3h-0.6
		c0-0.5,0-1.4,0-2.1v-1.3c0-0.7,0-1.6-0.1-2.1c0.2,0,0.3,0,0.5,0l0,1.4c0.3-0.6,1.2-1.5,2.4-1.5c1,0,1.7,0.6,1.7,1.9v2.5
		c0,0.4,0,1,0,1.3H343.9z"/>
</g>
<path class="st3" d="M314.4,176h36.7c1.6,0,2.9,1.3,2.9,2.9v18.4c0,1.6-1.3,2.9-2.9,2.9h-36.7c-1.6,0-2.9-1.3-2.9-2.9V179
	C311.5,177.3,312.8,176,314.4,176z"/>
<path class="st1" d="M314.4,138.1h36.7c1.6,0,2.9,1.3,2.9,2.9v18.4c0,1.6-1.3,2.9-2.9,2.9h-36.7c-1.6,0-2.9-1.3-2.9-2.9v-18.4
	C311.5,139.5,312.8,138.1,314.4,138.1z"/>
<path class="st1" d="M314.4,99.4h36.7c1.6,0,2.9,1.3,2.9,2.9v18.4c0,1.6-1.3,2.9-2.9,2.9h-36.7c-1.6,0-2.9-1.3-2.9-2.9v-18.4
	C311.5,100.7,312.8,99.4,314.4,99.4z"/>
<g class="st0">
	<path d="M141.1,217.5c-0.9,0-2,0-3.1,0c0,0.3,0,0.9,0,1.3v5.1c0,0.5,0,1.4,0,1.8h-0.6c0-0.6,0-2.2,0-3V220c0-0.7,0-1.9,0-2.5
		c-1.1,0-2.4,0-3.2,0c0-0.2,0-0.3,0-0.5c1,0,2.3,0,3.4,0c1.1,0,2.5,0,3.5,0C141.2,217.1,141.1,217.3,141.1,217.5z"/>
	<path d="M146.5,225.7c0-0.5,0-1.4,0-2.1v-1.5c0-1.2-0.6-1.6-1.4-1.6c-1.1,0-2.2,1.2-2.2,1.8v2.1c0,0.4,0,0.8,0,1.2h-0.6
		c0-0.5,0-1.4,0-2.1V219c0-1,0-1.5,0-2.1c0.2,0,0.4,0,0.6-0.1c0,0.1,0,0.9,0,1.5v3.1c0.3-0.6,1.2-1.5,2.4-1.5c1,0,1.7,0.6,1.7,1.9
		v2.5c0,0.4,0,1,0,1.3H146.5z"/>
	<path d="M153.3,225.7l-0.1-1.3c-0.4,0.6-1.3,1.5-2.4,1.5c-1,0-1.8-0.6-1.8-2v-1.7c0-0.6,0-1.4,0-2c0.2,0,0.4,0,0.6,0
		c0,0.3,0,0.9,0,1.4v2.2c0,1.3,0.5,1.7,1.4,1.7c1,0,2.2-1.2,2.2-1.8v-1.5c0-0.6,0-1.4,0-2c0.2,0,0.4,0,0.6,0c0,0.3,0,0.9,0,1.4v2
		c0,0.7,0,1.6,0.1,2.1H153.3z"/>
</g>
<g class="st0">
	<path d="M158.6,220.6c-1.1,0-1.9,1-1.9,2v1.9c0,0.4,0,0.9,0,1.3h-0.6c0-0.5,0-1.4,0-2.1v-1.4c0-0.7,0-1.5-0.1-2
		c0.2,0,0.4,0,0.5-0.1l0.1,1.5c0.3-0.7,0.9-1.5,2-1.5L158.6,220.6z"/>
</g>
<g class="st0">
	<path d="M163.3,220.4l-0.2,0.5c-0.4-0.2-0.8-0.4-1.3-0.4c-0.7,0-1.3,0.4-1.3,1c0,1.3,3,1,3,2.7c0,1.1-1,1.7-2,1.7
		c-0.7,0-1.3-0.2-1.7-0.4l0-0.6c0.4,0.3,1,0.5,1.7,0.5c0.8,0,1.4-0.4,1.4-1.1c0-1.4-3-1.1-3-2.7c0-0.9,0.8-1.5,1.8-1.5
		C162.4,220,162.9,220.2,163.3,220.4z"/>
</g>
<path class="st3" d="M130.8,138.1h36.7c1.6,0,2.9,1.3,2.9,2.9v18.4c0,1.6-1.3,2.9-2.9,2.9h-36.7c-1.6,0-2.9-1.3-2.9-2.9v-18.4
	C127.8,139.5,129.1,138.1,130.8,138.1z"/>
<path class="st2" d="M130.8,99.4h36.7c1.6,0,2.9,1.3,2.9,2.9v18.4c0,1.6-1.3,2.9-2.9,2.9h-36.7c-1.6,0-2.9-1.3-2.9-2.9v-18.4
	C127.8,100.7,129.1,99.4,130.8,99.4z"/>
<path class="st2" d="M130.8,60.5h36.7c1.6,0,2.9,1.3,2.9,2.9v18.4c0,1.6-1.3,2.9-2.9,2.9h-36.7c-1.6,0-2.9-1.3-2.9-2.9V63.5
	C127.8,61.8,129.1,60.5,130.8,60.5z"/>
<g class="st0">
	<path d="M210.6,217.5c-0.7,0-1.5,0-2.3,0c-0.3,0-1.3,0-1.7,0c0,0.4,0,1,0,1.3v2.3h3.4c0,0.1,0,0.3,0,0.5h-3.3v2.4
		c0,0.5,0,1.4,0,1.8H206c0-0.6,0-2.2,0-3v-2.8c0-0.8,0-2.4,0-3c0.7,0,1.5,0,2.3,0c0.8,0,1.7,0,2.4,0
		C210.6,217.1,210.6,217.3,210.6,217.5z"/>
</g>
<g class="st0">
	<path d="M214.1,220.6c-1.1,0-1.9,1-1.9,2v1.9c0,0.4,0,0.9,0,1.3h-0.6c0-0.5,0-1.4,0-2.1v-1.4c0-0.7,0-1.5-0.1-2
		c0.2,0,0.4,0,0.5-0.1l0.1,1.5c0.3-0.7,0.9-1.5,2-1.5L214.1,220.6z"/>
	<path d="M215.8,218.7c-0.2,0-0.4-0.2-0.4-0.4c0-0.2,0.2-0.4,0.4-0.4c0.2,0,0.4,0.2,0.4,0.4C216.2,218.5,216,218.7,215.8,218.7z
		 M215.5,225.7c0-0.5,0-1.4,0-2.1v-1.3c0-0.7,0-1.6-0.1-2.1c0.2,0,0.4,0,0.6,0c0,0.1,0,1.4,0,1.5v2.8c0,0.4,0,0.9,0,1.2H215.5z"/>
</g>
<path class="st3" d="M192,138.1h36.7c1.6,0,2.9,1.3,2.9,2.9v18.4c0,1.6-1.3,2.9-2.9,2.9H192c-1.6,0-2.9-1.3-2.9-2.9v-18.4
	C189,139.5,190.4,138.1,192,138.1z"/>
<path class="st2" d="M192,99.4h36.7c1.6,0,2.9,1.3,2.9,2.9v18.4c0,1.6-1.3,2.9-2.9,2.9H192c-1.6,0-2.9-1.3-2.9-2.9v-18.4
	C189,100.7,190.4,99.4,192,99.4z"/>
<path class="st2" d="M192,60.5h36.7c1.6,0,2.9,1.3,2.9,2.9v18.4c0,1.6-1.3,2.9-2.9,2.9H192c-1.6,0-2.9-1.3-2.9-2.9V63.5
	C189,61.8,190.4,60.5,192,60.5z"/>
<line class="st4" x1="47" y1="53" x2="354" y2="53"/>
<line class="st4" x1="47" y1="92" x2="354" y2="92"/>
<line class="st4" x1="47" y1="130.5" x2="354" y2="130.5"/>
<line class="st4" x1="47" y1="169.5" x2="354" y2="169.5"/>
<line class="st4" x1="47" y1="208.5" x2="354" y2="208.5"/>
<linearGradient id="SVGID_1_" gradientUnits="userSpaceOnUse" x1="249" y1="225.5" x2="352" y2="225.5" gradientTransform="matrix(1 0 0 -1 0 262)">
	<stop  offset="0" style="stop-color:#E6E6E6"/>
	<stop  offset="1" style="stop-color:#4D4D4D"/>
</linearGradient>
<rect x="249" y="34" class="st5" width="103" height="5"/>
</svg>
