<?xml version="1.0" encoding="UTF-8"?>
<svg id="Layer_1" data-name="Layer 1" xmlns="http://www.w3.org/2000/svg" viewBox="0 0 25.64 18">
  <path d="m25.08,2.86c-.28-1.12-1.17-2.02-2.25-2.3-2.02-.56-9.98-.56-9.98-.56,0,0-8.02,0-10.03.56C1.73.84.84,1.73.56,2.86c-.56,1.97-.56,6.19-.56,6.19,0,0,0,4.17.56,6.19.28,1.12,1.17,1.97,2.25,2.25,2.02.52,10.03.52,10.03.52,0,0,7.97,0,9.98-.52,1.08-.28,1.97-1.12,2.25-2.25.56-2.02.56-6.19.56-6.19,0,0,0-4.22-.56-6.19Zm-14.86,9.98v-7.59l6.66,3.8-6.66,3.8Z" style="fill: #8e847d;"/>
</svg>